<?xml version="1.0" encoding="UTF-8" standalone="no"?><svg xmlns="http://www.w3.org/2000/svg" xmlns:xlink="http://www.w3.org/1999/xlink" clip-rule="evenodd" stroke-miterlimit="10" viewBox="0 0 217 55"><desc>SVG generated by Keynote</desc><defs></defs><g transform="matrix(1.00, 0.00, -0.00, -1.00, 0.0, 55.0)"><image xlink:href="A523B2D9FDB19DF78053EA1AEF623EA6.png" width="214.00" height="52.00" transform="matrix(1.00, 0.00, -0.00, -1.00, 1.0, 54.0)"></image><text xml:space="preserve" font-family="NeuropolXFree,Neuropol X Free" font-size="36.0" fill="#FFFFFF" transform="matrix(1.00, 0.00, -0.00, -1.00, 5.0, 22.6)">E</text><text xml:space="preserve" font-family="NeuropolXFree,Neuropol X Free" font-size="36.0" fill="#FFFFFF" transform="matrix(1.00, 0.00, -0.00, -1.00, 37.7, 22.6)">s</text><text xml:space="preserve" font-family="NeuropolXFree,Neuropol X Free" font-size="36.0" fill="#FFFFFF" transform="matrix(1.00, 0.00, -0.00, -1.00, 65.6, 22.6)">p</text><text xml:space="preserve" font-family="NeuropolXFree,Neuropol X Free" font-size="36.0" fill="#FFFFFF" transform="matrix(1.00, 0.00, -0.00, -1.00, 98.2, 22.6)">l</text><text xml:space="preserve" font-family="NeuropolXFree,Neuropol X Free" font-size="36.0" fill="#FFFFFF" transform="matrix(1.00, 0.00, -0.00, -1.00, 108.8, 22.6)">i</text><text xml:space="preserve" font-family="NeuropolXFree,Neuropol X Free" font-size="36.0" fill="#FFFFFF" transform="matrix(1.00, 0.00, -0.00, -1.00, 118.3, 22.6)">c</text><text xml:space="preserve" font-family="NeuropolXFree,Neuropol X Free" font-size="36.0" fill="#FFFFFF" transform="matrix(1.00, 0.00, -0.00, -1.00, 147.2, 22.6)">i</text><text xml:space="preserve" font-family="NeuropolXFree,Neuropol X Free" font-size="36.0" fill="#FFFFFF" transform="matrix(1.00, 0.00, -0.00, -1.00, 156.7, 22.6)">t</text><text xml:space="preserve" font-family="NeuropolXFree,Neuropol X Free" font-size="36.0" fill="#FFFFFF" transform="matrix(1.00, 0.00, -0.00, -1.00, 172.2, 22.6)">e</text></g></svg>