<?xml version="1.0" encoding="UTF-8" standalone="no"?><svg xmlns="http://www.w3.org/2000/svg" xmlns:xlink="http://www.w3.org/1999/xlink" clip-rule="evenodd" stroke-miterlimit="10" viewBox="0 0 1024 768"><desc>SVG generated by Keynote</desc><defs></defs><g transform="matrix(1.00, 0.00, -0.00, -1.00, 0.0, 768.0)"><g><clipPath id="clip0x6180022ac7e0"><path d="M 0.0 768.0 L 1024.0 768.0 L 1024.0 0.0 L 0.0 0.0 Z M 0.0 768.0 "></path></clipPath><g clip-path="url(#clip0x6180022ac7e0)"><image xlink:href="../../FA1881E0-DE93-4EBB-9222-E945B123BA90/assets/46A8BA6911C083A7C9C804E04AAECC2A.jpeg" width="1600.00" height="1200.00" transform="matrix(0.64, 0.00, -0.00, -0.64, 0.0, 768.0)"></image></g></g><image xlink:href="../../FA1881E0-DE93-4EBB-9222-E945B123BA90/assets/8808DF04879A841021389914B02EFBE0.png" width="1115.00" height="537.00" transform="matrix(0.21, 0.00, -0.00, -0.21, 36.0, 711.1)"></image><text xml:space="preserve" font-family="NeuropolXFree,Neuropol X Free" font-size="24.0" fill="#FFF4FC" transform="matrix(1.00, 0.00, -0.00, -1.00, 595.9, 81.3)">P</text><text xml:space="preserve" font-family="NeuropolXFree,Neuropol X Free" font-size="24.0" fill="#FFF4FC" transform="matrix(1.00, 0.00, -0.00, -1.00, 619.2, 81.3)">R</text><text xml:space="preserve" font-family="NeuropolXFree,Neuropol X Free" font-size="24.0" fill="#FFF4FC" transform="matrix(1.00, 0.00, -0.00, -1.00, 642.3, 81.3)">A</text><text xml:space="preserve" font-family="NeuropolXFree,Neuropol X Free" font-size="24.0" fill="#FFF4FC" transform="matrix(1.00, 0.00, -0.00, -1.00, 664.3, 81.3)">T</text><text xml:space="preserve" font-family="NeuropolXFree,Neuropol X Free" font-size="24.0" fill="#FFF4FC" transform="matrix(1.00, 0.00, -0.00, -1.00, 683.0, 81.3)">I</text><text xml:space="preserve" font-family="NeuropolXFree,Neuropol X Free" font-size="24.0" fill="#FFF4FC" transform="matrix(1.00, 0.00, -0.00, -1.00, 690.2, 81.3)">C</text><text xml:space="preserve" font-family="NeuropolXFree,Neuropol X Free" font-size="24.0" fill="#FFF4FC" transform="matrix(1.00, 0.00, -0.00, -1.00, 711.2, 81.3)">H</text><text xml:space="preserve" font-family="NeuropolXFree,Neuropol X Free" font-size="24.0" fill="#FFF4FC" transform="matrix(1.00, 0.00, -0.00, -1.00, 736.5, 81.3)">E</text><text xml:space="preserve" font-family="NeuropolXFree,Neuropol X Free" font-size="24.0" fill="#FFF4FC" transform="matrix(1.00, 0.00, -0.00, -1.00, 758.3, 81.3)"> </text><text xml:space="preserve" font-family="NeuropolXFree,Neuropol X Free" font-size="24.0" fill="#FFF4FC" transform="matrix(1.00, 0.00, -0.00, -1.00, 767.6, 81.3)">I</text><text xml:space="preserve" font-family="NeuropolXFree,Neuropol X Free" font-size="24.0" fill="#FFF4FC" transform="matrix(1.00, 0.00, -0.00, -1.00, 774.9, 81.3)">N</text><text xml:space="preserve" font-family="NeuropolXFree,Neuropol X Free" font-size="24.0" fill="#FFF4FC" transform="matrix(1.00, 0.00, -0.00, -1.00, 799.5, 81.3)">T</text><text xml:space="preserve" font-family="NeuropolXFree,Neuropol X Free" font-size="24.0" fill="#FFF4FC" transform="matrix(1.00, 0.00, -0.00, -1.00, 818.2, 81.3)">E</text><text xml:space="preserve" font-family="NeuropolXFree,Neuropol X Free" font-size="24.0" fill="#FFF4FC" transform="matrix(1.00, 0.00, -0.00, -1.00, 839.9, 81.3)">R</text><text xml:space="preserve" font-family="NeuropolXFree,Neuropol X Free" font-size="24.0" fill="#FFF4FC" transform="matrix(1.00, 0.00, -0.00, -1.00, 863.0, 81.3)">A</text><text xml:space="preserve" font-family="NeuropolXFree,Neuropol X Free" font-size="24.0" fill="#FFF4FC" transform="matrix(1.00, 0.00, -0.00, -1.00, 885.1, 81.3)">T</text><text xml:space="preserve" font-family="NeuropolXFree,Neuropol X Free" font-size="24.0" fill="#FFF4FC" transform="matrix(1.00, 0.00, -0.00, -1.00, 903.7, 81.3)">T</text><text xml:space="preserve" font-family="NeuropolXFree,Neuropol X Free" font-size="24.0" fill="#FFF4FC" transform="matrix(1.00, 0.00, -0.00, -1.00, 922.3, 81.3)">I</text><text xml:space="preserve" font-family="NeuropolXFree,Neuropol X Free" font-size="24.0" fill="#FFF4FC" transform="matrix(1.00, 0.00, -0.00, -1.00, 929.6, 81.3)">V</text><text xml:space="preserve" font-family="NeuropolXFree,Neuropol X Free" font-size="24.0" fill="#FFF4FC" transform="matrix(1.00, 0.00, -0.00, -1.00, 954.3, 81.3)">E</text><text xml:space="preserve" font-family="NeuropolXFree,Neuropol X Free" font-size="24.0" fill="#FFFFFF" transform="matrix(1.00, 0.00, -0.00, -1.00, 29.7, 81.3)">L</text><text xml:space="preserve" font-family="NeuropolXFree,Neuropol X Free" font-size="24.0" fill="#FFFFFF" transform="matrix(1.00, 0.00, -0.00, -1.00, 50.4, 81.3)">e</text><text xml:space="preserve" font-family="NeuropolXFree,Neuropol X Free" font-size="24.0" fill="#FFFFFF" transform="matrix(1.00, 0.00, -0.00, -1.00, 72.1, 81.3)">o</text><text xml:space="preserve" font-family="NeuropolXFree,Neuropol X Free" font-size="24.0" fill="#FFFFFF" transform="matrix(1.00, 0.00, -0.00, -1.00, 93.7, 81.3)">n</text><text xml:space="preserve" font-family="NeuropolXFree,Neuropol X Free" font-size="24.0" fill="#FFFFFF" transform="matrix(1.00, 0.00, -0.00, -1.00, 115.4, 81.3)">a</text><text xml:space="preserve" font-family="NeuropolXFree,Neuropol X Free" font-size="24.0" fill="#FFFFFF" transform="matrix(1.00, 0.00, -0.00, -1.00, 137.4, 81.3)">r</text><text xml:space="preserve" font-family="NeuropolXFree,Neuropol X Free" font-size="24.0" fill="#FFFFFF" transform="matrix(1.00, 0.00, -0.00, -1.00, 148.7, 81.3)">d</text><text xml:space="preserve" font-family="NeuropolXFree,Neuropol X Free" font-size="24.0" fill="#FFFFFF" transform="matrix(1.00, 0.00, -0.00, -1.00, 170.7, 81.3)">o</text><text xml:space="preserve" font-family="NeuropolXFree,Neuropol X Free" font-size="24.0" fill="#FFFFFF" transform="matrix(1.00, 0.00, -0.00, -1.00, 192.3, 81.3)"> </text><text xml:space="preserve" font-family="NeuropolXFree,Neuropol X Free" font-size="24.0" fill="#FFFFFF" transform="matrix(1.00, 0.00, -0.00, -1.00, 201.7, 81.3)">Z</text><text xml:space="preserve" font-family="NeuropolXFree,Neuropol X Free" font-size="24.0" fill="#FFFFFF" transform="matrix(1.00, 0.00, -0.00, -1.00, 222.3, 81.3)">a</text><text xml:space="preserve" font-family="NeuropolXFree,Neuropol X Free" font-size="24.0" fill="#FFFFFF" transform="matrix(1.00, 0.00, -0.00, -1.00, 244.3, 81.3)">c</text><text xml:space="preserve" font-family="NeuropolXFree,Neuropol X Free" font-size="24.0" fill="#FFFFFF" transform="matrix(1.00, 0.00, -0.00, -1.00, 263.5, 81.3)">c</text><text xml:space="preserve" font-family="NeuropolXFree,Neuropol X Free" font-size="24.0" fill="#FFFFFF" transform="matrix(1.00, 0.00, -0.00, -1.00, 282.8, 81.3)">o</text><text xml:space="preserve" font-family="NeuropolXFree,Neuropol X Free" font-size="24.0" fill="#FFFFFF" transform="matrix(1.00, 0.00, -0.00, -1.00, 304.4, 81.3)">n</text><text xml:space="preserve" font-family="NeuropolXFree,Neuropol X Free" font-size="24.0" fill="#FFFFFF" transform="matrix(1.00, 0.00, -0.00, -1.00, 326.0, 81.3)">e</text><image xlink:href="../../FA1881E0-DE93-4EBB-9222-E945B123BA90/assets/59769E4B828B616BAB7653FBDD116BC4.png" width="500.00" height="167.00" transform="matrix(0.50, 0.00, -0.00, -0.50, 283.5, 695.0)"></image><text xml:space="preserve" font-family="NeuropolXFree,Neuropol X Free" font-size="42.0" fill="#FFFFFF" transform="matrix(1.00, 0.00, -0.00, -1.00, 393.3, 167.5)">V</text><text xml:space="preserve" font-family="NeuropolXFree,Neuropol X Free" font-size="42.0" fill="#FFFFFF" transform="matrix(1.00, 0.00, -0.00, -1.00, 436.6, 167.5)">i</text><text xml:space="preserve" font-family="NeuropolXFree,Neuropol X Free" font-size="42.0" fill="#FFFFFF" transform="matrix(1.00, 0.00, -0.00, -1.00, 447.7, 167.5)">m</text><text xml:space="preserve" font-family="NeuropolXFree,Neuropol X Free" font-size="42.0" fill="#FFFFFF" transform="matrix(1.00, 0.00, -0.00, -1.00, 497.2, 167.5)">e</text><text xml:space="preserve" font-family="NeuropolXFree,Neuropol X Free" font-size="42.0" fill="#FFFFFF" transform="matrix(1.00, 0.00, -0.00, -1.00, 535.2, 167.5)">o</text><g><clipPath id="clip0x6000030b93e0"><path d="M 392.3 163.8 L 573.0 163.8 L 573.0 166.2 L 392.3 166.2 Z M 392.3 163.8 "></path></clipPath><g clip-path="url(#clip0x6000030b93e0)"><path d="M 4.5 32.0 L 184.2 32.0 " fill="none" stroke="#FFFFFF" stroke-width="0.42" transform="matrix(1.00, 0.00, 0.00, -1.00, 388.8, 197.1)"></path></g></g><image xlink:href="C6F7B2D9BC30A93E67913D5144BED0BC.png" width="150.00" height="150.00" transform="matrix(1.16, 0.00, -0.00, -1.16, 40.0, 450.0)"></image><image xlink:href="F36D243912F912090C527D73E5E7FDA1.png" width="150.00" height="150.00" transform="matrix(1.16, 0.00, -0.00, -1.16, 228.0, 450.0)"></image><image xlink:href="DFE0EEF87295FD98ACD1BD5D12A42B68.png" width="150.00" height="150.00" transform="matrix(1.16, 0.00, -0.00, -1.16, 416.0, 450.0)"></image><image xlink:href="5AA11D0CC503A0787907ED13D689480D.png" width="150.00" height="150.00" transform="matrix(1.16, 0.00, -0.00, -1.16, 610.0, 450.0)"></image><image xlink:href="38E8B0772DDB5DBA7A6B6A9573BA326F.png" width="150.00" height="150.00" transform="matrix(1.16, 0.00, -0.00, -1.16, 804.0, 450.0)"></image></g></svg>