<?xml version="1.0" encoding="UTF-8" standalone="no"?><svg xmlns="http://www.w3.org/2000/svg" xmlns:xlink="http://www.w3.org/1999/xlink" clip-rule="evenodd" stroke-miterlimit="10" viewBox="0 0 742 96"><desc>SVG generated by Keynote</desc><defs></defs><g transform="matrix(1.00, 0.00, -0.00, -1.00, 0.0, 96.0)"><image xlink:href="F2126C01900525D9A5AE4C3CB3A98685.png" width="247.00" height="46.00" transform="matrix(1.00, 0.00, -0.00, -1.00, 1.0, 88.0)"></image><text xml:space="preserve" font-family="NeuropolXFree,Neuropol X Free" font-size="36.0" fill="#FF8905" transform="matrix(1.00, 0.00, -0.00, -1.00, 5.0, 62.7)">e</text><text xml:space="preserve" font-family="NeuropolXFree,Neuropol X Free" font-size="36.0" fill="#FF8905" transform="matrix(1.00, 0.00, -0.00, -1.00, 37.8, 62.7)">s</text><text xml:space="preserve" font-family="NeuropolXFree,Neuropol X Free" font-size="36.0" fill="#FF8905" transform="matrix(1.00, 0.00, -0.00, -1.00, 65.9, 62.7)">p</text><text xml:space="preserve" font-family="NeuropolXFree,Neuropol X Free" font-size="36.0" fill="#FF8905" transform="matrix(1.00, 0.00, -0.00, -1.00, 98.8, 62.7)">r</text><text xml:space="preserve" font-family="NeuropolXFree,Neuropol X Free" font-size="36.0" fill="#FF8905" transform="matrix(1.00, 0.00, -0.00, -1.00, 115.9, 62.7)">e</text><text xml:space="preserve" font-family="NeuropolXFree,Neuropol X Free" font-size="36.0" fill="#FF8905" transform="matrix(1.00, 0.00, -0.00, -1.00, 148.7, 62.7)">s</text><text xml:space="preserve" font-family="NeuropolXFree,Neuropol X Free" font-size="36.0" fill="#FF8905" transform="matrix(1.00, 0.00, -0.00, -1.00, 176.8, 62.7)">s</text><text xml:space="preserve" font-family="NeuropolXFree,Neuropol X Free" font-size="36.0" fill="#FF8905" transform="matrix(1.00, 0.00, -0.00, -1.00, 204.5, 62.7)">e</text><text xml:space="preserve" font-family="NeuropolXFree,Neuropol X Free" font-size="36.0" fill="#FFFFFF" transform="matrix(1.00, 0.00, -0.00, -1.00, 237.0, 62.7)"> </text><text xml:space="preserve" font-family="NeuropolXFree,Neuropol X Free" font-size="36.0" fill="#FFFFFF" transform="matrix(1.00, 0.00, -0.00, -1.00, 269.1, 62.7)">e</text><text xml:space="preserve" font-family="NeuropolXFree,Neuropol X Free" font-size="36.0" fill="#FFFFFF" transform="matrix(1.00, 0.00, -0.00, -1.00, 301.7, 62.7)"> </text><text xml:space="preserve" font-family="NeuropolXFree,Neuropol X Free" font-size="36.0" fill="#FFFFFF" transform="matrix(1.00, 0.00, -0.00, -1.00, 333.8, 62.7)">r</text><text xml:space="preserve" font-family="NeuropolXFree,Neuropol X Free" font-size="36.0" fill="#FFFFFF" transform="matrix(1.00, 0.00, -0.00, -1.00, 350.9, 62.7)">e</text><text xml:space="preserve" font-family="NeuropolXFree,Neuropol X Free" font-size="36.0" fill="#FFFFFF" transform="matrix(1.00, 0.00, -0.00, -1.00, 383.7, 62.7)">g</text><text xml:space="preserve" font-family="NeuropolXFree,Neuropol X Free" font-size="36.0" fill="#FFFFFF" transform="matrix(1.00, 0.00, -0.00, -1.00, 416.6, 62.7)">o</text><text xml:space="preserve" font-family="NeuropolXFree,Neuropol X Free" font-size="36.0" fill="#FFFFFF" transform="matrix(1.00, 0.00, -0.00, -1.00, 449.3, 62.7)">l</text><text xml:space="preserve" font-family="NeuropolXFree,Neuropol X Free" font-size="36.0" fill="#FFFFFF" transform="matrix(1.00, 0.00, -0.00, -1.00, 460.0, 62.7)">e</text><text xml:space="preserve" font-family="NeuropolXFree,Neuropol X Free" font-size="36.0" fill="#FFFFFF" transform="matrix(1.00, 0.00, -0.00, -1.00, 492.6, 62.7)"> </text><image xlink:href="7DDE932D38FC90EA7F504D95DF766244.png" width="216.00" height="53.00" transform="matrix(1.00, 0.00, -0.00, -1.00, 521.0, 95.0)"></image><text xml:space="preserve" font-family="NeuropolXFree,Neuropol X Free" font-size="36.0" fill="#FF8905" transform="matrix(1.00, 0.00, -0.00, -1.00, 524.7, 62.7)">e</text><text xml:space="preserve" font-family="NeuropolXFree,Neuropol X Free" font-size="36.0" fill="#FF8905" transform="matrix(1.00, 0.00, -0.00, -1.00, 557.4, 62.7)">s</text><text xml:space="preserve" font-family="NeuropolXFree,Neuropol X Free" font-size="36.0" fill="#FF8905" transform="matrix(1.00, 0.00, -0.00, -1.00, 585.5, 62.7)">p</text><text xml:space="preserve" font-family="NeuropolXFree,Neuropol X Free" font-size="36.0" fill="#FF8905" transform="matrix(1.00, 0.00, -0.00, -1.00, 618.4, 62.7)">l</text><text xml:space="preserve" font-family="NeuropolXFree,Neuropol X Free" font-size="36.0" fill="#FF8905" transform="matrix(1.00, 0.00, -0.00, -1.00, 629.2, 62.7)">i</text><text xml:space="preserve" font-family="NeuropolXFree,Neuropol X Free" font-size="36.0" fill="#FF8905" transform="matrix(1.00, 0.00, -0.00, -1.00, 638.9, 62.7)">c</text><text xml:space="preserve" font-family="NeuropolXFree,Neuropol X Free" font-size="36.0" fill="#FF8905" transform="matrix(1.00, 0.00, -0.00, -1.00, 668.0, 62.7)">i</text><text xml:space="preserve" font-family="NeuropolXFree,Neuropol X Free" font-size="36.0" fill="#FF8905" transform="matrix(1.00, 0.00, -0.00, -1.00, 677.7, 62.7)">t</text><text xml:space="preserve" font-family="NeuropolXFree,Neuropol X Free" font-size="36.0" fill="#FF8905" transform="matrix(1.00, 0.00, -0.00, -1.00, 693.5, 62.7)">e</text><text xml:space="preserve" font-family="NeuropolXFree,Neuropol X Free" font-size="36.0" fill="#FF8905" transform="matrix(1.00, 0.00, -0.00, -1.00, 726.0, 62.7)"> </text><text xml:space="preserve" font-family="NeuropolXFree,Neuropol X Free" font-size="36.0" fill="#FFFFFF" transform="matrix(1.00, 0.00, -0.00, -1.00, 5.0, 21.5)">d</text><text xml:space="preserve" font-family="NeuropolXFree,Neuropol X Free" font-size="36.0" fill="#FFFFFF" transform="matrix(1.00, 0.00, -0.00, -1.00, 38.0, 21.5)">i</text><text xml:space="preserve" font-family="NeuropolXFree,Neuropol X Free" font-size="36.0" fill="#FFFFFF" transform="matrix(1.00, 0.00, -0.00, -1.00, 47.6, 21.5)">s</text><text xml:space="preserve" font-family="NeuropolXFree,Neuropol X Free" font-size="36.0" fill="#FFFFFF" transform="matrix(1.00, 0.00, -0.00, -1.00, 75.5, 21.5)">t</text><text xml:space="preserve" font-family="NeuropolXFree,Neuropol X Free" font-size="36.0" fill="#FFFFFF" transform="matrix(1.00, 0.00, -0.00, -1.00, 92.3, 21.5)">i</text><text xml:space="preserve" font-family="NeuropolXFree,Neuropol X Free" font-size="36.0" fill="#FFFFFF" transform="matrix(1.00, 0.00, -0.00, -1.00, 101.8, 21.5)">n</text><text xml:space="preserve" font-family="NeuropolXFree,Neuropol X Free" font-size="36.0" fill="#FFFFFF" transform="matrix(1.00, 0.00, -0.00, -1.00, 134.2, 21.5)">g</text><text xml:space="preserve" font-family="NeuropolXFree,Neuropol X Free" font-size="36.0" fill="#FFFFFF" transform="matrix(1.00, 0.00, -0.00, -1.00, 166.9, 21.5)">u</text><text xml:space="preserve" font-family="NeuropolXFree,Neuropol X Free" font-size="36.0" fill="#FFFFFF" transform="matrix(1.00, 0.00, -0.00, -1.00, 200.0, 21.5)">e</text></g></svg>