<?xml version="1.0" encoding="UTF-8" standalone="no"?><svg xmlns="http://www.w3.org/2000/svg" xmlns:xlink="http://www.w3.org/1999/xlink" clip-rule="evenodd" stroke-miterlimit="10" viewBox="0 0 742 213"><desc>SVG generated by Keynote</desc><defs></defs><g transform="matrix(1.00, 0.00, -0.00, -1.00, 0.0, 213.0)"><path d="M 740.9 93.6 C 740.9 92.2 740.8 90.7 740.8 88.3 C 740.8 89.3 740.7 90.2 740.7 90.0 C 740.7 92.1 740.7 94.8 740.7 99.0 C 740.8 98.8 740.8 96.7 740.8 95.3 C 740.8 93.6 740.9 94.0 740.9 93.6 C 740.9 93.6 740.9 93.6 740.9 93.6 Z M 339.3 2.3 C 342.9 2.3 339.0 2.1 337.6 2.1 C 337.5 2.1 337.3 2.1 336.0 2.1 C 335.6 2.0 338.6 1.9 341.0 1.9 C 350.6 2.0 343.6 2.3 339.3 2.3 C 339.3 2.3 339.3 2.3 339.3 2.3 Z M 1.6 128.3 C 1.6 135.9 1.8 127.9 1.9 126.7 C 1.9 130.3 2.2 127.5 2.2 132.1 C 2.1 132.9 2.1 134.6 2.0 135.4 C 2.0 133.4 2.0 130.5 1.9 130.1 C 1.9 132.8 2.0 136.6 1.9 137.0 C 1.8 131.1 1.7 136.0 1.6 136.9 C 1.6 131.7 1.4 129.9 1.6 128.3 C 1.6 128.3 1.6 128.3 1.6 128.3 Z M 307.2 210.3 C 305.0 210.3 303.1 210.2 303.6 210.1 C 306.0 210.1 307.5 210.2 308.8 210.2 C 309.1 210.1 308.4 210.0 310.4 210.0 C 312.8 210.2 311.8 210.4 310.6 210.5 C 310.4 210.4 302.7 210.4 307.2 210.3 C 307.2 210.3 307.2 210.3 307.2 210.3 Z M 501.5 210.0 C 508.1 210.1 501.7 209.7 508.3 209.8 C 508.2 209.9 509.4 210.1 505.0 210.1 C 504.6 210.1 502.1 210.0 501.5 210.0 C 501.5 210.0 501.5 210.0 501.5 210.0 Z M 72.7 3.8 C 72.6 3.6 68.0 3.7 69.0 3.5 C 71.4 3.5 73.5 3.5 75.9 3.5 C 76.5 3.7 75.7 3.7 72.7 3.8 C 72.7 3.8 72.7 3.8 72.7 3.8 Z M 3.4 180.7 C 3.2 188.6 3.5 197.0 3.3 194.5 C 3.1 197.5 2.8 188.9 3.0 189.2 C 3.2 188.4 3.4 174.5 3.4 180.7 C 3.4 180.7 3.4 180.7 3.4 180.7 Z M 300.2 5.4 C 291.9 5.2 293.7 5.7 288.3 5.5 C 290.2 5.5 291.0 5.4 291.6 5.4 C 290.3 5.4 288.3 5.4 288.3 5.3 C 292.1 5.3 296.8 5.2 300.2 5.4 C 300.2 5.4 300.2 5.4 300.2 5.4 Z M 738.1 210.7 C 736.7 210.8 736.1 210.8 736.3 210.9 C 730.9 210.8 731.3 211.0 727.8 210.9 C 727.4 210.6 732.0 210.7 736.2 210.7 C 736.4 210.7 737.7 210.7 738.1 210.7 C 738.1 210.7 738.1 210.7 738.1 210.7 Z M 585.9 210.1 C 586.2 210.2 589.4 210.3 584.4 210.3 C 578.5 210.1 583.4 210.0 589.2 209.8 C 589.1 209.8 589.1 209.7 589.0 209.6 C 586.7 209.6 585.1 209.6 583.8 209.5 C 583.0 209.8 578.7 209.3 570.0 209.5 C 574.1 209.4 569.4 209.1 575.0 209.2 C 573.3 209.1 577.2 209.1 576.4 208.9 C 574.2 209.0 568.3 209.0 569.8 209.2 C 566.8 209.3 564.4 209.2 562.9 209.2 C 560.5 209.0 568.4 209.1 566.0 208.9 C 564.4 208.9 564.0 208.9 562.6 208.9 C 562.4 209.0 563.1 209.1 561.1 209.1 C 555.5 209.0 561.9 208.8 554.0 208.8 C 553.6 208.9 556.0 209.0 555.9 209.1 C 552.5 209.2 552.5 209.0 549.1 209.1 C 548.3 209.0 551.5 209.0 548.9 208.9 C 547.0 209.2 541.6 208.8 536.9 209.0 C 540.6 209.4 536.0 208.9 531.9 209.3 C 530.9 209.2 533.9 209.0 530.0 208.9 C 531.7 209.4 516.2 209.3 528.8 209.7 C 522.3 209.7 520.4 210.0 525.6 210.1 C 514.1 210.0 518.0 210.2 513.7 210.3 C 509.3 210.2 515.9 210.2 513.5 210.0 C 518.2 210.0 516.9 209.9 520.4 210.0 C 520.3 209.9 521.1 209.9 522.1 209.8 C 517.5 210.0 511.8 209.7 515.0 209.5 C 517.3 209.5 515.3 209.7 518.5 209.7 C 517.1 209.5 521.9 209.8 521.9 209.6 C 519.6 209.4 526.1 209.2 519.7 209.1 C 519.8 209.2 519.9 209.3 519.9 209.4 C 518.3 209.4 516.6 209.4 514.9 209.4 C 513.3 209.2 514.4 209.1 512.8 209.1 C 510.0 209.1 508.5 209.1 507.7 209.2 C 511.3 209.2 515.6 209.4 509.7 209.4 C 511.7 209.1 501.4 209.3 506.0 209.1 C 499.5 209.0 496.6 209.3 495.7 209.1 C 492.4 209.1 494.7 209.3 490.7 209.2 C 484.2 209.1 485.5 209.3 476.9 209.2 C 476.1 209.5 476.0 209.1 473.3 209.1 C 473.4 209.2 473.4 209.3 473.5 209.4 C 470.4 209.3 463.5 209.2 456.4 209.4 C 454.5 209.3 455.7 209.1 451.1 209.2 C 446.2 209.4 440.0 209.2 434.1 209.4 C 433.5 209.3 429.3 209.3 427.2 209.4 C 426.1 209.3 429.0 209.1 425.2 209.1 C 422.8 209.2 427.3 209.3 422.0 209.4 C 422.4 209.2 417.0 209.5 416.8 209.3 C 418.4 209.2 420.2 209.2 421.9 209.1 C 419.5 209.1 420.1 209.0 418.3 209.0 C 418.7 209.3 414.4 209.0 413.1 209.0 C 413.3 209.1 412.8 209.2 411.5 209.2 C 408.5 209.2 406.2 209.3 404.7 209.3 C 400.8 209.2 406.8 209.2 402.9 209.1 C 401.3 209.6 397.2 209.1 389.3 209.4 C 387.4 209.2 384.0 209.1 378.8 209.1 C 378.3 209.3 383.8 209.2 384.1 209.3 C 376.5 209.3 385.5 209.4 380.6 209.4 C 369.8 209.3 362.8 209.3 351.3 209.2 C 351.5 209.3 342.7 209.4 342.9 209.4 C 345.2 209.3 337.9 209.1 334.2 209.1 C 333.3 209.4 327.7 209.7 327.5 209.8 C 326.1 209.7 326.4 209.7 325.6 209.4 C 319.2 209.3 316.0 209.6 311.8 209.3 C 312.2 209.5 309.2 209.5 306.7 209.5 C 307.3 209.4 308.8 209.3 310.1 209.2 C 306.7 209.2 306.2 209.1 303.2 209.1 C 300.4 209.6 295.1 209.0 292.9 209.5 C 288.1 209.5 288.8 209.3 284.3 209.3 C 284.5 209.4 284.0 209.5 282.7 209.5 C 285.7 209.5 287.8 209.3 289.6 209.5 C 282.9 209.6 302.4 210.0 291.6 210.3 C 291.2 210.2 292.1 210.0 289.8 210.0 C 283.6 210.1 287.4 210.3 289.9 210.3 C 285.7 210.4 281.3 210.3 284.8 210.5 C 275.2 210.6 281.2 210.4 277.8 210.3 C 260.7 210.5 239.3 210.5 215.9 210.3 C 215.1 210.6 202.6 210.3 198.5 210.2 C 192.0 210.4 185.2 210.4 183.1 210.2 C 182.0 210.4 175.0 210.1 174.4 210.3 C 177.2 210.2 179.1 210.3 176.3 210.4 C 166.7 210.3 152.4 210.2 146.9 210.4 C 143.5 210.1 137.3 210.2 133.1 210.3 C 132.4 210.2 135.8 210.2 133.1 210.1 C 132.3 210.3 123.4 210.4 121.2 210.3 C 123.9 210.3 126.8 210.0 122.8 210.0 C 122.8 210.1 118.1 210.1 119.3 210.3 C 113.6 210.2 110.3 210.3 105.6 210.2 C 109.4 210.2 111.7 210.1 112.4 210.0 C 109.1 210.1 106.6 210.1 103.8 210.0 C 104.6 210.2 99.2 210.1 93.6 210.2 C 92.1 210.1 90.9 210.0 86.6 210.0 C 84.4 210.2 93.5 210.2 88.4 210.3 C 88.4 210.2 83.7 210.1 84.9 210.3 C 79.0 210.2 75.9 210.3 71.1 210.1 C 77.2 210.2 72.6 209.9 71.1 209.9 C 69.8 209.9 67.8 209.9 67.8 210.0 C 67.8 210.0 70.8 210.0 71.1 210.1 C 66.9 210.0 65.8 210.3 64.3 210.1 C 66.1 210.1 66.4 210.0 64.2 210.0 C 63.8 210.3 51.5 210.1 55.7 210.0 C 55.7 210.0 60.4 210.0 60.9 210.0 C 59.5 209.9 52.5 210.0 54.0 209.8 C 58.0 209.8 57.7 209.9 62.6 209.8 C 63.0 209.7 65.9 209.7 67.7 209.6 C 60.0 209.6 58.4 209.8 57.3 209.6 C 54.0 209.6 56.0 209.8 50.5 209.8 C 42.6 209.7 49.1 209.5 47.1 209.5 C 40.1 209.6 42.3 209.8 45.3 210.0 C 39.7 210.0 38.1 210.1 31.5 210.1 C 31.9 210.0 32.7 209.9 35.0 209.8 C 35.2 209.9 40.8 210.0 40.2 209.9 C 39.7 209.6 35.2 209.5 28.1 209.5 C 29.8 209.7 30.0 209.6 23.0 209.6 C 24.1 209.9 19.6 209.6 19.4 209.7 C 19.8 209.8 22.3 209.8 24.6 209.8 C 24.5 209.9 23.6 210.0 21.3 210.0 C 19.8 209.9 18.6 210.0 14.4 210.0 C 14.1 209.8 17.1 209.8 17.8 209.7 C 15.4 209.7 14.9 209.8 12.6 209.8 C 10.5 209.6 10.7 209.4 10.9 209.1 C 13.6 209.1 17.7 209.1 14.4 208.9 C 24.4 208.9 13.9 209.2 17.7 209.2 C 21.9 209.0 19.6 209.3 26.3 209.3 C 28.3 209.3 29.0 209.2 29.8 209.2 C 29.3 209.1 25.4 208.9 29.8 208.9 C 30.8 209.1 33.2 209.1 36.7 209.2 C 36.7 209.1 29.5 209.0 36.7 209.0 C 40.2 209.0 37.0 209.3 41.9 209.2 C 41.9 209.2 43.2 209.2 43.6 209.1 C 36.5 209.1 44.9 209.0 40.2 208.9 C 46.2 208.8 41.2 209.1 45.2 209.1 C 45.4 208.9 51.9 209.2 52.1 208.9 C 49.6 209.0 44.6 209.0 45.2 208.8 C 49.7 208.9 70.7 208.7 62.5 209.0 C 65.5 208.9 80.7 208.6 79.6 208.8 C 75.0 208.7 75.2 208.9 74.6 209.0 C 83.1 208.8 87.5 208.9 96.8 208.7 C 86.6 208.7 94.2 208.4 88.2 208.2 C 85.5 208.2 81.8 208.2 81.2 208.3 C 82.4 208.5 86.5 208.4 88.2 208.3 C 88.2 208.4 88.2 208.6 88.3 208.8 C 77.0 208.6 71.0 208.8 65.8 208.7 C 70.3 208.7 57.3 208.4 62.4 208.4 C 64.6 208.5 70.0 208.5 74.5 208.6 C 74.5 208.5 74.5 208.5 74.5 208.4 C 76.5 208.4 79.4 208.4 79.5 208.3 C 73.3 208.4 70.0 208.2 65.8 208.3 C 65.8 208.3 65.8 208.3 65.8 208.2 C 64.8 208.2 63.8 208.2 64.1 208.2 C 66.1 208.2 68.9 208.2 69.3 208.1 C 64.8 208.1 63.9 207.9 58.9 207.9 C 60.0 207.6 53.3 207.4 60.7 207.3 C 61.9 207.5 65.9 207.6 65.7 207.7 C 67.9 207.8 72.3 207.7 74.4 207.6 C 72.2 207.5 67.9 207.4 67.5 207.3 C 71.0 207.2 73.9 207.2 76.1 207.3 C 68.7 207.4 80.1 207.5 83.0 207.7 C 82.1 207.6 80.4 207.5 79.4 207.4 C 85.1 207.4 87.8 207.6 88.1 207.3 C 94.9 207.2 93.5 207.5 98.3 207.4 C 95.1 207.2 101.5 207.3 98.3 207.1 C 106.3 207.0 100.6 207.3 103.5 207.3 C 106.0 207.3 106.3 207.2 108.6 207.2 C 112.3 207.3 119.7 207.3 120.7 207.6 C 123.9 207.5 124.4 207.6 127.6 207.6 C 128.4 207.6 129.4 207.5 130.9 207.4 C 131.4 207.5 133.8 207.6 134.4 207.5 C 125.5 207.2 128.0 207.2 118.8 207.0 C 118.2 207.1 116.8 207.1 118.8 207.2 C 112.5 207.2 110.6 207.1 105.1 207.1 C 104.4 207.0 103.2 206.7 98.2 206.9 C 99.4 206.7 98.0 206.7 100.0 206.6 C 102.7 206.7 106.4 206.8 110.3 206.8 C 110.6 206.8 109.9 206.7 111.9 206.7 C 113.8 206.8 116.6 206.8 118.9 206.7 C 119.0 206.8 118.1 206.9 117.1 206.9 C 125.7 207.0 122.6 206.7 129.2 206.8 C 128.1 206.7 124.0 206.7 127.4 206.6 C 133.3 206.6 134.6 206.7 137.7 206.7 C 138.1 206.7 137.8 206.6 139.5 206.6 C 143.7 206.7 130.3 207.0 137.7 207.2 C 138.2 207.0 145.4 207.1 146.4 207.2 C 144.1 207.4 139.9 207.1 139.6 207.3 C 152.6 207.3 140.0 207.5 153.4 207.6 C 153.4 207.5 153.3 207.5 153.3 207.4 C 148.0 207.4 147.8 207.3 148.1 207.1 C 143.4 207.1 141.5 206.8 137.7 207.0 C 139.1 206.6 141.5 206.9 146.4 207.0 C 146.2 206.8 141.8 206.8 141.1 206.6 C 152.2 206.8 154.5 206.5 165.1 206.8 C 162.5 206.6 170.9 206.7 170.2 206.6 C 161.0 206.6 164.8 206.1 163.2 206.1 C 157.2 206.1 160.0 206.4 156.5 206.5 C 154.8 206.4 155.6 206.3 156.4 206.0 C 161.7 206.1 160.9 206.0 165.0 205.9 C 168.6 206.1 171.7 206.4 166.8 206.5 C 167.8 206.5 174.8 206.4 175.4 206.5 C 168.7 206.5 176.1 206.6 172.1 206.7 C 177.3 206.8 186.4 206.6 192.6 206.8 C 192.1 206.7 194.4 206.6 194.2 206.5 C 187.9 206.7 186.7 206.3 180.5 206.3 C 183.2 206.3 181.6 206.2 180.4 206.1 C 186.5 206.2 189.8 206.1 194.2 206.2 C 194.1 206.2 194.1 206.1 194.1 206.1 C 201.5 206.2 200.5 206.1 206.1 206.0 C 208.3 206.1 205.4 206.4 204.6 206.6 C 207.3 206.5 217.1 206.6 211.4 206.4 C 217.2 206.4 215.8 206.6 221.6 206.6 C 221.8 206.4 216.3 206.4 218.2 206.2 C 223.7 206.1 220.6 206.4 225.0 206.2 C 225.3 206.4 225.5 206.6 230.1 206.5 C 226.8 206.4 230.6 206.5 231.9 206.4 C 229.8 206.3 227.9 206.3 226.7 206.2 C 235.2 206.3 236.9 206.3 243.7 206.2 C 241.3 206.4 245.2 206.5 240.5 206.6 C 244.8 206.5 250.2 206.7 252.6 206.6 C 249.9 206.5 245.5 206.5 243.8 206.4 C 257.5 206.4 264.6 206.1 276.4 206.4 C 274.4 206.4 271.5 206.4 271.2 206.5 C 272.6 206.5 274.7 206.5 274.7 206.5 C 270.6 206.5 266.6 206.5 264.4 206.6 C 260.7 206.5 266.5 206.5 262.7 206.4 C 262.0 206.5 254.8 206.4 257.6 206.7 C 264.0 206.5 270.3 206.7 273.2 207.0 C 279.1 206.6 273.4 206.6 279.8 206.3 C 279.7 206.4 281.2 206.5 283.2 206.5 C 281.1 206.2 289.2 206.4 290.0 206.4 C 287.1 206.5 275.8 206.6 281.7 206.8 C 278.9 206.4 295.0 207.0 291.8 206.6 C 299.1 206.6 296.6 206.8 300.5 206.6 C 300.7 206.7 300.2 206.8 302.2 206.8 C 304.2 206.8 304.9 206.7 305.7 206.7 C 295.5 206.6 298.4 206.3 291.7 206.3 C 292.9 206.3 293.9 206.3 293.5 206.2 C 293.5 206.2 293.6 206.2 295.1 206.2 C 295.7 206.4 300.5 206.1 302.0 206.3 C 300.0 206.3 298.0 206.3 298.7 206.4 C 307.2 206.4 305.8 206.6 317.6 206.7 C 314.0 206.6 318.7 206.6 322.7 206.5 C 328.4 206.6 326.3 206.9 333.2 206.8 C 332.3 206.4 340.4 206.9 348.4 206.6 C 347.7 206.8 358.4 206.9 360.5 206.7 C 360.9 206.8 364.7 206.8 367.4 206.8 C 368.1 206.9 365.0 206.9 367.5 207.0 C 369.8 206.9 367.5 206.7 370.7 206.7 C 374.4 206.8 373.8 207.0 379.3 207.0 C 379.4 206.8 376.4 206.8 379.2 206.7 C 384.1 206.8 388.4 206.8 384.3 206.6 C 391.5 206.6 388.2 206.9 394.9 206.9 C 392.8 206.8 392.9 206.8 396.4 206.7 C 399.0 206.9 399.2 206.9 400.1 207.0 C 402.0 206.9 401.3 206.8 406.9 206.9 C 406.8 206.8 406.8 206.7 406.8 206.7 C 409.3 206.7 412.9 206.6 413.6 206.7 C 408.9 206.7 410.4 206.8 408.6 206.9 C 413.3 206.9 422.4 207.1 415.4 206.9 C 421.9 206.8 418.8 207.1 424.0 207.0 C 420.7 206.8 423.8 207.0 429.1 207.0 C 428.5 206.7 432.6 206.9 436.0 206.9 C 435.4 206.8 436.2 206.7 439.2 206.7 C 439.1 206.8 441.1 206.8 444.4 206.8 C 444.4 206.7 437.1 206.6 444.3 206.6 C 447.7 206.7 447.8 206.9 453.2 206.9 C 454.5 207.1 448.4 207.0 449.8 207.2 C 454.1 207.0 455.5 207.2 461.9 207.2 C 459.2 206.9 474.3 206.8 466.7 206.6 C 468.9 206.6 471.7 206.4 473.5 206.5 C 471.2 206.6 475.5 206.7 475.3 206.8 C 478.3 206.7 485.4 206.9 485.5 206.7 C 479.0 206.8 478.9 206.6 476.8 206.5 C 486.3 206.4 494.7 206.5 494.1 206.7 C 494.1 206.6 495.4 206.6 495.7 206.5 C 492.4 206.6 490.0 206.3 493.8 206.2 C 493.1 206.4 496.0 206.5 499.1 206.5 C 499.1 206.4 511.8 206.6 509.3 206.4 C 504.4 206.5 500.2 206.2 503.9 206.1 C 507.2 206.3 514.1 206.4 512.7 206.5 C 514.5 206.5 516.2 206.4 517.8 206.4 C 519.2 206.2 515.4 206.2 515.9 206.1 C 518.4 206.1 522.2 206.0 522.8 206.1 C 516.0 206.1 526.4 206.2 519.5 206.4 C 523.8 206.3 524.9 206.5 528.2 206.5 C 528.2 206.4 529.5 206.4 529.8 206.4 C 526.9 206.5 523.8 206.4 524.5 206.2 C 530.7 206.1 529.8 206.4 535.0 206.4 C 536.4 206.2 543.2 206.0 546.8 206.1 C 540.0 206.1 547.4 206.2 543.5 206.3 C 537.2 206.2 535.7 206.4 533.5 206.5 C 536.2 206.6 541.4 206.7 541.9 206.5 C 538.6 206.5 538.7 206.6 536.8 206.6 C 536.9 206.5 537.9 206.4 540.2 206.4 C 543.1 206.5 549.4 206.3 545.4 206.6 C 549.6 206.5 554.6 206.7 559.0 206.5 C 554.0 206.5 550.3 206.4 548.6 206.3 C 552.8 206.2 557.1 206.4 557.2 206.3 C 556.5 206.1 549.9 206.2 548.5 206.1 C 553.7 205.9 562.2 206.4 555.3 206.0 C 558.3 206.0 562.5 206.0 563.9 206.1 C 560.2 206.1 564.4 206.4 565.9 206.4 C 569.1 206.4 571.6 206.4 572.7 206.3 C 567.9 206.4 564.0 206.1 567.4 206.1 C 568.3 206.2 569.2 206.1 570.7 206.1 C 571.1 206.2 576.5 206.1 577.6 206.2 C 577.2 206.1 574.7 206.1 574.1 206.0 C 577.3 205.9 581.7 205.7 584.3 205.9 C 582.3 205.9 579.4 205.9 579.3 206.0 C 588.4 206.3 591.4 206.5 602.0 206.6 C 600.7 206.6 600.0 206.6 600.4 206.7 C 607.1 206.7 611.5 206.8 610.8 207.0 C 615.0 206.9 617.0 206.8 619.1 206.7 C 614.7 206.6 613.3 206.8 610.6 206.7 C 612.2 206.6 606.9 206.3 605.0 206.2 C 597.8 206.4 597.0 206.1 589.6 206.2 C 591.6 206.0 584.1 206.1 586.1 205.9 C 593.3 206.2 599.8 206.0 610.1 206.1 C 608.9 206.3 607.8 206.4 612.1 206.5 C 618.7 206.6 615.3 206.3 620.7 206.4 C 623.0 206.5 619.8 206.5 622.5 206.6 C 624.3 206.5 629.3 206.5 631.2 206.7 C 624.1 206.7 632.6 206.9 628.0 207.0 C 630.4 207.0 631.7 207.0 633.3 207.0 C 626.2 206.8 639.9 206.8 634.6 206.6 C 644.0 206.5 635.6 207.1 643.4 207.0 C 639.5 206.9 644.4 206.8 650.1 206.8 C 651.8 207.0 657.7 207.1 662.4 207.1 C 659.8 207.0 658.0 207.0 662.2 206.9 C 659.8 206.8 655.8 206.8 653.7 206.9 C 653.6 206.8 652.7 206.8 651.7 206.7 C 657.4 206.7 654.9 206.6 656.7 206.5 C 658.5 206.6 662.6 206.6 663.7 206.7 C 663.7 206.7 665.2 206.6 665.3 206.6 C 658.1 206.6 666.2 206.3 661.7 206.3 C 658.5 206.3 660.7 206.5 656.7 206.5 C 652.6 206.2 659.6 206.2 661.5 206.1 C 658.0 205.9 654.2 206.2 652.9 205.9 C 657.0 205.7 664.1 205.9 669.9 205.9 C 669.3 205.7 679.4 206.0 680.0 205.7 C 680.9 205.8 682.0 205.8 683.5 205.9 C 685.0 205.7 687.1 205.9 688.7 205.9 C 688.8 205.8 688.2 205.8 686.8 205.7 C 693.9 205.8 695.6 205.8 703.9 205.7 C 705.3 205.8 706.9 205.9 707.7 206.1 C 705.7 206.1 703.9 206.1 702.6 206.2 C 714.0 206.2 706.2 205.7 714.5 206.0 C 714.1 205.9 708.3 205.7 712.5 205.6 C 719.9 205.9 729.8 205.7 730.0 206.2 C 732.3 206.2 734.2 206.2 736.0 206.2 C 735.9 202.9 735.8 200.4 736.0 198.6 C 736.0 196.6 735.9 195.9 735.9 195.0 C 735.7 196.9 735.7 199.3 735.6 201.5 C 735.6 205.3 735.5 206.8 735.7 203.4 C 735.7 204.4 735.7 205.3 735.7 206.0 C 732.1 206.0 730.5 205.9 728.0 205.8 C 730.6 205.8 733.2 205.8 735.5 205.8 C 735.5 201.5 735.5 198.4 735.3 198.0 C 735.4 195.5 735.6 193.6 735.7 191.6 C 735.5 190.7 735.5 182.0 735.7 181.5 C 735.6 187.3 735.8 193.5 736.0 188.4 C 735.8 173.9 736.2 166.0 736.0 153.1 C 736.1 152.8 736.2 153.9 736.2 151.6 C 736.1 151.5 736.0 151.0 736.0 149.7 C 736.0 145.8 736.1 143.5 736.0 138.1 C 736.2 138.4 736.3 137.7 736.4 134.7 C 736.2 133.0 735.9 127.5 735.9 124.4 C 735.9 127.7 736.2 123.5 736.2 121.2 C 735.9 123.1 736.4 106.0 736.1 111.0 C 736.1 104.1 736.2 101.1 736.3 100.9 C 736.2 98.5 736.2 96.7 736.2 94.2 C 736.4 92.7 736.2 80.7 736.3 79.0 C 736.2 83.2 736.5 83.9 736.5 80.6 C 736.4 78.4 736.2 67.5 736.3 65.5 C 736.4 66.2 736.5 66.9 736.6 72.2 C 736.6 63.3 736.3 63.4 736.2 60.5 C 736.4 60.7 736.2 56.7 736.2 55.4 C 736.3 52.5 736.2 55.5 736.4 55.3 C 736.4 52.1 736.5 50.9 736.5 46.8 C 736.3 48.1 736.4 43.4 736.5 41.7 C 736.3 41.2 736.2 38.9 736.2 35.1 C 736.5 40.0 736.6 13.4 736.3 19.9 C 736.2 14.8 736.6 14.4 736.5 7.9 C 736.5 7.5 736.5 6.9 736.5 6.3 C 735.1 6.3 734.0 6.3 736.3 6.4 C 736.3 6.4 736.3 6.4 736.3 6.4 C 736.3 6.4 736.3 6.4 736.3 6.4 C 731.0 6.4 734.4 6.2 727.8 6.3 C 730.4 6.5 721.3 6.2 722.6 6.5 C 720.1 6.2 714.3 6.6 709.1 6.3 C 709.0 6.4 707.5 6.4 707.1 6.5 C 706.2 6.5 713.6 6.6 708.8 6.6 C 703.1 6.5 706.3 6.4 705.6 6.3 C 689.8 6.4 670.9 6.3 654.3 6.3 C 656.2 6.4 656.0 6.4 652.5 6.5 C 647.9 6.1 628.3 6.3 625.2 6.4 C 623.5 6.2 613.3 6.4 611.6 6.3 C 613.6 6.3 617.5 6.1 613.4 6.1 C 610.6 6.3 607.2 6.2 603.1 6.3 C 601.2 6.1 588.9 6.4 594.6 6.0 C 592.3 6.0 591.0 6.0 589.6 5.9 C 589.3 6.1 586.9 6.1 591.1 6.2 C 580.0 6.1 577.3 6.3 568.8 6.1 C 567.3 6.2 573.9 6.3 568.7 6.3 C 568.7 6.3 568.8 6.3 568.8 6.2 C 567.0 6.2 566.2 6.3 565.4 6.2 C 565.8 6.1 568.7 6.1 568.9 5.9 C 564.7 6.0 562.0 5.7 560.4 5.9 C 566.3 5.9 562.1 6.3 558.7 6.1 C 561.9 6.0 545.2 6.1 539.8 6.2 C 537.2 6.0 545.6 6.2 545.0 6.0 C 535.0 6.1 535.9 6.0 534.6 6.2 C 529.3 6.2 527.3 6.0 521.0 6.2 C 517.3 6.1 523.2 6.0 519.4 6.0 C 517.0 6.0 516.0 6.1 512.4 6.2 C 503.4 5.8 481.7 6.4 471.5 5.8 C 475.7 5.9 470.1 6.1 464.6 6.0 C 464.3 6.0 465.0 5.9 463.0 5.9 C 463.3 6.0 461.4 6.0 457.8 6.0 C 457.5 6.0 458.1 5.9 456.1 5.9 C 454.6 6.1 450.1 5.9 447.4 6.0 C 446.3 5.8 453.8 5.9 454.3 5.7 C 445.5 5.6 444.0 5.8 437.3 5.7 C 440.8 5.7 434.8 5.6 433.8 5.5 C 435.3 5.7 430.0 5.8 433.8 5.9 C 431.3 5.9 427.4 5.9 426.9 5.9 C 428.3 5.8 430.4 5.9 430.5 5.8 C 427.3 5.8 423.3 5.6 421.8 5.8 C 423.9 5.8 425.3 5.9 425.3 6.0 C 424.4 6.1 423.4 6.1 421.7 6.2 C 426.6 5.7 412.4 5.9 411.6 6.0 C 410.3 5.7 409.4 5.7 409.9 5.6 C 403.9 5.6 404.7 5.8 401.2 5.9 C 402.3 5.6 403.4 5.5 397.9 5.4 C 399.1 5.6 392.4 5.6 394.4 5.9 C 380.2 5.9 377.2 5.7 368.7 5.7 C 368.5 5.7 371.2 5.8 368.7 5.8 C 364.7 5.7 361.2 5.7 358.5 5.6 C 356.3 5.7 359.3 5.7 356.8 5.8 C 350.5 5.6 352.0 5.4 346.5 5.3 C 339.6 5.4 342.1 5.3 337.9 5.5 C 339.8 5.5 342.1 5.6 339.6 5.6 C 335.4 5.4 333.7 5.2 332.7 5.2 C 335.7 5.2 338.1 5.2 339.6 5.3 C 340.6 5.1 344.8 5.1 341.3 5.0 C 345.6 5.1 350.5 5.1 356.8 5.1 C 354.6 4.9 362.3 5.0 360.1 4.8 C 353.1 4.9 351.4 4.7 344.7 4.8 C 346.3 5.0 339.2 4.9 337.9 4.8 C 337.9 5.0 333.2 4.9 334.4 5.1 C 329.2 5.1 329.4 5.0 324.2 5.0 C 323.8 4.9 324.5 4.8 322.5 4.8 C 320.7 5.0 319.0 4.8 317.3 4.8 C 318.5 5.0 310.9 4.9 310.5 5.0 C 312.5 5.0 315.3 5.0 315.7 5.1 C 307.3 5.1 314.0 5.2 315.7 5.4 C 315.4 5.3 318.3 5.0 319.0 5.2 C 312.0 5.3 328.9 5.5 322.6 5.4 C 317.2 5.4 317.6 5.5 312.2 5.5 C 305.8 5.2 313.3 5.0 306.9 4.7 C 303.1 4.9 300.4 4.8 300.1 5.0 C 299.2 4.9 298.2 4.9 296.7 4.8 C 295.1 4.9 301.8 5.0 296.8 5.1 C 294.1 5.0 297.0 4.8 291.5 4.8 C 289.2 5.0 298.3 5.0 293.3 5.1 C 287.8 4.8 294.4 5.2 288.3 5.2 C 287.7 5.1 286.7 5.1 284.7 5.1 C 284.4 5.0 285.2 4.9 283.0 4.9 C 281.9 5.2 280.6 4.8 276.1 4.8 C 273.7 5.1 280.8 4.9 279.6 5.1 C 274.3 4.9 271.4 5.2 269.3 5.1 C 273.5 5.0 262.8 5.0 262.4 4.8 C 263.6 5.0 261.3 4.9 255.5 5.1 C 255.0 4.8 248.4 5.0 246.8 4.8 C 246.0 4.9 244.4 4.9 243.6 5.0 C 245.6 5.0 247.6 5.0 246.9 5.1 C 245.3 5.1 243.6 5.1 241.8 5.1 C 238.9 5.0 246.1 4.6 234.7 4.7 C 236.2 4.9 231.3 4.9 228.2 5.0 C 228.6 5.2 232.7 5.0 233.2 5.1 C 229.4 5.3 225.4 5.1 223.0 5.0 C 216.3 5.1 208.4 5.0 198.9 5.1 C 196.7 4.9 206.9 4.9 200.5 4.8 C 197.8 4.8 199.2 5.0 195.5 5.0 C 198.5 4.2 169.7 4.8 167.6 4.5 C 166.6 4.6 158.3 4.5 159.3 4.8 C 164.7 4.6 168.7 4.8 171.4 5.0 C 176.6 4.9 166.6 4.8 171.3 4.7 C 171.9 4.8 178.8 4.7 178.2 4.9 C 170.9 4.9 182.2 5.1 176.8 5.3 C 169.9 5.2 156.5 5.4 159.5 5.2 C 159.5 5.3 162.6 5.3 162.9 5.2 C 155.1 5.1 150.7 5.3 147.6 5.4 C 144.0 5.2 130.4 5.5 133.9 5.4 C 132.6 5.2 142.1 5.4 140.7 5.3 C 126.4 5.2 126.2 5.3 116.7 5.2 C 119.9 5.4 107.1 5.5 108.2 5.4 C 108.1 5.3 105.1 5.1 99.6 5.3 C 100.3 5.1 97.2 5.1 94.2 5.0 C 93.0 5.2 96.8 5.2 96.2 5.3 C 93.4 5.3 90.4 5.3 87.5 5.3 C 87.3 5.2 87.7 5.1 85.7 5.1 C 82.6 5.2 71.2 5.4 72.2 5.3 C 76.8 5.1 64.1 5.1 71.9 5.0 C 69.7 5.0 69.5 4.9 66.6 4.9 C 66.7 5.0 66.8 5.1 66.8 5.1 C 60.5 5.2 63.4 4.8 58.0 4.8 C 57.6 4.9 55.3 4.9 54.7 5.0 C 56.9 5.0 57.0 4.9 59.8 5.0 C 56.9 5.3 65.6 5.1 65.3 5.3 C 59.3 5.3 59.2 5.2 56.6 5.1 C 49.2 5.2 52.6 5.1 44.5 5.1 C 44.6 5.2 46.8 5.2 46.4 5.3 C 36.6 5.2 37.3 4.8 30.7 5.0 C 32.2 4.9 38.1 4.8 33.9 4.8 C 29.5 4.9 28.3 5.1 22.3 5.1 C 21.9 5.0 22.3 4.9 20.3 4.9 C 17.8 5.0 17.8 5.1 15.5 5.2 C 15.0 5.1 11.7 5.2 10.4 5.2 C 8.0 5.0 11.0 5.0 8.3 5.0 C 6.7 5.0 5.5 5.0 4.3 5.1 C 4.4 7.9 4.6 10.3 4.6 13.1 C 4.3 12.7 4.4 17.5 4.5 21.7 C 4.2 22.1 4.3 31.0 4.2 36.8 C 4.4 35.7 4.3 41.6 4.5 40.4 C 4.5 37.6 4.6 36.1 4.6 35.5 C 4.7 42.2 4.3 43.9 4.6 49.2 C 4.4 51.6 4.3 54.7 4.3 59.1 C 4.4 59.7 4.5 51.2 4.5 56.0 C 4.4 56.2 4.5 57.8 4.5 59.3 C 4.3 58.5 4.3 62.1 4.2 64.2 C 4.3 68.3 4.0 76.5 4.3 72.8 C 4.3 79.2 4.0 74.8 4.0 79.7 C 4.2 77.3 4.3 85.7 4.4 81.6 C 4.5 88.2 4.1 87.5 4.0 84.7 C 4.0 90.7 4.2 92.2 4.0 95.1 C 4.2 92.4 4.3 101.6 4.2 96.9 C 4.0 95.3 4.1 102.4 4.0 103.6 C 4.2 101.5 4.2 104.7 4.3 100.4 C 4.3 105.0 4.4 111.7 4.2 115.8 C 4.3 121.5 4.3 126.8 4.1 124.3 C 4.1 129.6 4.1 127.6 4.1 133.0 C 4.2 133.0 4.2 131.5 4.2 131.2 C 4.2 138.5 4.1 137.0 4.1 146.7 C 3.9 145.4 3.9 151.6 3.7 153.4 C 3.8 149.4 3.8 146.3 3.9 143.1 C 3.8 142.4 3.7 145.6 3.7 143.0 C 3.7 142.7 3.8 141.2 3.8 139.7 C 3.6 145.9 3.5 131.6 3.7 136.2 C 3.6 136.1 3.6 136.5 3.6 137.8 C 3.8 136.7 3.7 136.7 3.9 137.9 C 3.9 134.7 4.1 132.3 3.9 131.1 C 3.8 131.2 3.9 134.2 3.8 134.5 C 3.7 126.6 4.0 132.3 4.0 126.1 C 3.8 124.6 3.7 127.8 3.6 129.3 C 3.6 123.5 3.6 118.7 3.7 117.2 C 3.7 112.0 3.6 117.5 3.5 113.8 C 3.6 112.0 3.7 112.2 3.7 108.7 C 3.7 104.8 3.6 110.8 3.6 106.9 C 3.7 102.8 3.8 109.9 3.9 103.6 C 3.6 104.9 3.9 97.9 3.7 98.3 C 3.8 102.0 3.5 101.9 3.7 100.1 C 3.9 91.9 3.2 85.6 3.7 77.6 C 3.6 77.6 3.6 76.2 3.6 75.9 C 3.4 82.0 3.4 91.2 3.1 92.8 C 3.2 97.8 3.4 97.3 3.4 98.1 C 3.2 103.9 3.2 103.4 2.9 99.7 C 2.9 89.7 3.0 85.6 3.1 79.1 C 2.9 75.5 3.0 79.4 2.9 80.7 C 3.1 60.5 2.5 75.6 2.6 68.3 C 2.7 68.6 2.7 67.1 2.8 65.1 C 2.7 65.0 2.7 62.0 2.7 61.5 C 2.6 62.8 2.6 63.5 2.5 63.1 C 2.5 58.0 2.7 60.1 2.8 59.9 C 2.8 63.7 2.8 66.3 2.9 66.9 C 2.8 61.8 3.0 58.0 2.8 54.7 C 3.0 50.1 3.3 57.6 3.5 55.2 C 3.6 56.1 3.0 51.7 3.0 47.9 C 3.0 41.7 2.8 41.3 2.8 35.6 C 3.0 34.3 2.9 41.4 3.0 41.0 C 3.0 39.4 3.1 39.1 3.1 37.6 C 3.1 33.5 2.9 33.7 2.8 30.5 C 3.0 28.9 2.9 27.8 2.8 25.4 C 2.9 21.6 3.0 27.7 3.0 23.7 C 3.1 19.5 2.8 16.3 2.8 15.0 C 2.9 14.7 3.0 15.5 3.0 13.5 C 2.9 8.4 2.9 7.3 2.8 13.2 C 2.8 7.9 2.7 5.4 2.5 6.1 C 2.5 14.2 2.5 16.2 2.3 19.7 C 2.5 21.4 2.3 23.6 2.3 26.6 C 2.6 25.0 2.3 30.2 2.5 32.0 C 2.5 30.0 2.5 28.0 2.6 26.9 C 2.6 35.5 2.5 35.3 2.8 42.6 C 2.7 42.5 2.7 43.3 2.7 44.1 C 2.6 41.9 2.6 35.7 2.5 35.4 C 2.3 40.1 2.6 42.0 2.4 47.4 C 2.5 49.9 2.6 43.0 2.6 47.6 C 2.5 49.7 2.4 52.5 2.3 56.0 C 2.3 59.7 2.4 61.6 2.5 64.7 C 2.4 65.0 2.3 65.3 2.4 68.2 C 2.4 68.1 2.5 65.2 2.5 68.3 C 2.3 77.3 2.1 83.2 2.2 92.4 C 2.3 89.2 2.5 82.1 2.5 85.6 C 2.4 89.6 2.6 95.3 2.4 99.4 C 2.4 100.8 2.5 94.4 2.2 95.8 C 2.2 99.8 2.2 102.3 2.1 104.3 C 2.2 104.4 2.2 109.1 2.4 108.0 C 2.4 104.6 2.2 103.5 2.2 102.7 C 2.7 105.8 2.1 115.3 2.1 121.7 C 2.1 126.0 2.2 118.6 2.3 123.5 C 2.4 126.6 1.9 128.1 1.9 123.3 C 2.0 120.2 1.7 118.7 1.9 118.1 C 1.9 116.8 1.9 114.7 1.9 114.7 C 1.9 117.1 1.7 116.5 1.7 118.0 C 1.7 114.6 1.4 114.0 1.6 111.0 C 1.6 113.1 1.6 113.8 1.7 114.6 C 1.6 105.3 1.8 102.5 1.9 97.3 C 1.8 100.1 1.8 97.1 1.6 97.2 C 1.7 101.2 1.6 108.8 1.5 104.0 C 1.7 101.1 1.2 98.3 1.4 95.3 C 1.4 97.7 1.5 97.4 1.6 98.8 C 1.6 95.3 1.7 95.5 1.8 92.0 C 1.5 80.5 2.0 72.1 1.6 53.8 C 1.6 47.5 1.7 59.6 1.8 59.2 C 1.8 57.3 1.9 57.0 1.9 55.7 C 1.7 55.3 1.9 52.5 1.7 50.3 C 1.9 50.8 1.7 42.2 1.9 38.2 C 1.8 38.0 1.7 38.4 1.7 36.4 C 1.9 27.6 1.8 13.4 1.7 2.5 C 6.2 2.5 10.2 2.5 13.0 2.6 C 12.5 2.4 16.7 2.4 17.8 2.3 C 23.9 2.4 21.3 2.5 29.9 2.3 C 34.3 2.3 29.2 2.4 28.4 2.5 C 41.5 2.4 53.1 2.6 61.2 2.4 C 65.3 2.3 61.3 2.5 69.9 2.6 C 69.9 2.3 83.6 2.7 85.3 2.4 C 90.5 2.3 100.2 2.7 95.8 2.4 C 102.8 2.4 98.3 2.7 101.1 2.7 C 106.0 2.6 99.3 2.2 104.2 2.2 C 103.8 2.4 108.0 2.3 111.3 2.5 C 107.4 2.5 104.9 2.5 104.5 2.6 C 107.8 2.5 107.7 2.6 113.1 2.6 C 117.0 2.5 128.5 2.3 132.1 2.6 C 132.2 2.5 131.2 2.5 130.3 2.4 C 133.6 2.4 137.8 2.6 137.2 2.4 C 144.9 2.4 148.4 2.6 152.7 2.4 C 156.0 2.3 151.6 2.6 161.5 2.6 C 161.6 2.4 179.1 2.4 183.9 2.6 C 184.0 2.3 185.1 2.5 187.3 2.6 C 187.6 2.5 187.0 2.4 189.1 2.4 C 189.4 2.4 190.9 2.4 192.4 2.4 C 191.4 2.7 198.8 2.3 199.4 2.5 C 197.9 2.5 197.9 2.7 199.5 2.7 C 199.9 2.5 207.3 2.8 206.3 2.6 C 204.8 2.5 199.9 2.6 201.2 2.4 C 207.9 2.4 205.3 2.6 209.9 2.6 C 209.5 2.5 206.8 2.5 209.8 2.4 C 214.5 2.5 210.2 2.5 213.3 2.6 C 215.8 2.6 220.3 2.4 221.9 2.4 C 221.4 2.4 223.0 2.5 223.7 2.6 C 232.6 2.6 252.8 2.4 261.6 2.7 C 262.2 2.6 264.1 2.6 263.4 2.4 C 268.6 2.5 268.3 2.5 273.7 2.6 C 273.7 2.5 273.6 2.4 273.6 2.3 C 280.5 2.2 274.4 2.6 278.9 2.6 C 279.3 2.1 281.6 2.7 285.8 2.7 C 286.3 2.6 288.3 2.6 287.6 2.4 C 294.2 2.4 293.9 2.7 299.6 2.6 C 298.3 2.6 297.2 2.0 297.8 1.8 C 298.8 1.9 300.5 2.0 303.1 2.0 C 300.1 2.2 301.9 2.9 310.1 2.7 C 305.5 2.7 303.9 2.7 304.8 2.5 C 311.1 2.5 313.3 2.6 318.7 2.6 C 319.5 2.4 315.6 2.4 316.9 2.2 C 318.3 2.2 318.9 2.1 318.6 2.1 C 324.3 2.1 324.5 2.3 330.7 2.1 C 330.7 2.2 329.4 2.3 327.2 2.2 C 327.6 2.3 327.6 2.5 323.9 2.5 C 323.3 2.4 325.5 2.2 320.3 2.3 C 320.3 2.4 320.3 2.5 320.3 2.6 C 324.2 2.6 333.3 2.7 334.2 2.6 C 332.3 2.5 329.3 2.5 330.8 2.3 C 337.3 2.4 339.2 2.6 344.6 2.7 C 354.0 2.6 370.7 2.7 368.7 2.4 C 374.4 2.5 372.4 2.5 377.4 2.5 C 375.9 2.3 383.2 2.4 382.7 2.3 C 376.4 2.3 378.3 2.3 372.2 2.3 C 372.4 2.2 373.4 2.1 375.7 2.1 C 376.1 2.2 378.6 2.2 382.7 2.2 C 382.0 2.2 378.3 2.0 382.7 2.0 C 383.0 2.0 384.0 2.0 386.0 2.0 C 386.0 2.1 386.0 2.2 386.0 2.3 C 383.7 2.4 380.8 2.4 379.1 2.5 C 380.8 2.5 381.1 2.5 382.6 2.6 C 383.7 2.4 390.7 2.6 391.2 2.4 C 388.4 2.5 386.5 2.4 389.6 2.3 C 390.1 2.3 394.8 2.4 396.5 2.3 C 390.4 2.2 392.8 2.2 389.6 2.0 C 396.5 2.0 395.5 2.2 403.4 2.1 C 403.6 2.3 403.5 2.4 401.5 2.5 C 406.5 2.9 418.4 2.5 422.2 2.6 C 419.5 2.5 416.5 2.8 420.5 2.8 C 420.5 2.7 423.5 2.7 424.1 2.7 C 425.5 2.3 421.9 2.2 418.9 2.0 C 422.1 2.0 422.8 1.9 425.9 1.9 C 426.9 2.0 423.6 2.3 427.5 2.3 C 428.4 2.0 434.7 2.3 436.1 2.1 C 433.4 2.1 431.6 2.0 434.5 2.0 C 433.9 2.1 439.5 2.0 439.6 2.1 C 435.1 2.2 433.9 2.4 431.0 2.4 C 434.5 2.4 428.3 2.5 434.4 2.6 C 437.1 2.4 438.4 2.3 444.9 2.3 C 447.2 2.3 445.0 2.5 448.2 2.5 C 447.4 2.3 454.3 2.3 450.0 2.4 C 452.4 2.4 453.7 2.5 455.1 2.5 C 451.7 2.3 468.2 2.1 465.7 2.0 C 465.6 2.2 466.4 2.4 467.2 2.5 C 470.5 2.3 474.1 2.5 482.9 2.4 C 482.6 2.2 484.2 2.4 488.0 2.4 C 488.7 2.3 485.5 2.2 488.0 2.2 C 492.2 2.3 492.4 2.3 493.2 2.4 C 496.2 2.4 498.6 2.4 500.1 2.4 C 500.3 2.4 499.3 2.3 498.4 2.3 C 510.0 2.5 516.2 2.2 526.1 2.3 C 521.9 2.2 521.0 2.5 524.3 2.4 C 526.4 2.4 528.2 2.4 529.4 2.3 C 527.2 2.1 528.1 2.2 533.0 2.3 C 537.4 2.2 531.4 2.0 534.8 2.0 C 538.5 2.1 536.3 2.1 538.3 2.2 C 539.9 2.2 541.8 2.2 543.5 2.2 C 540.3 2.1 543.9 2.0 547.0 2.0 C 544.7 2.2 546.0 2.2 552.1 2.1 C 552.7 2.2 549.5 2.3 552.0 2.3 C 553.4 2.3 558.2 2.1 562.3 2.3 C 561.0 2.3 560.3 2.3 560.6 2.4 C 565.2 2.2 568.6 2.5 572.6 2.6 C 568.7 2.4 570.9 2.3 569.3 2.1 C 573.3 2.3 578.3 2.1 581.3 2.3 C 575.5 2.3 581.0 2.7 584.7 2.7 C 585.6 2.5 579.4 2.5 581.3 2.3 C 583.4 2.2 587.8 2.4 590.0 2.3 C 589.7 2.2 587.3 2.3 586.6 2.2 C 589.8 2.2 585.7 2.1 588.4 2.1 C 590.0 2.3 592.0 2.0 593.7 2.0 C 595.8 2.1 600.2 2.3 602.1 2.2 C 602.2 2.1 599.1 2.1 598.8 2.1 C 608.4 2.0 611.1 2.2 619.6 2.0 C 620.6 2.1 622.2 2.2 624.7 2.2 C 624.6 2.1 626.2 2.0 628.2 2.0 C 631.9 2.1 635.5 2.2 640.2 2.3 C 639.2 2.4 637.0 2.5 643.4 2.5 C 643.8 2.4 641.1 2.4 643.5 2.4 C 643.5 2.4 644.9 2.4 645.3 2.4 C 645.4 2.3 645.4 2.3 645.4 2.3 C 643.6 2.3 641.9 2.3 640.2 2.3 C 640.4 2.2 640.0 2.1 638.7 2.0 C 646.3 1.9 645.6 2.3 650.6 2.1 C 651.2 2.4 652.8 2.5 648.5 2.7 C 652.9 2.6 656.0 2.5 657.3 2.4 C 652.1 2.4 653.9 2.2 652.5 2.1 C 655.8 2.1 655.9 2.0 657.6 2.0 C 661.4 2.1 653.3 2.3 660.9 2.3 C 655.3 2.1 665.7 2.1 669.6 2.2 C 669.0 2.1 667.6 2.1 669.7 2.0 C 680.1 1.9 678.7 2.5 685.1 2.2 C 684.5 2.3 687.3 2.3 688.5 2.4 C 683.4 2.4 682.0 2.5 679.8 2.5 C 680.0 2.6 681.5 2.6 683.0 2.6 C 683.1 2.5 684.5 2.5 686.6 2.6 C 688.2 2.5 688.0 2.2 692.1 2.0 C 692.4 2.1 691.8 2.2 693.8 2.2 C 695.8 2.1 692.1 2.5 700.5 2.4 C 699.1 2.4 698.3 2.3 699.1 2.2 C 703.2 2.1 702.3 2.2 707.8 2.1 C 709.5 2.4 703.7 2.4 702.1 2.6 C 705.8 2.6 709.0 2.4 712.6 2.5 C 709.8 2.4 712.8 2.3 716.3 2.2 C 719.3 2.2 715.8 2.5 719.5 2.5 C 722.4 2.5 724.1 2.3 721.5 2.2 C 727.8 2.3 726.5 2.1 731.9 2.1 C 731.9 2.2 730.4 2.2 728.5 2.2 C 728.7 2.2 728.0 2.3 730.0 2.3 C 732.4 2.2 736.7 2.2 740.6 2.1 C 740.6 4.0 740.7 5.8 740.7 7.2 C 740.4 15.2 740.8 24.0 740.7 32.0 C 740.5 28.9 740.6 42.3 740.4 46.2 C 740.5 48.6 740.9 55.8 740.7 53.1 C 740.4 53.9 740.5 58.5 740.5 62.1 C 740.5 62.1 740.6 62.1 740.7 62.0 C 740.7 69.9 740.5 71.7 740.3 74.3 C 740.5 83.9 740.2 94.4 740.4 106.0 C 740.2 108.9 740.2 111.5 740.1 118.3 C 740.3 118.2 740.3 123.6 740.3 128.8 C 740.5 127.6 740.4 132.4 740.5 132.4 C 740.5 127.8 740.8 129.6 740.8 127.2 C 740.6 133.3 741.0 136.5 740.8 141.3 C 740.7 135.2 740.5 133.3 740.2 132.4 C 740.3 139.6 740.2 143.3 740.1 144.6 C 740.2 145.2 740.3 144.4 740.3 142.8 C 740.3 145.2 740.3 147.6 740.3 149.9 C 740.2 150.5 740.2 147.2 740.2 149.8 C 740.2 151.5 740.3 153.4 740.3 155.2 C 740.2 157.1 740.2 152.4 740.1 151.6 C 740.0 161.0 740.4 157.1 740.5 162.3 C 740.3 163.6 740.1 163.1 740.1 167.4 C 740.2 169.1 740.4 169.8 740.4 174.6 C 740.4 177.6 740.1 174.2 740.1 177.8 C 740.2 178.4 740.1 179.9 740.1 181.4 C 740.2 181.3 740.3 182.9 740.3 184.9 C 740.2 185.4 740.2 188.8 740.3 190.2 C 740.2 190.5 740.0 195.8 740.1 197.1 C 740.2 197.2 740.2 194.1 740.2 193.8 C 740.2 197.7 740.2 200.5 740.3 202.6 C 740.0 203.1 740.1 206.1 740.1 210.3 C 737.8 210.3 735.2 210.3 732.4 210.2 C 727.6 210.4 733.7 210.6 727.6 210.7 C 723.8 210.5 728.3 210.5 727.2 210.3 C 726.2 210.3 720.4 210.2 720.4 210.3 C 720.4 210.4 723.4 210.4 723.8 210.4 C 719.5 210.6 719.4 210.4 716.8 210.3 C 717.3 210.5 714.3 210.5 713.8 210.6 C 701.4 210.7 701.3 210.4 696.1 210.2 C 696.2 210.3 693.1 210.3 692.9 210.4 C 696.3 210.3 701.2 210.5 696.3 210.5 C 697.1 210.4 690.0 210.5 689.5 210.5 C 690.4 210.6 694.9 210.6 693.3 210.8 C 686.8 210.8 689.1 210.5 684.4 210.7 C 683.8 210.6 686.7 210.5 687.8 210.5 C 685.8 210.5 682.9 210.5 682.5 210.4 C 685.0 210.4 684.9 210.2 685.8 210.1 C 682.6 210.3 676.4 210.1 680.8 210.4 C 673.9 210.3 667.4 210.4 672.3 210.6 C 666.8 210.6 669.7 210.4 665.3 210.6 C 665.8 210.3 667.1 210.2 663.2 210.1 C 662.7 210.2 659.7 210.2 660.1 210.4 C 651.9 210.4 649.4 210.2 645.9 210.0 C 649.2 210.3 644.9 210.1 641.1 210.2 C 638.5 210.2 640.6 209.9 634.0 210.0 C 641.4 210.3 625.6 210.1 629.1 210.4 C 620.4 210.2 620.6 210.2 611.6 210.2 C 612.4 210.1 614.5 210.0 618.3 209.9 C 615.8 210.1 626.0 210.1 625.2 210.0 C 625.2 210.0 625.2 209.9 625.1 209.9 C 618.6 209.9 614.2 209.9 611.3 209.8 C 610.0 209.9 607.1 210.0 608.3 210.2 C 601.9 209.9 595.6 210.3 592.6 210.1 C 594.7 210.1 596.7 210.0 596.0 209.9 C 593.5 210.0 590.5 210.0 591.0 210.2 C 596.1 210.2 597.1 210.3 599.5 210.1 C 597.4 210.3 604.7 210.4 599.7 210.4 C 599.7 210.1 589.6 210.6 592.8 210.4 C 598.3 210.3 586.5 210.2 585.9 210.1 C 585.9 210.1 585.9 210.1 585.9 210.1 Z M 1.8 93.7 C 1.8 99.0 2.0 92.6 2.0 88.7 C 1.9 89.9 1.9 90.3 1.8 90.3 C 1.8 91.8 1.8 93.4 1.8 93.7 C 1.8 93.7 1.8 93.7 1.8 93.7 Z M 4.4 40.3 C 4.2 38.5 4.3 47.1 4.3 50.6 C 4.3 49.6 4.4 48.5 4.4 50.7 C 4.6 47.1 4.2 45.6 4.4 40.3 C 4.4 40.3 4.4 40.3 4.4 40.3 Z M 159.1 4.5 C 157.8 4.5 154.5 4.6 154.1 4.5 C 152.1 4.5 152.6 4.6 152.3 4.7 C 148.3 4.7 153.2 4.4 147.0 4.5 C 144.9 4.8 158.0 4.9 159.1 4.5 C 159.1 4.5 159.1 4.5 159.1 4.5 Z M 648.9 207.4 C 646.3 207.3 652.1 207.1 650.2 207.0 C 640.8 207.1 648.4 207.3 635.1 207.3 C 636.0 207.3 637.1 207.4 637.0 207.4 C 643.1 207.4 643.5 207.2 642.2 207.6 C 645.1 207.6 645.4 207.2 648.9 207.4 C 648.9 207.4 648.9 207.4 648.9 207.4 Z M 524.8 206.6 C 525.9 206.6 526.7 206.7 526.8 206.8 C 530.7 206.7 529.9 206.7 535.3 206.7 C 534.4 206.5 529.2 206.5 524.8 206.6 C 524.8 206.6 524.8 206.6 524.8 206.6 Z M 199.3 206.2 C 198.2 206.2 197.0 206.2 195.8 206.2 C 196.7 206.3 193.6 206.5 199.4 206.5 C 199.7 206.4 198.7 206.4 197.7 206.4 C 198.7 206.4 201.5 206.4 201.0 206.2 C 199.5 206.3 199.3 206.2 199.3 206.2 C 199.3 206.2 199.3 206.2 199.3 206.2 Z M 62.4 207.9 C 69.1 207.7 52.7 207.2 62.4 207.9 C 62.4 207.9 62.4 207.9 62.4 207.9 C 62.4 207.9 62.4 207.9 62.4 207.9 Z M 76.5 210.0 C 76.7 210.0 78.2 210.0 78.2 210.0 C 83.9 210.0 78.4 210.1 81.6 210.2 C 86.1 210.1 79.2 209.9 85.0 209.8 C 83.8 209.7 79.8 210.0 76.5 210.0 C 76.5 210.0 76.5 210.0 76.5 210.0 Z M 678.1 2.3 C 673.3 2.4 671.8 2.5 670.8 2.7 C 674.0 2.7 676.7 2.8 677.6 2.9 C 683.8 2.8 673.7 2.7 672.7 2.7 C 673.5 2.5 677.9 2.5 678.1 2.3 C 678.1 2.3 678.1 2.3 678.1 2.3 Z M 662.5 2.4 C 660.4 2.5 657.4 2.5 657.1 2.7 C 660.1 2.6 660.4 2.7 660.5 2.8 C 663.3 2.7 660.0 2.6 662.5 2.4 C 662.5 2.4 662.5 2.4 662.5 2.4 Z M 691.7 2.6 C 689.5 2.6 690.2 2.7 689.8 2.8 C 693.0 2.8 693.4 2.9 696.6 2.9 C 696.7 2.8 696.7 2.7 696.8 2.7 C 694.1 2.7 693.9 2.7 691.5 2.7 C 691.6 2.7 691.6 2.6 691.7 2.6 C 691.7 2.6 691.7 2.6 691.7 2.6 Z M 646.8 2.6 C 637.8 2.6 633.5 2.9 627.4 3.2 C 634.0 3.1 640.2 2.7 644.8 2.9 C 650.6 2.8 643.0 2.7 643.3 2.7 C 643.5 2.6 645.5 2.6 646.8 2.6 C 646.8 2.6 646.8 2.6 646.8 2.6 Z M 567.4 2.6 C 565.6 2.5 562.1 2.8 556.9 2.7 C 557.8 2.8 558.7 2.8 558.6 2.9 C 566.0 3.0 561.8 2.6 567.4 2.6 C 567.4 2.6 567.4 2.6 567.4 2.6 Z M 524.2 2.7 C 519.7 2.8 526.5 2.8 524.1 3.0 C 529.2 3.0 534.5 3.0 534.4 2.8 C 529.0 2.9 527.8 2.9 524.2 2.7 C 524.2 2.7 524.2 2.7 524.2 2.7 Z M 493.1 2.7 C 488.0 2.8 495.2 3.0 492.9 3.2 C 494.9 3.1 494.5 3.0 494.7 3.0 C 496.2 3.0 497.5 3.0 499.9 3.0 C 498.2 2.9 492.3 2.9 493.1 2.7 C 493.1 2.7 493.1 2.7 493.1 2.7 Z M 739.9 67.5 C 739.8 64.4 739.6 65.4 739.7 58.9 C 739.7 68.7 739.1 63.5 739.2 76.4 C 739.3 74.3 739.4 75.6 739.3 76.4 C 739.4 81.2 739.4 71.7 739.6 76.3 C 739.6 72.7 739.4 74.8 739.3 71.2 C 739.5 67.4 739.6 65.2 739.9 67.5 C 739.9 67.5 739.9 67.5 739.9 67.5 Z M 739.0 76.4 C 739.0 80.0 739.4 79.9 739.2 81.6 C 739.2 83.3 739.2 83.0 739.3 83.3 C 739.3 81.9 739.3 81.8 739.3 81.6 C 739.3 78.6 739.2 75.5 739.0 76.4 C 739.0 76.4 739.0 76.4 739.0 76.4 Z M 739.0 43.4 C 739.1 49.3 739.0 51.1 739.2 53.9 C 738.9 56.0 739.3 57.7 739.0 60.9 C 739.1 66.6 739.2 62.3 739.3 60.8 C 739.4 66.3 739.1 62.2 739.2 67.8 C 739.4 68.7 739.3 61.6 739.5 62.3 C 739.5 58.1 739.4 58.2 739.3 55.5 C 739.4 53.4 739.5 54.1 739.5 53.7 C 739.5 48.8 739.6 49.0 739.6 45.0 C 739.4 44.1 739.4 45.8 739.4 50.3 C 739.3 45.6 739.2 43.7 739.3 38.2 C 739.5 42.0 739.5 24.5 739.2 26.1 C 739.2 30.8 739.3 29.3 739.4 31.2 C 739.2 37.4 739.3 41.1 739.0 43.4 C 739.0 43.4 739.0 43.4 739.0 43.4 Z M 693.0 3.2 C 691.5 3.1 690.2 3.1 687.9 3.1 C 687.8 2.9 690.8 3.0 688.1 2.9 C 684.4 2.8 683.5 2.9 681.1 2.9 C 682.4 3.0 689.9 3.2 685.8 3.3 C 687.0 3.4 689.4 3.4 692.6 3.4 C 689.2 3.1 697.9 3.4 701.4 3.4 C 701.3 3.1 707.4 3.5 710.0 3.3 C 708.2 3.1 701.0 3.3 697.9 3.3 C 699.5 3.2 689.7 2.9 693.0 3.2 C 693.0 3.2 693.0 3.2 693.0 3.2 Z M 739.2 90.3 C 739.2 91.3 739.3 95.2 739.3 92.1 C 739.4 93.6 739.2 96.9 739.5 95.5 C 739.5 97.4 739.5 99.1 739.5 100.8 C 739.4 100.1 739.5 95.3 739.3 97.2 C 739.4 100.8 739.3 99.4 739.3 104.2 C 739.1 101.6 739.1 104.3 738.9 102.5 C 739.0 103.8 739.0 108.0 739.1 107.7 C 739.1 114.3 738.9 105.9 738.9 114.6 C 738.7 114.5 738.7 108.2 738.8 106.0 C 738.6 104.8 738.7 116.8 738.7 123.2 C 738.8 117.5 739.0 122.1 739.2 125.0 C 739.1 127.0 739.0 125.0 738.9 128.5 C 738.9 131.4 739.0 132.9 738.9 133.7 C 738.9 136.1 739.1 135.1 739.2 135.5 C 739.1 139.5 738.9 136.4 738.9 142.3 C 739.2 138.0 739.2 143.1 739.2 151.1 C 739.2 150.6 739.3 148.1 739.3 147.7 C 739.5 149.0 739.2 153.5 739.2 154.6 C 739.2 157.5 739.3 155.7 739.3 153.0 C 739.3 154.7 739.4 156.4 739.5 158.3 C 739.5 149.7 739.4 135.9 739.7 120.0 C 739.6 123.0 739.5 119.4 739.6 114.7 C 739.7 114.0 739.7 116.1 739.7 118.3 C 739.9 112.7 739.4 113.0 739.6 104.3 C 739.6 99.6 739.7 109.6 739.8 104.3 C 739.8 101.1 739.6 98.9 739.8 97.3 C 739.7 91.7 739.5 90.2 739.5 81.5 C 739.4 86.5 739.0 88.8 739.1 93.8 C 739.2 93.8 739.2 91.6 739.2 90.3 C 739.2 90.3 739.2 90.3 739.2 90.3 Z M 660.4 2.9 C 657.4 2.9 655.8 3.0 655.2 2.9 C 649.9 3.0 655.7 3.1 656.7 3.2 C 659.1 3.1 660.0 3.0 660.4 2.9 C 660.4 2.9 660.4 2.9 660.4 2.9 Z M 135.8 2.9 C 129.2 2.9 130.7 3.1 125.5 3.1 C 129.7 3.2 130.9 3.3 137.7 3.3 C 138.0 3.1 137.9 3.0 135.8 2.9 C 135.8 2.9 135.8 2.9 135.8 2.9 Z M 677.5 3.0 C 681.8 2.8 672.2 3.3 672.4 3.1 C 667.4 3.2 676.8 3.2 672.1 3.4 C 676.4 3.3 678.8 3.4 684.1 3.3 C 684.1 3.2 679.9 3.2 675.6 3.2 C 675.2 3.1 677.4 3.1 677.5 3.0 C 677.5 3.0 677.5 3.0 677.5 3.0 Z M 203.3 3.4 C 207.8 3.3 199.0 3.1 196.2 3.0 C 196.2 3.2 197.5 3.2 203.3 3.4 C 203.3 3.4 203.3 3.4 203.3 3.4 Z M 91.1 3.2 C 88.8 3.4 98.9 3.2 96.5 3.5 C 99.6 3.5 99.8 3.4 100.0 3.3 C 101.5 3.4 106.4 3.4 105.1 3.5 C 106.1 3.7 97.4 3.5 100.2 3.7 C 97.4 3.7 97.2 3.6 95.0 3.6 C 100.0 3.6 97.5 3.5 91.3 3.4 C 91.4 3.6 94.2 3.5 91.4 3.6 C 91.0 3.6 87.7 3.4 87.7 3.2 C 82.3 3.2 85.8 3.5 79.4 3.5 C 80.0 3.6 84.0 3.6 86.4 3.6 C 85.9 3.8 79.6 3.5 81.3 3.8 C 79.8 3.6 76.1 3.5 75.8 3.3 C 80.6 3.3 83.7 3.1 87.6 3.0 C 83.8 2.9 78.8 3.3 72.3 3.2 C 73.0 3.3 69.2 3.3 70.6 3.5 C 65.6 3.4 67.7 3.2 68.7 3.2 C 67.3 3.0 57.6 3.1 58.4 3.3 C 57.6 3.1 45.9 3.2 46.6 3.4 C 42.9 3.2 37.8 3.5 36.0 3.3 C 34.1 3.4 30.1 3.3 25.7 3.3 C 24.7 3.5 32.2 3.4 32.8 3.6 C 34.3 3.7 24.7 3.5 26.0 3.7 C 26.1 3.7 26.1 3.8 26.1 3.8 C 29.6 3.8 33.1 3.7 36.4 3.6 C 38.9 3.7 35.8 3.7 36.5 3.8 C 38.8 3.7 49.7 3.5 50.3 3.8 C 57.6 3.7 62.9 3.8 65.8 3.6 C 70.1 3.7 63.3 3.7 66.0 3.9 C 78.7 3.6 94.7 3.9 105.2 3.6 C 107.6 3.7 106.8 3.8 107.2 3.9 C 121.9 3.8 109.1 3.5 120.8 3.6 C 120.9 3.7 115.3 3.7 115.8 3.9 C 119.8 3.9 120.8 3.8 126.2 3.8 C 126.1 3.7 126.1 3.7 126.0 3.6 C 130.4 3.6 128.8 3.8 131.2 3.9 C 136.7 3.8 135.3 3.7 138.1 3.9 C 143.3 3.8 148.3 3.8 153.7 3.9 C 157.2 3.7 150.3 3.5 144.7 3.5 C 145.0 3.4 146.5 3.4 146.5 3.3 C 153.0 3.5 154.2 3.8 164.0 3.9 C 156.5 3.7 167.8 3.8 169.2 3.9 C 173.2 3.9 170.0 3.7 167.4 3.7 C 167.8 3.6 170.4 3.7 170.8 3.8 C 171.1 3.5 161.6 3.3 151.8 3.5 C 156.1 3.1 144.7 3.5 149.7 3.1 C 141.7 3.2 148.7 3.4 139.6 3.3 C 140.5 3.4 142.2 3.5 143.1 3.6 C 136.3 3.6 138.1 3.4 130.9 3.4 C 129.8 3.6 134.5 3.5 134.6 3.6 C 126.6 3.5 124.0 3.4 118.7 3.2 C 117.8 3.3 119.2 3.5 110.2 3.4 C 110.2 3.4 110.2 3.3 110.2 3.3 C 114.4 3.3 115.2 3.0 104.7 3.0 C 104.2 3.1 107.3 3.1 110.0 3.1 C 108.9 3.2 105.6 3.3 101.6 3.3 C 99.6 3.3 97.1 3.2 99.8 3.2 C 98.0 3.0 96.7 3.3 91.1 3.2 C 91.1 3.2 91.1 3.2 91.1 3.2 Z M 575.7 3.0 C 574.4 3.1 573.0 3.1 570.5 3.1 C 569.2 3.3 573.9 3.2 573.9 3.3 C 577.6 3.3 574.8 3.1 575.7 3.0 C 575.7 3.0 575.7 3.0 575.7 3.0 Z M 623.9 3.2 C 623.7 3.0 621.0 3.2 617.0 3.2 C 615.7 3.3 620.5 3.3 620.4 3.4 C 625.1 3.4 619.4 3.1 623.9 3.2 C 623.9 3.2 623.9 3.2 623.9 3.2 Z M 603.2 3.2 C 601.5 3.0 601.3 3.2 605.0 3.2 C 604.6 3.3 603.7 3.4 601.4 3.5 C 603.8 3.7 605.6 3.3 610.0 3.4 C 608.5 3.3 606.2 3.2 603.2 3.2 C 603.2 3.2 603.2 3.2 603.2 3.2 Z M 596.3 3.2 C 593.7 3.3 592.2 3.1 587.7 3.2 C 588.7 3.3 598.3 3.3 599.8 3.2 C 601.4 3.1 591.2 3.1 596.3 3.2 C 596.3 3.2 596.3 3.2 596.3 3.2 Z M 272.3 3.6 C 270.6 3.6 271.0 3.7 270.6 3.8 C 265.2 3.5 257.8 3.5 263.6 3.3 C 258.1 3.4 252.8 3.2 248.1 3.2 C 244.1 3.1 246.2 3.3 243.0 3.3 C 237.9 3.3 245.6 3.2 244.6 3.2 C 243.5 3.0 242.1 3.3 236.0 3.2 C 237.8 3.5 230.8 3.2 232.8 3.5 C 229.4 3.4 228.4 3.5 224.1 3.5 C 224.6 3.6 228.8 3.6 229.4 3.8 C 231.6 3.9 231.6 3.6 227.6 3.6 C 229.9 3.4 236.1 3.7 237.8 3.6 C 240.1 3.8 232.3 3.6 234.6 3.8 C 236.1 3.8 237.6 3.8 237.9 3.7 C 240.4 3.7 242.1 3.8 243.2 3.9 C 241.7 3.9 241.5 3.8 241.5 3.8 C 238.3 3.8 244.8 4.1 238.0 4.1 C 239.2 4.2 242.1 4.2 241.6 4.3 C 243.7 4.4 241.5 3.8 248.4 4.0 C 252.9 3.8 237.6 3.8 241.3 3.5 C 250.9 3.5 245.6 3.8 253.4 3.8 C 253.3 3.7 253.2 3.6 255.2 3.6 C 254.8 3.6 252.0 3.6 249.9 3.6 C 250.3 3.5 253.1 3.5 255.1 3.5 C 254.8 3.5 253.3 3.5 253.2 3.4 C 259.8 3.5 259.3 3.8 253.4 3.9 C 253.6 4.1 261.7 4.1 263.8 4.0 C 261.6 3.9 264.0 3.9 262.1 3.7 C 260.4 3.7 260.7 3.8 260.3 3.8 C 257.2 3.8 260.1 3.7 260.2 3.6 C 263.7 3.7 263.6 3.8 267.1 3.7 C 266.3 3.7 265.5 3.8 265.5 3.9 C 267.2 3.9 269.0 3.9 270.7 3.9 C 270.5 3.8 272.7 3.7 272.3 3.6 C 272.3 3.6 272.3 3.6 272.3 3.6 Z M 182.5 3.2 C 176.8 3.1 179.9 3.3 182.6 3.3 C 181.5 3.3 179.5 3.4 177.5 3.4 C 179.2 3.5 180.7 3.4 186.1 3.5 C 181.5 3.7 186.5 4.0 195.1 4.0 C 197.4 3.6 190.2 3.6 192.9 3.4 C 186.8 3.5 183.3 3.4 182.5 3.2 C 182.5 3.2 182.5 3.2 182.5 3.2 Z M 656.6 3.2 C 653.3 3.2 649.8 3.2 646.4 3.2 C 646.6 3.4 657.3 3.5 656.6 3.2 C 656.6 3.2 656.6 3.2 656.6 3.2 Z M 739.2 165.0 C 739.2 166.5 739.2 166.7 739.2 166.8 C 739.2 171.9 739.3 164.5 739.5 167.0 C 739.5 165.1 739.5 163.4 739.5 161.7 C 739.4 161.3 739.3 168.7 739.2 163.3 C 739.2 163.6 739.2 165.0 739.2 165.0 C 739.2 165.0 739.2 165.0 739.2 165.0 Z M 579.1 3.3 C 575.9 3.3 577.8 3.6 570.2 3.5 C 572.9 3.7 574.6 3.6 578.9 3.6 C 579.0 3.5 579.1 3.4 579.1 3.3 C 579.1 3.3 579.1 3.3 579.1 3.3 Z M 298.1 3.3 C 293.7 3.1 292.6 3.6 284.3 3.5 C 288.6 3.7 293.2 3.4 298.1 3.3 C 298.1 3.3 298.1 3.3 298.1 3.3 Z M 12.2 3.6 C 14.8 3.7 11.6 3.7 15.9 3.8 C 18.2 3.8 19.1 3.7 22.6 3.6 C 17.5 3.4 9.0 3.6 5.2 3.3 C 4.0 3.3 3.2 3.4 2.7 3.4 C 2.7 5.0 2.9 5.3 3.0 6.3 C 3.0 5.1 3.0 4.3 3.0 3.7 C 3.3 3.7 3.6 3.7 3.7 3.8 C 6.0 3.5 9.5 3.9 12.2 3.6 C 12.2 3.6 12.2 3.6 12.2 3.6 Z M 205.0 3.5 C 208.3 3.6 202.9 3.6 201.8 3.8 C 199.5 3.7 200.2 3.6 199.9 3.5 C 196.8 3.5 196.0 3.6 196.6 3.8 C 202.3 3.8 209.4 3.8 205.3 4.1 C 210.9 4.1 207.7 3.9 210.4 3.8 C 213.5 3.9 210.7 4.0 210.6 4.2 C 211.9 4.1 216.0 3.9 215.8 4.2 C 223.9 3.9 220.1 3.6 213.7 3.3 C 208.3 3.5 214.7 3.6 205.0 3.5 C 205.0 3.5 205.0 3.5 205.0 3.5 Z M 423.9 3.6 C 423.4 3.6 420.4 3.6 420.4 3.5 C 416.7 3.7 413.5 3.9 410.1 4.1 C 410.8 4.2 415.5 4.1 413.5 3.9 C 415.0 4.1 418.3 4.1 420.3 4.2 C 423.8 4.3 425.1 3.9 425.5 4.2 C 428.9 4.1 426.9 4.1 432.4 4.1 C 423.7 3.9 435.4 4.0 436.0 3.8 C 430.9 3.8 426.6 3.8 427.2 4.0 C 423.5 3.9 419.5 3.9 418.7 3.7 C 419.1 3.6 421.9 3.6 423.9 3.6 C 423.9 3.6 423.9 3.6 423.9 3.6 Z M 403.2 4.2 C 404.6 4.1 405.9 4.1 408.3 4.1 C 406.9 4.1 406.4 4.0 406.6 3.9 C 402.2 3.9 401.2 4.0 399.7 3.8 C 395.7 3.8 400.7 4.1 394.5 4.0 C 395.0 4.1 398.0 4.0 398.0 4.1 C 398.5 4.0 401.1 4.0 403.2 4.2 C 403.2 4.2 403.2 4.2 403.2 4.2 Z M 349.9 3.8 C 345.4 3.8 352.2 3.9 349.9 4.1 C 351.1 4.0 359.6 4.1 358.5 4.2 C 361.0 4.5 369.7 4.0 368.8 4.3 C 370.9 4.3 370.2 4.2 370.5 4.1 C 364.5 4.2 364.5 4.0 368.8 4.0 C 368.2 3.9 364.5 3.9 362.0 3.9 C 361.6 4.0 364.0 4.1 363.7 4.2 C 358.4 4.1 354.6 3.9 349.9 3.8 C 349.9 3.8 349.9 3.8 349.9 3.8 Z M 595.5 209.1 C 599.5 209.1 602.0 209.1 604.0 209.1 C 602.7 209.0 600.8 209.1 598.8 209.1 C 598.2 209.0 600.1 209.0 602.2 208.9 C 600.1 208.8 593.0 208.9 595.5 209.1 C 595.5 209.1 595.5 209.1 595.5 209.1 Z M 629.9 209.1 C 633.7 209.1 636.2 209.1 636.6 209.0 C 635.0 208.9 635.7 209.1 633.2 209.1 C 631.6 209.0 630.6 209.0 629.7 208.9 C 628.0 208.9 628.4 209.0 627.9 209.0 C 626.6 209.0 626.4 209.0 626.2 208.9 C 621.6 209.1 631.7 208.9 629.9 209.1 C 629.9 209.1 629.9 209.1 629.9 209.1 Z M 379.1 3.9 C 380.6 4.0 381.8 4.1 386.0 4.1 C 385.1 4.0 388.5 4.0 391.2 4.0 C 387.1 3.8 385.1 3.9 379.1 3.9 C 379.1 3.9 379.1 3.9 379.1 3.9 Z M 738.7 102.5 C 738.9 97.2 738.6 97.8 738.7 90.3 C 738.7 90.3 738.6 90.4 738.6 90.4 C 738.7 94.9 738.6 96.9 738.7 102.5 C 738.7 102.5 738.7 102.5 738.7 102.5 Z M 134.7 209.0 C 135.2 208.9 129.8 208.9 129.5 208.8 C 128.5 209.1 125.8 208.6 115.7 208.7 C 115.6 208.6 116.2 208.6 117.6 208.6 C 109.3 208.5 119.9 208.8 121.0 208.9 C 127.3 208.9 128.4 209.0 134.7 209.0 C 134.7 209.0 134.7 209.0 134.7 209.0 Z M 64.4 4.2 C 64.6 4.1 63.6 4.1 62.6 4.1 C 61.5 4.1 60.3 4.1 59.3 4.1 C 59.8 4.4 65.6 4.5 61.5 4.7 C 63.0 4.7 63.1 4.7 63.1 4.7 C 71.0 4.1 78.3 5.0 88.9 4.7 C 90.5 4.7 90.2 4.6 90.5 4.5 C 89.1 4.5 88.9 4.5 88.7 4.5 C 87.6 4.7 77.5 4.4 81.8 4.4 C 81.4 4.3 80.1 4.3 80.1 4.4 C 78.9 4.4 77.7 4.4 76.6 4.4 C 77.3 4.4 79.7 4.5 80.2 4.5 C 74.7 4.5 67.9 4.4 71.2 4.2 C 67.9 4.2 66.8 4.3 64.5 4.4 C 62.3 4.3 62.2 4.2 64.4 4.2 C 64.4 4.2 64.4 4.2 64.4 4.2 Z M 19.8 4.2 C 14.4 4.2 16.6 4.4 11.2 4.4 C 14.7 4.5 18.7 4.3 23.3 4.4 C 22.6 4.3 20.2 4.3 19.8 4.2 C 19.8 4.2 19.8 4.2 19.8 4.2 Z M 119.6 4.5 C 118.7 4.7 123.4 4.7 128.4 4.7 C 129.3 4.5 124.8 4.5 119.6 4.5 C 119.6 4.5 119.6 4.5 119.6 4.5 Z M 97.3 4.5 C 92.3 4.5 103.7 4.5 101.0 4.7 C 103.3 4.7 105.8 4.7 106.0 4.8 C 107.8 4.7 107.8 4.6 111.1 4.7 C 110.9 4.5 105.4 4.6 105.8 4.5 C 102.1 4.6 101.4 4.6 97.3 4.5 C 97.3 4.5 97.3 4.5 97.3 4.5 Z M 93.9 4.5 C 90.6 4.5 95.0 4.8 99.2 4.8 C 97.6 4.7 96.5 4.6 93.9 4.5 C 93.9 4.5 93.9 4.5 93.9 4.5 Z M 495.8 4.5 C 493.5 4.6 495.3 4.7 492.4 4.7 C 492.4 4.8 502.6 4.8 494.0 4.8 C 497.2 5.1 498.9 4.7 502.8 4.8 C 501.6 4.7 500.6 4.7 502.8 4.7 C 504.0 4.5 494.6 4.7 495.8 4.5 C 495.8 4.5 495.8 4.5 495.8 4.5 Z M 485.6 4.5 C 483.6 4.5 484.6 4.6 485.6 4.6 C 485.2 4.7 482.4 4.6 480.4 4.7 C 480.2 4.6 484.0 4.9 483.8 5.1 C 492.5 4.9 485.9 4.7 485.6 4.5 C 485.6 4.5 485.6 4.5 485.6 4.5 Z M 477.0 4.7 C 471.4 4.5 463.5 4.5 459.8 4.7 C 463.7 5.0 474.3 4.9 477.0 4.7 C 477.0 4.7 477.0 4.7 477.0 4.7 Z M 533.6 4.7 C 523.5 4.5 503.1 4.8 521.4 5.0 C 520.8 4.8 532.9 4.7 538.7 4.8 C 538.9 4.8 545.5 4.6 545.7 4.7 C 550.2 4.6 531.3 4.6 533.6 4.7 C 533.6 4.7 533.6 4.7 533.6 4.7 Z M 452.8 5.1 C 455.7 5.0 452.1 4.7 456.4 4.8 C 458.9 4.8 455.7 4.7 456.4 4.6 C 451.1 4.6 440.2 4.8 439.2 4.6 C 436.5 4.7 435.6 4.8 430.6 4.8 C 430.4 4.9 448.9 4.6 452.8 5.0 C 452.5 5.0 445.8 5.1 452.8 5.1 C 452.8 5.1 452.8 5.1 452.8 5.1 Z M 737.7 102.5 C 737.8 103.0 737.7 95.8 737.9 97.3 C 737.7 93.5 737.8 89.8 737.7 85.5 C 737.7 84.2 738.0 84.6 738.0 78.6 C 737.9 78.4 737.9 81.4 737.8 78.6 C 737.8 73.1 738.0 74.6 737.9 68.2 C 737.6 69.3 737.8 54.9 737.5 56.4 C 737.6 59.7 737.7 59.4 737.7 65.0 C 737.6 66.8 737.5 66.0 737.5 68.4 C 737.4 66.8 737.6 63.8 737.5 61.6 C 737.4 62.1 737.4 66.3 737.2 66.8 C 737.3 69.3 737.3 66.1 737.4 66.7 C 737.5 73.4 737.0 66.4 737.1 73.7 C 737.2 72.1 737.2 72.1 737.4 73.6 C 737.3 76.4 737.5 85.2 737.2 80.4 C 737.1 81.0 737.3 86.2 737.4 85.6 C 737.4 88.4 737.4 88.7 737.3 88.9 C 737.4 96.2 737.5 97.2 737.7 95.7 C 737.9 97.2 737.6 98.2 737.7 102.5 C 737.7 102.5 737.7 102.5 737.7 102.5 Z M 588.5 4.8 C 592.6 4.6 583.9 4.8 579.9 4.8 C 584.8 4.8 583.1 5.1 588.3 5.1 C 586.5 5.0 586.9 5.0 590.2 5.0 C 591.1 4.9 583.6 4.8 588.5 4.8 C 588.5 4.8 588.5 4.8 588.5 4.8 Z M 420.2 4.8 C 418.4 4.6 409.5 4.8 404.8 4.7 C 405.7 5.0 417.1 4.6 418.6 4.9 C 421.2 4.9 417.1 4.8 420.2 4.8 C 420.2 4.8 420.2 4.8 420.2 4.8 Z M 737.9 37.3 C 737.9 35.5 737.8 36.5 737.8 37.3 C 737.8 36.9 737.8 33.2 737.8 30.5 C 737.7 34.4 737.6 29.8 737.4 30.8 C 737.4 28.8 737.4 27.8 737.4 27.5 C 737.7 27.1 737.2 16.9 737.1 27.7 C 737.3 25.5 737.3 26.4 737.4 30.8 C 737.2 35.8 737.4 39.5 737.2 41.3 C 737.2 44.4 737.3 45.5 737.3 49.7 C 737.2 50.7 737.1 54.6 736.8 51.6 C 736.8 59.0 737.3 53.8 737.3 60.0 C 737.2 65.8 737.1 57.1 736.9 58.5 C 736.9 60.0 736.9 59.7 736.8 60.2 C 736.8 62.3 737.0 62.3 737.0 60.1 C 737.1 60.7 737.2 66.7 737.0 65.1 C 737.1 68.5 737.6 59.5 737.4 54.8 C 737.3 52.0 737.7 51.8 737.7 54.6 C 737.8 53.6 737.4 48.1 737.8 49.4 C 737.8 47.1 737.8 44.9 737.8 42.5 C 737.7 42.9 737.7 44.3 737.7 44.3 C 737.7 42.1 737.7 39.8 737.7 37.4 C 737.8 39.4 737.8 39.4 737.9 37.3 C 737.9 37.3 737.9 37.3 737.9 37.3 Z M 442.7 4.8 C 438.3 4.8 437.3 4.9 433.9 5.0 C 435.3 5.1 444.6 5.0 442.7 4.8 C 442.7 4.8 442.7 4.8 442.7 4.8 Z M 737.1 131.6 C 737.2 131.1 737.2 128.1 737.2 128.1 C 737.3 133.5 737.4 127.5 737.7 131.7 C 737.6 124.9 737.1 122.5 737.0 131.6 C 737.0 138.2 737.1 124.8 737.1 131.6 C 737.1 131.6 737.1 131.6 737.1 131.6 Z M 737.2 111.0 C 737.2 106.9 737.1 117.3 737.0 119.6 C 736.9 119.6 736.9 119.6 736.8 119.6 C 737.1 125.4 737.2 117.7 737.5 123.0 C 737.6 116.4 737.7 113.5 737.6 107.7 C 737.5 108.0 737.6 109.4 737.6 109.4 C 737.6 113.7 737.3 110.7 737.4 106.0 C 737.3 107.4 737.3 111.5 737.3 114.5 C 737.3 113.7 737.4 112.7 737.5 112.9 C 737.5 116.5 737.4 115.2 737.4 117.8 C 737.3 117.8 737.1 111.2 737.2 111.0 C 737.2 111.0 737.2 111.0 737.2 111.0 Z M 496.6 207.8 C 500.1 207.8 492.7 207.5 492.9 207.3 C 489.2 207.2 488.4 207.3 486.0 207.3 C 487.3 207.4 491.3 207.5 493.1 207.6 C 492.5 207.8 487.7 207.5 486.3 207.7 C 484.3 208.0 494.9 207.6 496.6 207.8 C 496.6 207.8 496.6 207.8 496.6 207.8 Z M 689.4 5.1 C 687.6 5.1 688.6 5.2 689.4 5.2 C 689.0 5.3 686.0 5.3 686.0 5.2 C 683.4 5.2 687.5 5.3 684.3 5.3 C 683.5 5.4 689.1 5.3 689.3 5.3 C 693.2 5.2 690.0 5.5 690.9 5.6 C 694.3 5.6 693.2 5.4 697.9 5.4 C 695.1 5.3 692.7 5.2 689.4 5.1 C 689.4 5.1 689.4 5.1 689.4 5.1 Z M 737.5 143.5 C 737.6 144.2 737.2 139.4 737.4 135.0 C 737.4 129.0 737.2 138.6 737.2 133.3 C 737.1 137.7 737.3 143.3 737.3 150.3 C 737.4 152.0 737.3 140.6 737.4 147.0 C 737.5 146.7 737.5 145.2 737.4 145.1 C 737.4 143.8 737.4 143.7 737.5 143.5 C 737.5 143.5 737.5 143.5 737.5 143.5 Z M 737.1 136.6 C 737.0 136.9 737.0 138.4 737.1 138.4 C 737.1 140.5 736.9 140.5 736.9 138.3 C 736.7 141.1 737.1 141.0 736.9 146.8 C 737.1 144.4 737.2 143.2 737.1 148.5 C 737.2 152.9 737.2 138.6 737.1 136.6 C 737.1 136.6 737.1 136.6 737.1 136.6 Z M 551.3 207.7 C 550.8 207.6 547.1 207.6 544.4 207.6 C 547.7 207.5 561.6 207.6 563.4 207.7 C 564.9 207.6 566.3 207.6 566.9 207.7 C 566.7 207.6 570.5 207.5 568.4 207.5 C 568.7 207.4 571.8 207.5 571.7 207.4 C 576.9 207.4 570.3 207.5 571.9 207.6 C 577.9 207.5 576.7 207.6 583.9 207.6 C 582.6 207.4 574.6 207.5 575.1 207.3 C 569.6 207.5 563.3 207.3 559.6 207.1 C 565.2 207.4 545.2 207.6 535.8 207.5 C 536.1 207.4 532.8 207.4 528.8 207.3 C 526.0 207.1 527.2 207.5 532.3 207.4 C 532.2 207.6 525.1 207.5 522.1 207.5 C 525.7 207.6 523.8 207.7 525.6 207.7 C 532.3 207.7 526.3 207.7 527.3 207.6 C 529.0 207.6 530.7 207.6 532.5 207.6 C 523.7 207.8 545.6 207.6 537.6 207.6 C 544.6 207.6 544.9 207.8 551.3 207.7 C 551.3 207.7 551.3 207.7 551.3 207.7 Z M 712.7 207.7 C 713.8 207.7 719.2 207.6 719.5 207.7 C 726.4 207.6 720.1 207.4 727.9 207.4 C 727.4 207.4 724.4 207.4 724.3 207.3 C 721.3 207.4 718.4 207.4 719.4 207.6 C 715.9 207.6 714.9 207.7 712.6 207.7 C 713.4 207.6 714.7 207.6 717.7 207.6 C 718.0 207.4 716.8 207.3 712.3 207.3 C 710.4 207.5 711.9 207.6 712.7 207.7 C 712.7 207.7 712.7 207.7 712.7 207.7 Z M 729.7 207.5 C 730.5 207.6 731.6 207.6 731.5 207.7 C 734.2 207.9 732.3 207.4 734.8 207.4 C 736.8 207.5 736.2 207.6 736.6 207.6 C 736.9 207.6 737.1 207.6 737.4 207.6 C 737.3 204.9 737.3 202.8 737.4 201.5 C 737.3 197.3 737.2 204.8 737.1 207.4 C 736.8 207.4 736.6 207.4 736.4 207.4 C 733.1 207.4 734.4 207.5 729.7 207.5 C 729.7 207.5 729.7 207.5 729.7 207.5 Z M 737.4 164.0 C 737.6 163.2 737.3 161.2 737.4 158.9 C 737.2 160.5 737.3 165.5 737.1 162.1 C 737.0 167.0 737.0 167.4 737.1 172.4 C 736.9 175.4 737.2 172.6 737.1 167.3 C 737.2 168.0 737.2 170.3 737.3 170.7 C 736.9 173.8 737.5 182.8 737.2 177.5 C 737.3 176.0 737.4 175.1 737.4 174.3 C 737.3 173.0 737.3 161.4 737.4 164.0 C 737.4 164.0 737.4 164.0 737.4 164.0 Z M 725.2 5.5 C 731.5 5.5 732.1 5.5 737.3 5.5 C 737.3 6.0 737.2 6.5 737.2 7.2 C 737.2 7.4 737.1 6.9 737.1 5.6 C 737.1 7.2 737.1 9.3 737.1 12.3 C 737.2 12.0 737.2 10.6 737.1 10.6 C 737.3 5.0 737.3 9.6 737.4 10.3 C 737.5 8.5 737.5 6.9 737.5 5.3 C 733.0 5.3 729.2 5.4 727.1 5.3 C 724.6 5.3 727.5 5.3 725.2 5.5 C 725.2 5.5 725.2 5.5 725.2 5.5 Z M 141.3 207.5 C 140.3 207.6 137.5 207.6 138.0 207.7 C 140.5 207.7 142.3 207.6 144.8 207.6 C 140.0 207.5 140.6 207.3 134.4 207.3 C 136.4 207.4 136.0 207.5 141.3 207.5 C 141.3 207.5 141.3 207.5 141.3 207.5 Z M 737.4 181.1 C 737.3 181.2 737.2 181.3 737.2 179.3 C 737.0 178.5 737.1 184.0 737.0 184.1 C 737.0 185.9 737.1 185.4 737.1 187.7 C 737.2 186.9 737.2 182.4 737.4 184.4 C 737.4 185.9 737.3 186.0 737.3 186.2 C 737.4 189.7 737.4 184.4 737.4 181.1 C 737.4 181.1 737.4 181.1 737.4 181.1 Z M 479.4 207.6 C 481.7 207.6 479.3 207.5 477.5 207.5 C 482.4 207.3 474.3 207.2 473.8 207.0 C 476.1 207.2 482.9 207.1 484.1 207.1 C 486.1 207.1 483.6 206.9 489.1 206.9 C 488.3 206.8 482.4 206.9 484.0 207.0 C 482.4 206.8 476.7 207.1 477.0 206.8 C 469.3 206.8 467.6 206.9 467.0 207.1 C 474.5 207.1 470.9 207.4 477.3 207.3 C 477.4 207.4 475.4 207.4 474.0 207.4 C 474.6 207.5 477.5 207.5 479.4 207.6 C 479.4 207.6 479.4 207.6 479.4 207.6 Z M 657.7 207.6 C 661.5 207.6 661.2 207.5 660.9 207.3 C 659.5 207.4 657.1 207.4 654.1 207.4 C 654.9 207.5 659.5 207.4 657.7 207.6 C 657.7 207.6 657.7 207.6 657.7 207.6 Z M 506.6 207.4 C 507.0 207.5 508.3 207.4 508.3 207.4 C 512.7 207.4 513.7 207.5 515.3 207.6 C 517.6 207.5 516.7 207.4 516.8 207.3 C 512.9 207.5 513.6 207.2 508.2 207.3 C 508.6 207.3 508.0 207.4 506.6 207.4 C 506.6 207.4 506.6 207.4 506.6 207.4 Z M 621.6 207.5 C 623.6 207.5 622.6 207.4 621.6 207.4 C 623.7 207.2 630.9 207.4 633.5 207.3 C 633.7 207.2 625.0 207.2 635.0 207.1 C 633.1 207.0 624.1 207.1 619.6 207.1 C 620.5 206.9 626.7 206.9 626.1 206.7 C 620.9 206.8 615.1 206.9 614.5 207.2 C 622.2 207.2 619.7 207.4 621.6 207.5 C 621.6 207.5 621.6 207.5 621.6 207.5 Z M 613.0 207.4 C 613.7 207.5 615.1 207.4 618.0 207.4 C 613.6 207.2 611.2 207.2 602.5 207.2 C 602.5 207.2 602.5 207.3 602.6 207.3 C 600.9 207.3 599.1 207.3 597.4 207.3 C 605.1 207.5 606.8 207.4 614.6 207.3 C 615.0 207.4 614.0 207.4 613.0 207.4 C 613.0 207.4 613.0 207.4 613.0 207.4 Z M 737.1 102.5 C 737.0 104.9 736.9 106.9 736.9 111.0 C 737.1 110.7 737.1 108.2 737.1 102.5 C 737.1 102.5 737.1 102.5 737.1 102.5 Z M 499.7 207.3 C 495.1 207.4 504.2 207.3 501.3 207.1 C 497.5 207.0 493.5 207.0 492.5 206.8 C 485.8 207.0 500.4 207.0 499.7 207.3 C 499.7 207.3 499.7 207.3 499.7 207.3 Z M 530.2 206.8 C 532.2 206.9 532.4 207.1 530.3 207.0 C 525.4 207.0 534.6 207.1 527.0 207.1 C 530.2 207.2 537.5 207.3 540.7 207.1 C 540.5 207.0 534.0 207.1 533.7 206.9 C 533.4 206.9 534.4 206.8 535.3 206.8 C 534.6 206.8 533.2 206.9 530.2 206.8 C 530.2 206.8 530.2 206.8 530.2 206.8 Z M 556.1 207.1 C 553.2 207.0 549.8 207.0 544.0 207.0 C 547.9 207.1 550.2 207.3 556.1 207.1 C 556.1 207.1 556.1 207.1 556.1 207.1 Z M 232.1 206.9 C 236.3 206.9 232.5 206.7 232.0 206.7 C 227.8 206.6 228.2 206.8 223.4 206.7 C 224.9 206.9 229.4 206.7 232.1 206.9 C 232.1 206.9 232.1 206.9 232.1 206.9 Z M 216.7 206.8 C 216.2 206.7 210.2 206.7 209.8 206.6 C 206.4 207.0 200.9 206.4 201.1 206.7 C 199.8 206.6 198.4 206.6 195.9 206.6 C 200.9 206.9 211.5 206.8 216.7 206.8 C 216.7 206.8 216.7 206.8 216.7 206.8 Z M 585.1 206.8 C 589.6 206.8 583.5 206.5 588.2 206.5 C 588.5 206.5 579.5 206.4 584.8 206.4 C 577.6 206.2 585.5 206.7 585.1 206.8 C 585.1 206.8 585.1 206.8 585.1 206.8 Z M 668.8 206.6 C 668.6 206.7 674.8 206.6 677.4 206.7 C 677.3 206.6 675.3 206.6 674.0 206.6 C 674.6 206.5 675.4 206.5 677.2 206.5 C 675.7 206.3 671.3 206.6 668.8 206.6 C 668.8 206.6 668.8 206.6 668.8 206.6 Z M 578.8 209.9 C 575.9 209.7 572.1 209.6 570.2 209.8 C 567.1 209.7 572.1 209.6 568.3 209.5 C 563.5 209.6 565.7 209.4 557.9 209.5 C 559.3 209.3 553.6 209.3 552.5 209.2 C 555.6 209.2 559.8 209.4 561.2 209.2 C 558.5 209.2 559.9 209.0 561.1 209.1 C 566.4 209.2 554.9 209.4 561.4 209.5 C 563.1 209.2 572.6 209.7 578.7 209.7 C 576.4 209.8 583.4 209.9 578.8 209.9 C 578.8 209.9 578.8 209.9 578.8 209.9 Z M 547.7 209.5 C 543.5 209.5 541.1 209.2 542.2 209.2 C 542.3 209.3 547.0 209.3 547.4 209.2 C 546.3 209.2 545.3 209.2 545.6 209.1 C 553.3 209.1 550.7 209.3 552.6 209.4 C 548.5 209.5 547.3 209.4 545.8 209.5 C 546.8 209.5 547.8 209.5 547.7 209.5 C 547.7 209.5 547.7 209.5 547.7 209.5 Z M 454.6 206.5 C 455.5 206.6 456.4 206.5 458.1 206.5 C 458.6 206.8 467.1 206.4 468.3 206.5 C 466.4 206.6 461.9 206.6 459.9 206.7 C 462.3 206.7 462.8 206.8 465.1 206.7 C 464.7 206.9 459.7 206.9 458.4 207.0 C 457.9 206.9 455.6 207.1 454.9 207.0 C 461.5 206.9 450.8 206.5 454.6 206.5 C 454.6 206.5 454.6 206.5 454.6 206.5 Z M 624.2 206.5 C 624.7 206.4 617.0 205.9 623.4 205.7 C 625.1 205.9 626.1 206.0 625.7 206.2 C 629.8 206.1 631.8 206.3 634.1 206.1 C 642.5 206.7 628.1 206.1 624.2 206.5 C 624.2 206.5 624.2 206.5 624.2 206.5 Z M 651.6 206.4 C 650.2 206.5 654.0 206.5 653.5 206.7 C 650.0 206.5 639.5 206.7 643.1 206.6 C 646.5 206.5 646.4 206.4 651.6 206.4 C 651.6 206.4 651.6 206.4 651.6 206.4 Z M 319.0 5.0 C 324.5 4.9 327.4 5.2 324.2 5.3 C 325.5 5.1 317.2 5.2 319.0 5.0 C 319.0 5.0 319.0 5.0 319.0 5.0 Z M 519.2 2.1 C 514.2 2.0 511.3 2.1 510.7 2.0 C 515.6 1.9 515.1 2.0 519.3 2.0 C 519.6 1.9 522.2 1.9 522.7 2.0 C 520.3 2.0 520.8 2.1 519.2 2.1 C 519.2 2.1 519.2 2.1 519.2 2.1 Z M 740.4 190.3 C 740.4 189.8 740.5 187.8 740.6 188.8 C 740.5 194.0 740.7 200.2 740.8 204.7 C 740.7 204.7 740.6 204.6 740.5 204.5 C 740.6 196.2 740.5 193.8 740.4 190.3 C 740.4 190.3 740.4 190.3 740.4 190.3 Z M 740.7 179.9 C 740.6 179.0 740.4 181.8 740.4 178.0 C 740.6 178.3 740.8 171.7 740.8 174.8 C 740.7 175.8 740.7 177.5 740.7 179.9 C 740.7 179.9 740.7 179.9 740.7 179.9 Z M 480.9 210.0 C 476.8 210.0 482.9 210.2 482.8 210.3 C 479.7 210.2 475.5 210.2 474.1 210.1 C 477.2 210.2 479.2 209.9 480.9 210.0 C 480.9 210.0 480.9 210.0 480.9 210.0 Z M 544.2 209.6 C 553.1 209.6 549.5 209.9 558.3 210.0 C 554.8 210.1 546.9 210.0 544.7 210.2 C 544.9 210.1 542.7 210.1 542.8 210.0 C 546.0 210.0 546.6 210.0 549.7 210.0 C 548.4 209.8 548.5 209.9 549.5 209.7 C 547.2 209.7 545.7 209.8 544.4 209.8 C 545.0 209.7 541.7 209.6 544.2 209.6 C 544.2 209.6 544.2 209.6 544.2 209.6 Z M 482.3 209.5 C 478.8 209.6 475.6 209.3 478.7 209.4 C 479.2 209.5 481.5 209.3 482.2 209.4 C 477.2 209.5 486.3 209.5 484.1 209.7 C 481.0 209.7 480.1 209.7 480.8 209.8 C 478.8 209.8 475.8 209.9 475.6 209.8 C 476.9 209.8 478.9 209.8 478.9 209.7 C 477.9 209.7 476.9 209.7 477.2 209.7 C 480.2 209.7 481.5 209.6 482.3 209.5 C 482.3 209.5 482.3 209.5 482.3 209.5 Z M 506.3 209.5 C 501.6 209.5 501.0 209.4 499.2 209.2 C 505.6 209.3 506.8 209.5 511.6 209.7 C 506.3 209.6 501.3 209.9 499.5 209.7 C 501.8 209.7 506.0 209.7 506.3 209.5 C 506.3 209.5 506.3 209.5 506.3 209.5 Z M 3.1 135.8 C 3.2 131.8 3.3 128.5 3.4 124.0 C 3.2 122.4 2.8 130.6 3.0 127.2 C 2.9 122.4 3.2 125.7 3.2 122.0 C 2.9 125.6 2.9 105.6 3.2 104.9 C 3.2 107.9 3.3 109.0 3.4 108.3 C 3.4 116.4 3.5 119.7 3.6 125.7 C 3.3 130.0 3.3 142.7 3.5 149.7 C 3.1 154.1 3.5 162.5 3.3 168.6 C 3.4 170.3 3.5 163.4 3.5 168.7 C 3.3 172.0 3.2 169.3 3.1 173.8 C 3.2 174.1 3.4 173.2 3.4 175.5 C 3.3 175.2 3.3 178.0 3.2 179.0 C 3.2 169.6 2.9 179.5 2.9 172.1 C 3.0 169.1 3.2 175.3 3.2 166.9 C 3.1 163.9 3.1 161.0 2.9 161.6 C 2.9 159.3 2.9 157.9 2.8 156.4 C 3.1 159.7 2.8 144.6 3.0 151.4 C 3.0 151.9 3.0 156.6 3.1 160.0 C 3.3 157.0 3.2 153.3 3.1 147.9 C 3.2 145.7 3.3 148.9 3.3 146.3 C 3.2 142.0 3.0 147.7 3.0 144.5 C 2.9 145.8 3.0 147.8 2.9 147.8 C 3.1 140.7 2.9 137.7 2.9 134.0 C 3.0 136.6 3.1 129.9 3.1 135.8 C 3.1 135.8 3.1 135.8 3.1 135.8 Z M 3.3 198.0 C 3.3 199.7 3.3 201.4 3.3 203.2 C 3.1 203.6 3.1 196.8 3.0 201.4 C 3.0 193.8 3.2 201.7 3.3 198.0 C 3.3 198.0 3.3 198.0 3.3 198.0 Z M 4.0 163.7 C 4.2 161.3 3.7 162.5 3.7 160.2 C 3.8 164.3 3.8 168.2 3.6 168.7 C 3.7 163.8 3.7 161.6 3.6 156.6 C 3.9 161.5 3.8 151.3 4.0 149.8 C 4.1 153.7 4.2 156.7 4.2 161.9 C 4.1 161.1 4.0 168.6 4.0 163.7 C 4.0 163.7 4.0 163.7 4.0 163.7 Z M 4.2 177.5 C 4.1 178.5 4.2 186.0 4.0 184.3 C 4.0 179.8 4.0 178.1 3.8 179.1 C 3.8 175.7 3.9 175.3 3.9 172.2 C 4.1 170.4 4.1 175.8 4.2 177.5 C 4.2 176.5 4.2 175.5 4.2 177.5 C 4.2 177.5 4.2 177.5 4.2 177.5 Z M 101.8 206.9 C 103.3 207.1 96.3 207.0 94.9 207.0 C 96.9 207.1 95.9 207.2 91.6 207.3 C 93.2 207.0 86.9 207.1 83.0 206.8 C 82.1 207.0 87.1 207.1 81.2 207.1 C 76.7 207.1 72.7 207.2 65.9 207.2 C 64.3 207.0 67.3 207.0 69.2 206.9 C 64.5 206.9 65.8 206.8 62.3 206.8 C 63.0 206.9 60.2 206.9 59.0 206.8 C 65.0 206.8 50.9 206.6 57.3 206.5 C 57.6 206.6 59.1 206.6 60.6 206.5 C 59.0 206.8 67.3 206.7 69.2 206.8 C 72.5 206.4 81.3 206.6 91.5 206.7 C 92.2 206.8 89.1 206.9 91.6 206.9 C 91.9 206.8 95.2 206.8 96.7 206.8 C 96.6 206.9 97.9 206.9 100.1 207.0 C 100.3 206.9 100.4 206.9 101.8 206.9 C 101.8 206.9 101.8 206.9 101.8 206.9 Z M 154.9 5.8 C 154.7 6.1 165.6 5.9 168.6 5.9 C 168.3 6.2 148.9 6.1 154.9 5.8 C 154.9 5.8 154.9 5.8 154.9 5.8 Z M 88.3 6.0 C 91.1 6.0 89.0 5.9 91.5 5.9 C 91.8 6.0 98.0 5.7 98.3 5.9 C 95.3 6.0 93.2 6.0 88.3 6.0 C 88.3 6.0 88.3 6.0 88.3 6.0 Z M 26.5 6.0 C 31.5 5.9 23.7 5.9 24.6 5.8 C 29.0 5.8 33.5 5.8 33.3 6.0 C 29.4 5.9 27.1 6.1 26.5 6.0 C 26.5 6.0 26.5 6.0 26.5 6.0 Z M 119.1 6.2 C 123.3 6.3 116.6 6.5 115.9 6.4 C 120.3 6.3 112.8 6.2 109.0 6.3 C 109.0 6.1 110.7 6.1 108.7 5.9 C 114.6 5.8 109.8 6.1 114.0 6.1 C 116.7 6.0 113.8 6.0 113.8 5.9 C 115.5 5.9 117.2 5.9 118.8 5.9 C 118.9 6.0 119.0 6.1 119.0 6.2 C 117.0 6.2 115.0 6.2 115.8 6.3 C 117.5 6.3 117.8 6.2 119.1 6.2 C 119.1 6.2 119.1 6.2 119.1 6.2 Z M 12.7 206.5 C 10.0 206.6 12.4 206.6 14.4 206.7 C 14.9 206.6 16.5 206.2 19.5 206.4 C 12.9 206.6 21.5 206.7 17.9 206.8 C 16.4 206.6 12.4 206.8 9.2 206.8 C 7.8 206.6 11.2 206.4 12.7 206.5 C 12.7 206.5 12.7 206.5 12.7 206.5 Z M 24.7 206.7 C 24.4 206.6 23.2 206.6 21.2 206.6 C 23.4 206.5 20.4 206.4 23.0 206.4 C 22.7 206.4 31.7 206.5 26.4 206.5 C 21.7 206.4 27.7 206.6 29.9 206.7 C 27.6 206.7 23.4 206.9 22.9 206.7 C 24.0 206.7 25.0 206.7 24.7 206.7 C 24.7 206.7 24.7 206.7 24.7 206.7 Z M 135.9 206.4 C 136.6 206.3 133.6 206.3 132.6 206.2 C 141.2 206.3 148.8 206.3 153.1 206.3 C 149.1 206.3 149.1 206.5 151.5 206.5 C 147.1 206.5 146.1 206.6 144.6 206.5 C 148.3 206.3 141.3 206.4 135.9 206.4 C 135.9 206.4 135.9 206.4 135.9 206.4 Z M 135.9 206.4 " fill="#FFFFFF"></path></g></svg>