<?xml version="1.0" encoding="UTF-8" standalone="no"?><svg xmlns="http://www.w3.org/2000/svg" xmlns:xlink="http://www.w3.org/1999/xlink" clip-rule="evenodd" stroke-miterlimit="10" viewBox="0 0 1012 71"><desc>SVG generated by Keynote</desc><defs></defs><g transform="matrix(1.00, 0.00, -0.00, -1.00, 0.0, 71.0)"><path d="M 970.5 69.0 C 972.0 68.9 973.7 68.9 976.4 68.9 C 975.2 68.9 974.2 68.8 974.3 68.7 C 972.1 68.8 969.0 68.8 964.4 68.8 C 964.7 68.8 967.0 68.8 968.5 68.8 C 970.4 68.8 970.1 68.9 970.5 69.0 C 970.5 69.0 970.5 69.0 970.5 69.0 Z M 555.6 2.5 C 559.6 2.5 555.2 2.3 553.7 2.3 C 553.5 2.3 553.3 2.3 551.8 2.3 C 551.4 2.2 554.8 2.1 557.5 2.1 C 568.4 2.2 560.3 2.5 555.6 2.5 C 555.6 2.5 555.6 2.5 555.6 2.5 Z M 30.4 2.6 C 21.8 2.6 31.2 2.8 32.6 2.8 C 28.6 2.9 32.1 3.2 27.0 3.2 C 25.9 3.1 24.0 3.0 22.9 2.9 C 25.2 2.9 28.5 2.9 28.8 2.9 C 25.7 2.9 21.6 2.9 20.9 2.8 C 27.6 2.8 21.9 2.6 20.6 2.5 C 26.6 2.5 28.3 2.4 30.4 2.6 C 30.4 2.6 30.4 2.6 30.4 2.6 Z M 348.2 68.1 C 345.7 68.1 343.6 68.0 344.1 67.9 C 346.8 67.9 348.5 68.0 350.1 68.0 C 350.4 67.9 349.6 67.8 351.9 67.8 C 354.6 68.0 353.4 68.2 352.1 68.3 C 351.8 68.2 343.1 68.2 348.2 68.1 C 348.2 68.1 348.2 68.1 348.2 68.1 Z M 568.9 67.8 C 576.4 67.9 569.1 67.5 576.6 67.6 C 576.5 67.7 577.8 67.9 572.8 67.9 C 572.4 67.9 569.5 67.8 568.9 67.8 C 568.9 67.8 568.9 67.8 568.9 67.8 Z M 252.6 4.0 C 252.5 3.8 247.2 3.9 248.5 3.7 C 251.1 3.7 253.6 3.7 256.3 3.7 C 256.9 3.9 256.0 3.9 252.6 4.0 C 252.6 4.0 252.6 4.0 252.6 4.0 Z M 3.4 34.5 C 3.2 43.5 3.5 53.2 3.3 50.3 C 3.1 53.7 2.8 43.7 3.0 44.2 C 3.2 43.3 3.4 27.4 3.4 34.5 C 3.4 34.5 3.4 34.5 3.4 34.5 Z M 510.4 5.6 C 501.1 5.4 503.0 5.9 496.9 5.7 C 499.0 5.7 500.0 5.6 500.7 5.6 C 499.2 5.6 496.9 5.6 496.9 5.5 C 501.3 5.5 506.6 5.4 510.4 5.6 C 510.4 5.6 510.4 5.6 510.4 5.6 Z M 837.2 68.5 C 835.7 68.6 835.0 68.6 835.2 68.7 C 829.1 68.6 829.4 68.8 825.5 68.7 C 825.1 68.4 830.3 68.5 835.1 68.5 C 835.3 68.5 836.8 68.5 837.2 68.5 C 837.2 68.5 837.2 68.5 837.2 68.5 Z M 664.6 67.9 C 664.9 68.0 668.6 68.1 662.9 68.1 C 656.3 67.9 661.9 67.8 668.5 67.6 C 668.4 67.6 668.4 67.5 668.3 67.4 C 665.6 67.4 663.9 67.4 662.4 67.3 C 661.4 67.6 656.7 67.1 646.7 67.3 C 651.4 67.2 646.1 66.9 652.5 67.0 C 650.6 66.9 655.0 66.9 654.2 66.7 C 651.6 66.8 644.9 66.8 646.6 67.0 C 643.1 67.1 640.5 67.0 638.7 67.0 C 636.1 66.8 645.0 66.9 642.4 66.7 C 640.5 66.7 640.1 66.7 638.5 66.7 C 638.2 66.8 639.0 66.9 636.7 66.9 C 630.4 66.8 637.7 66.6 628.8 66.6 C 628.3 66.7 631.0 66.8 630.8 66.9 C 626.9 67.0 627.0 66.8 623.1 66.9 C 622.2 66.8 625.8 66.8 623.0 66.7 C 620.6 67.0 614.7 66.6 609.3 66.8 C 613.3 67.2 608.3 66.7 603.6 67.1 C 602.4 67.0 605.8 66.8 601.4 66.7 C 603.2 67.2 585.7 67.1 600.0 67.5 C 592.5 67.5 590.3 67.8 596.2 67.9 C 583.2 67.8 587.5 68.0 582.6 68.1 C 577.6 68.0 585.2 68.0 582.5 67.8 C 587.8 67.8 586.4 67.7 590.3 67.8 C 590.2 67.7 591.1 67.7 592.3 67.6 C 587.0 67.8 580.6 67.5 584.2 67.3 C 586.9 67.3 584.6 67.5 588.2 67.5 C 586.7 67.3 592.0 67.6 592.1 67.4 C 589.5 67.2 597.0 67.0 589.7 66.9 C 589.8 67.0 589.9 67.1 589.9 67.2 C 588.0 67.2 586.1 67.2 584.2 67.2 C 582.4 67.0 583.7 66.9 581.9 66.9 C 578.7 66.9 577.0 66.9 576.1 67.0 C 580.1 67.0 584.9 67.2 578.3 67.2 C 580.6 66.9 568.9 67.1 574.1 66.9 C 566.8 66.8 563.4 67.1 562.5 66.9 C 558.7 66.9 561.3 67.1 556.7 67.0 C 549.4 66.9 550.8 67.1 541.0 67.0 C 540.1 67.3 540.1 66.9 537.0 66.9 C 537.1 67.0 537.1 67.1 537.2 67.2 C 533.7 67.1 525.8 67.0 517.7 67.2 C 515.6 67.1 517.0 66.9 511.7 67.0 C 506.1 67.2 499.2 67.0 492.4 67.2 C 491.8 67.1 487.0 67.1 484.6 67.2 C 483.4 67.1 486.7 66.9 482.4 66.9 C 479.6 67.0 484.7 67.1 478.7 67.2 C 479.2 67.0 473.0 67.3 472.8 67.1 C 474.6 67.0 476.7 67.0 478.6 66.9 C 475.9 66.9 476.6 66.8 474.5 66.8 C 475.0 67.1 470.2 66.8 468.6 66.8 C 468.9 66.9 468.3 67.0 466.8 67.0 C 463.4 67.0 460.7 67.1 459.0 67.1 C 454.6 67.0 461.5 67.0 457.1 66.9 C 455.2 67.4 450.6 66.9 441.6 67.2 C 439.4 67.0 435.6 66.9 429.7 66.9 C 429.1 67.1 435.4 67.0 435.6 67.1 C 427.0 67.1 437.2 67.2 431.7 67.2 C 419.5 67.1 411.5 67.1 398.5 67.0 C 398.7 67.1 388.7 67.2 388.8 67.2 C 391.5 67.1 383.2 66.9 379.0 66.9 C 378.0 67.2 371.6 67.5 371.3 67.6 C 369.7 67.5 370.1 67.5 369.2 67.2 C 362.0 67.1 358.2 67.4 353.6 67.1 C 354.0 67.3 350.6 67.3 347.7 67.3 C 348.5 67.2 350.1 67.1 351.6 67.0 C 347.8 67.0 347.2 66.9 343.8 66.9 C 340.5 67.4 334.6 66.8 332.1 67.3 C 326.6 67.3 327.5 67.1 322.3 67.1 C 322.6 67.2 322.0 67.3 320.5 67.3 C 323.9 67.3 326.4 67.1 328.3 67.3 C 320.7 67.4 342.8 67.8 330.5 68.1 C 330.1 68.0 331.2 67.8 328.5 67.8 C 321.5 67.9 325.7 68.1 328.6 68.1 C 323.8 68.2 318.8 68.1 322.7 68.3 C 311.9 68.4 318.7 68.2 314.9 68.1 C 295.5 68.3 271.1 68.3 244.5 68.1 C 243.6 68.4 229.5 68.1 224.9 68.0 C 217.5 68.2 209.7 68.2 207.3 68.0 C 206.0 68.2 198.2 67.9 197.4 68.1 C 200.7 68.0 202.8 68.1 199.6 68.2 C 188.7 68.1 172.5 68.0 166.2 68.2 C 162.4 67.9 155.3 68.0 150.6 68.1 C 149.8 68.0 153.6 68.0 150.5 67.9 C 149.6 68.1 139.5 68.2 137.0 68.1 C 140.1 68.1 143.5 67.8 138.9 67.8 C 138.9 67.9 133.6 67.9 134.9 68.1 C 128.4 68.0 124.6 68.1 119.3 68.0 C 123.7 68.0 126.3 67.9 127.1 67.8 C 123.3 67.9 120.4 67.9 117.4 67.8 C 118.2 68.0 112.0 67.9 105.8 68.0 C 104.0 67.9 102.7 67.8 97.7 67.8 C 95.3 68.0 105.6 68.0 99.9 68.1 C 99.9 68.0 94.5 67.9 95.9 68.1 C 89.2 68.0 85.6 68.1 80.2 67.9 C 87.1 68.0 81.9 67.7 80.2 67.7 C 78.7 67.7 76.4 67.7 76.4 67.8 C 76.4 67.8 79.8 67.8 80.2 67.9 C 75.4 67.8 74.1 68.1 72.4 67.9 C 74.5 67.9 74.9 67.8 72.4 67.8 C 71.8 68.1 57.9 67.9 62.7 67.8 C 62.7 67.8 68.0 67.8 68.6 67.8 C 67.1 67.7 59.1 67.8 60.8 67.6 C 65.3 67.6 65.0 67.7 70.5 67.6 C 71.0 67.5 74.3 67.5 76.4 67.4 C 67.6 67.4 65.7 67.6 64.6 67.4 C 60.8 67.4 63.1 67.6 56.8 67.6 C 47.8 67.5 55.2 67.3 52.9 67.3 C 44.9 67.4 47.4 67.6 50.9 67.8 C 44.6 67.8 42.7 67.9 35.2 67.9 C 35.6 67.8 36.6 67.7 39.2 67.6 C 39.4 67.7 45.7 67.8 45.2 67.7 C 44.6 67.4 39.4 67.3 31.4 67.3 C 33.3 67.5 33.5 67.4 25.5 67.4 C 26.9 67.7 21.7 67.4 21.5 67.5 C 21.9 67.6 24.8 67.6 27.4 67.6 C 27.2 67.7 26.3 67.8 23.6 67.8 C 21.9 67.7 20.6 67.8 15.8 67.8 C 15.4 67.6 18.9 67.6 19.6 67.5 C 17.0 67.5 16.4 67.6 13.7 67.6 C 11.4 67.4 11.6 67.2 11.8 66.9 C 14.8 66.9 19.6 66.9 15.8 66.7 C 27.2 66.7 15.2 67.0 19.6 67.0 C 24.4 66.8 21.7 67.1 29.3 67.1 C 31.6 67.1 32.4 67.0 33.3 67.0 C 32.7 66.9 28.4 66.7 33.3 66.7 C 34.5 66.9 37.1 66.9 41.1 67.0 C 41.1 66.9 32.9 66.8 41.1 66.8 C 45.1 66.8 41.5 67.1 47.0 67.0 C 47.0 67.0 48.5 67.0 48.9 66.9 C 40.9 66.9 50.4 66.8 45.1 66.7 C 52.0 66.6 46.3 66.9 50.8 66.9 C 51.0 66.7 58.4 67.0 58.6 66.7 C 55.8 66.8 50.1 66.8 50.8 66.6 C 56.0 66.7 79.7 66.5 70.4 66.8 C 73.8 66.7 91.1 66.4 89.8 66.6 C 84.7 66.5 84.9 66.7 84.1 66.8 C 93.8 66.6 98.8 66.7 109.4 66.5 C 97.8 66.5 106.5 66.2 99.7 66.0 C 96.6 66.0 92.4 66.0 91.7 66.1 C 93.0 66.3 97.8 66.2 99.7 66.1 C 99.7 66.2 99.7 66.4 99.7 66.6 C 87.0 66.4 80.1 66.6 74.2 66.5 C 79.4 66.5 64.5 66.2 70.4 66.2 C 72.9 66.3 79.0 66.3 84.1 66.4 C 84.1 66.3 84.1 66.3 84.1 66.2 C 86.4 66.2 89.6 66.2 89.8 66.1 C 82.8 66.2 78.9 66.0 74.2 66.1 C 74.2 66.1 74.2 66.1 74.2 66.0 C 73.0 66.0 71.9 66.0 72.3 66.0 C 74.6 66.0 77.8 66.0 78.2 65.9 C 73.0 65.9 72.1 65.7 66.4 65.7 C 67.7 65.4 60.1 65.2 68.4 65.1 C 69.8 65.3 74.3 65.4 74.1 65.5 C 76.6 65.6 81.6 65.5 84.0 65.4 C 81.5 65.3 76.6 65.2 76.2 65.1 C 80.2 65.0 83.4 65.0 85.9 65.1 C 77.5 65.2 90.5 65.3 93.7 65.5 C 92.8 65.4 90.9 65.3 89.7 65.2 C 96.2 65.2 99.2 65.4 99.6 65.1 C 107.4 65.0 105.7 65.3 111.2 65.2 C 107.5 65.0 114.8 65.1 111.1 64.9 C 120.3 64.8 113.8 65.1 117.1 65.1 C 119.9 65.1 120.3 65.0 122.9 65.0 C 127.1 65.1 135.5 65.1 136.7 65.4 C 140.3 65.3 140.9 65.4 144.5 65.4 C 145.4 65.4 146.5 65.3 148.2 65.2 C 148.8 65.3 151.5 65.4 152.2 65.3 C 142.1 65.0 145.0 65.0 134.5 64.8 C 133.8 64.9 132.2 64.9 134.5 65.0 C 127.3 65.0 125.2 64.9 118.9 64.9 C 118.2 64.8 116.8 64.5 111.1 64.7 C 112.4 64.5 110.9 64.5 113.2 64.4 C 116.2 64.5 120.4 64.6 124.8 64.6 C 125.2 64.6 124.4 64.5 126.7 64.5 C 128.8 64.6 132.0 64.6 134.7 64.5 C 134.7 64.6 133.7 64.7 132.6 64.7 C 142.3 64.8 138.8 64.5 146.3 64.6 C 145.1 64.5 140.4 64.5 144.3 64.4 C 151.0 64.4 152.5 64.5 155.9 64.5 C 156.5 64.5 156.1 64.4 158.0 64.4 C 162.8 64.5 147.6 64.8 156.0 65.0 C 156.5 64.8 164.7 64.9 165.9 65.0 C 163.2 65.2 158.5 64.9 158.1 65.1 C 172.9 65.1 158.5 65.3 173.7 65.4 C 173.7 65.3 173.7 65.3 173.7 65.2 C 167.6 65.2 167.4 65.1 167.8 64.9 C 162.4 64.9 160.3 64.6 156.0 64.8 C 157.6 64.4 160.3 64.7 165.8 64.8 C 165.6 64.6 160.7 64.6 159.9 64.4 C 172.5 64.6 175.1 64.3 187.1 64.6 C 184.2 64.4 193.7 64.5 192.9 64.4 C 182.5 64.4 186.8 63.9 185.1 63.9 C 178.2 63.9 181.3 64.2 177.4 64.3 C 175.4 64.2 176.4 64.1 177.3 63.8 C 183.3 63.9 182.4 63.8 187.1 63.7 C 191.1 63.9 194.6 64.2 189.1 64.3 C 190.3 64.3 198.2 64.2 198.8 64.3 C 191.2 64.3 199.6 64.4 195.0 64.5 C 201.0 64.6 211.4 64.4 218.4 64.6 C 217.8 64.5 220.5 64.4 220.3 64.3 C 213.1 64.5 211.7 64.1 204.6 64.1 C 207.7 64.1 206.0 64.0 204.6 63.9 C 211.5 64.0 215.2 63.9 220.2 64.0 C 220.2 64.0 220.2 63.9 220.2 63.9 C 228.5 64.0 227.4 63.9 233.8 63.8 C 236.3 63.9 233.0 64.2 232.1 64.4 C 235.1 64.3 246.3 64.4 239.8 64.2 C 246.4 64.2 244.8 64.4 251.4 64.4 C 251.6 64.2 245.3 64.2 247.5 64.0 C 253.8 63.9 250.2 64.2 255.3 64.0 C 255.5 64.2 255.8 64.4 261.1 64.3 C 257.3 64.2 261.6 64.3 263.1 64.2 C 260.7 64.1 258.6 64.1 257.2 64.0 C 266.9 64.1 268.8 64.1 276.6 64.0 C 273.8 64.2 278.2 64.3 272.9 64.4 C 277.8 64.3 283.9 64.5 286.6 64.4 C 283.5 64.3 278.6 64.3 276.6 64.2 C 292.2 64.2 300.3 63.9 313.6 64.2 C 311.4 64.2 308.1 64.2 307.8 64.3 C 309.3 64.3 311.8 64.3 311.8 64.3 C 307.0 64.3 302.5 64.3 300.0 64.4 C 295.8 64.3 302.5 64.3 298.1 64.2 C 297.4 64.3 289.2 64.2 292.3 64.5 C 299.6 64.3 306.7 64.5 310.0 64.8 C 316.7 64.4 310.3 64.4 317.6 64.1 C 317.4 64.2 319.2 64.3 321.5 64.3 C 319.1 64.0 328.2 64.2 329.2 64.2 C 325.8 64.3 312.9 64.4 319.7 64.6 C 316.5 64.2 334.7 64.8 331.2 64.4 C 339.5 64.4 336.6 64.6 341.0 64.4 C 341.3 64.5 340.7 64.6 343.0 64.6 C 345.3 64.6 346.0 64.5 347.0 64.5 C 335.3 64.4 338.7 64.1 331.1 64.1 C 332.4 64.1 333.5 64.1 333.1 64.0 C 333.1 64.0 333.3 64.0 335.0 64.0 C 335.7 64.2 341.1 63.9 342.8 64.1 C 340.6 64.1 338.3 64.1 339.1 64.2 C 348.8 64.2 347.1 64.4 360.5 64.5 C 356.4 64.4 361.7 64.4 366.3 64.3 C 372.7 64.4 370.4 64.7 378.2 64.6 C 377.2 64.2 386.3 64.7 395.5 64.4 C 394.7 64.6 406.9 64.7 409.3 64.5 C 409.7 64.6 414.0 64.6 417.1 64.6 C 417.9 64.7 414.3 64.7 417.1 64.8 C 419.8 64.7 417.2 64.5 420.8 64.5 C 425.0 64.6 424.4 64.8 430.6 64.8 C 430.8 64.6 427.4 64.6 430.5 64.5 C 436.1 64.6 441.0 64.6 436.4 64.4 C 444.5 64.4 440.7 64.7 448.3 64.7 C 446.0 64.6 446.1 64.6 450.1 64.5 C 453.0 64.7 453.2 64.7 454.2 64.8 C 456.4 64.7 455.7 64.6 461.9 64.7 C 461.9 64.6 461.9 64.5 461.8 64.5 C 464.7 64.5 468.9 64.4 469.7 64.5 C 464.3 64.5 465.9 64.6 463.8 64.7 C 469.2 64.7 479.5 64.9 471.6 64.7 C 479.0 64.6 475.5 64.9 481.4 64.8 C 477.7 64.6 481.2 64.8 487.2 64.8 C 486.6 64.5 491.2 64.7 495.0 64.7 C 494.4 64.6 495.3 64.5 498.7 64.5 C 498.5 64.6 500.8 64.6 504.6 64.6 C 504.6 64.5 496.4 64.4 504.5 64.4 C 508.4 64.5 508.5 64.7 514.6 64.7 C 516.0 64.9 509.1 64.8 510.7 65.0 C 515.6 64.8 517.2 65.0 524.4 65.0 C 521.4 64.7 538.6 64.6 530.0 64.4 C 532.5 64.4 535.7 64.2 537.7 64.3 C 535.1 64.4 539.9 64.5 539.8 64.6 C 543.2 64.5 551.2 64.7 551.3 64.5 C 543.9 64.6 543.8 64.4 541.5 64.3 C 552.3 64.2 561.8 64.3 561.2 64.5 C 561.1 64.4 562.6 64.4 563.0 64.3 C 559.2 64.4 556.6 64.1 560.9 64.0 C 560.1 64.2 563.3 64.3 566.8 64.3 C 566.9 64.2 581.3 64.4 578.5 64.2 C 572.8 64.3 568.1 64.0 572.4 63.9 C 576.1 64.1 584.0 64.2 582.4 64.3 C 584.4 64.3 586.3 64.2 588.1 64.2 C 589.7 64.0 585.4 64.0 586.1 63.9 C 588.9 63.9 593.3 63.8 593.9 63.9 C 586.1 63.9 597.9 64.0 590.0 64.2 C 595.0 64.1 596.2 64.3 600.0 64.3 C 599.9 64.2 601.5 64.2 601.8 64.2 C 598.5 64.3 595.0 64.2 595.8 64.0 C 602.8 63.9 601.8 64.2 607.7 64.2 C 609.3 64.0 617.1 63.8 621.2 63.9 C 613.4 63.9 621.8 64.0 617.3 64.1 C 610.2 64.0 608.5 64.2 605.9 64.3 C 609.0 64.4 614.9 64.5 615.5 64.3 C 611.7 64.3 611.8 64.4 609.7 64.4 C 609.9 64.3 610.9 64.2 613.6 64.2 C 616.9 64.3 624.0 64.1 619.4 64.4 C 624.3 64.3 629.9 64.5 635.0 64.3 C 629.2 64.3 625.0 64.2 623.2 64.1 C 627.9 64.0 632.8 64.2 632.9 64.1 C 632.2 63.9 624.7 64.0 623.1 63.9 C 629.0 63.7 638.7 64.2 630.8 63.8 C 634.3 63.8 639.0 63.8 640.6 63.9 C 636.4 63.9 641.1 64.2 642.9 64.2 C 646.5 64.2 649.3 64.2 650.6 64.1 C 645.1 64.2 640.8 63.9 644.6 63.9 C 645.6 64.0 646.6 63.9 648.3 63.9 C 648.8 64.0 655.0 63.9 656.2 64.0 C 655.7 63.9 652.9 63.9 652.3 63.8 C 655.8 63.7 661.0 63.5 663.8 63.7 C 661.5 63.7 658.3 63.7 658.1 63.8 C 668.4 64.1 671.7 64.3 683.8 64.4 C 682.3 64.4 681.5 64.4 682.0 64.5 C 689.6 64.5 694.6 64.6 693.7 64.8 C 698.4 64.7 700.8 64.6 703.2 64.5 C 698.2 64.4 696.6 64.6 693.5 64.5 C 695.4 64.4 689.5 64.1 687.3 64.0 C 679.1 64.2 678.3 63.9 669.8 64.0 C 672.2 63.8 663.5 63.9 665.9 63.7 C 674.0 64.0 681.5 63.8 693.1 63.9 C 691.7 64.1 690.5 64.2 695.3 64.3 C 702.8 64.4 699.0 64.1 705.1 64.2 C 707.7 64.3 704.1 64.3 707.1 64.4 C 709.2 64.3 714.9 64.3 716.9 64.5 C 708.9 64.5 718.5 64.7 713.3 64.8 C 715.9 64.8 717.5 64.8 719.2 64.8 C 711.3 64.6 726.8 64.6 720.8 64.4 C 731.6 64.3 721.9 64.9 730.8 64.8 C 726.3 64.7 732.0 64.6 738.5 64.6 C 740.3 64.8 747.0 64.9 752.4 64.9 C 749.4 64.8 747.3 64.8 752.2 64.7 C 749.5 64.6 744.9 64.6 742.5 64.7 C 742.4 64.6 741.5 64.6 740.3 64.5 C 746.7 64.5 744.0 64.4 746.0 64.3 C 748.0 64.4 752.7 64.4 753.9 64.5 C 753.9 64.5 755.6 64.4 755.8 64.4 C 747.6 64.4 756.9 64.1 751.7 64.1 C 748.1 64.1 750.6 64.3 746.0 64.3 C 741.4 64.0 749.4 64.0 751.6 63.9 C 747.7 63.7 743.3 64.0 741.8 63.7 C 746.6 63.5 754.6 63.7 761.1 63.7 C 760.6 63.5 772.0 63.8 772.7 63.5 C 773.7 63.6 774.9 63.6 776.7 63.7 C 778.4 63.5 780.7 63.7 782.6 63.7 C 782.7 63.6 782.1 63.6 780.5 63.5 C 788.5 63.6 790.4 63.6 799.9 63.5 C 801.5 63.6 803.3 63.7 804.1 63.9 C 801.9 63.9 799.8 63.9 798.3 64.0 C 811.3 64.0 802.5 63.5 811.9 63.8 C 811.4 63.7 805.0 63.5 809.7 63.4 C 818.0 63.7 829.4 63.5 829.5 64.0 C 836.8 64.1 841.5 63.8 845.1 64.0 C 847.3 64.0 848.1 64.0 849.0 63.9 C 846.6 63.8 843.7 63.7 840.9 63.6 C 836.6 63.7 834.6 63.5 839.0 63.8 C 832.6 63.8 830.7 63.7 827.3 63.6 C 836.1 63.5 844.4 63.7 844.5 63.4 C 847.7 63.5 850.0 63.6 852.6 63.7 C 853.4 63.6 863.4 63.5 864.4 63.7 C 857.5 63.7 850.7 63.9 856.8 64.0 C 873.4 63.9 883.0 64.2 897.7 64.0 C 898.1 64.1 897.1 64.3 899.8 64.3 C 899.7 64.2 900.2 64.1 901.6 64.0 C 906.2 64.1 908.9 64.1 915.2 64.1 C 915.0 64.3 916.0 64.4 919.5 64.5 C 921.2 64.3 927.2 63.9 930.8 64.0 C 927.0 64.0 932.2 64.2 934.8 64.2 C 932.3 64.0 952.5 64.4 946.6 64.2 C 954.5 64.2 958.0 64.3 958.3 64.3 C 961.1 64.3 963.2 64.3 966.0 64.2 C 967.9 64.5 981.6 64.3 983.6 64.4 C 978.8 64.3 978.1 64.6 981.9 64.6 C 984.4 64.4 996.8 64.3 999.1 64.3 C 998.4 64.4 997.7 64.6 991.6 64.6 C 1001.9 64.7 1001.6 64.4 1004.9 64.2 C 1004.8 64.3 1005.4 64.3 1006.3 64.3 C 1006.3 63.0 1006.2 60.8 1006.2 59.9 C 1006.3 56.9 1006.2 60.1 1006.4 60.1 C 1006.4 56.7 1006.5 55.5 1006.5 50.9 C 1006.3 52.1 1006.4 47.1 1006.5 45.3 C 1006.3 44.5 1006.2 42.0 1006.2 37.9 C 1006.5 43.5 1006.6 14.4 1006.3 21.3 C 1006.2 15.7 1006.6 15.4 1006.5 8.2 C 1006.5 7.8 1006.5 7.1 1006.5 6.5 C 1004.9 6.5 1003.7 6.5 1006.3 6.6 C 1006.3 6.6 1006.3 6.6 1006.3 6.6 C 1006.3 6.6 1006.3 6.6 1006.3 6.6 C 1000.2 6.6 1004.1 6.4 996.6 6.5 C 999.6 6.7 989.3 6.4 990.7 6.7 C 987.8 6.4 981.3 6.8 975.3 6.5 C 975.3 6.6 973.5 6.6 973.1 6.7 C 972.1 6.7 980.6 6.8 975.0 6.8 C 968.5 6.7 972.2 6.6 971.3 6.5 C 953.4 6.6 931.9 6.5 913.0 6.5 C 915.2 6.6 914.9 6.6 910.9 6.7 C 905.7 6.3 883.4 6.5 879.9 6.6 C 878.0 6.4 866.4 6.6 864.4 6.5 C 866.7 6.5 871.2 6.3 866.5 6.3 C 863.3 6.5 859.4 6.4 854.7 6.5 C 852.6 6.3 838.6 6.6 845.1 6.2 C 842.5 6.2 841.0 6.2 839.5 6.1 C 839.1 6.3 836.3 6.3 841.2 6.4 C 828.5 6.3 825.4 6.5 815.8 6.3 C 814.0 6.4 821.6 6.5 815.7 6.5 C 815.7 6.5 815.7 6.5 815.7 6.4 C 813.7 6.4 812.8 6.5 812.0 6.4 C 812.4 6.3 815.6 6.3 815.9 6.1 C 811.1 6.2 808.1 5.9 806.3 6.1 C 812.9 6.1 808.1 6.5 804.2 6.3 C 807.9 6.2 788.9 6.3 782.7 6.4 C 779.8 6.2 789.4 6.4 788.7 6.2 C 777.3 6.3 778.3 6.2 776.9 6.4 C 770.8 6.4 768.6 6.2 761.3 6.4 C 757.2 6.3 763.9 6.2 759.5 6.2 C 756.9 6.2 755.7 6.3 751.7 6.4 C 741.4 6.0 716.7 6.6 705.2 6.0 C 709.8 6.1 703.5 6.3 697.3 6.2 C 696.9 6.2 697.7 6.1 695.5 6.1 C 695.8 6.2 693.7 6.2 689.5 6.2 C 689.2 6.2 690.0 6.1 687.7 6.1 C 685.9 6.3 680.8 6.1 677.8 6.2 C 676.5 6.0 685.0 6.1 685.6 5.9 C 675.6 5.8 673.8 6.0 666.3 5.9 C 670.3 5.9 663.5 5.8 662.4 5.7 C 664.0 5.9 657.9 6.0 662.2 6.1 C 659.4 6.1 655.0 6.1 654.5 6.1 C 656.0 6.0 658.5 6.1 658.5 6.0 C 654.9 6.0 650.4 5.8 648.6 6.0 C 651.1 6.0 652.6 6.1 652.5 6.2 C 651.6 6.3 650.4 6.3 648.5 6.4 C 654.1 5.9 637.9 6.1 637.0 6.2 C 635.5 5.9 634.6 5.9 635.2 5.8 C 628.3 5.8 629.2 6.0 625.2 6.1 C 626.4 5.8 627.8 5.7 621.6 5.6 C 622.8 5.8 615.2 5.8 617.5 6.1 C 601.3 6.1 598.0 5.9 588.3 5.9 C 588.1 5.9 591.1 6.0 588.2 6.0 C 583.7 5.9 579.7 5.9 576.7 5.8 C 574.2 5.9 577.6 5.9 574.8 6.0 C 567.6 5.8 569.3 5.6 563.1 5.5 C 555.3 5.6 558.1 5.5 553.4 5.7 C 555.4 5.7 558.1 5.8 555.2 5.8 C 550.5 5.6 548.6 5.4 547.5 5.4 C 550.9 5.4 553.6 5.4 555.3 5.5 C 556.4 5.3 561.2 5.3 557.2 5.2 C 562.1 5.3 567.6 5.3 574.9 5.3 C 572.4 5.1 581.1 5.2 578.7 5.0 C 570.7 5.1 568.8 4.9 561.2 5.0 C 562.9 5.2 554.9 5.1 553.4 5.0 C 553.4 5.2 548.1 5.1 549.4 5.3 C 543.5 5.3 543.7 5.2 537.8 5.2 C 537.4 5.1 538.2 5.0 535.9 5.0 C 533.8 5.2 531.9 5.0 530.0 5.0 C 531.3 5.2 522.8 5.1 522.2 5.2 C 524.5 5.2 527.7 5.2 528.1 5.3 C 518.6 5.3 526.2 5.4 528.1 5.6 C 527.7 5.5 531.2 5.2 531.9 5.4 C 523.9 5.5 543.1 5.7 535.9 5.6 C 529.8 5.6 530.2 5.7 524.1 5.7 C 516.9 5.4 525.5 5.2 518.2 4.9 C 513.9 5.1 510.8 5.0 510.4 5.2 C 509.5 5.1 508.3 5.1 506.6 5.0 C 504.7 5.1 512.3 5.2 506.6 5.3 C 503.6 5.2 507.0 5.0 500.7 5.0 C 498.1 5.2 508.3 5.2 502.6 5.3 C 496.6 5.0 504.0 5.4 496.9 5.4 C 496.4 5.3 495.2 5.3 492.9 5.3 C 492.6 5.2 493.5 5.1 491.0 5.1 C 489.7 5.4 488.4 5.0 483.2 5.0 C 480.4 5.3 488.6 5.1 487.1 5.3 C 481.2 5.1 477.7 5.4 475.5 5.3 C 480.2 5.2 468.0 5.2 467.6 5.0 C 469.0 5.2 466.3 5.1 459.7 5.3 C 459.3 5.0 451.7 5.2 450.0 5.0 C 449.0 5.1 447.1 5.1 446.2 5.2 C 448.5 5.2 450.7 5.2 450.0 5.3 C 448.1 5.3 446.2 5.3 444.1 5.3 C 440.9 5.2 449.2 4.8 436.2 4.9 C 437.8 5.1 432.3 5.1 428.7 5.2 C 429.1 5.4 433.8 5.2 434.4 5.3 C 430.1 5.5 425.5 5.3 422.8 5.2 C 415.2 5.3 406.3 5.2 395.4 5.3 C 392.9 5.1 404.5 5.1 397.3 5.0 C 394.2 5.0 395.8 5.2 391.6 5.2 C 395.2 4.4 362.3 5.0 360.1 4.7 C 358.8 4.8 349.5 4.7 350.5 5.0 C 356.7 4.8 361.2 5.0 364.2 5.2 C 370.1 5.1 358.9 5.0 364.2 4.9 C 364.8 5.0 372.7 4.9 372.0 5.1 C 363.7 5.1 376.4 5.3 370.2 5.5 C 362.4 5.4 347.1 5.6 350.6 5.4 C 350.6 5.5 354.1 5.5 354.4 5.4 C 345.7 5.3 340.6 5.5 337.0 5.6 C 333.0 5.4 317.5 5.7 321.4 5.6 C 320.0 5.4 330.7 5.6 329.2 5.5 C 313.0 5.4 312.7 5.5 302.0 5.4 C 305.5 5.6 290.9 5.7 292.2 5.6 C 292.1 5.5 288.8 5.3 282.5 5.5 C 283.3 5.3 279.9 5.3 276.4 5.2 C 275.0 5.4 279.3 5.4 278.7 5.5 C 275.4 5.5 272.0 5.5 268.8 5.5 C 268.6 5.4 269.1 5.3 266.8 5.3 C 263.2 5.4 250.2 5.6 251.3 5.5 C 256.7 5.3 242.3 5.3 251.1 5.2 C 248.6 5.2 248.4 5.1 245.2 5.1 C 245.2 5.2 245.3 5.3 245.3 5.3 C 238.1 5.4 241.6 5.0 235.5 5.0 C 234.9 5.1 232.3 5.1 231.6 5.2 C 234.0 5.2 234.2 5.1 237.4 5.2 C 234.0 5.5 244.0 5.3 243.5 5.5 C 236.7 5.5 236.6 5.4 233.7 5.3 C 225.2 5.4 229.2 5.3 220.0 5.3 C 220.0 5.4 222.5 5.4 222.0 5.5 C 211.0 5.4 211.9 5.0 204.3 5.2 C 206.0 5.1 212.8 5.0 208.0 5.0 C 203.0 5.1 201.6 5.3 194.7 5.3 C 194.3 5.2 194.8 5.1 192.5 5.1 C 189.7 5.2 189.6 5.3 187.0 5.4 C 186.4 5.3 182.6 5.4 181.1 5.4 C 178.5 5.2 181.9 5.2 178.9 5.2 C 173.2 5.2 170.4 5.6 165.6 5.5 C 165.6 5.3 160.4 5.4 155.7 5.4 C 154.7 5.2 144.7 5.2 138.0 5.2 C 139.7 5.3 132.8 5.3 134.4 5.5 C 137.6 5.5 139.4 5.5 140.2 5.6 C 132.6 5.6 130.1 5.2 124.6 5.5 C 121.6 5.4 117.9 5.3 112.8 5.2 C 112.3 5.3 122.0 5.4 116.7 5.5 C 116.3 5.4 114.6 5.4 112.9 5.5 C 113.5 5.3 109.3 5.2 106.8 5.1 C 102.3 5.2 92.6 5.0 97.2 5.2 C 90.0 5.3 94.5 4.9 88.9 4.9 C 92.0 5.2 82.5 5.2 87.4 5.3 C 80.0 5.4 80.3 5.1 83.3 5.0 C 76.4 4.9 75.0 5.1 71.5 5.0 C 74.9 5.2 64.5 5.3 69.7 5.2 C 71.3 5.0 63.4 5.1 61.8 5.0 C 64.4 5.1 60.8 5.1 65.8 5.2 C 60.7 5.3 53.1 5.3 48.2 5.1 C 41.8 5.2 35.8 5.2 38.5 5.0 C 32.4 5.1 34.7 5.1 28.6 5.0 C 28.6 5.1 30.3 5.1 30.8 5.2 C 22.4 5.2 24.0 5.0 13.0 5.0 C 14.1 4.8 7.0 4.8 4.8 4.7 C 9.4 4.7 13.1 4.8 16.7 4.8 C 17.4 4.7 13.7 4.6 16.6 4.6 C 17.0 4.7 18.7 4.7 20.5 4.7 C 13.3 4.6 29.3 4.4 24.4 4.6 C 24.3 4.6 23.9 4.5 22.4 4.6 C 23.9 4.7 23.8 4.7 22.7 4.9 C 26.2 4.8 29.3 5.0 30.5 4.9 C 30.2 4.8 26.8 4.8 26.4 4.7 C 35.2 4.6 29.3 5.0 36.2 4.9 C 37.6 4.7 33.9 4.7 32.1 4.6 C 38.6 4.5 44.1 4.5 45.9 4.7 C 51.8 4.6 45.4 4.5 49.5 4.4 C 51.7 4.5 51.6 4.7 55.6 4.7 C 59.9 4.6 53.0 4.5 57.4 4.5 C 62.2 4.6 54.4 4.8 61.6 4.8 C 59.7 4.5 68.1 4.8 67.4 4.7 C 63.3 4.7 63.0 4.4 65.3 4.6 C 75.0 4.9 81.1 4.2 90.8 4.6 C 90.7 4.6 92.2 4.5 92.6 4.5 C 85.4 4.4 74.9 4.4 72.8 4.1 C 67.1 4.1 68.1 4.3 67.2 4.4 C 60.3 4.2 60.8 4.1 64.6 3.8 C 75.8 3.8 80.7 3.9 88.2 4.0 C 92.1 3.9 87.7 3.9 86.1 3.8 C 109.4 4.0 91.4 3.5 99.6 3.5 C 99.5 3.6 101.3 3.7 103.6 3.7 C 103.5 3.6 107.0 3.7 107.5 3.6 C 105.9 3.6 105.1 3.5 105.5 3.5 C 111.1 3.4 109.0 3.6 109.5 3.7 C 105.1 3.7 102.2 3.7 101.8 3.8 C 107.4 3.7 111.9 3.9 115.4 3.7 C 120.9 4.0 112.9 4.2 115.9 4.4 C 115.1 4.6 119.2 4.0 123.3 3.9 C 130.4 3.9 130.4 3.7 136.9 3.7 C 138.8 3.9 130.5 3.8 131.2 4.0 C 133.1 3.9 133.5 4.0 135.2 4.0 C 139.8 4.0 139.3 3.8 142.9 3.8 C 144.9 4.0 146.0 3.8 148.6 3.8 C 153.1 3.9 146.2 3.9 150.8 4.0 C 155.6 4.0 158.9 3.7 160.4 3.8 C 160.9 3.8 160.2 3.9 162.5 4.0 C 167.9 3.8 169.2 3.8 162.3 3.7 C 168.4 3.7 171.0 3.7 169.9 3.5 C 160.8 3.4 158.5 3.5 154.1 3.2 C 152.6 3.4 149.8 3.3 146.3 3.2 C 148.6 3.6 142.3 3.2 140.5 3.4 C 142.8 3.4 145.2 3.5 146.5 3.5 C 136.8 3.5 137.0 3.5 129.2 3.8 C 129.1 3.7 128.1 3.6 127.1 3.6 C 129.5 3.5 136.6 3.6 136.7 3.4 C 131.0 3.2 129.4 3.5 122.9 3.3 C 120.3 3.4 128.2 3.5 123.1 3.5 C 120.5 3.4 117.2 3.3 113.1 3.2 C 108.9 3.3 106.9 3.4 103.5 3.4 C 103.1 3.3 102.6 3.3 99.4 3.3 C 99.7 3.4 103.0 3.4 99.6 3.5 C 89.1 3.2 82.1 3.1 71.8 3.2 C 75.5 3.2 83.9 3.4 79.9 3.4 C 75.2 3.3 69.1 3.5 64.2 3.4 C 62.6 3.3 70.0 3.4 68.0 3.1 C 63.4 3.1 60.5 3.1 58.2 3.1 C 58.3 3.2 52.9 3.1 54.4 3.3 C 58.2 3.3 59.2 3.1 60.2 3.2 C 57.4 3.7 45.7 3.0 38.5 3.0 C 33.8 3.1 42.3 3.2 36.8 3.2 C 33.4 3.3 31.1 2.9 36.4 2.8 C 40.1 2.9 41.4 2.7 42.4 2.9 C 43.9 2.9 46.2 2.9 46.1 2.8 C 43.4 2.8 43.9 2.7 42.1 2.6 C 46.0 2.7 46.2 2.3 49.9 2.5 C 47.6 2.5 46.9 2.6 46.0 2.6 C 56.4 2.6 59.8 2.7 65.8 2.8 C 62.4 2.7 65.9 2.7 65.6 2.6 C 61.0 2.6 52.3 2.5 57.6 2.5 C 61.3 2.7 63.6 2.1 67.3 2.3 C 64.6 2.3 65.1 2.5 63.6 2.5 C 67.7 2.5 67.6 2.7 71.6 2.7 C 84.2 2.4 94.3 2.9 114.5 2.5 C 121.5 2.5 108.0 2.6 108.7 2.8 C 110.8 2.8 111.2 2.8 112.8 2.8 C 112.8 2.6 116.4 2.8 118.6 2.6 C 118.3 2.8 127.7 2.6 132.5 2.8 C 132.6 2.7 131.9 2.6 134.2 2.6 C 148.7 2.9 174.5 2.5 185.3 2.8 C 184.8 2.6 189.6 2.6 190.9 2.5 C 197.8 2.6 194.8 2.7 204.7 2.5 C 209.6 2.5 203.8 2.6 202.9 2.7 C 217.7 2.6 230.8 2.8 240.1 2.6 C 244.8 2.5 240.1 2.7 249.9 2.8 C 249.9 2.5 265.4 2.9 267.4 2.6 C 273.3 2.5 284.1 2.9 279.3 2.6 C 287.3 2.6 282.0 2.9 285.3 2.9 C 290.8 2.8 283.4 2.4 288.9 2.4 C 288.4 2.6 293.2 2.5 296.9 2.7 C 292.5 2.7 289.6 2.7 289.1 2.8 C 292.9 2.7 292.7 2.8 298.8 2.8 C 303.4 2.7 316.5 2.5 320.4 2.8 C 320.6 2.7 319.4 2.7 318.4 2.6 C 322.2 2.6 326.9 2.8 326.2 2.6 C 335.0 2.6 338.9 2.8 343.8 2.6 C 347.6 2.5 342.5 2.8 353.8 2.8 C 354.0 2.6 373.8 2.6 379.2 2.8 C 379.3 2.5 380.6 2.7 383.0 2.8 C 383.4 2.7 382.8 2.6 385.1 2.6 C 385.5 2.6 387.2 2.6 388.9 2.6 C 387.7 2.9 396.2 2.5 396.8 2.7 C 395.1 2.7 395.1 2.9 396.8 2.9 C 397.3 2.7 405.6 3.0 404.6 2.8 C 402.9 2.7 397.4 2.8 398.9 2.6 C 406.5 2.6 403.5 2.8 408.6 2.8 C 408.3 2.7 405.2 2.7 408.6 2.6 C 414.0 2.7 409.0 2.7 412.5 2.8 C 415.3 2.8 420.5 2.6 422.4 2.6 C 421.8 2.6 423.5 2.7 424.3 2.8 C 434.4 2.8 457.3 2.6 467.3 2.9 C 468.1 2.8 470.1 2.8 469.4 2.6 C 475.3 2.7 474.9 2.7 481.0 2.8 C 481.0 2.7 481.0 2.6 481.0 2.5 C 488.9 2.4 481.8 2.8 487.0 2.8 C 487.5 2.3 490.0 2.9 494.8 2.9 C 495.4 2.8 497.7 2.8 496.9 2.6 C 504.3 2.6 504.0 2.9 510.5 2.8 C 508.9 2.8 507.8 2.2 508.5 2.0 C 509.7 2.1 511.6 2.2 514.5 2.2 C 511.0 2.4 512.9 3.1 522.3 2.9 C 517.1 2.9 515.2 2.9 516.4 2.7 C 523.4 2.7 525.9 2.8 532.0 2.8 C 533.0 2.6 528.6 2.6 530.1 2.4 C 531.7 2.4 532.4 2.3 532.1 2.3 C 538.6 2.3 538.7 2.5 545.8 2.3 C 545.8 2.4 544.3 2.5 541.8 2.4 C 542.2 2.5 542.2 2.7 538.0 2.7 C 537.4 2.6 539.9 2.4 534.0 2.5 C 534.0 2.6 534.0 2.7 534.0 2.8 C 538.3 2.8 548.6 2.9 549.6 2.8 C 547.5 2.7 544.1 2.7 545.8 2.5 C 553.3 2.6 555.3 2.8 561.4 2.9 C 572.1 2.8 591.1 2.9 588.8 2.6 C 595.3 2.7 593.0 2.7 598.7 2.7 C 597.0 2.5 605.2 2.6 604.7 2.5 C 597.6 2.5 599.7 2.5 592.8 2.5 C 593.0 2.4 594.2 2.3 596.9 2.3 C 597.3 2.4 600.1 2.4 604.7 2.4 C 603.9 2.4 599.8 2.2 604.8 2.2 C 605.1 2.2 606.3 2.2 608.6 2.2 C 608.5 2.3 608.5 2.4 608.5 2.5 C 605.8 2.6 602.6 2.6 600.6 2.7 C 602.5 2.7 602.9 2.7 604.6 2.8 C 605.8 2.6 613.8 2.8 614.4 2.6 C 611.1 2.7 609.1 2.6 612.5 2.5 C 613.1 2.5 618.4 2.6 620.4 2.5 C 613.5 2.4 616.2 2.4 612.6 2.2 C 620.4 2.2 619.2 2.4 628.2 2.3 C 628.4 2.5 628.4 2.6 626.0 2.7 C 631.7 3.1 645.1 2.7 649.5 2.8 C 646.5 2.7 643.0 3.0 647.5 3.0 C 647.6 2.9 651.0 2.9 651.6 2.9 C 653.2 2.5 649.3 2.4 645.9 2.2 C 649.5 2.2 650.3 2.1 653.7 2.1 C 654.8 2.2 651.1 2.5 655.5 2.5 C 656.6 2.2 663.7 2.5 665.3 2.3 C 662.3 2.3 660.2 2.2 663.5 2.2 C 662.8 2.3 669.2 2.2 669.3 2.3 C 664.1 2.4 662.8 2.6 659.5 2.6 C 663.5 2.6 656.4 2.7 663.3 2.8 C 666.4 2.6 668.0 2.5 675.2 2.5 C 677.9 2.5 675.3 2.7 679.0 2.7 C 678.1 2.5 685.9 2.5 681.1 2.6 C 683.8 2.6 685.3 2.7 686.8 2.7 C 683.0 2.5 701.7 2.3 698.8 2.2 C 698.7 2.4 699.6 2.6 700.6 2.7 C 704.3 2.5 708.4 2.7 718.3 2.6 C 718.1 2.4 719.9 2.6 724.1 2.6 C 724.9 2.5 721.3 2.4 724.2 2.4 C 728.9 2.5 729.1 2.5 730.0 2.6 C 733.5 2.6 736.1 2.6 737.8 2.6 C 738.1 2.6 736.9 2.5 736.0 2.5 C 749.1 2.7 756.1 2.4 767.4 2.5 C 762.6 2.4 761.5 2.7 765.3 2.6 C 767.7 2.6 769.8 2.6 771.1 2.5 C 768.6 2.3 769.7 2.4 775.2 2.5 C 780.2 2.4 773.4 2.2 777.3 2.2 C 781.4 2.3 778.9 2.3 781.1 2.4 C 783.1 2.4 785.2 2.4 787.1 2.4 C 783.5 2.3 787.6 2.2 791.0 2.2 C 788.4 2.4 789.9 2.4 796.9 2.3 C 797.6 2.4 793.9 2.5 796.8 2.5 C 798.3 2.5 803.8 2.3 808.4 2.5 C 806.9 2.5 806.1 2.5 806.5 2.6 C 811.7 2.4 815.6 2.7 820.1 2.8 C 815.6 2.6 818.2 2.5 816.4 2.3 C 820.8 2.5 826.5 2.3 830.0 2.5 C 823.3 2.5 829.6 2.9 833.8 2.9 C 834.9 2.7 827.8 2.7 830.0 2.5 C 832.4 2.4 837.4 2.6 839.8 2.5 C 839.5 2.4 836.7 2.5 836.0 2.4 C 839.6 2.4 834.9 2.3 838.0 2.3 C 839.8 2.5 842.1 2.2 844.0 2.2 C 846.4 2.3 851.4 2.5 853.6 2.4 C 853.6 2.3 850.2 2.3 849.9 2.3 C 860.6 2.2 863.7 2.4 873.4 2.2 C 874.5 2.3 876.4 2.4 879.2 2.4 C 879.1 2.3 880.9 2.2 883.2 2.2 C 887.3 2.3 891.4 2.4 896.8 2.5 C 895.7 2.6 893.1 2.7 900.4 2.7 C 900.8 2.6 897.8 2.6 900.5 2.6 C 900.5 2.6 902.1 2.6 902.6 2.6 C 902.6 2.5 902.6 2.5 902.7 2.5 C 900.6 2.5 898.7 2.5 896.8 2.5 C 897.0 2.4 896.5 2.3 895.0 2.2 C 903.7 2.1 902.8 2.5 908.5 2.3 C 909.2 2.6 911.1 2.7 906.2 2.9 C 911.2 2.8 914.7 2.7 916.1 2.6 C 910.2 2.6 912.3 2.4 910.7 2.3 C 914.5 2.3 914.5 2.2 916.5 2.2 C 920.8 2.3 911.6 2.5 920.2 2.5 C 913.9 2.3 925.7 2.3 930.1 2.4 C 929.4 2.3 927.8 2.3 930.2 2.2 C 942.0 2.1 940.5 2.7 947.6 2.4 C 947.0 2.5 950.2 2.5 951.5 2.6 C 945.7 2.6 944.2 2.7 941.6 2.7 C 942.0 2.8 943.7 2.8 945.4 2.8 C 945.5 2.7 947.0 2.7 949.4 2.8 C 951.2 2.7 950.9 2.4 955.6 2.2 C 956.0 2.3 955.3 2.4 957.6 2.4 C 959.8 2.3 955.6 2.7 965.2 2.6 C 963.5 2.6 962.7 2.5 963.6 2.4 C 968.2 2.3 967.2 2.4 973.4 2.3 C 975.4 2.6 968.8 2.6 966.9 2.8 C 971.2 2.8 974.8 2.6 978.9 2.7 C 975.7 2.6 979.1 2.5 983.0 2.4 C 986.4 2.4 982.5 2.7 986.7 2.7 C 990.0 2.7 991.9 2.5 988.9 2.4 C 996.1 2.5 994.6 2.3 1000.7 2.3 C 1000.8 2.4 999.1 2.4 996.8 2.4 C 997.1 2.4 996.3 2.5 998.6 2.5 C 1001.4 2.4 1006.2 2.4 1010.6 2.3 C 1010.6 4.6 1010.7 6.8 1010.7 8.4 C 1010.4 17.9 1010.8 28.7 1010.7 38.3 C 1010.5 34.3 1010.6 50.6 1010.4 55.1 C 1010.5 58.0 1010.9 67.2 1010.7 63.7 C 1010.6 64.1 1010.5 66.1 1010.5 68.6 C 1008.8 68.6 1006.9 68.6 1005.2 68.5 C 1005.3 68.6 1005.3 68.6 1005.4 68.7 C 996.6 68.7 994.5 68.6 991.5 68.4 C 981.0 68.5 969.1 68.3 956.3 68.5 C 952.9 68.3 950.1 68.3 942.3 68.2 C 942.7 68.4 936.6 68.4 930.9 68.4 C 932.4 68.5 927.0 68.5 927.1 68.6 C 932.2 68.6 930.5 68.8 933.3 68.9 C 926.2 68.7 923.1 69.1 917.6 68.9 C 924.2 68.8 926.1 68.6 926.8 68.3 C 918.8 68.3 914.6 68.3 912.9 68.1 C 912.5 68.2 913.5 68.3 915.3 68.4 C 912.6 68.4 909.9 68.4 907.5 68.4 C 906.6 68.3 910.2 68.3 907.3 68.2 C 905.5 68.3 903.4 68.4 901.6 68.4 C 899.1 68.2 904.5 68.3 905.2 68.2 C 894.6 68.1 899.5 68.5 893.8 68.5 C 892.2 68.4 892.4 68.2 887.6 68.2 C 885.8 68.3 885.4 68.5 880.1 68.5 C 876.6 68.4 880.0 68.2 876.0 68.2 C 875.5 68.2 873.7 68.2 872.0 68.2 C 872.3 68.3 870.6 68.3 868.3 68.4 C 867.7 68.3 863.9 68.3 862.4 68.4 C 862.0 68.3 855.7 68.0 854.5 68.2 C 854.5 68.2 857.9 68.2 858.4 68.3 C 854.0 68.3 850.9 68.3 848.7 68.4 C 847.0 67.9 840.0 68.3 830.9 68.0 C 825.5 68.2 832.3 68.4 825.3 68.5 C 821.1 68.3 826.2 68.3 825.1 68.1 C 823.9 68.1 817.3 68.0 817.2 68.1 C 817.3 68.2 820.7 68.2 821.2 68.2 C 816.1 68.4 816.2 68.2 813.2 68.1 C 813.7 68.3 810.3 68.3 809.7 68.4 C 795.6 68.5 795.6 68.2 789.7 68.0 C 789.8 68.1 786.4 68.1 786.0 68.2 C 790.0 68.1 795.4 68.3 789.9 68.3 C 790.8 68.2 782.7 68.3 782.2 68.3 C 783.2 68.4 788.3 68.4 786.4 68.6 C 779.0 68.6 781.7 68.3 776.3 68.5 C 775.7 68.4 778.9 68.3 780.2 68.3 C 777.9 68.3 774.7 68.3 774.3 68.2 C 777.1 68.2 777.0 68.0 778.0 67.9 C 774.3 68.1 767.4 67.9 772.3 68.2 C 764.5 68.1 757.1 68.2 762.6 68.4 C 756.3 68.4 759.7 68.2 754.7 68.4 C 755.3 68.1 756.8 68.0 752.5 67.9 C 751.8 68.0 748.4 68.0 748.9 68.2 C 739.5 68.2 736.7 68.0 732.8 67.8 C 736.4 68.1 731.7 67.9 727.2 68.0 C 724.3 68.0 726.8 67.7 719.3 67.8 C 727.6 68.1 709.8 67.9 713.6 68.2 C 703.8 68.0 704.0 68.0 693.8 68.0 C 694.7 67.9 697.1 67.8 701.5 67.7 C 698.6 67.9 710.2 67.9 709.3 67.8 C 709.3 67.8 709.3 67.7 709.3 67.7 C 701.9 67.7 696.9 67.7 693.6 67.6 C 692.1 67.7 688.7 67.8 690.0 68.0 C 682.8 67.7 675.6 68.1 672.2 67.9 C 674.7 67.9 677.0 67.8 676.2 67.7 C 673.3 67.8 669.9 67.8 670.4 68.0 C 676.2 68.0 677.3 68.1 680.1 67.9 C 677.7 68.1 686.0 68.2 680.3 68.2 C 680.3 67.9 668.8 68.4 672.4 68.2 C 678.6 68.1 665.3 68.0 664.6 67.9 C 664.6 67.9 664.6 67.9 664.6 67.9 Z M 69.7 2.7 C 63.9 2.8 71.3 3.0 75.6 2.9 C 74.3 2.9 73.6 2.8 73.5 2.7 C 71.8 2.7 70.1 2.8 69.7 2.7 C 69.7 2.7 69.7 2.7 69.7 2.7 Z M 134.3 5.3 C 136.1 5.1 126.5 5.3 122.4 5.2 C 123.6 5.3 125.0 5.3 122.5 5.3 C 126.8 5.5 128.1 5.2 134.3 5.3 C 134.3 5.3 134.3 5.3 134.3 5.3 Z M 350.4 4.7 C 348.9 4.7 345.1 4.8 344.7 4.7 C 342.4 4.7 343.0 4.8 342.7 4.9 C 338.1 4.9 343.7 4.6 336.7 4.7 C 334.2 5.0 349.0 5.1 350.4 4.7 C 350.4 4.7 350.4 4.7 350.4 4.7 Z M 737.0 65.2 C 734.0 65.1 740.6 64.9 738.6 64.8 C 727.8 64.9 736.3 65.1 721.3 65.1 C 722.3 65.1 723.5 65.2 723.3 65.2 C 730.3 65.2 730.8 65.0 729.3 65.4 C 732.5 65.4 733.0 65.0 737.0 65.2 C 737.0 65.2 737.0 65.2 737.0 65.2 Z M 596.1 64.4 C 597.2 64.4 598.2 64.5 598.3 64.6 C 602.8 64.5 601.8 64.5 607.9 64.5 C 607.0 64.3 601.1 64.3 596.1 64.4 C 596.1 64.4 596.1 64.4 596.1 64.4 Z M 226.1 64.0 C 224.7 64.0 223.4 64.0 222.1 64.0 C 223.1 64.1 219.5 64.3 226.1 64.3 C 226.5 64.2 225.4 64.2 224.2 64.2 C 225.4 64.2 228.6 64.2 228.0 64.0 C 226.3 64.1 226.1 64.0 226.1 64.0 C 226.1 64.0 226.1 64.0 226.1 64.0 Z M 70.4 65.7 C 77.9 65.5 59.3 65.0 70.4 65.7 C 70.4 65.7 70.4 65.7 70.4 65.7 C 70.4 65.7 70.4 65.7 70.4 65.7 Z M 86.3 67.8 C 86.5 67.8 88.2 67.8 88.2 67.8 C 94.7 67.8 88.4 67.9 92.0 68.0 C 97.2 67.9 89.3 67.7 96.0 67.6 C 94.7 67.5 90.1 67.8 86.3 67.8 C 86.3 67.8 86.3 67.8 86.3 67.8 Z M 939.7 2.5 C 934.3 2.6 932.6 2.7 931.5 2.9 C 935.1 2.9 938.2 3.0 939.2 3.1 C 946.2 3.0 934.8 2.9 933.7 2.9 C 934.6 2.7 939.6 2.7 939.7 2.5 C 939.7 2.5 939.7 2.5 939.7 2.5 Z M 922.1 2.6 C 919.7 2.7 916.2 2.7 915.9 2.9 C 919.4 2.8 919.7 2.9 919.8 3.0 C 923.0 2.9 919.2 2.8 922.1 2.6 C 922.1 2.6 922.1 2.6 922.1 2.6 Z M 955.2 2.8 C 952.7 2.8 953.5 2.9 953.0 3.0 C 956.7 3.0 957.2 3.1 960.8 3.1 C 960.9 3.0 960.9 2.9 961.0 2.9 C 957.9 2.9 957.7 2.9 955.0 2.9 C 955.1 2.9 955.1 2.8 955.2 2.8 C 955.2 2.8 955.2 2.8 955.2 2.8 Z M 904.3 2.8 C 894.0 2.8 889.2 3.1 882.3 3.4 C 889.8 3.3 896.8 2.9 902.0 3.1 C 908.6 3.0 900.0 2.9 900.3 2.9 C 900.5 2.8 902.8 2.8 904.3 2.8 C 904.3 2.8 904.3 2.8 904.3 2.8 Z M 814.2 2.8 C 812.1 2.7 808.1 3.0 802.2 2.9 C 803.4 3.0 804.3 3.0 804.2 3.1 C 812.6 3.2 807.8 2.8 814.2 2.8 C 814.2 2.8 814.2 2.8 814.2 2.8 Z M 765.2 2.9 C 760.0 3.0 767.8 3.0 765.1 3.2 C 770.8 3.2 776.9 3.2 776.8 3.0 C 770.6 3.1 769.3 3.1 765.2 2.9 C 765.2 2.9 765.2 2.9 765.2 2.9 Z M 729.9 2.9 C 724.1 3.0 732.2 3.2 729.7 3.4 C 732.0 3.3 731.4 3.2 731.7 3.2 C 733.4 3.2 734.9 3.2 737.6 3.2 C 735.7 3.1 729.0 3.1 729.9 2.9 C 729.9 2.9 729.9 2.9 729.9 2.9 Z M 998.9 67.9 C 1002.3 67.9 1001.1 67.7 1008.4 67.8 C 997.4 67.7 1002.9 67.2 988.5 67.3 C 990.9 67.4 989.4 67.4 988.6 67.3 C 983.2 67.5 993.8 67.4 988.9 67.6 C 992.9 67.6 990.4 67.4 994.4 67.4 C 998.7 67.6 1001.3 67.7 998.9 67.9 C 998.9 67.9 998.9 67.9 998.9 67.9 Z M 988.4 67.1 C 984.3 67.1 984.7 67.4 982.6 67.2 C 980.7 67.2 981.1 67.3 980.8 67.3 C 982.3 67.3 982.5 67.4 982.7 67.4 C 986.1 67.3 989.5 67.3 988.4 67.1 C 988.4 67.1 988.4 67.1 988.4 67.1 Z M 1009.0 50.1 C 1009.1 57.1 1009.0 58.9 1009.2 62.4 C 1009.0 63.8 1009.1 65.3 1009.1 67.2 C 1008.2 67.2 1007.2 67.2 1005.9 67.1 C 999.5 67.2 1004.3 67.2 1006.1 67.3 C 999.9 67.4 1004.4 67.2 998.2 67.2 C 997.3 67.4 1005.2 67.4 1004.4 67.6 C 1007.3 67.6 1008.4 67.5 1009.4 67.5 C 1009.4 66.7 1009.4 65.9 1009.3 64.6 C 1009.4 62.2 1009.5 63.1 1009.5 62.7 C 1009.5 56.9 1009.6 57.4 1009.6 52.6 C 1009.4 51.3 1009.4 53.2 1009.4 58.6 C 1009.3 53.0 1009.2 50.6 1009.3 44.3 C 1009.5 48.9 1009.5 28.4 1009.2 30.0 C 1009.2 35.6 1009.3 34.0 1009.4 36.2 C 1009.2 43.3 1009.3 47.7 1009.0 50.1 C 1009.0 50.1 1009.0 50.1 1009.0 50.1 Z M 956.7 3.4 C 955.0 3.3 953.5 3.3 950.9 3.3 C 950.8 3.1 954.2 3.2 951.1 3.1 C 946.9 3.0 945.9 3.1 943.2 3.1 C 944.6 3.2 953.3 3.4 948.6 3.5 C 949.9 3.6 952.7 3.6 956.3 3.6 C 952.4 3.3 962.3 3.6 966.2 3.6 C 966.1 3.3 973.1 3.7 976.1 3.5 C 973.9 3.3 965.8 3.5 962.3 3.5 C 964.1 3.4 953.0 3.1 956.7 3.4 C 956.7 3.4 956.7 3.4 956.7 3.4 Z M 972.9 67.2 C 971.8 67.3 967.4 67.3 970.9 67.3 C 969.2 67.4 965.5 67.3 967.3 67.6 C 965.2 67.6 963.3 67.6 961.4 67.6 C 962.1 67.5 967.4 67.5 965.2 67.3 C 961.3 67.4 962.7 67.3 957.4 67.3 C 960.1 67.2 957.0 67.2 958.9 66.9 C 957.4 67.0 952.7 67.0 953.2 67.2 C 945.7 67.1 955.0 66.9 945.2 66.9 C 945.2 66.8 952.3 66.8 954.8 66.9 C 956.0 66.7 942.6 66.8 935.3 66.7 C 941.9 66.9 936.9 67.1 933.8 67.2 C 931.5 67.2 933.7 67.1 929.6 67.0 C 926.4 67.0 924.7 67.1 923.7 67.0 C 921.1 67.0 922.3 67.1 922.0 67.2 C 917.4 67.2 920.6 66.9 914.0 67.0 C 919.2 67.2 913.5 67.3 904.5 67.2 C 905.1 67.3 908.0 67.3 908.5 67.4 C 907.3 67.5 901.9 67.3 900.5 67.2 C 897.3 67.3 899.5 67.4 902.5 67.3 C 900.7 67.4 898.8 67.5 896.8 67.5 C 906.5 67.5 921.9 67.5 940.0 67.8 C 936.5 67.6 940.4 67.6 945.8 67.6 C 946.7 67.7 944.4 67.8 941.9 67.8 C 948.4 68.0 947.6 67.5 957.5 67.6 C 962.8 67.7 951.7 67.8 957.7 67.9 C 961.2 67.8 963.6 67.7 965.5 67.9 C 971.7 67.8 973.2 67.6 982.9 67.6 C 977.3 67.5 974.4 67.1 968.8 67.2 C 968.9 67.2 971.3 67.2 972.9 67.2 C 972.9 67.2 972.9 67.2 972.9 67.2 Z M 919.7 3.1 C 916.3 3.1 914.5 3.2 913.8 3.1 C 907.8 3.2 914.4 3.3 915.5 3.4 C 918.2 3.3 919.3 3.2 919.7 3.1 C 919.7 3.1 919.7 3.1 919.7 3.1 Z M 324.5 3.1 C 317.1 3.1 318.7 3.3 312.8 3.3 C 317.6 3.4 318.8 3.5 326.6 3.5 C 326.9 3.3 326.8 3.2 324.5 3.1 C 324.5 3.1 324.5 3.1 324.5 3.1 Z M 939.1 3.2 C 944.0 3.0 933.2 3.5 933.3 3.3 C 927.7 3.4 938.4 3.4 933.1 3.6 C 937.9 3.5 940.6 3.6 946.7 3.5 C 946.6 3.4 941.8 3.4 937.0 3.4 C 936.5 3.3 939.0 3.3 939.1 3.2 C 939.1 3.2 939.1 3.2 939.1 3.2 Z M 401.0 3.6 C 406.1 3.5 396.1 3.3 393.1 3.2 C 392.9 3.4 394.5 3.4 401.0 3.6 C 401.0 3.6 401.0 3.6 401.0 3.6 Z M 273.7 3.4 C 270.9 3.6 282.5 3.4 279.7 3.7 C 283.2 3.7 283.5 3.6 283.7 3.5 C 285.4 3.6 290.9 3.6 289.5 3.7 C 290.5 3.9 280.7 3.7 283.8 3.9 C 280.6 3.9 280.4 3.8 277.9 3.8 C 283.6 3.8 280.9 3.7 273.8 3.6 C 273.9 3.8 277.1 3.7 273.9 3.8 C 273.5 3.8 269.8 3.6 269.9 3.4 C 263.8 3.4 267.5 3.7 260.3 3.7 C 260.9 3.8 265.5 3.8 268.2 3.8 C 267.5 4.0 260.5 3.7 262.3 4.0 C 260.7 3.8 256.5 3.7 256.2 3.5 C 261.7 3.5 265.3 3.3 269.8 3.2 C 265.5 3.1 259.6 3.5 252.3 3.4 C 253.1 3.5 248.7 3.5 250.4 3.7 C 244.6 3.6 247.2 3.4 248.3 3.4 C 246.7 3.2 235.7 3.3 236.5 3.5 C 235.7 3.3 222.3 3.4 223.1 3.6 C 219.0 3.4 213.0 3.7 211.2 3.5 C 208.9 3.6 204.3 3.5 199.4 3.5 C 198.2 3.7 206.7 3.6 207.3 3.8 C 209.0 3.9 198.2 3.7 199.6 3.9 C 199.6 3.9 199.6 4.0 199.7 4.0 C 203.6 4.0 207.6 3.9 211.4 3.8 C 214.2 3.9 210.7 3.9 211.5 4.0 C 214.1 3.9 226.5 3.7 227.1 4.0 C 235.4 3.9 241.4 4.0 244.7 3.8 C 249.7 3.9 241.9 3.9 244.9 4.1 C 259.4 3.8 277.5 4.1 289.5 3.8 C 292.2 3.9 291.3 4.0 291.7 4.1 C 308.4 4.0 294.0 3.7 307.2 3.8 C 307.3 3.9 301.0 3.9 301.4 4.1 C 306.0 4.1 307.1 4.0 313.2 4.0 C 313.2 3.9 313.2 3.9 313.1 3.8 C 318.1 3.8 316.3 4.0 319.0 4.1 C 325.2 4.0 323.7 3.9 326.8 4.1 C 332.7 4.0 338.4 4.0 344.5 4.1 C 348.5 3.9 340.7 3.7 334.4 3.7 C 334.8 3.6 336.5 3.6 336.5 3.5 C 343.8 3.7 345.1 4.0 356.1 4.1 C 347.7 3.9 360.5 4.0 362.0 4.1 C 366.6 4.1 363.1 3.9 360.1 3.9 C 360.6 3.8 363.5 3.9 363.9 4.0 C 364.4 3.7 353.7 3.5 342.5 3.7 C 347.5 3.3 334.5 3.7 340.2 3.3 C 331.1 3.4 339.0 3.6 328.7 3.5 C 329.7 3.6 331.6 3.7 332.6 3.8 C 324.8 3.8 327.0 3.6 318.8 3.6 C 317.5 3.8 322.8 3.7 322.9 3.8 C 313.9 3.7 311.0 3.6 305.0 3.4 C 303.9 3.5 305.5 3.7 295.3 3.6 C 295.3 3.6 295.3 3.5 295.3 3.5 C 300.1 3.5 301.1 3.2 289.2 3.2 C 288.5 3.3 292.1 3.3 295.2 3.3 C 293.9 3.4 290.1 3.5 285.6 3.5 C 283.3 3.5 280.5 3.4 283.6 3.4 C 281.6 3.2 280.0 3.5 273.7 3.4 C 273.7 3.4 273.7 3.4 273.7 3.4 Z M 823.6 3.2 C 822.1 3.3 820.5 3.3 817.7 3.3 C 816.2 3.5 821.6 3.4 821.5 3.5 C 825.7 3.5 822.6 3.3 823.6 3.2 C 823.6 3.2 823.6 3.2 823.6 3.2 Z M 878.3 3.4 C 878.0 3.2 875.0 3.4 870.5 3.4 C 869.0 3.5 874.4 3.5 874.3 3.6 C 879.6 3.6 873.2 3.3 878.3 3.4 C 878.3 3.4 878.3 3.4 878.3 3.4 Z M 854.8 3.4 C 852.9 3.2 852.7 3.4 856.9 3.4 C 856.4 3.5 855.4 3.6 852.7 3.7 C 855.5 3.9 857.6 3.5 862.5 3.6 C 860.9 3.5 858.2 3.4 854.8 3.4 C 854.8 3.4 854.8 3.4 854.8 3.4 Z M 847.0 3.4 C 844.1 3.5 842.3 3.3 837.3 3.4 C 838.3 3.5 849.2 3.5 851.0 3.4 C 852.8 3.3 841.2 3.3 847.0 3.4 C 847.0 3.4 847.0 3.4 847.0 3.4 Z M 479.2 3.8 C 477.3 3.8 477.7 3.9 477.3 4.0 C 471.2 3.7 462.8 3.7 469.4 3.5 C 463.2 3.6 457.2 3.4 451.9 3.4 C 447.3 3.3 449.6 3.5 446.0 3.5 C 440.3 3.5 449.0 3.4 447.9 3.4 C 446.7 3.2 445.0 3.5 438.1 3.4 C 440.1 3.7 432.2 3.4 434.4 3.7 C 430.5 3.6 429.4 3.7 424.5 3.7 C 425.0 3.8 429.8 3.8 430.4 4.0 C 432.9 4.1 433.0 3.8 428.5 3.8 C 431.1 3.6 438.0 3.9 440.1 3.8 C 442.6 4.0 433.8 3.8 436.3 4.0 C 438.0 4.0 439.7 4.0 440.1 3.9 C 443.0 3.9 444.9 4.0 446.0 4.1 C 444.3 4.1 444.1 4.0 444.1 4.0 C 440.5 4.0 447.8 4.3 440.2 4.3 C 441.5 4.4 444.7 4.4 444.2 4.5 C 446.5 4.6 444.1 4.0 452.0 4.2 C 457.1 4.0 439.8 4.0 444.1 3.7 C 455.0 3.7 448.9 4.0 457.7 4.0 C 457.7 3.9 457.5 3.8 459.7 3.8 C 459.4 3.8 456.1 3.8 453.8 3.8 C 454.2 3.7 457.4 3.7 459.7 3.7 C 459.3 3.7 457.6 3.7 457.6 3.6 C 465.1 3.7 464.3 4.0 457.7 4.1 C 457.9 4.3 467.0 4.3 469.5 4.2 C 467.0 4.1 469.7 4.1 467.6 3.9 C 465.7 3.9 466.0 4.0 465.5 4.0 C 462.0 4.0 465.3 3.9 465.5 3.8 C 469.5 3.9 469.3 4.0 473.3 3.9 C 472.3 3.9 471.4 4.0 471.4 4.1 C 473.3 4.1 475.4 4.1 477.3 4.1 C 477.1 4.0 479.6 3.9 479.2 3.8 C 479.2 3.8 479.2 3.8 479.2 3.8 Z M 377.5 3.4 C 371.0 3.3 374.4 3.5 377.5 3.5 C 376.2 3.5 373.9 3.6 371.6 3.6 C 373.5 3.7 375.2 3.6 381.4 3.7 C 376.1 3.9 381.7 4.2 391.4 4.2 C 394.2 3.8 386.0 3.8 389.2 3.6 C 382.1 3.7 378.3 3.6 377.5 3.4 C 377.5 3.4 377.5 3.4 377.5 3.4 Z M 915.5 3.4 C 911.7 3.4 907.6 3.4 903.8 3.4 C 904.1 3.6 916.2 3.7 915.5 3.4 C 915.5 3.4 915.5 3.4 915.5 3.4 Z M 888.9 67.3 C 887.2 67.3 887.0 67.3 886.8 67.2 C 881.1 67.3 889.6 67.4 887.1 67.5 C 889.1 67.5 891.1 67.5 893.0 67.5 C 893.3 67.4 884.8 67.3 890.8 67.3 C 890.4 67.2 888.9 67.3 888.9 67.3 C 888.9 67.3 888.9 67.3 888.9 67.3 Z M 827.5 3.5 C 823.8 3.5 825.9 3.8 817.4 3.7 C 820.4 3.9 822.3 3.8 827.3 3.8 C 827.4 3.7 827.4 3.6 827.5 3.5 C 827.5 3.5 827.5 3.5 827.5 3.5 Z M 508.5 3.5 C 503.6 3.3 502.2 3.8 492.9 3.7 C 497.7 3.9 503.0 3.6 508.5 3.5 C 508.5 3.5 508.5 3.5 508.5 3.5 Z M 183.9 3.8 C 186.8 3.9 183.2 3.9 188.0 4.0 C 190.7 4.0 191.7 3.9 195.7 3.8 C 190.1 3.6 180.3 3.8 176.1 3.5 C 171.4 3.6 171.9 3.8 170.4 3.9 C 172.7 3.9 173.9 3.9 174.3 4.0 C 177.0 3.7 180.7 4.1 183.9 3.8 C 183.9 3.8 183.9 3.8 183.9 3.8 Z M 402.9 3.7 C 406.5 3.8 400.5 3.8 399.2 4.0 C 396.5 3.9 397.4 3.8 397.0 3.7 C 393.6 3.7 392.6 3.8 393.2 4.0 C 399.7 4.0 407.7 4.0 403.0 4.3 C 409.3 4.3 405.8 4.1 408.9 4.0 C 412.3 4.1 409.1 4.2 409.0 4.4 C 410.5 4.3 415.2 4.1 414.9 4.4 C 424.1 4.1 419.9 3.8 412.8 3.5 C 406.5 3.7 413.8 3.8 402.9 3.7 C 402.9 3.7 402.9 3.7 402.9 3.7 Z M 651.3 3.8 C 650.8 3.8 647.3 3.8 647.3 3.7 C 643.1 3.9 639.4 4.1 635.6 4.3 C 636.3 4.4 641.7 4.3 639.4 4.1 C 641.1 4.3 644.9 4.3 647.1 4.4 C 651.1 4.5 652.6 4.1 653.1 4.4 C 656.9 4.3 654.6 4.3 660.9 4.3 C 651.0 4.1 664.3 4.2 665.0 4.0 C 659.3 4.0 654.3 4.0 655.0 4.2 C 650.8 4.1 646.3 4.1 645.4 3.9 C 645.8 3.8 649.0 3.8 651.3 3.8 C 651.3 3.8 651.3 3.8 651.3 3.8 Z M 627.7 4.4 C 629.3 4.3 630.8 4.3 633.5 4.3 C 632.0 4.3 631.4 4.2 631.6 4.1 C 626.7 4.1 625.5 4.2 623.8 4.0 C 619.3 4.0 624.9 4.3 617.9 4.2 C 618.4 4.3 621.9 4.2 621.8 4.3 C 622.4 4.2 625.3 4.2 627.7 4.4 C 627.7 4.4 627.7 4.4 627.7 4.4 Z M 567.2 4.0 C 562.1 4.0 569.9 4.1 567.2 4.3 C 568.5 4.2 578.2 4.3 576.9 4.4 C 579.7 4.7 589.7 4.2 588.7 4.5 C 591.0 4.5 590.2 4.4 590.6 4.3 C 583.8 4.4 583.8 4.2 588.7 4.2 C 588.0 4.1 583.8 4.1 580.9 4.1 C 580.5 4.2 583.2 4.3 582.8 4.4 C 576.9 4.3 572.5 4.1 567.2 4.0 C 567.2 4.0 567.2 4.0 567.2 4.0 Z M 675.8 66.9 C 680.4 66.9 683.2 66.9 685.5 66.9 C 684.1 66.8 681.8 66.9 679.6 66.9 C 678.9 66.8 681.0 66.8 683.5 66.7 C 681.1 66.6 673.0 66.7 675.8 66.9 C 675.8 66.9 675.8 66.9 675.8 66.9 Z M 714.8 66.9 C 719.2 66.9 722.0 66.9 722.5 66.8 C 720.7 66.7 721.4 66.9 718.6 66.9 C 716.8 66.8 715.6 66.8 714.6 66.7 C 712.7 66.7 713.2 66.8 712.6 66.8 C 711.1 66.8 710.9 66.8 710.7 66.7 C 705.5 66.9 717.0 66.7 714.8 66.9 C 714.8 66.9 714.8 66.9 714.8 66.9 Z M 600.4 4.1 C 602.1 4.2 603.4 4.3 608.1 4.3 C 607.2 4.2 611.0 4.2 614.1 4.2 C 609.5 4.0 607.2 4.1 600.4 4.1 C 600.4 4.1 600.4 4.1 600.4 4.1 Z M 958.7 66.8 C 964.8 67.0 963.9 66.7 972.5 66.8 C 972.4 66.7 972.3 66.7 972.3 66.6 C 967.3 66.8 964.9 66.7 958.7 66.8 C 958.7 66.8 958.7 66.8 958.7 66.8 Z M 152.5 66.8 C 153.0 66.7 146.9 66.7 146.5 66.6 C 145.4 66.9 142.3 66.4 130.9 66.5 C 130.7 66.4 131.5 66.4 133.0 66.4 C 123.7 66.3 135.7 66.6 136.8 66.7 C 144.1 66.7 145.2 66.8 152.5 66.8 C 152.5 66.8 152.5 66.8 152.5 66.8 Z M 242.9 4.4 C 243.3 4.3 242.1 4.3 241.0 4.3 C 239.6 4.3 238.3 4.3 237.2 4.3 C 237.7 4.6 244.2 4.7 239.4 4.9 C 241.1 4.9 241.3 4.9 241.3 4.9 C 250.5 4.3 258.4 5.2 270.6 4.9 C 272.5 4.9 272.0 4.8 272.4 4.7 C 270.9 4.7 270.7 4.7 270.5 4.7 C 269.1 4.9 257.7 4.6 262.6 4.6 C 262.2 4.5 260.7 4.5 260.7 4.6 C 259.4 4.6 258.0 4.6 256.7 4.6 C 257.5 4.6 260.2 4.7 260.8 4.7 C 254.5 4.7 246.8 4.6 250.7 4.4 C 246.9 4.4 245.6 4.5 243.0 4.6 C 240.5 4.5 240.4 4.4 242.9 4.4 C 242.9 4.4 242.9 4.4 242.9 4.4 Z M 192.3 4.4 C 186.2 4.4 188.6 4.6 182.5 4.6 C 186.4 4.7 191.0 4.5 196.2 4.6 C 195.4 4.5 192.7 4.5 192.3 4.4 C 192.3 4.4 192.3 4.4 192.3 4.4 Z M 305.5 4.7 C 304.4 4.9 309.8 4.9 315.5 4.9 C 316.5 4.7 311.4 4.7 305.5 4.7 C 305.5 4.7 305.5 4.7 305.5 4.7 Z M 280.2 4.7 C 274.5 4.7 287.4 4.7 284.3 4.9 C 286.9 4.9 289.8 4.9 290.0 5.0 C 292.1 4.9 292.0 4.8 295.9 4.9 C 295.6 4.7 289.4 4.8 289.9 4.7 C 285.6 4.8 284.8 4.8 280.2 4.7 C 280.2 4.7 280.2 4.7 280.2 4.7 Z M 276.4 4.7 C 272.6 4.7 277.5 5.0 282.2 5.0 C 280.5 4.9 279.3 4.8 276.4 4.7 C 276.4 4.7 276.4 4.7 276.4 4.7 Z M 732.9 4.7 C 730.2 4.8 732.2 4.9 729.0 4.9 C 728.9 5.0 740.6 5.0 730.8 5.0 C 734.3 5.3 736.4 4.9 740.8 5.0 C 739.4 4.9 738.3 4.9 740.8 4.9 C 742.2 4.7 731.5 4.9 732.9 4.7 C 732.9 4.7 732.9 4.7 732.9 4.7 Z M 721.3 4.7 C 719.0 4.7 720.1 4.8 721.2 4.8 C 720.8 4.9 717.6 4.8 715.3 4.9 C 715.2 4.8 719.4 5.1 719.1 5.3 C 729.1 5.1 721.6 4.9 721.3 4.7 C 721.3 4.7 721.3 4.7 721.3 4.7 Z M 711.5 4.9 C 705.1 4.7 696.1 4.7 691.9 4.9 C 696.4 5.2 708.4 5.1 711.5 4.9 C 711.5 4.9 711.5 4.9 711.5 4.9 Z M 775.8 4.9 C 764.3 4.7 741.1 5.0 762.0 5.2 C 761.3 5.0 775.0 4.9 781.6 5.0 C 781.8 5.0 789.3 4.8 789.5 4.9 C 794.7 4.8 773.2 4.8 775.8 4.9 C 775.8 4.9 775.8 4.9 775.8 4.9 Z M 684.0 5.3 C 687.2 5.2 683.2 4.9 688.1 5.0 C 690.9 5.0 687.3 4.9 688.1 4.8 C 682.0 4.8 669.6 5.0 668.5 4.8 C 665.5 4.9 664.5 5.0 658.8 5.0 C 658.6 5.1 679.6 4.8 684.0 5.2 C 683.6 5.2 676.0 5.3 684.0 5.3 C 684.0 5.3 684.0 5.3 684.0 5.3 Z M 957.7 65.7 C 957.3 65.9 965.4 65.8 963.8 66.0 C 968.0 65.7 972.3 65.9 977.1 65.7 C 978.7 65.8 978.4 66.0 985.3 66.1 C 985.3 65.9 981.9 66.0 985.0 65.8 C 991.3 65.8 989.8 66.0 996.9 66.0 C 996.0 65.8 1003.5 65.8 1007.7 65.8 C 1007.7 63.8 1007.6 62.5 1007.5 62.9 C 1007.6 64.1 1007.6 64.9 1007.6 65.7 C 1006.0 65.7 1004.8 65.8 1000.5 65.7 C 998.4 65.7 999.2 65.6 996.6 65.6 C 998.3 65.4 1001.8 65.7 1004.3 65.5 C 1003.6 65.4 998.9 65.4 998.2 65.3 C 995.4 65.3 999.0 65.4 998.4 65.5 C 990.8 65.5 998.5 65.1 990.2 65.1 C 992.1 65.3 992.1 65.3 990.6 65.5 C 987.3 65.4 977.3 65.5 982.6 65.3 C 981.9 65.2 976.0 65.4 976.9 65.5 C 973.7 65.5 973.2 65.4 973.0 65.4 C 964.7 65.4 963.7 65.6 965.6 65.8 C 964.0 66.0 962.6 65.6 957.7 65.7 C 957.7 65.7 957.7 65.7 957.7 65.7 Z M 838.1 5.0 C 842.8 4.8 833.0 5.0 828.4 5.0 C 833.9 5.0 832.0 5.3 837.9 5.3 C 835.9 5.2 836.3 5.2 840.1 5.2 C 841.1 5.1 832.6 5.0 838.1 5.0 C 838.1 5.0 838.1 5.0 838.1 5.0 Z M 647.0 5.0 C 644.9 4.8 634.8 5.0 629.5 4.9 C 630.4 5.2 643.4 4.8 645.1 5.1 C 648.1 5.1 643.4 5.0 647.0 5.0 C 647.0 5.0 647.0 5.0 647.0 5.0 Z M 1007.9 41.8 C 1007.9 39.7 1007.8 40.9 1007.8 41.8 C 1007.8 41.2 1007.8 37.1 1007.8 34.1 C 1007.7 38.4 1007.6 33.1 1007.4 34.1 C 1007.4 31.8 1007.4 30.7 1007.4 30.3 C 1007.7 30.1 1007.2 18.4 1007.1 30.4 C 1007.3 28.1 1007.3 29.1 1007.4 34.1 C 1007.2 39.5 1007.4 43.8 1007.2 45.6 C 1007.2 49.1 1007.3 50.4 1007.3 55.1 C 1007.2 56.1 1007.1 60.3 1006.8 56.6 C 1006.8 64.3 1007.2 60.3 1007.3 65.3 C 1006.9 65.4 1006.5 65.4 1006.0 65.4 C 1001.0 65.3 1005.2 65.2 1007.1 65.1 C 1007.0 64.4 1007.0 64.1 1006.9 64.4 C 1006.9 64.6 1006.9 64.8 1006.9 65.0 C 1005.9 65.0 1006.1 64.9 1005.6 64.9 C 1003.1 64.9 1003.3 65.1 1005.7 65.1 C 1005.0 65.1 998.3 65.3 1000.0 65.1 C 997.1 65.1 1002.4 65.4 1007.4 65.5 C 1007.4 63.9 1007.4 62.3 1007.4 60.9 C 1007.3 57.7 1007.7 58.0 1007.7 61.1 C 1007.8 60.1 1007.4 53.5 1007.8 55.4 C 1007.8 52.7 1007.8 50.3 1007.8 47.6 C 1007.7 48.0 1007.7 49.5 1007.7 49.5 C 1007.7 47.0 1007.7 44.4 1007.7 41.8 C 1007.8 44.1 1007.8 44.1 1007.9 41.8 C 1007.9 41.8 1007.9 41.8 1007.9 41.8 Z M 672.5 5.0 C 667.5 5.0 666.3 5.1 662.5 5.2 C 664.0 5.3 674.7 5.2 672.5 5.0 C 672.5 5.0 672.5 5.0 672.5 5.0 Z M 924.0 65.2 C 924.6 65.2 928.0 65.2 928.1 65.3 C 922.0 65.4 929.0 65.5 924.5 65.8 C 932.2 65.6 934.4 65.2 923.8 65.1 C 916.3 65.1 931.7 65.2 924.0 65.2 C 924.0 65.2 924.0 65.2 924.0 65.2 Z M 947.6 65.3 C 952.3 65.2 940.2 65.1 937.5 65.1 C 937.5 65.0 937.4 64.9 937.4 64.9 C 931.0 65.2 940.0 65.2 934.2 65.6 C 941.9 65.7 945.2 65.8 951.8 65.7 C 951.3 65.6 949.8 65.6 949.9 65.7 C 944.9 65.6 948.1 65.4 953.5 65.5 C 951.9 65.4 947.1 65.4 943.7 65.4 C 944.7 65.4 945.9 65.5 945.8 65.5 C 941.6 65.6 943.0 65.4 939.9 65.4 C 939.9 65.3 947.3 65.2 947.6 65.3 C 947.6 65.3 947.6 65.3 947.6 65.3 Z M 563.7 65.6 C 567.7 65.6 559.4 65.3 559.6 65.1 C 555.4 65.0 554.5 65.1 551.8 65.1 C 553.2 65.2 557.8 65.3 559.8 65.4 C 559.1 65.6 553.7 65.3 552.0 65.5 C 549.7 65.8 561.9 65.4 563.7 65.6 C 563.7 65.6 563.7 65.6 563.7 65.6 Z M 952.9 5.3 C 950.8 5.3 951.9 5.4 952.8 5.4 C 952.4 5.5 949.0 5.5 949.0 5.4 C 946.0 5.4 950.6 5.5 947.0 5.5 C 946.1 5.6 952.5 5.5 952.8 5.5 C 957.1 5.4 953.5 5.7 954.6 5.8 C 958.4 5.8 957.2 5.6 962.5 5.6 C 959.3 5.5 956.6 5.4 952.9 5.3 C 952.9 5.3 952.9 5.3 952.9 5.3 Z M 910.8 65.5 C 910.1 65.6 915.1 65.3 920.4 65.4 C 927.2 65.4 916.0 65.2 922.1 65.2 C 916.9 65.2 910.8 65.3 902.8 65.4 C 901.0 65.5 913.9 65.4 906.7 65.5 C 907.2 65.6 908.9 65.5 908.8 65.5 C 910.3 65.5 910.6 65.5 910.8 65.5 C 910.8 65.5 910.8 65.5 910.8 65.5 Z M 918.2 65.1 C 917.8 65.1 916.1 65.1 916.1 65.1 C 913.6 65.1 913.5 64.9 915.9 64.9 C 912.5 64.7 913.1 65.1 906.3 65.0 C 909.3 65.2 910.7 65.3 904.5 65.1 C 899.7 65.3 916.0 65.2 918.2 65.1 C 918.2 65.1 918.2 65.1 918.2 65.1 Z M 626.0 65.5 C 625.4 65.4 621.2 65.4 618.1 65.4 C 621.9 65.3 637.7 65.4 639.7 65.5 C 641.3 65.4 643.0 65.4 643.7 65.5 C 643.4 65.4 647.7 65.3 645.4 65.3 C 645.8 65.2 649.2 65.3 649.2 65.2 C 655.1 65.2 647.5 65.3 649.3 65.4 C 656.2 65.3 654.8 65.4 663.0 65.4 C 661.6 65.2 652.5 65.3 653.1 65.1 C 646.7 65.3 639.6 65.1 635.5 64.9 C 641.8 65.2 619.1 65.4 608.4 65.3 C 608.7 65.2 604.9 65.2 600.5 65.1 C 597.3 64.9 598.5 65.3 604.4 65.2 C 604.2 65.4 596.2 65.3 592.8 65.3 C 596.8 65.4 594.6 65.5 596.7 65.5 C 604.3 65.5 597.5 65.5 598.7 65.4 C 600.6 65.4 602.5 65.4 604.6 65.4 C 594.5 65.6 619.5 65.4 610.4 65.4 C 618.3 65.4 618.6 65.6 626.0 65.5 C 626.0 65.5 626.0 65.5 626.0 65.5 Z M 809.3 65.5 C 810.6 65.5 816.8 65.4 817.1 65.5 C 824.9 65.4 817.8 65.2 826.7 65.2 C 826.1 65.2 822.7 65.2 822.6 65.1 C 819.2 65.2 815.9 65.2 817.0 65.4 C 813.0 65.4 811.9 65.5 809.2 65.5 C 810.1 65.4 811.6 65.4 815.0 65.4 C 815.5 65.2 814.1 65.1 808.9 65.1 C 806.8 65.3 808.4 65.4 809.3 65.5 C 809.3 65.5 809.3 65.5 809.3 65.5 Z M 828.7 65.3 C 829.6 65.4 830.8 65.4 830.7 65.5 C 833.7 65.7 831.7 65.2 834.5 65.2 C 836.8 65.3 836.1 65.4 836.5 65.4 C 839.9 65.4 842.6 65.4 844.3 65.4 C 849.6 65.3 838.1 65.3 836.4 65.2 C 832.5 65.2 834.0 65.3 828.7 65.3 C 828.7 65.3 828.7 65.3 828.7 65.3 Z M 887.4 65.5 C 888.5 65.7 890.3 65.4 893.0 65.4 C 891.0 65.3 885.3 65.4 888.9 65.1 C 883.2 65.1 882.8 65.1 877.2 65.1 C 873.4 65.0 877.1 65.3 883.1 65.2 C 882.4 65.3 879.8 65.3 879.5 65.4 C 875.3 65.0 865.9 65.6 871.6 65.3 C 873.4 65.3 874.6 65.4 875.6 65.5 C 876.8 65.3 890.1 65.4 887.4 65.5 C 887.4 65.5 887.4 65.5 887.4 65.5 Z M 993.6 5.7 C 1000.7 5.7 1001.3 5.7 1007.3 5.7 C 1007.3 6.3 1007.2 6.9 1007.2 7.5 C 1007.2 7.8 1007.1 7.3 1007.1 5.8 C 1007.1 7.5 1007.1 9.9 1007.1 13.2 C 1007.2 13.0 1007.2 11.3 1007.1 11.4 C 1007.3 5.1 1007.3 10.3 1007.4 11.1 C 1007.5 9.1 1007.5 7.2 1007.5 5.5 C 1002.4 5.5 998.1 5.6 995.7 5.5 C 992.8 5.5 996.2 5.5 993.6 5.7 C 993.6 5.7 993.6 5.7 993.6 5.7 Z M 160.0 65.3 C 158.9 65.4 155.7 65.4 156.3 65.5 C 159.1 65.5 161.2 65.4 164.0 65.4 C 158.5 65.3 159.2 65.1 152.2 65.1 C 154.5 65.2 154.0 65.3 160.0 65.3 C 160.0 65.3 160.0 65.3 160.0 65.3 Z M 867.7 65.4 C 867.5 65.3 867.2 65.3 869.5 65.2 C 870.1 65.1 863.9 65.2 863.6 65.1 C 861.5 65.1 862.4 65.2 859.7 65.2 C 860.8 65.3 865.8 65.2 863.9 65.4 C 862.2 65.4 862.0 65.4 861.8 65.4 C 857.9 65.5 864.0 65.5 867.7 65.4 C 867.7 65.4 867.7 65.4 867.7 65.4 Z M 544.2 65.4 C 546.9 65.4 544.1 65.3 542.1 65.3 C 547.7 65.1 538.5 65.0 538.0 64.8 C 540.5 65.0 548.3 64.9 549.6 64.9 C 551.9 64.9 549.2 64.7 555.4 64.7 C 554.6 64.6 547.8 64.7 549.6 64.8 C 547.8 64.6 541.2 64.9 541.7 64.6 C 532.9 64.6 530.9 64.7 530.3 64.9 C 538.8 64.9 534.6 65.2 542.0 65.1 C 542.0 65.2 539.7 65.2 538.2 65.2 C 538.8 65.3 542.1 65.3 544.2 65.4 C 544.2 65.4 544.2 65.4 544.2 65.4 Z M 746.8 65.4 C 751.2 65.4 750.9 65.3 750.6 65.1 C 748.9 65.2 746.3 65.2 742.9 65.2 C 743.7 65.3 749.0 65.2 746.8 65.4 C 746.8 65.4 746.8 65.4 746.8 65.4 Z M 575.2 65.2 C 575.7 65.3 577.2 65.2 577.1 65.2 C 582.1 65.2 583.3 65.3 585.0 65.4 C 587.7 65.3 586.7 65.2 586.8 65.1 C 582.3 65.3 583.1 65.0 577.1 65.1 C 577.5 65.1 576.8 65.2 575.2 65.2 C 575.2 65.2 575.2 65.2 575.2 65.2 Z M 705.9 65.3 C 708.2 65.3 707.0 65.2 705.8 65.2 C 708.4 65.0 716.5 65.2 719.4 65.1 C 719.7 65.0 709.8 65.0 721.2 64.9 C 719.0 64.8 708.8 64.9 703.7 64.9 C 704.7 64.7 711.7 64.7 711.2 64.5 C 705.2 64.6 698.6 64.7 697.9 65.0 C 706.6 65.0 703.7 65.2 705.9 65.3 C 705.9 65.3 705.9 65.3 705.9 65.3 Z M 696.1 65.2 C 696.9 65.3 698.6 65.2 701.8 65.2 C 696.9 65.0 694.1 65.0 684.2 65.0 C 684.2 65.0 684.3 65.1 684.3 65.1 C 682.4 65.1 680.3 65.1 678.4 65.1 C 687.1 65.3 689.1 65.2 698.0 65.1 C 698.4 65.2 697.2 65.2 696.1 65.2 C 696.1 65.2 696.1 65.2 696.1 65.2 Z M 957.2 65.2 C 954.5 65.1 952.1 65.0 947.3 64.9 C 947.8 65.1 950.8 65.2 957.2 65.2 C 957.2 65.2 957.2 65.2 957.2 65.2 Z M 567.4 65.1 C 562.1 65.2 572.5 65.1 569.2 64.9 C 565.0 64.8 560.4 64.8 559.3 64.6 C 551.7 64.8 568.2 64.8 567.4 65.1 C 567.4 65.1 567.4 65.1 567.4 65.1 Z M 602.1 64.6 C 604.4 64.7 604.5 64.9 602.2 64.8 C 596.7 64.8 607.0 64.9 598.4 64.9 C 602.1 65.0 610.3 65.1 614.1 64.9 C 613.8 64.8 606.4 64.9 606.1 64.7 C 605.7 64.7 606.8 64.6 608.0 64.6 C 607.2 64.6 605.5 64.7 602.1 64.6 C 602.1 64.6 602.1 64.6 602.1 64.6 Z M 631.5 64.9 C 628.2 64.8 624.4 64.8 617.7 64.8 C 622.2 64.9 624.8 65.1 631.5 64.9 C 631.5 64.9 631.5 64.9 631.5 64.9 Z M 263.3 64.7 C 268.0 64.7 263.8 64.5 263.2 64.5 C 258.5 64.4 258.9 64.6 253.4 64.5 C 255.1 64.7 260.2 64.5 263.3 64.7 C 263.3 64.7 263.3 64.7 263.3 64.7 Z M 245.8 64.6 C 245.2 64.5 238.3 64.5 237.9 64.4 C 234.0 64.8 227.8 64.2 228.1 64.5 C 226.6 64.4 225.0 64.4 222.2 64.4 C 227.8 64.7 239.9 64.6 245.8 64.6 C 245.8 64.6 245.8 64.6 245.8 64.6 Z M 664.5 64.6 C 669.7 64.6 662.8 64.3 668.2 64.3 C 668.5 64.3 658.2 64.2 664.3 64.2 C 656.2 64.0 665.1 64.5 664.5 64.6 C 664.5 64.6 664.5 64.6 664.5 64.6 Z M 759.7 64.4 C 759.5 64.5 766.6 64.4 769.5 64.5 C 769.4 64.4 767.2 64.4 765.6 64.4 C 766.4 64.3 767.3 64.3 769.3 64.3 C 767.7 64.1 762.6 64.4 759.7 64.4 C 759.7 64.4 759.7 64.4 759.7 64.4 Z M 656.7 67.7 C 653.3 67.5 649.1 67.4 646.9 67.6 C 643.4 67.5 649.1 67.4 644.8 67.3 C 639.4 67.4 641.9 67.2 633.0 67.3 C 634.6 67.1 628.1 67.1 626.9 67.0 C 630.5 67.0 635.2 67.2 636.8 67.0 C 633.8 67.0 635.4 66.8 636.8 66.9 C 642.7 67.0 629.7 67.2 637.0 67.3 C 638.9 67.0 649.7 67.5 656.5 67.5 C 654.0 67.6 661.8 67.7 656.7 67.7 C 656.7 67.7 656.7 67.7 656.7 67.7 Z M 621.4 67.3 C 616.7 67.3 614.0 67.0 615.3 67.0 C 615.3 67.1 620.7 67.1 621.2 67.0 C 619.9 67.0 618.7 67.0 619.1 66.9 C 627.8 66.9 624.9 67.1 627.1 67.2 C 622.3 67.3 620.9 67.2 619.3 67.3 C 620.4 67.3 621.6 67.3 621.4 67.3 C 621.4 67.3 621.4 67.3 621.4 67.3 Z M 516.3 64.3 C 517.3 64.4 518.4 64.3 520.2 64.3 C 520.8 64.6 530.4 64.2 531.9 64.3 C 529.6 64.4 524.5 64.4 522.3 64.5 C 524.9 64.5 525.5 64.6 528.1 64.5 C 527.7 64.7 522.0 64.7 520.5 64.8 C 519.9 64.7 517.3 64.9 516.5 64.8 C 524.0 64.7 511.9 64.3 516.3 64.3 C 516.3 64.3 516.3 64.3 516.3 64.3 Z M 709.0 64.3 C 709.6 64.2 701.0 63.7 708.4 63.5 C 710.2 63.7 711.3 63.8 710.9 64.0 C 715.5 63.9 717.8 64.1 720.5 63.9 C 729.8 64.5 713.6 63.9 709.0 64.3 C 709.0 64.3 709.0 64.3 709.0 64.3 Z M 740.2 64.2 C 738.6 64.3 743.0 64.3 742.3 64.5 C 738.4 64.3 726.4 64.5 730.5 64.4 C 734.4 64.3 734.3 64.2 740.2 64.2 C 740.2 64.2 740.2 64.2 740.2 64.2 Z M 531.9 5.2 C 538.2 5.1 541.4 5.4 537.8 5.5 C 539.3 5.3 529.8 5.4 531.9 5.2 C 531.9 5.2 531.9 5.2 531.9 5.2 Z M 759.6 2.3 C 753.9 2.2 750.6 2.3 749.9 2.2 C 755.5 2.1 754.8 2.2 759.6 2.2 C 760.1 2.1 763.0 2.1 763.5 2.2 C 760.8 2.2 761.3 2.3 759.6 2.3 C 759.6 2.3 759.6 2.3 759.6 2.3 Z M 862.5 68.4 C 863.1 68.5 865.4 68.5 864.6 68.7 C 858.6 68.6 852.1 68.7 847.2 68.8 C 847.1 68.8 847.1 68.7 847.0 68.6 C 856.4 68.7 858.8 68.5 862.5 68.4 C 862.5 68.4 862.5 68.4 862.5 68.4 Z M 874.6 68.8 C 875.5 68.7 872.1 68.5 876.3 68.5 C 876.2 68.6 883.8 68.8 880.4 68.8 C 879.1 68.7 877.2 68.7 874.6 68.8 C 874.6 68.8 874.6 68.8 874.6 68.8 Z M 545.5 67.8 C 540.7 67.8 547.7 68.0 547.5 68.1 C 544.1 68.0 539.3 68.0 537.8 67.9 C 541.2 68.0 543.5 67.7 545.5 67.8 C 545.5 67.8 545.5 67.8 545.5 67.8 Z M 617.5 67.4 C 627.5 67.4 623.4 67.7 633.3 67.8 C 629.4 67.9 620.4 67.8 617.8 68.0 C 618.1 67.9 615.6 67.9 615.8 67.8 C 619.4 67.8 620.0 67.8 623.6 67.8 C 622.2 67.6 622.2 67.7 623.4 67.5 C 620.8 67.5 619.1 67.6 617.6 67.6 C 618.3 67.5 614.6 67.4 617.5 67.4 C 617.5 67.4 617.5 67.4 617.5 67.4 Z M 547.1 67.3 C 543.2 67.4 539.6 67.1 543.0 67.2 C 543.7 67.3 546.3 67.1 547.1 67.2 C 541.4 67.3 551.7 67.3 549.1 67.5 C 545.7 67.5 544.6 67.5 545.4 67.6 C 543.1 67.6 539.7 67.7 539.5 67.6 C 541.0 67.6 543.3 67.6 543.2 67.5 C 542.1 67.5 541.0 67.5 541.3 67.5 C 544.7 67.5 546.2 67.4 547.1 67.3 C 547.1 67.3 547.1 67.3 547.1 67.3 Z M 574.4 67.3 C 569.0 67.3 568.4 67.2 566.4 67.0 C 573.7 67.1 575.0 67.3 580.4 67.5 C 574.4 67.4 568.6 67.7 566.7 67.5 C 569.3 67.5 574.1 67.5 574.4 67.3 C 574.4 67.3 574.4 67.3 574.4 67.3 Z M 24.0 4.0 C 28.6 4.1 32.6 4.2 37.8 4.3 C 39.3 4.1 29.5 3.8 33.6 3.9 C 38.9 3.9 35.5 4.1 39.7 4.1 C 35.3 3.9 58.0 3.9 59.1 4.1 C 55.7 4.1 54.6 4.2 55.5 4.3 C 46.3 4.3 42.8 4.4 36.0 4.5 C 30.9 4.3 16.3 4.2 8.8 4.4 C 7.2 4.3 5.4 4.3 3.3 4.3 C 3.3 9.3 3.5 15.7 3.3 20.6 C 3.4 22.6 3.5 14.8 3.5 20.8 C 3.3 24.5 3.2 21.4 3.1 26.5 C 3.2 27.0 3.4 25.9 3.4 28.6 C 3.3 28.1 3.3 31.4 3.2 32.5 C 3.2 21.8 2.9 33.0 2.9 24.4 C 3.0 21.0 3.2 28.3 3.2 18.7 C 3.1 15.1 3.1 11.8 2.9 12.4 C 2.9 9.7 2.9 8.1 2.8 6.4 C 2.9 7.9 2.9 6.1 2.9 3.9 C 6.3 3.9 10.7 3.8 6.2 4.0 C 5.9 4.0 4.7 4.0 3.0 4.0 C 3.0 6.0 3.0 8.5 3.1 10.6 C 3.2 8.8 3.2 6.7 3.2 4.1 C 5.2 4.1 7.5 4.1 10.3 4.0 C 12.9 4.2 9.3 4.2 12.4 4.3 C 17.0 4.1 10.4 4.0 13.9 3.9 C 12.4 3.9 10.1 3.9 10.1 3.8 C 18.4 4.0 21.5 3.8 25.7 3.8 C 23.0 3.9 30.6 4.0 24.0 4.0 C 24.0 4.0 24.0 4.0 24.0 4.0 Z M 3.3 54.3 C 3.3 56.3 3.3 58.2 3.3 60.3 C 3.1 60.7 3.1 52.9 3.0 58.1 C 3.0 49.4 3.2 58.5 3.3 54.3 C 3.3 54.3 3.3 54.3 3.3 54.3 Z M 4.0 15.4 C 4.2 12.8 3.7 13.9 3.7 11.2 C 3.8 16.0 3.8 20.5 3.6 20.9 C 3.7 15.4 3.7 12.9 3.6 7.1 C 3.8 10.5 3.8 7.9 3.9 4.8 C 6.1 4.8 8.5 4.9 9.3 5.0 C 7.5 5.0 5.8 5.0 4.1 5.0 C 4.1 7.5 4.2 10.1 4.2 13.5 C 4.1 12.5 4.0 21.0 4.0 15.4 C 4.0 15.4 4.0 15.4 4.0 15.4 Z M 4.2 31.2 C 4.1 32.3 4.2 40.8 4.0 38.9 C 4.0 33.7 4.0 31.8 3.8 32.9 C 3.8 29.0 3.9 28.5 3.9 25.1 C 4.1 23.1 4.1 29.2 4.2 31.2 C 4.2 30.0 4.2 28.9 4.2 31.2 C 4.2 31.2 4.2 31.2 4.2 31.2 Z M 115.1 64.7 C 116.8 64.9 108.9 64.8 107.3 64.8 C 109.6 64.9 108.5 65.0 103.6 65.1 C 105.4 64.8 98.2 64.9 93.8 64.6 C 92.7 64.8 98.4 64.9 91.8 64.9 C 86.6 64.9 82.1 65.0 74.3 65.0 C 72.6 64.8 76.0 64.8 78.1 64.7 C 72.8 64.7 74.3 64.6 70.3 64.6 C 71.0 64.7 67.8 64.7 66.5 64.6 C 73.3 64.6 57.4 64.4 64.6 64.3 C 65.0 64.4 66.7 64.4 68.4 64.3 C 66.5 64.6 76.0 64.5 78.1 64.6 C 81.8 64.2 91.9 64.4 103.5 64.5 C 104.3 64.6 100.7 64.7 103.5 64.7 C 103.9 64.6 107.7 64.6 109.4 64.6 C 109.2 64.7 110.8 64.7 113.2 64.8 C 113.4 64.7 113.6 64.7 115.1 64.7 C 115.1 64.7 115.1 64.7 115.1 64.7 Z M 345.1 6.0 C 344.8 6.3 357.3 6.1 360.7 6.1 C 360.2 6.4 338.2 6.3 345.1 6.0 C 345.1 6.0 345.1 6.0 345.1 6.0 Z M 269.3 6.2 C 272.5 6.2 270.2 6.1 273.0 6.1 C 273.3 6.2 280.5 5.9 280.8 6.1 C 277.3 6.2 275.0 6.2 269.3 6.2 C 269.3 6.2 269.3 6.2 269.3 6.2 Z M 199.1 6.2 C 204.7 6.1 196.0 6.1 197.1 6.0 C 202.0 6.0 207.1 6.0 206.9 6.2 C 202.4 6.1 199.7 6.3 199.1 6.2 C 199.1 6.2 199.1 6.2 199.1 6.2 Z M 304.3 6.4 C 309.1 6.5 301.4 6.7 300.6 6.6 C 305.7 6.5 297.1 6.4 292.7 6.5 C 292.8 6.3 294.8 6.3 292.6 6.1 C 299.4 6.0 293.8 6.3 298.5 6.3 C 301.7 6.2 298.3 6.2 298.4 6.1 C 300.3 6.1 302.2 6.1 304.1 6.1 C 304.2 6.2 304.2 6.3 304.3 6.4 C 302.0 6.4 299.7 6.4 300.5 6.5 C 302.4 6.5 302.8 6.4 304.3 6.4 C 304.3 6.4 304.3 6.4 304.3 6.4 Z M 13.9 64.3 C 10.8 64.4 13.5 64.4 15.8 64.5 C 16.3 64.4 18.2 64.0 21.7 64.2 C 14.1 64.4 23.9 64.5 19.8 64.6 C 18.1 64.4 13.5 64.6 9.9 64.6 C 8.4 64.4 12.2 64.2 13.9 64.3 C 13.9 64.3 13.9 64.3 13.9 64.3 Z M 27.5 64.5 C 27.2 64.4 25.8 64.4 23.6 64.4 C 26.0 64.3 22.6 64.2 25.6 64.2 C 25.3 64.2 35.5 64.3 29.4 64.3 C 24.1 64.2 31.0 64.4 33.4 64.5 C 30.8 64.5 26.0 64.7 25.5 64.5 C 26.8 64.5 27.9 64.5 27.5 64.5 C 27.5 64.5 27.5 64.5 27.5 64.5 Z M 154.0 64.2 C 154.7 64.1 151.3 64.1 150.2 64.0 C 160.0 64.1 168.6 64.1 173.5 64.1 C 169.0 64.1 169.0 64.3 171.7 64.3 C 166.7 64.3 165.6 64.4 163.9 64.3 C 168.0 64.1 160.1 64.2 154.0 64.2 C 154.0 64.2 154.0 64.2 154.0 64.2 Z M 154.0 64.2 " fill="#FFFFFF"></path></g></svg>