<?xml version="1.0" encoding="UTF-8" standalone="no"?><svg xmlns="http://www.w3.org/2000/svg" xmlns:xlink="http://www.w3.org/1999/xlink" clip-rule="evenodd" stroke-miterlimit="10" viewBox="0 0 216 45"><desc>SVG generated by Keynote</desc><defs></defs><g transform="matrix(1.00, 0.00, -0.00, -1.00, 0.0, 45.0)"><image xlink:href="F9AC8FCAE26F06D302EFEC66ED5A9AAD.png" width="213.00" height="42.00" transform="matrix(1.00, 0.00, -0.00, -1.00, 1.0, 43.0)"></image><text xml:space="preserve" font-family="NeuropolXFree,Neuropol X Free" font-size="24.0" fill="#FF8905" transform="matrix(1.00, 0.00, -0.00, -1.00, 5.8, 19.6)">p</text><text xml:space="preserve" font-family="NeuropolXFree,Neuropol X Free" font-size="24.0" fill="#FF8905" transform="matrix(1.00, 0.00, -0.00, -1.00, 27.6, 19.6)">a</text><text xml:space="preserve" font-family="NeuropolXFree,Neuropol X Free" font-size="24.0" fill="#FF8905" transform="matrix(1.00, 0.00, -0.00, -1.00, 49.6, 19.6)">r</text><text xml:space="preserve" font-family="NeuropolXFree,Neuropol X Free" font-size="24.0" fill="#FF8905" transform="matrix(1.00, 0.00, -0.00, -1.00, 60.9, 19.6)">t</text><text xml:space="preserve" font-family="NeuropolXFree,Neuropol X Free" font-size="24.0" fill="#FF8905" transform="matrix(1.00, 0.00, -0.00, -1.00, 71.3, 19.6)">e</text><text xml:space="preserve" font-family="NeuropolXFree,Neuropol X Free" font-size="24.0" fill="#FF8905" transform="matrix(1.00, 0.00, -0.00, -1.00, 93.0, 19.6)">c</text><text xml:space="preserve" font-family="NeuropolXFree,Neuropol X Free" font-size="24.0" fill="#FF8905" transform="matrix(1.00, 0.00, -0.00, -1.00, 112.2, 19.6)">i</text><text xml:space="preserve" font-family="NeuropolXFree,Neuropol X Free" font-size="24.0" fill="#FF8905" transform="matrix(1.00, 0.00, -0.00, -1.00, 118.6, 19.6)">p</text><text xml:space="preserve" font-family="NeuropolXFree,Neuropol X Free" font-size="24.0" fill="#FF8905" transform="matrix(1.00, 0.00, -0.00, -1.00, 140.3, 19.6)">a</text><text xml:space="preserve" font-family="NeuropolXFree,Neuropol X Free" font-size="24.0" fill="#FF8905" transform="matrix(1.00, 0.00, -0.00, -1.00, 162.4, 19.6)">n</text><text xml:space="preserve" font-family="NeuropolXFree,Neuropol X Free" font-size="24.0" fill="#FF8905" transform="matrix(1.00, 0.00, -0.00, -1.00, 184.0, 19.6)">t</text><text xml:space="preserve" font-family="NeuropolXFree,Neuropol X Free" font-size="24.0" fill="#FF8905" transform="matrix(1.00, 0.00, -0.00, -1.00, 195.2, 19.6)">i</text></g></svg>