<?xml version="1.0" encoding="UTF-8" standalone="no"?><svg xmlns="http://www.w3.org/2000/svg" xmlns:xlink="http://www.w3.org/1999/xlink" clip-rule="evenodd" stroke-miterlimit="10" viewBox="0 0 1024 768"><desc>SVG generated by Keynote</desc><defs></defs><g transform="matrix(1.00, 0.00, -0.00, -1.00, 0.0, 768.0)"><g><clipPath id="clip0x610000aa7740"><path d="M 0.0 768.0 L 1024.0 768.0 L 1024.0 0.0 L 0.0 0.0 Z M 0.0 768.0 "></path></clipPath><g clip-path="url(#clip0x610000aa7740)"><image xlink:href="../../FA1881E0-DE93-4EBB-9222-E945B123BA90/assets/46A8BA6911C083A7C9C804E04AAECC2A.jpeg" width="1600.00" height="1200.00" transform="matrix(0.64, 0.00, -0.00, -0.64, 0.0, 768.0)"></image></g></g><image xlink:href="A35AA8BB64E481187314E27BD1C5913E.png" width="405.00" height="63.00" transform="matrix(1.00, 0.00, -0.00, -1.00, 605.0, 308.0)"></image><text xml:space="preserve" font-family="NeuropolXFree,Neuropol X Free" font-size="24.0" fill="#FF8905" transform="matrix(2.00, 0.00, -0.00, -2.00, 607.6, 267.7)">p</text><text xml:space="preserve" font-family="NeuropolXFree,Neuropol X Free" font-size="24.0" fill="#FF8905" transform="matrix(2.00, 0.00, -0.00, -2.00, 651.2, 267.7)">a</text><text xml:space="preserve" font-family="NeuropolXFree,Neuropol X Free" font-size="24.0" fill="#FF8905" transform="matrix(2.00, 0.00, -0.00, -2.00, 695.2, 267.7)">r</text><text xml:space="preserve" font-family="NeuropolXFree,Neuropol X Free" font-size="24.0" fill="#FF8905" transform="matrix(2.00, 0.00, -0.00, -2.00, 717.8, 267.7)">t</text><text xml:space="preserve" font-family="NeuropolXFree,Neuropol X Free" font-size="24.0" fill="#FF8905" transform="matrix(2.00, 0.00, -0.00, -2.00, 738.6, 267.7)">e</text><text xml:space="preserve" font-family="NeuropolXFree,Neuropol X Free" font-size="24.0" fill="#FF8905" transform="matrix(2.00, 0.00, -0.00, -2.00, 781.9, 267.7)">c</text><text xml:space="preserve" font-family="NeuropolXFree,Neuropol X Free" font-size="24.0" fill="#FF8905" transform="matrix(2.00, 0.00, -0.00, -2.00, 820.4, 267.7)">i</text><text xml:space="preserve" font-family="NeuropolXFree,Neuropol X Free" font-size="24.0" fill="#FF8905" transform="matrix(2.00, 0.00, -0.00, -2.00, 833.1, 267.7)">p</text><text xml:space="preserve" font-family="NeuropolXFree,Neuropol X Free" font-size="24.0" fill="#FF8905" transform="matrix(2.00, 0.00, -0.00, -2.00, 876.7, 267.7)">a</text><text xml:space="preserve" font-family="NeuropolXFree,Neuropol X Free" font-size="24.0" fill="#FF8905" transform="matrix(2.00, 0.00, -0.00, -2.00, 920.7, 267.7)">n</text><text xml:space="preserve" font-family="NeuropolXFree,Neuropol X Free" font-size="24.0" fill="#FF8905" transform="matrix(2.00, 0.00, -0.00, -2.00, 964.0, 267.7)">t</text><text xml:space="preserve" font-family="NeuropolXFree,Neuropol X Free" font-size="24.0" fill="#FF8905" transform="matrix(2.00, 0.00, -0.00, -2.00, 986.4, 267.7)">i</text><image xlink:href="../../FA1881E0-DE93-4EBB-9222-E945B123BA90/assets/8808DF04879A841021389914B02EFBE0.png" width="1115.00" height="537.00" transform="matrix(0.21, 0.00, -0.00, -0.21, 36.0, 711.1)"></image><text xml:space="preserve" font-family="NeuropolXFree,Neuropol X Free" font-size="24.0" fill="#FFF4FC" transform="matrix(1.00, 0.00, -0.00, -1.00, 595.9, 81.3)">P</text><text xml:space="preserve" font-family="NeuropolXFree,Neuropol X Free" font-size="24.0" fill="#FFF4FC" transform="matrix(1.00, 0.00, -0.00, -1.00, 619.2, 81.3)">R</text><text xml:space="preserve" font-family="NeuropolXFree,Neuropol X Free" font-size="24.0" fill="#FFF4FC" transform="matrix(1.00, 0.00, -0.00, -1.00, 642.3, 81.3)">A</text><text xml:space="preserve" font-family="NeuropolXFree,Neuropol X Free" font-size="24.0" fill="#FFF4FC" transform="matrix(1.00, 0.00, -0.00, -1.00, 664.3, 81.3)">T</text><text xml:space="preserve" font-family="NeuropolXFree,Neuropol X Free" font-size="24.0" fill="#FFF4FC" transform="matrix(1.00, 0.00, -0.00, -1.00, 683.0, 81.3)">I</text><text xml:space="preserve" font-family="NeuropolXFree,Neuropol X Free" font-size="24.0" fill="#FFF4FC" transform="matrix(1.00, 0.00, -0.00, -1.00, 690.2, 81.3)">C</text><text xml:space="preserve" font-family="NeuropolXFree,Neuropol X Free" font-size="24.0" fill="#FFF4FC" transform="matrix(1.00, 0.00, -0.00, -1.00, 711.2, 81.3)">H</text><text xml:space="preserve" font-family="NeuropolXFree,Neuropol X Free" font-size="24.0" fill="#FFF4FC" transform="matrix(1.00, 0.00, -0.00, -1.00, 736.5, 81.3)">E</text><text xml:space="preserve" font-family="NeuropolXFree,Neuropol X Free" font-size="24.0" fill="#FFF4FC" transform="matrix(1.00, 0.00, -0.00, -1.00, 758.3, 81.3)"> </text><text xml:space="preserve" font-family="NeuropolXFree,Neuropol X Free" font-size="24.0" fill="#FFF4FC" transform="matrix(1.00, 0.00, -0.00, -1.00, 767.6, 81.3)">I</text><text xml:space="preserve" font-family="NeuropolXFree,Neuropol X Free" font-size="24.0" fill="#FFF4FC" transform="matrix(1.00, 0.00, -0.00, -1.00, 774.9, 81.3)">N</text><text xml:space="preserve" font-family="NeuropolXFree,Neuropol X Free" font-size="24.0" fill="#FFF4FC" transform="matrix(1.00, 0.00, -0.00, -1.00, 799.5, 81.3)">T</text><text xml:space="preserve" font-family="NeuropolXFree,Neuropol X Free" font-size="24.0" fill="#FFF4FC" transform="matrix(1.00, 0.00, -0.00, -1.00, 818.2, 81.3)">E</text><text xml:space="preserve" font-family="NeuropolXFree,Neuropol X Free" font-size="24.0" fill="#FFF4FC" transform="matrix(1.00, 0.00, -0.00, -1.00, 839.9, 81.3)">R</text><text xml:space="preserve" font-family="NeuropolXFree,Neuropol X Free" font-size="24.0" fill="#FFF4FC" transform="matrix(1.00, 0.00, -0.00, -1.00, 863.0, 81.3)">A</text><text xml:space="preserve" font-family="NeuropolXFree,Neuropol X Free" font-size="24.0" fill="#FFF4FC" transform="matrix(1.00, 0.00, -0.00, -1.00, 885.1, 81.3)">T</text><text xml:space="preserve" font-family="NeuropolXFree,Neuropol X Free" font-size="24.0" fill="#FFF4FC" transform="matrix(1.00, 0.00, -0.00, -1.00, 903.7, 81.3)">T</text><text xml:space="preserve" font-family="NeuropolXFree,Neuropol X Free" font-size="24.0" fill="#FFF4FC" transform="matrix(1.00, 0.00, -0.00, -1.00, 922.3, 81.3)">I</text><text xml:space="preserve" font-family="NeuropolXFree,Neuropol X Free" font-size="24.0" fill="#FFF4FC" transform="matrix(1.00, 0.00, -0.00, -1.00, 929.6, 81.3)">V</text><text xml:space="preserve" font-family="NeuropolXFree,Neuropol X Free" font-size="24.0" fill="#FFF4FC" transform="matrix(1.00, 0.00, -0.00, -1.00, 954.3, 81.3)">E</text><text xml:space="preserve" font-family="NeuropolXFree,Neuropol X Free" font-size="24.0" fill="#FFFFFF" transform="matrix(1.00, 0.00, -0.00, -1.00, 29.7, 81.3)">L</text><text xml:space="preserve" font-family="NeuropolXFree,Neuropol X Free" font-size="24.0" fill="#FFFFFF" transform="matrix(1.00, 0.00, -0.00, -1.00, 50.4, 81.3)">e</text><text xml:space="preserve" font-family="NeuropolXFree,Neuropol X Free" font-size="24.0" fill="#FFFFFF" transform="matrix(1.00, 0.00, -0.00, -1.00, 72.1, 81.3)">o</text><text xml:space="preserve" font-family="NeuropolXFree,Neuropol X Free" font-size="24.0" fill="#FFFFFF" transform="matrix(1.00, 0.00, -0.00, -1.00, 93.7, 81.3)">n</text><text xml:space="preserve" font-family="NeuropolXFree,Neuropol X Free" font-size="24.0" fill="#FFFFFF" transform="matrix(1.00, 0.00, -0.00, -1.00, 115.4, 81.3)">a</text><text xml:space="preserve" font-family="NeuropolXFree,Neuropol X Free" font-size="24.0" fill="#FFFFFF" transform="matrix(1.00, 0.00, -0.00, -1.00, 137.4, 81.3)">r</text><text xml:space="preserve" font-family="NeuropolXFree,Neuropol X Free" font-size="24.0" fill="#FFFFFF" transform="matrix(1.00, 0.00, -0.00, -1.00, 148.7, 81.3)">d</text><text xml:space="preserve" font-family="NeuropolXFree,Neuropol X Free" font-size="24.0" fill="#FFFFFF" transform="matrix(1.00, 0.00, -0.00, -1.00, 170.7, 81.3)">o</text><text xml:space="preserve" font-family="NeuropolXFree,Neuropol X Free" font-size="24.0" fill="#FFFFFF" transform="matrix(1.00, 0.00, -0.00, -1.00, 192.3, 81.3)"> </text><text xml:space="preserve" font-family="NeuropolXFree,Neuropol X Free" font-size="24.0" fill="#FFFFFF" transform="matrix(1.00, 0.00, -0.00, -1.00, 201.7, 81.3)">Z</text><text xml:space="preserve" font-family="NeuropolXFree,Neuropol X Free" font-size="24.0" fill="#FFFFFF" transform="matrix(1.00, 0.00, -0.00, -1.00, 222.3, 81.3)">a</text><text xml:space="preserve" font-family="NeuropolXFree,Neuropol X Free" font-size="24.0" fill="#FFFFFF" transform="matrix(1.00, 0.00, -0.00, -1.00, 244.3, 81.3)">c</text><text xml:space="preserve" font-family="NeuropolXFree,Neuropol X Free" font-size="24.0" fill="#FFFFFF" transform="matrix(1.00, 0.00, -0.00, -1.00, 263.5, 81.3)">c</text><text xml:space="preserve" font-family="NeuropolXFree,Neuropol X Free" font-size="24.0" fill="#FFFFFF" transform="matrix(1.00, 0.00, -0.00, -1.00, 282.8, 81.3)">o</text><text xml:space="preserve" font-family="NeuropolXFree,Neuropol X Free" font-size="24.0" fill="#FFFFFF" transform="matrix(1.00, 0.00, -0.00, -1.00, 304.4, 81.3)">n</text><text xml:space="preserve" font-family="NeuropolXFree,Neuropol X Free" font-size="24.0" fill="#FFFFFF" transform="matrix(1.00, 0.00, -0.00, -1.00, 326.0, 81.3)">e</text><image xlink:href="D25F7D87BAC0005191A72A07EB30D818.png" width="245.00" height="55.00" transform="matrix(1.00, 0.00, -0.00, -1.00, 101.0, 496.0)"></image><text xml:space="preserve" font-family="NeuropolXFree,Neuropol X Free" font-size="24.0" fill="#FF8905" transform="matrix(2.00, 0.00, -0.00, -2.00, 104.0, 456.0)">e</text><text xml:space="preserve" font-family="NeuropolXFree,Neuropol X Free" font-size="24.0" fill="#FF8905" transform="matrix(2.00, 0.00, -0.00, -2.00, 144.0, 456.0)">v</text><text xml:space="preserve" font-family="NeuropolXFree,Neuropol X Free" font-size="24.0" fill="#FF8905" transform="matrix(2.00, 0.00, -0.00, -2.00, 184.5, 456.0)">e</text><text xml:space="preserve" font-family="NeuropolXFree,Neuropol X Free" font-size="24.0" fill="#FF8905" transform="matrix(2.00, 0.00, -0.00, -2.00, 227.9, 456.0)">n</text><text xml:space="preserve" font-family="NeuropolXFree,Neuropol X Free" font-size="24.0" fill="#FF8905" transform="matrix(2.00, 0.00, -0.00, -2.00, 271.2, 456.0)">t</text><text xml:space="preserve" font-family="NeuropolXFree,Neuropol X Free" font-size="24.0" fill="#FF8905" transform="matrix(2.00, 0.00, -0.00, -2.00, 293.6, 456.0)">o</text><image xlink:href="../../FA1881E0-DE93-4EBB-9222-E945B123BA90/assets/59769E4B828B616BAB7653FBDD116BC4.png" width="500.00" height="167.00" transform="matrix(0.50, 0.00, -0.00, -0.50, 283.5, 695.0)"></image></g></svg>