<?xml version="1.0" encoding="UTF-8" standalone="no"?><svg xmlns="http://www.w3.org/2000/svg" xmlns:xlink="http://www.w3.org/1999/xlink" clip-rule="evenodd" stroke-miterlimit="10" viewBox="0 0 388 46"><desc>SVG generated by Keynote</desc><defs></defs><g transform="matrix(1.00, 0.00, -0.00, -1.00, 0.0, 46.0)"><text xml:space="preserve" font-family="NeuropolXFree,Neuropol X Free" font-size="48.0" fill="#FF8905" transform="matrix(1.00, 0.00, -0.00, -1.00, -1.5, 10.0)">p</text><text xml:space="preserve" font-family="NeuropolXFree,Neuropol X Free" font-size="48.0" fill="#FF8905" transform="matrix(1.00, 0.00, -0.00, -1.00, 42.1, 10.0)">a</text><text xml:space="preserve" font-family="NeuropolXFree,Neuropol X Free" font-size="48.0" fill="#FF8905" transform="matrix(1.00, 0.00, -0.00, -1.00, 86.1, 10.0)">r</text><text xml:space="preserve" font-family="NeuropolXFree,Neuropol X Free" font-size="48.0" fill="#FF8905" transform="matrix(1.00, 0.00, -0.00, -1.00, 108.7, 10.0)">t</text><text xml:space="preserve" font-family="NeuropolXFree,Neuropol X Free" font-size="48.0" fill="#FF8905" transform="matrix(1.00, 0.00, -0.00, -1.00, 129.4, 10.0)">e</text><text xml:space="preserve" font-family="NeuropolXFree,Neuropol X Free" font-size="48.0" fill="#FF8905" transform="matrix(1.00, 0.00, -0.00, -1.00, 172.8, 10.0)">c</text><text xml:space="preserve" font-family="NeuropolXFree,Neuropol X Free" font-size="48.0" fill="#FF8905" transform="matrix(1.00, 0.00, -0.00, -1.00, 211.3, 10.0)">i</text><text xml:space="preserve" font-family="NeuropolXFree,Neuropol X Free" font-size="48.0" fill="#FF8905" transform="matrix(1.00, 0.00, -0.00, -1.00, 224.0, 10.0)">p</text><text xml:space="preserve" font-family="NeuropolXFree,Neuropol X Free" font-size="48.0" fill="#FF8905" transform="matrix(1.00, 0.00, -0.00, -1.00, 267.6, 10.0)">a</text><text xml:space="preserve" font-family="NeuropolXFree,Neuropol X Free" font-size="48.0" fill="#FF8905" transform="matrix(1.00, 0.00, -0.00, -1.00, 311.6, 10.0)">n</text><text xml:space="preserve" font-family="NeuropolXFree,Neuropol X Free" font-size="48.0" fill="#FF8905" transform="matrix(1.00, 0.00, -0.00, -1.00, 354.8, 10.0)">t</text><text xml:space="preserve" font-family="NeuropolXFree,Neuropol X Free" font-size="48.0" fill="#FF8905" transform="matrix(1.00, 0.00, -0.00, -1.00, 377.2, 10.0)">i</text></g></svg>