<?xml version="1.0" encoding="UTF-8" standalone="no"?><svg xmlns="http://www.w3.org/2000/svg" xmlns:xlink="http://www.w3.org/1999/xlink" clip-rule="evenodd" stroke-miterlimit="10" viewBox="0 0 380 29"><desc>SVG generated by Keynote</desc><defs></defs><g transform="matrix(1.00, 0.00, -0.00, -1.00, 0.0, 29.0)"><text xml:space="preserve" font-family="NeuropolXFree,Neuropol X Free" font-size="36.0" fill="#FFF3F2" transform="matrix(1.00, 0.00, -0.00, -1.00, -1.0, 1.6)">O</text><text xml:space="preserve" font-family="NeuropolXFree,Neuropol X Free" font-size="36.0" fill="#FFF3F2" transform="matrix(1.00, 0.00, -0.00, -1.00, 35.2, 1.6)">l</text><text xml:space="preserve" font-family="NeuropolXFree,Neuropol X Free" font-size="36.0" fill="#FFF3F2" transform="matrix(1.00, 0.00, -0.00, -1.00, 45.7, 1.6)">a</text><text xml:space="preserve" font-family="NeuropolXFree,Neuropol X Free" font-size="36.0" fill="#FFF3F2" transform="matrix(1.00, 0.00, -0.00, -1.00, 78.7, 1.6)">f</text><text xml:space="preserve" font-family="NeuropolXFree,Neuropol X Free" font-size="36.0" fill="#FFF3F2" transform="matrix(1.00, 0.00, -0.00, -1.00, 94.1, 1.6)">u</text><text xml:space="preserve" font-family="NeuropolXFree,Neuropol X Free" font-size="36.0" fill="#FFF3F2" transform="matrix(1.00, 0.00, -0.00, -1.00, 127.2, 1.6)">r</text><text xml:space="preserve" font-family="NeuropolXFree,Neuropol X Free" font-size="36.0" fill="#FFF3F2" transform="matrix(1.00, 0.00, -0.00, -1.00, 144.1, 1.6)"> </text><text xml:space="preserve" font-family="NeuropolXFree,Neuropol X Free" font-size="36.0" fill="#FFF3F2" transform="matrix(1.00, 0.00, -0.00, -1.00, 158.1, 1.6)">E</text><text xml:space="preserve" font-family="NeuropolXFree,Neuropol X Free" font-size="36.0" fill="#FFF3F2" transform="matrix(1.00, 0.00, -0.00, -1.00, 190.8, 1.6)">l</text><text xml:space="preserve" font-family="NeuropolXFree,Neuropol X Free" font-size="36.0" fill="#FFF3F2" transform="matrix(1.00, 0.00, -0.00, -1.00, 201.3, 1.6)">i</text><text xml:space="preserve" font-family="NeuropolXFree,Neuropol X Free" font-size="36.0" fill="#FFF3F2" transform="matrix(1.00, 0.00, -0.00, -1.00, 210.8, 1.6)">a</text><text xml:space="preserve" font-family="NeuropolXFree,Neuropol X Free" font-size="36.0" fill="#FFF3F2" transform="matrix(1.00, 0.00, -0.00, -1.00, 243.8, 1.6)">s</text><text xml:space="preserve" font-family="NeuropolXFree,Neuropol X Free" font-size="36.0" fill="#FFF3F2" transform="matrix(1.00, 0.00, -0.00, -1.00, 271.7, 1.6)">s</text><text xml:space="preserve" font-family="NeuropolXFree,Neuropol X Free" font-size="36.0" fill="#FFF3F2" transform="matrix(1.00, 0.00, -0.00, -1.00, 299.6, 1.6)">o</text><text xml:space="preserve" font-family="NeuropolXFree,Neuropol X Free" font-size="36.0" fill="#FFF3F2" transform="matrix(1.00, 0.00, -0.00, -1.00, 332.1, 1.6)">n</text><text xml:space="preserve" font-family="NeuropolXFree,Neuropol X Free" font-size="36.0" fill="#FFF3F2" transform="matrix(1.00, 0.00, -0.00, -1.00, 364.5, 1.6)"> </text><text xml:space="preserve" font-family="NeuropolXFree,Neuropol X Free" font-size="36.0" fill="#FFF3F2" transform="matrix(1.00, 0.00, -0.00, -1.00, 378.5, 1.6)"> </text></g></svg>