<?xml version="1.0" encoding="UTF-8" standalone="no"?><svg xmlns="http://www.w3.org/2000/svg" xmlns:xlink="http://www.w3.org/1999/xlink" clip-rule="evenodd" stroke-miterlimit="10" viewBox="0 0 1024 768"><desc>SVG generated by Keynote</desc><defs></defs><g transform="matrix(1.00, 0.00, -0.00, -1.00, 0.0, 768.0)"><g><clipPath id="clip0x6180012a87c0"><path d="M 0.0 768.0 L 1024.0 768.0 L 1024.0 0.0 L 0.0 0.0 Z M 0.0 768.0 "></path></clipPath><g clip-path="url(#clip0x6180012a87c0)"><image xlink:href="../../FA1881E0-DE93-4EBB-9222-E945B123BA90/assets/46A8BA6911C083A7C9C804E04AAECC2A.jpeg" width="1600.00" height="1200.00" transform="matrix(0.64, 0.00, -0.00, -0.64, 0.0, 768.0)"></image></g></g><image xlink:href="../../FA1881E0-DE93-4EBB-9222-E945B123BA90/assets/8808DF04879A841021389914B02EFBE0.png" width="1115.00" height="537.00" transform="matrix(0.21, 0.00, -0.00, -0.21, 36.0, 711.1)"></image><text xml:space="preserve" font-family="NeuropolXFree,Neuropol X Free" font-size="24.0" fill="#FFF4FC" transform="matrix(1.00, 0.00, -0.00, -1.00, 595.9, 81.3)">P</text><text xml:space="preserve" font-family="NeuropolXFree,Neuropol X Free" font-size="24.0" fill="#FFF4FC" transform="matrix(1.00, 0.00, -0.00, -1.00, 619.2, 81.3)">R</text><text xml:space="preserve" font-family="NeuropolXFree,Neuropol X Free" font-size="24.0" fill="#FFF4FC" transform="matrix(1.00, 0.00, -0.00, -1.00, 642.3, 81.3)">A</text><text xml:space="preserve" font-family="NeuropolXFree,Neuropol X Free" font-size="24.0" fill="#FFF4FC" transform="matrix(1.00, 0.00, -0.00, -1.00, 664.3, 81.3)">T</text><text xml:space="preserve" font-family="NeuropolXFree,Neuropol X Free" font-size="24.0" fill="#FFF4FC" transform="matrix(1.00, 0.00, -0.00, -1.00, 683.0, 81.3)">I</text><text xml:space="preserve" font-family="NeuropolXFree,Neuropol X Free" font-size="24.0" fill="#FFF4FC" transform="matrix(1.00, 0.00, -0.00, -1.00, 690.2, 81.3)">C</text><text xml:space="preserve" font-family="NeuropolXFree,Neuropol X Free" font-size="24.0" fill="#FFF4FC" transform="matrix(1.00, 0.00, -0.00, -1.00, 711.2, 81.3)">H</text><text xml:space="preserve" font-family="NeuropolXFree,Neuropol X Free" font-size="24.0" fill="#FFF4FC" transform="matrix(1.00, 0.00, -0.00, -1.00, 736.5, 81.3)">E</text><text xml:space="preserve" font-family="NeuropolXFree,Neuropol X Free" font-size="24.0" fill="#FFF4FC" transform="matrix(1.00, 0.00, -0.00, -1.00, 758.3, 81.3)"> </text><text xml:space="preserve" font-family="NeuropolXFree,Neuropol X Free" font-size="24.0" fill="#FFF4FC" transform="matrix(1.00, 0.00, -0.00, -1.00, 767.6, 81.3)">I</text><text xml:space="preserve" font-family="NeuropolXFree,Neuropol X Free" font-size="24.0" fill="#FFF4FC" transform="matrix(1.00, 0.00, -0.00, -1.00, 774.9, 81.3)">N</text><text xml:space="preserve" font-family="NeuropolXFree,Neuropol X Free" font-size="24.0" fill="#FFF4FC" transform="matrix(1.00, 0.00, -0.00, -1.00, 799.5, 81.3)">T</text><text xml:space="preserve" font-family="NeuropolXFree,Neuropol X Free" font-size="24.0" fill="#FFF4FC" transform="matrix(1.00, 0.00, -0.00, -1.00, 818.2, 81.3)">E</text><text xml:space="preserve" font-family="NeuropolXFree,Neuropol X Free" font-size="24.0" fill="#FFF4FC" transform="matrix(1.00, 0.00, -0.00, -1.00, 839.9, 81.3)">R</text><text xml:space="preserve" font-family="NeuropolXFree,Neuropol X Free" font-size="24.0" fill="#FFF4FC" transform="matrix(1.00, 0.00, -0.00, -1.00, 863.0, 81.3)">A</text><text xml:space="preserve" font-family="NeuropolXFree,Neuropol X Free" font-size="24.0" fill="#FFF4FC" transform="matrix(1.00, 0.00, -0.00, -1.00, 885.1, 81.3)">T</text><text xml:space="preserve" font-family="NeuropolXFree,Neuropol X Free" font-size="24.0" fill="#FFF4FC" transform="matrix(1.00, 0.00, -0.00, -1.00, 903.7, 81.3)">T</text><text xml:space="preserve" font-family="NeuropolXFree,Neuropol X Free" font-size="24.0" fill="#FFF4FC" transform="matrix(1.00, 0.00, -0.00, -1.00, 922.3, 81.3)">I</text><text xml:space="preserve" font-family="NeuropolXFree,Neuropol X Free" font-size="24.0" fill="#FFF4FC" transform="matrix(1.00, 0.00, -0.00, -1.00, 929.6, 81.3)">V</text><text xml:space="preserve" font-family="NeuropolXFree,Neuropol X Free" font-size="24.0" fill="#FFF4FC" transform="matrix(1.00, 0.00, -0.00, -1.00, 954.3, 81.3)">E</text><text xml:space="preserve" font-family="NeuropolXFree,Neuropol X Free" font-size="24.0" fill="#FFFFFF" transform="matrix(1.00, 0.00, -0.00, -1.00, 29.7, 81.3)">L</text><text xml:space="preserve" font-family="NeuropolXFree,Neuropol X Free" font-size="24.0" fill="#FFFFFF" transform="matrix(1.00, 0.00, -0.00, -1.00, 50.4, 81.3)">e</text><text xml:space="preserve" font-family="NeuropolXFree,Neuropol X Free" font-size="24.0" fill="#FFFFFF" transform="matrix(1.00, 0.00, -0.00, -1.00, 72.1, 81.3)">o</text><text xml:space="preserve" font-family="NeuropolXFree,Neuropol X Free" font-size="24.0" fill="#FFFFFF" transform="matrix(1.00, 0.00, -0.00, -1.00, 93.7, 81.3)">n</text><text xml:space="preserve" font-family="NeuropolXFree,Neuropol X Free" font-size="24.0" fill="#FFFFFF" transform="matrix(1.00, 0.00, -0.00, -1.00, 115.4, 81.3)">a</text><text xml:space="preserve" font-family="NeuropolXFree,Neuropol X Free" font-size="24.0" fill="#FFFFFF" transform="matrix(1.00, 0.00, -0.00, -1.00, 137.4, 81.3)">r</text><text xml:space="preserve" font-family="NeuropolXFree,Neuropol X Free" font-size="24.0" fill="#FFFFFF" transform="matrix(1.00, 0.00, -0.00, -1.00, 148.7, 81.3)">d</text><text xml:space="preserve" font-family="NeuropolXFree,Neuropol X Free" font-size="24.0" fill="#FFFFFF" transform="matrix(1.00, 0.00, -0.00, -1.00, 170.7, 81.3)">o</text><text xml:space="preserve" font-family="NeuropolXFree,Neuropol X Free" font-size="24.0" fill="#FFFFFF" transform="matrix(1.00, 0.00, -0.00, -1.00, 192.3, 81.3)"> </text><text xml:space="preserve" font-family="NeuropolXFree,Neuropol X Free" font-size="24.0" fill="#FFFFFF" transform="matrix(1.00, 0.00, -0.00, -1.00, 201.7, 81.3)">Z</text><text xml:space="preserve" font-family="NeuropolXFree,Neuropol X Free" font-size="24.0" fill="#FFFFFF" transform="matrix(1.00, 0.00, -0.00, -1.00, 222.3, 81.3)">a</text><text xml:space="preserve" font-family="NeuropolXFree,Neuropol X Free" font-size="24.0" fill="#FFFFFF" transform="matrix(1.00, 0.00, -0.00, -1.00, 244.3, 81.3)">c</text><text xml:space="preserve" font-family="NeuropolXFree,Neuropol X Free" font-size="24.0" fill="#FFFFFF" transform="matrix(1.00, 0.00, -0.00, -1.00, 263.5, 81.3)">c</text><text xml:space="preserve" font-family="NeuropolXFree,Neuropol X Free" font-size="24.0" fill="#FFFFFF" transform="matrix(1.00, 0.00, -0.00, -1.00, 282.8, 81.3)">o</text><text xml:space="preserve" font-family="NeuropolXFree,Neuropol X Free" font-size="24.0" fill="#FFFFFF" transform="matrix(1.00, 0.00, -0.00, -1.00, 304.4, 81.3)">n</text><text xml:space="preserve" font-family="NeuropolXFree,Neuropol X Free" font-size="24.0" fill="#FFFFFF" transform="matrix(1.00, 0.00, -0.00, -1.00, 326.0, 81.3)">e</text><path d="M 930.4 558.0 C 931.7 557.9 933.2 557.9 935.6 557.9 C 934.6 557.9 933.7 557.8 933.8 557.7 C 931.8 557.8 929.1 557.8 924.9 557.8 C 925.2 557.8 927.2 557.8 928.6 557.8 C 930.3 557.8 930.0 557.9 930.4 558.0 C 930.4 558.0 930.4 558.0 930.4 558.0 Z M 553.0 491.5 C 556.6 491.5 552.7 491.3 551.3 491.3 C 551.1 491.3 551.0 491.3 549.6 491.3 C 549.3 491.2 552.3 491.1 554.7 491.1 C 564.5 491.2 557.3 491.5 553.0 491.5 C 553.0 491.5 553.0 491.5 553.0 491.5 Z M 83.8 491.6 C 76.1 491.6 84.5 491.8 85.7 491.8 C 82.2 491.9 85.4 492.2 80.8 492.2 C 79.8 492.1 78.1 492.0 77.1 491.9 C 79.2 491.9 82.1 491.9 82.4 491.9 C 79.6 491.9 75.9 491.9 75.3 491.8 C 81.2 491.8 76.2 491.6 75.0 491.5 C 80.3 491.5 81.9 491.4 83.8 491.6 C 83.8 491.6 83.8 491.6 83.8 491.6 Z M 374.4 557.1 C 372.2 557.1 370.3 557.0 370.8 556.9 C 373.2 556.9 374.7 557.0 376.1 557.0 C 376.4 556.9 375.7 556.8 377.7 556.8 C 380.2 557.0 379.1 557.2 377.9 557.3 C 377.7 557.2 369.9 557.2 374.4 557.1 C 374.4 557.1 374.4 557.1 374.4 557.1 Z M 571.5 556.8 C 578.2 556.9 571.7 556.5 578.4 556.6 C 578.3 556.7 579.5 556.9 575.1 556.9 C 574.7 556.9 572.1 556.8 571.5 556.8 C 571.5 556.8 571.5 556.8 571.5 556.8 Z M 282.4 493.0 C 282.3 492.8 277.6 492.9 278.7 492.7 C 281.1 492.7 283.3 492.7 285.7 492.7 C 286.2 492.9 285.4 492.9 282.4 493.0 C 282.4 493.0 282.4 493.0 282.4 493.0 Z M 66.4 526.9 C 66.2 534.9 66.5 543.6 66.3 541.0 C 66.1 544.0 65.8 535.1 66.0 535.5 C 66.2 534.7 66.4 520.6 66.4 526.9 C 66.4 526.9 66.4 526.9 66.4 526.9 Z M 512.7 494.6 C 504.4 494.4 506.1 494.9 500.7 494.7 C 502.5 494.7 503.4 494.6 504.0 494.6 C 502.7 494.6 500.6 494.6 500.6 494.5 C 504.5 494.5 509.3 494.4 512.7 494.6 C 512.7 494.6 512.7 494.6 512.7 494.6 Z M 811.3 557.5 C 809.9 557.6 809.3 557.6 809.5 557.7 C 804.0 557.6 804.3 557.8 800.8 557.7 C 800.5 557.4 805.1 557.5 809.4 557.5 C 809.6 557.5 810.9 557.5 811.3 557.5 C 811.3 557.5 811.3 557.5 811.3 557.5 Z M 657.1 556.9 C 657.3 557.0 660.6 557.1 655.5 557.1 C 649.6 556.9 654.6 556.8 660.5 556.6 C 660.4 556.6 660.4 556.5 660.3 556.4 C 657.9 556.4 656.4 556.4 655.0 556.3 C 654.2 556.6 649.9 556.1 641.0 556.3 C 645.2 556.2 640.4 555.9 646.1 556.0 C 644.5 555.9 648.4 555.9 647.6 555.7 C 645.3 555.8 639.4 555.8 640.9 556.0 C 637.8 556.1 635.4 556.0 633.8 556.0 C 631.5 555.8 639.4 555.9 637.1 555.7 C 635.4 555.7 635.0 555.7 633.7 555.7 C 633.4 555.8 634.1 555.9 632.1 555.9 C 626.4 555.8 632.9 555.6 625.0 555.6 C 624.5 555.7 626.9 555.8 626.8 555.9 C 623.3 556.0 623.4 555.8 619.9 555.9 C 619.1 555.8 622.3 555.8 619.8 555.7 C 617.7 556.0 612.3 555.6 607.6 555.8 C 611.2 556.2 606.7 555.7 602.5 556.1 C 601.4 556.0 604.5 555.8 600.5 555.7 C 602.2 556.2 586.5 556.1 599.3 556.5 C 592.6 556.5 590.6 556.8 596.0 556.9 C 584.3 556.8 588.2 557.0 583.8 557.1 C 579.4 557.0 586.1 557.0 583.7 556.8 C 588.4 556.8 587.2 556.7 590.6 556.8 C 590.6 556.7 591.4 556.7 592.4 556.6 C 587.7 556.8 581.9 556.5 585.2 556.3 C 587.6 556.3 585.5 556.5 588.8 556.5 C 587.4 556.3 592.2 556.6 592.3 556.4 C 589.9 556.2 596.6 556.0 590.1 555.9 C 590.2 556.0 590.2 556.1 590.3 556.2 C 588.6 556.2 586.9 556.2 585.2 556.2 C 583.6 556.0 584.7 555.9 583.1 555.9 C 580.2 555.9 578.7 555.9 577.9 556.0 C 581.5 556.0 585.8 556.2 579.9 556.2 C 581.9 555.9 571.5 556.1 576.2 555.9 C 569.6 555.8 566.6 556.1 565.8 555.9 C 562.4 555.9 564.7 556.1 560.6 556.0 C 554.0 555.9 555.4 556.1 546.6 556.0 C 545.8 556.3 545.7 555.9 543.0 555.9 C 543.1 556.0 543.1 556.1 543.2 556.2 C 540.0 556.1 533.0 556.0 525.8 556.2 C 523.9 556.1 525.2 555.9 520.4 556.0 C 515.5 556.2 509.2 556.0 503.2 556.2 C 502.6 556.1 498.4 556.1 496.2 556.2 C 495.2 556.1 498.1 555.9 494.2 555.9 C 491.7 556.0 496.3 556.1 490.9 556.2 C 491.4 556.0 485.9 556.3 485.6 556.1 C 487.3 556.0 489.2 556.0 490.8 555.9 C 488.4 555.9 489.1 555.8 487.2 555.8 C 487.7 556.1 483.3 555.8 481.9 555.8 C 482.2 555.9 481.7 556.0 480.3 556.0 C 477.3 556.0 474.9 556.1 473.4 556.1 C 469.4 556.0 475.5 556.0 471.6 555.9 C 470.0 556.4 465.8 555.9 457.8 556.2 C 455.9 556.0 452.4 555.9 447.1 555.9 C 446.7 556.1 452.3 556.0 452.5 556.1 C 444.8 556.1 453.9 556.2 449.0 556.2 C 438.0 556.1 430.9 556.1 419.3 556.0 C 419.5 556.1 410.5 556.2 410.7 556.2 C 413.0 556.1 405.7 555.9 401.9 555.9 C 401.0 556.2 395.3 556.5 395.0 556.6 C 393.6 556.5 394.0 556.5 393.2 556.2 C 386.7 556.1 383.4 556.4 379.2 556.1 C 379.6 556.3 376.5 556.3 374.0 556.3 C 374.6 556.2 376.1 556.1 377.5 556.0 C 374.1 556.0 373.5 555.9 370.5 555.9 C 367.6 556.4 362.3 555.8 360.0 556.3 C 355.1 556.3 355.9 556.1 351.3 556.1 C 351.5 556.2 351.0 556.3 349.7 556.3 C 352.7 556.3 354.9 556.1 356.7 556.3 C 349.9 556.4 369.6 556.8 358.6 557.1 C 358.2 557.0 359.2 556.8 356.8 556.8 C 350.5 556.9 354.3 557.1 356.9 557.1 C 352.7 557.2 348.2 557.1 351.7 557.3 C 342.0 557.4 348.1 557.2 344.7 557.1 C 327.3 557.3 305.6 557.3 281.8 557.1 C 281.0 557.4 268.4 557.1 264.3 557.0 C 257.7 557.2 250.7 557.2 248.6 557.0 C 247.5 557.2 240.4 556.9 239.8 557.1 C 242.7 557.0 244.6 557.1 241.7 557.2 C 232.0 557.1 217.5 557.0 211.9 557.2 C 208.4 556.9 202.1 557.0 197.9 557.1 C 197.2 557.0 200.6 557.0 197.9 556.9 C 197.1 557.1 188.0 557.2 185.8 557.1 C 188.5 557.1 191.6 556.8 187.5 556.8 C 187.5 556.9 182.7 556.9 183.9 557.1 C 178.1 557.0 174.8 557.1 170.0 557.0 C 173.9 557.0 176.3 556.9 176.9 556.8 C 173.5 556.9 171.0 556.9 168.2 556.8 C 169.0 557.0 163.5 556.9 157.9 557.0 C 156.4 556.9 155.2 556.8 150.7 556.8 C 148.5 557.0 157.7 557.0 152.6 557.1 C 152.6 557.0 147.8 556.9 149.0 557.1 C 143.1 557.0 139.9 557.1 135.1 556.9 C 141.2 557.0 136.6 556.7 135.1 556.7 C 133.7 556.7 131.7 556.7 131.7 556.8 C 131.7 556.8 134.7 556.8 135.1 556.9 C 130.8 556.8 129.6 557.1 128.1 556.9 C 130.0 556.9 130.3 556.8 128.1 556.8 C 127.6 557.1 115.2 556.9 119.4 556.8 C 119.4 556.8 124.2 556.8 124.7 556.8 C 123.3 556.7 116.2 556.8 117.7 556.6 C 121.8 556.6 121.4 556.7 126.4 556.6 C 126.9 556.5 129.8 556.5 131.6 556.4 C 123.8 556.4 122.1 556.6 121.1 556.4 C 117.7 556.4 119.7 556.6 114.1 556.6 C 106.1 556.5 112.8 556.3 110.7 556.3 C 103.6 556.4 105.8 556.6 108.9 556.8 C 103.2 556.8 101.6 556.9 94.9 556.9 C 95.2 556.8 96.1 556.7 98.5 556.6 C 98.6 556.7 104.3 556.8 103.8 556.7 C 103.2 556.4 98.6 556.3 91.5 556.3 C 93.2 556.5 93.4 556.4 86.2 556.4 C 87.4 556.7 82.8 556.4 82.7 556.5 C 83.0 556.6 85.5 556.6 87.9 556.6 C 87.8 556.7 86.9 556.8 84.5 556.8 C 83.0 556.7 81.8 556.8 77.6 556.8 C 77.2 556.6 80.3 556.6 80.9 556.5 C 78.6 556.5 78.1 556.6 75.7 556.6 C 73.6 556.4 73.8 556.2 74.0 555.9 C 76.7 555.9 80.9 555.9 77.5 555.7 C 87.7 555.7 77.0 556.0 80.9 556.0 C 85.2 555.8 82.8 556.1 89.6 556.1 C 91.7 556.1 92.3 556.0 93.2 556.0 C 92.7 555.9 88.8 555.7 93.2 555.7 C 94.2 555.9 96.6 555.9 100.2 556.0 C 100.2 555.9 92.8 555.8 100.1 555.8 C 103.7 555.8 100.5 556.1 105.4 556.0 C 105.4 556.0 106.8 556.0 107.1 555.9 C 100.0 555.9 108.5 555.8 103.7 555.7 C 109.8 555.6 104.7 555.9 108.8 555.9 C 109.0 555.7 115.6 556.0 115.8 555.7 C 113.2 555.8 108.1 555.8 108.8 555.6 C 113.4 555.7 134.6 555.5 126.3 555.8 C 129.4 555.7 144.8 555.4 143.6 555.6 C 139.1 555.5 139.2 555.7 138.6 555.8 C 147.2 555.6 151.6 555.7 161.1 555.5 C 150.8 555.5 158.6 555.2 152.4 555.0 C 149.7 555.0 146.0 555.0 145.3 555.1 C 146.5 555.3 150.7 555.2 152.4 555.1 C 152.4 555.2 152.5 555.4 152.5 555.6 C 141.1 555.4 135.0 555.6 129.7 555.5 C 134.3 555.5 121.0 555.2 126.3 555.2 C 128.5 555.3 133.9 555.3 138.5 555.4 C 138.5 555.3 138.5 555.3 138.5 555.2 C 140.6 555.2 143.4 555.2 143.6 555.1 C 137.3 555.2 133.9 555.0 129.7 555.1 C 129.7 555.1 129.7 555.1 129.7 555.0 C 128.6 555.0 127.6 555.0 128.0 555.0 C 130.0 555.0 132.9 555.0 133.2 554.9 C 128.6 554.9 127.8 554.7 122.7 554.7 C 123.9 554.4 117.1 554.2 124.5 554.1 C 125.7 554.3 129.8 554.4 129.6 554.5 C 131.8 554.6 136.3 554.5 138.5 554.4 C 136.2 554.3 131.8 554.2 131.5 554.1 C 135.0 554.0 137.9 554.0 140.1 554.1 C 132.7 554.2 144.2 554.3 147.1 554.5 C 146.3 554.4 144.6 554.3 143.5 554.2 C 149.3 554.2 152.0 554.4 152.3 554.1 C 159.3 554.0 157.8 554.3 162.7 554.2 C 159.5 554.0 165.9 554.1 162.7 553.9 C 170.8 553.8 165.1 554.1 168.0 554.1 C 170.5 554.1 170.8 554.0 173.2 554.0 C 176.9 554.1 184.4 554.1 185.5 554.4 C 188.7 554.3 189.2 554.4 192.4 554.4 C 193.3 554.4 194.3 554.3 195.8 554.2 C 196.3 554.3 198.7 554.4 199.4 554.3 C 190.3 554.0 192.9 554.0 183.5 553.8 C 182.9 553.9 181.5 553.9 183.5 554.0 C 177.1 554.0 175.2 553.9 169.6 553.9 C 168.9 553.8 167.7 553.5 162.6 553.7 C 163.8 553.5 162.4 553.5 164.5 553.4 C 167.2 553.5 170.9 553.6 174.8 553.6 C 175.2 553.6 174.5 553.5 176.5 553.5 C 178.4 553.6 181.3 553.6 183.6 553.5 C 183.7 553.6 182.8 553.7 181.8 553.7 C 190.5 553.8 187.4 553.5 194.0 553.6 C 193.0 553.5 188.7 553.5 192.3 553.4 C 198.2 553.4 199.6 553.5 202.6 553.5 C 203.1 553.5 202.8 553.4 204.5 553.4 C 208.7 553.5 195.2 553.8 202.7 554.0 C 203.2 553.8 210.5 553.9 211.5 554.0 C 209.2 554.2 204.9 553.9 204.6 554.1 C 217.8 554.1 205.0 554.3 218.6 554.4 C 218.5 554.3 218.5 554.3 218.5 554.2 C 213.1 554.2 212.9 554.1 213.2 553.9 C 208.5 553.9 206.6 553.6 202.7 553.8 C 204.1 553.4 206.6 553.7 211.5 553.8 C 211.3 553.6 206.9 553.6 206.2 553.4 C 217.4 553.6 219.7 553.3 230.5 553.6 C 227.9 553.4 236.4 553.5 235.7 553.4 C 226.4 553.4 230.2 552.9 228.6 552.9 C 222.5 552.9 225.3 553.2 221.8 553.3 C 220.0 553.2 220.9 553.1 221.7 552.8 C 227.1 552.9 226.3 552.8 230.5 552.7 C 234.1 552.9 237.2 553.2 232.3 553.3 C 233.3 553.3 240.4 553.2 240.9 553.3 C 234.1 553.3 241.6 553.4 237.6 553.5 C 242.8 553.6 252.1 553.4 258.4 553.6 C 257.9 553.5 260.3 553.4 260.1 553.3 C 253.7 553.5 252.4 553.1 246.1 553.1 C 248.8 553.1 247.3 553.0 246.1 552.9 C 252.2 553.0 255.6 552.9 260.0 553.0 C 260.0 553.0 260.0 552.9 260.0 552.9 C 267.5 553.0 266.4 552.9 272.2 552.8 C 274.4 552.9 271.4 553.2 270.6 553.4 C 273.3 553.3 283.3 553.4 277.5 553.2 C 283.4 553.2 282.0 553.4 287.9 553.4 C 288.0 553.2 282.4 553.2 284.4 553.0 C 290.0 552.9 286.8 553.2 291.4 553.0 C 291.6 553.2 291.8 553.4 296.5 553.3 C 293.1 553.2 297.0 553.3 298.3 553.2 C 296.1 553.1 294.3 553.1 293.1 553.0 C 301.7 553.1 303.4 553.1 310.3 553.0 C 307.9 553.2 311.8 553.3 307.0 553.4 C 311.4 553.3 316.9 553.5 319.3 553.4 C 316.5 553.3 312.1 553.3 310.4 553.2 C 324.3 553.2 331.5 552.9 343.4 553.2 C 341.4 553.2 338.5 553.2 338.2 553.3 C 339.6 553.3 341.8 553.3 341.8 553.3 C 337.5 553.3 333.5 553.3 331.3 553.4 C 327.5 553.3 333.5 553.3 329.5 553.2 C 328.9 553.3 321.6 553.2 324.4 553.5 C 330.9 553.3 337.3 553.5 340.2 553.8 C 346.2 553.4 340.5 553.4 347.0 553.1 C 346.8 553.2 348.4 553.3 350.4 553.3 C 348.3 553.0 356.5 553.2 357.3 553.2 C 354.3 553.3 342.8 553.4 348.8 553.6 C 346.0 553.2 362.3 553.8 359.1 553.4 C 366.5 553.4 363.9 553.6 367.9 553.4 C 368.1 553.5 367.6 553.6 369.7 553.6 C 371.7 553.6 372.4 553.5 373.2 553.5 C 362.8 553.4 365.8 553.1 359.0 553.1 C 360.2 553.1 361.2 553.1 360.8 553.0 C 360.8 553.0 361.0 553.0 362.5 553.0 C 363.1 553.2 367.9 552.9 369.5 553.1 C 367.5 553.1 365.4 553.1 366.2 553.2 C 374.8 553.2 373.3 553.4 385.2 553.5 C 381.6 553.4 386.4 553.4 390.4 553.3 C 396.2 553.4 394.1 553.7 401.1 553.6 C 400.2 553.2 408.4 553.7 416.6 553.4 C 415.8 553.6 426.7 553.7 428.8 553.5 C 429.2 553.6 433.1 553.6 435.8 553.6 C 436.5 553.7 433.3 553.7 435.9 553.8 C 438.2 553.7 435.9 553.5 439.2 553.5 C 442.9 553.6 442.3 553.8 447.9 553.8 C 448.0 553.6 445.0 553.6 447.8 553.5 C 452.8 553.6 457.2 553.6 453.0 553.4 C 460.3 553.4 456.9 553.7 463.7 553.7 C 461.6 553.6 461.7 553.6 465.3 553.5 C 467.9 553.7 468.1 553.7 469.0 553.8 C 470.9 553.7 470.2 553.6 475.9 553.7 C 475.8 553.6 475.8 553.5 475.8 553.5 C 478.3 553.5 482.0 553.4 482.7 553.5 C 478.0 553.5 479.4 553.6 477.6 553.7 C 482.3 553.7 491.6 553.9 484.5 553.7 C 491.1 553.6 488.0 553.9 493.2 553.8 C 489.9 553.6 493.0 553.8 498.4 553.8 C 497.8 553.5 502.0 553.7 505.4 553.7 C 504.8 553.6 505.6 553.5 508.6 553.5 C 508.5 553.6 510.6 553.6 514.0 553.6 C 513.9 553.5 506.6 553.4 513.9 553.4 C 517.3 553.5 517.4 553.7 522.8 553.7 C 524.1 553.9 518.0 553.8 519.4 554.0 C 523.8 553.8 525.2 554.0 531.6 554.0 C 528.9 553.7 544.3 553.6 536.6 553.4 C 538.8 553.4 541.7 553.2 543.5 553.3 C 541.2 553.4 545.5 553.5 545.3 553.6 C 548.4 553.5 555.5 553.7 555.6 553.5 C 549.1 553.6 549.0 553.4 546.9 553.3 C 556.5 553.2 565.0 553.3 564.4 553.5 C 564.4 553.4 565.7 553.4 566.0 553.3 C 562.7 553.4 560.3 553.1 564.2 553.0 C 563.4 553.2 566.4 553.3 569.4 553.3 C 569.5 553.2 582.4 553.4 579.8 553.2 C 574.8 553.3 570.6 553.0 574.5 552.9 C 577.8 553.1 584.8 553.2 583.3 553.3 C 585.2 553.3 586.8 553.2 588.5 553.2 C 589.9 553.0 586.0 553.0 586.6 552.9 C 589.2 552.9 593.0 552.8 593.6 552.9 C 586.7 552.9 597.2 553.0 590.2 553.2 C 594.6 553.1 595.7 553.3 599.1 553.3 C 599.0 553.2 600.4 553.2 600.7 553.2 C 597.7 553.3 594.6 553.2 595.3 553.0 C 601.6 552.9 600.7 553.2 605.9 553.2 C 607.4 553.0 614.4 552.8 618.0 552.9 C 611.0 552.9 618.6 553.0 614.6 553.1 C 608.2 553.0 606.6 553.2 604.4 553.3 C 607.1 553.4 612.4 553.5 613.0 553.3 C 609.6 553.3 609.6 553.4 607.8 553.4 C 607.9 553.3 608.9 553.2 611.2 553.2 C 614.2 553.3 620.5 553.1 616.4 553.4 C 620.8 553.3 625.8 553.5 630.3 553.3 C 625.2 553.3 621.4 553.2 619.8 553.1 C 624.0 553.0 628.4 553.2 628.5 553.1 C 627.8 552.9 621.1 553.0 619.7 552.9 C 625.0 552.7 633.6 553.2 626.6 552.8 C 629.6 552.8 633.9 552.8 635.3 552.9 C 631.6 552.9 635.8 553.2 637.3 553.2 C 640.6 553.2 643.1 553.2 644.2 553.1 C 639.3 553.2 635.5 552.9 638.8 552.9 C 639.8 553.0 640.7 552.9 642.2 552.9 C 642.6 553.0 648.1 552.9 649.2 553.0 C 648.8 552.9 646.3 552.9 645.7 552.8 C 648.9 552.7 653.5 552.5 656.0 552.7 C 654.0 552.7 651.1 552.7 651.0 552.8 C 660.1 553.1 663.1 553.3 673.9 553.4 C 672.6 553.4 671.9 553.4 672.3 553.5 C 679.1 553.5 683.6 553.6 682.8 553.8 C 687.0 553.7 689.1 553.6 691.3 553.5 C 686.8 553.4 685.4 553.6 682.6 553.5 C 684.3 553.4 679.0 553.1 677.0 553.0 C 669.7 553.2 669.0 552.9 661.4 553.0 C 663.5 552.8 655.8 552.9 657.9 552.7 C 665.2 553.0 671.8 552.8 682.2 552.9 C 681.0 553.1 679.9 553.2 684.2 553.3 C 690.8 553.4 687.4 553.1 692.9 553.2 C 695.2 553.3 692.0 553.3 694.8 553.4 C 696.6 553.3 701.7 553.3 703.5 553.5 C 696.3 553.5 705.0 553.7 700.3 553.8 C 702.6 553.8 704.0 553.8 705.6 553.8 C 698.5 553.6 712.3 553.6 707.0 553.4 C 716.6 553.3 708.0 553.9 715.9 553.8 C 711.9 553.7 716.9 553.6 722.7 553.6 C 724.4 553.8 730.4 553.9 735.2 553.9 C 732.5 553.8 730.7 553.8 735.0 553.7 C 732.6 553.6 728.5 553.6 726.3 553.7 C 726.3 553.6 725.4 553.6 724.3 553.5 C 730.1 553.5 727.6 553.4 729.5 553.3 C 731.2 553.4 735.5 553.4 736.5 553.5 C 736.5 553.5 738.0 553.4 738.2 553.4 C 730.8 553.4 739.1 553.1 734.5 553.1 C 731.3 553.1 733.5 553.3 729.4 553.3 C 725.3 553.0 732.5 553.0 734.4 552.9 C 730.9 552.7 727.0 553.0 725.6 552.7 C 729.9 552.5 737.1 552.7 742.9 552.7 C 742.4 552.5 752.6 552.8 753.2 552.5 C 754.1 552.6 755.2 552.6 756.8 552.7 C 758.3 552.5 760.4 552.7 762.0 552.7 C 762.1 552.6 761.6 552.6 760.2 552.5 C 767.4 552.6 769.0 552.6 777.4 552.5 C 778.9 552.6 780.5 552.7 781.3 552.9 C 779.3 552.9 777.4 552.9 776.1 553.0 C 787.7 553.0 779.8 552.5 788.2 552.8 C 787.8 552.7 782.0 552.5 786.2 552.4 C 793.7 552.7 803.8 552.5 803.9 553.0 C 810.5 553.1 814.6 552.8 817.9 553.0 C 819.9 553.0 820.5 553.0 821.3 552.9 C 819.2 552.8 816.6 552.7 814.1 552.6 C 810.3 552.7 808.5 552.5 812.4 552.8 C 806.7 552.8 805.0 552.7 801.9 552.6 C 809.8 552.5 817.2 552.7 817.3 552.4 C 820.1 552.5 822.2 552.6 824.6 552.7 C 825.3 552.6 834.2 552.5 835.1 552.7 C 828.9 552.7 822.8 552.9 828.4 553.0 C 843.2 552.9 851.8 553.2 864.8 553.0 C 865.2 553.1 864.3 553.3 866.7 553.3 C 866.6 553.2 867.1 553.1 868.4 553.0 C 872.4 553.1 874.9 553.1 880.4 553.1 C 880.3 553.3 881.2 553.4 884.3 553.5 C 885.9 553.3 891.1 552.9 894.4 553.0 C 891.0 553.0 895.6 553.2 898.0 553.2 C 895.7 553.0 913.8 553.4 908.5 553.2 C 915.6 553.2 918.7 553.3 919.0 553.3 C 921.5 553.3 923.3 553.3 925.8 553.2 C 927.6 553.5 939.8 553.3 941.6 553.4 C 937.3 553.3 936.7 553.6 940.1 553.6 C 942.3 553.4 952.9 553.3 955.3 553.3 C 955.3 553.3 955.3 553.2 955.3 553.2 C 955.3 553.3 955.3 553.3 955.3 553.4 C 954.7 553.4 953.8 553.6 948.8 553.6 C 952.0 553.7 954.1 553.6 955.5 553.6 C 955.4 550.9 955.3 550.1 955.2 548.1 C 955.4 548.7 955.2 544.5 955.2 543.2 C 955.3 540.5 955.2 543.4 955.4 543.3 C 955.4 540.3 955.5 539.2 955.5 535.2 C 955.3 536.2 955.4 531.8 955.5 530.2 C 955.3 529.5 955.2 527.2 955.2 523.6 C 955.5 528.6 955.6 502.5 955.3 508.8 C 955.2 503.8 955.6 503.5 955.5 497.0 C 955.5 496.7 955.5 496.1 955.5 495.5 C 954.1 495.5 953.0 495.5 955.3 495.6 C 955.3 495.6 955.3 495.6 955.3 495.6 C 955.3 495.6 955.3 495.6 955.3 495.6 C 949.9 495.6 953.3 495.4 946.7 495.5 C 949.3 495.7 940.1 495.4 941.3 495.7 C 938.8 495.4 933.0 495.8 927.6 495.5 C 927.6 495.6 926.1 495.6 925.7 495.7 C 924.7 495.7 932.3 495.8 927.4 495.8 C 921.6 495.7 924.8 495.6 924.1 495.5 C 908.1 495.6 888.9 495.5 872.0 495.5 C 874.0 495.6 873.8 495.6 870.2 495.7 C 865.6 495.3 845.6 495.5 842.5 495.6 C 840.8 495.4 830.5 495.6 828.7 495.5 C 830.7 495.5 834.7 495.3 830.5 495.3 C 827.6 495.5 824.2 495.4 820.0 495.5 C 818.1 495.3 805.6 495.6 811.5 495.2 C 809.1 495.2 807.8 495.2 806.4 495.1 C 806.1 495.3 803.6 495.3 807.9 495.4 C 796.7 495.3 793.8 495.5 785.3 495.3 C 783.7 495.4 790.4 495.5 785.2 495.5 C 785.2 495.5 785.2 495.5 785.2 495.4 C 783.4 495.4 782.6 495.5 781.8 495.4 C 782.2 495.3 785.1 495.3 785.4 495.1 C 781.1 495.2 778.4 494.9 776.8 495.1 C 782.7 495.1 778.4 495.5 775.0 495.3 C 778.3 495.2 761.3 495.3 755.8 495.4 C 753.2 495.2 761.7 495.4 761.1 495.2 C 750.9 495.3 751.8 495.2 750.5 495.4 C 745.1 495.4 743.2 495.2 736.7 495.4 C 733.0 495.3 739.0 495.2 735.1 495.2 C 732.7 495.2 731.6 495.3 728.0 495.4 C 718.9 495.0 696.8 495.6 686.5 495.0 C 690.7 495.1 685.1 495.3 679.5 495.2 C 679.2 495.2 679.9 495.1 677.9 495.1 C 678.2 495.2 676.3 495.2 672.6 495.2 C 672.2 495.2 673.0 495.1 670.9 495.1 C 669.3 495.3 664.8 495.1 662.1 495.2 C 661.0 495.0 668.5 495.1 669.1 494.9 C 660.2 494.8 658.6 495.0 651.8 494.9 C 655.4 494.9 649.3 494.8 648.3 494.7 C 649.8 494.9 644.3 495.0 648.2 495.1 C 645.7 495.1 641.8 495.1 641.3 495.1 C 642.6 495.0 644.8 495.1 644.9 495.0 C 641.6 495.0 637.6 494.8 636.0 495.0 C 638.2 495.0 639.6 495.1 639.5 495.2 C 638.7 495.3 637.6 495.3 635.9 495.4 C 641.0 494.9 626.5 495.1 625.6 495.2 C 624.4 494.9 623.5 494.9 624.1 494.8 C 618.0 494.8 618.8 495.0 615.2 495.1 C 616.3 494.8 617.5 494.7 611.9 494.6 C 613.0 494.8 606.3 494.8 608.2 495.1 C 593.8 495.1 590.8 494.9 582.2 494.9 C 582.0 494.9 584.7 495.0 582.2 495.0 C 578.1 494.9 574.6 494.9 571.9 494.8 C 569.6 494.9 572.7 494.9 570.1 495.0 C 563.7 494.8 565.3 494.6 559.7 494.5 C 552.7 494.6 555.3 494.5 551.0 494.7 C 552.9 494.7 555.2 494.8 552.7 494.8 C 548.5 494.6 546.8 494.4 545.8 494.4 C 548.8 494.4 551.2 494.4 552.7 494.5 C 553.8 494.3 558.0 494.3 554.4 494.2 C 558.9 494.3 563.8 494.3 570.2 494.3 C 568.0 494.1 575.8 494.2 573.7 494.0 C 566.5 494.1 564.8 493.9 558.0 494.0 C 559.5 494.2 552.4 494.1 551.1 494.0 C 551.1 494.2 546.3 494.1 547.5 494.3 C 542.2 494.3 542.4 494.2 537.1 494.2 C 536.8 494.1 537.5 494.0 535.4 494.0 C 533.6 494.2 531.9 494.0 530.2 494.0 C 531.4 494.2 523.7 494.1 523.2 494.2 C 525.3 494.2 528.1 494.2 528.5 494.3 C 520.0 494.3 526.8 494.4 528.5 494.6 C 528.1 494.5 531.2 494.2 531.9 494.4 C 524.7 494.5 541.9 494.7 535.4 494.6 C 530.0 494.6 530.3 494.7 524.9 494.7 C 518.5 494.4 526.1 494.2 519.7 493.9 C 515.7 494.1 513.0 494.0 512.7 494.2 C 511.8 494.1 510.8 494.1 509.3 494.0 C 507.6 494.1 514.4 494.2 509.3 494.3 C 506.6 494.2 509.6 494.0 504.0 494.0 C 501.7 494.2 510.8 494.2 505.7 494.3 C 500.3 494.0 506.9 494.4 500.6 494.4 C 500.1 494.3 499.1 494.3 497.1 494.3 C 496.7 494.2 497.6 494.1 495.4 494.1 C 494.2 494.4 493.0 494.0 488.4 494.0 C 485.9 494.3 493.2 494.1 491.8 494.3 C 486.5 494.1 483.5 494.4 481.5 494.3 C 485.7 494.2 474.8 494.2 474.5 494.0 C 475.7 494.2 473.3 494.1 467.4 494.3 C 467.0 494.0 460.2 494.2 458.7 494.0 C 457.8 494.1 456.2 494.1 455.3 494.2 C 457.4 494.2 459.4 494.2 458.7 494.3 C 457.0 494.3 455.3 494.3 453.5 494.3 C 450.6 494.2 458.0 493.8 446.4 493.9 C 447.8 494.1 442.9 494.1 439.7 494.2 C 440.1 494.4 444.3 494.2 444.8 494.3 C 440.9 494.5 436.8 494.3 434.4 494.2 C 427.7 494.3 419.7 494.2 410.0 494.3 C 407.8 494.1 418.1 494.1 411.7 494.0 C 408.9 494.0 410.3 494.2 406.6 494.2 C 409.8 493.4 380.4 494.0 378.4 493.7 C 377.3 493.8 368.9 493.7 369.9 494.0 C 375.4 493.8 379.4 494.0 382.1 494.2 C 387.4 494.1 377.3 494.0 382.1 493.9 C 382.6 494.0 389.7 493.9 389.1 494.1 C 381.6 494.1 393.0 494.3 387.5 494.5 C 380.5 494.4 366.9 494.6 370.0 494.4 C 370.0 494.5 373.1 494.5 373.4 494.4 C 365.6 494.3 361.0 494.5 357.8 494.6 C 354.2 494.4 340.4 494.7 343.9 494.6 C 342.7 494.4 352.3 494.6 350.8 494.5 C 336.4 494.4 336.1 494.5 326.6 494.4 C 329.7 494.6 316.7 494.7 317.8 494.6 C 317.8 494.5 314.8 494.3 309.1 494.5 C 309.9 494.3 306.8 494.3 303.7 494.2 C 302.5 494.4 306.4 494.4 305.8 494.5 C 302.9 494.5 299.8 494.5 296.9 494.5 C 296.7 494.4 297.2 494.3 295.1 494.3 C 292.0 494.4 280.4 494.6 281.3 494.5 C 286.1 494.3 273.2 494.3 281.1 494.2 C 278.9 494.2 278.7 494.1 275.8 494.1 C 275.9 494.2 275.9 494.3 276.0 494.3 C 269.5 494.4 272.6 494.0 267.2 494.0 C 266.7 494.1 264.3 494.1 263.7 494.2 C 265.9 494.2 266.0 494.1 268.9 494.2 C 265.9 494.5 274.8 494.3 274.4 494.5 C 268.3 494.5 268.2 494.4 265.6 494.3 C 258.0 494.4 261.5 494.3 253.4 494.3 C 253.4 494.4 255.6 494.4 255.2 494.5 C 245.3 494.4 246.1 494.0 239.4 494.2 C 240.9 494.1 246.9 494.0 242.7 494.0 C 238.1 494.1 236.9 494.3 230.8 494.3 C 230.4 494.2 230.9 494.1 228.8 494.1 C 226.3 494.2 226.2 494.3 223.9 494.4 C 223.3 494.3 220.0 494.4 218.7 494.4 C 216.3 494.2 219.4 494.2 216.6 494.2 C 211.5 494.2 209.1 494.6 204.8 494.5 C 204.8 494.3 200.1 494.4 195.9 494.4 C 195.1 494.2 186.1 494.2 180.1 494.2 C 181.6 494.3 175.5 494.3 177.0 494.5 C 179.8 494.5 181.4 494.5 182.1 494.6 C 175.4 494.6 173.0 494.2 168.2 494.5 C 165.5 494.4 162.2 494.3 157.6 494.2 C 157.2 494.3 165.9 494.4 161.2 494.5 C 160.8 494.4 159.3 494.4 157.8 494.5 C 158.3 494.3 154.5 494.2 152.2 494.1 C 148.3 494.2 139.6 494.0 143.7 494.2 C 137.3 494.3 141.2 493.9 136.3 493.9 C 139.1 494.2 130.6 494.2 135.0 494.3 C 128.4 494.4 128.6 494.1 131.3 494.0 C 125.1 493.9 123.9 494.1 120.7 494.0 C 123.8 494.2 114.5 494.3 119.2 494.2 C 120.5 494.0 113.5 494.1 112.1 494.0 C 114.4 494.1 111.2 494.1 115.7 494.2 C 111.1 494.3 104.4 494.3 100.0 494.1 C 94.3 494.2 88.9 494.2 91.2 494.0 C 85.8 494.1 87.9 494.1 82.4 494.0 C 82.5 494.1 84.0 494.1 84.4 494.2 C 76.9 494.2 78.3 494.0 68.5 494.0 C 68.9 493.9 68.1 493.9 66.9 493.9 C 66.8 495.5 66.8 498.2 66.7 499.3 C 66.7 497.2 66.8 495.4 66.8 493.7 C 68.5 493.7 70.2 493.8 71.8 493.8 C 72.4 493.7 69.1 493.6 71.6 493.6 C 72.0 493.7 73.6 493.7 75.1 493.7 C 68.7 493.6 83.0 493.4 78.6 493.6 C 78.6 493.6 78.2 493.5 76.8 493.6 C 78.2 493.7 78.1 493.7 77.1 493.9 C 80.3 493.8 83.1 494.0 84.1 493.9 C 83.9 493.8 80.8 493.8 80.4 493.7 C 88.3 493.6 83.0 494.0 89.3 493.9 C 90.4 493.7 87.1 493.7 85.5 493.6 C 91.3 493.5 96.2 493.5 97.9 493.7 C 103.1 493.6 97.4 493.5 101.0 493.4 C 103.0 493.5 102.9 493.7 106.5 493.7 C 110.4 493.6 104.2 493.5 108.1 493.5 C 112.4 493.6 105.4 493.8 111.9 493.8 C 110.1 493.5 117.7 493.8 117.1 493.7 C 113.4 493.7 113.1 493.4 115.1 493.6 C 123.9 493.9 129.2 493.2 137.9 493.6 C 137.9 493.6 139.2 493.5 139.5 493.5 C 133.1 493.4 123.8 493.4 121.8 493.1 C 116.8 493.1 117.6 493.3 116.8 493.4 C 110.6 493.2 111.1 493.1 114.4 492.8 C 124.5 492.8 128.8 492.9 135.5 493.0 C 139.0 492.9 135.1 492.9 133.7 492.8 C 154.4 493.0 138.3 492.5 145.7 492.5 C 145.6 492.6 147.2 492.7 149.2 492.7 C 149.2 492.6 152.3 492.7 152.7 492.6 C 151.4 492.6 150.6 492.5 150.9 492.5 C 156.0 492.4 154.1 492.6 154.5 492.7 C 150.6 492.7 148.1 492.7 147.6 492.8 C 152.7 492.7 156.7 492.9 159.8 492.7 C 164.8 493.0 157.7 493.2 160.4 493.4 C 159.6 493.6 163.2 493.0 166.9 492.9 C 173.2 492.9 173.3 492.7 179.1 492.7 C 180.7 492.9 173.3 492.8 174.0 493.0 C 175.7 492.9 176.0 493.0 177.6 493.0 C 181.6 493.0 181.2 492.8 184.4 492.8 C 186.2 493.0 187.2 492.8 189.5 492.8 C 193.5 492.9 187.4 492.9 191.5 493.0 C 195.8 493.0 198.7 492.7 200.0 492.8 C 200.4 492.8 199.8 492.9 201.9 493.0 C 206.7 492.8 207.9 492.8 201.7 492.7 C 207.2 492.7 209.5 492.7 208.5 492.5 C 200.3 492.4 198.3 492.5 194.4 492.2 C 193.0 492.4 190.5 492.3 187.4 492.2 C 189.5 492.6 183.8 492.2 182.2 492.4 C 184.3 492.4 186.4 492.5 187.6 492.5 C 178.9 492.5 179.1 492.5 172.1 492.8 C 172.1 492.7 171.2 492.6 170.3 492.6 C 172.4 492.5 178.8 492.6 178.8 492.4 C 173.7 492.2 172.3 492.5 166.5 492.3 C 164.2 492.4 171.2 492.5 166.7 492.5 C 164.3 492.4 161.4 492.3 157.7 492.2 C 154.0 492.3 152.2 492.4 149.2 492.4 C 148.8 492.3 148.4 492.3 145.5 492.3 C 145.7 492.4 148.7 492.4 145.6 492.5 C 136.2 492.2 130.0 492.1 120.8 492.2 C 124.1 492.2 131.6 492.4 128.0 492.4 C 123.9 492.3 118.4 492.5 114.0 492.4 C 112.6 492.3 119.2 492.4 117.4 492.1 C 113.3 492.1 110.7 492.1 108.6 492.1 C 108.7 492.2 103.9 492.1 105.3 492.3 C 108.7 492.3 109.5 492.1 110.4 492.2 C 108.0 492.7 97.5 492.0 91.0 492.0 C 86.8 492.1 94.4 492.2 89.5 492.2 C 86.5 492.3 84.4 491.9 89.1 491.8 C 92.5 491.9 93.6 491.7 94.5 491.9 C 95.8 491.9 97.9 491.9 97.8 491.8 C 95.4 491.8 95.8 491.7 94.3 491.6 C 97.7 491.7 97.9 491.3 101.1 491.5 C 99.1 491.5 98.5 491.6 97.7 491.6 C 107.0 491.6 110.0 491.7 115.4 491.8 C 112.4 491.7 115.5 491.7 115.2 491.6 C 111.1 491.6 103.4 491.5 108.1 491.5 C 111.4 491.7 113.4 491.1 116.7 491.3 C 114.3 491.3 114.8 491.5 113.4 491.5 C 117.0 491.5 117.0 491.7 120.6 491.7 C 131.8 491.4 140.9 491.9 158.9 491.5 C 165.2 491.5 153.1 491.6 153.8 491.8 C 155.6 491.8 156.0 491.8 157.4 491.8 C 157.4 491.6 160.6 491.8 162.5 491.6 C 162.3 491.8 170.7 491.6 175.0 491.8 C 175.1 491.7 174.5 491.6 176.5 491.6 C 189.5 491.9 212.5 491.5 222.2 491.8 C 221.8 491.6 226.0 491.6 227.2 491.5 C 233.3 491.6 230.7 491.7 239.5 491.5 C 243.9 491.5 238.7 491.6 237.9 491.7 C 251.1 491.6 262.8 491.8 271.1 491.6 C 275.3 491.5 271.2 491.7 279.9 491.8 C 279.9 491.5 293.8 491.9 295.5 491.6 C 300.8 491.5 310.5 491.9 306.1 491.6 C 313.3 491.6 308.6 491.9 311.5 491.9 C 316.5 491.8 309.8 491.4 314.7 491.4 C 314.3 491.6 318.5 491.5 321.9 491.7 C 317.9 491.7 315.4 491.7 314.9 491.8 C 318.3 491.7 318.2 491.8 323.6 491.8 C 327.7 491.7 339.4 491.5 342.9 491.8 C 343.0 491.7 342.0 491.7 341.1 491.6 C 344.5 491.6 348.7 491.8 348.1 491.6 C 355.9 491.6 359.4 491.8 363.8 491.6 C 367.2 491.5 362.7 491.8 372.7 491.8 C 372.9 491.6 390.6 491.6 395.4 491.8 C 395.5 491.5 396.6 491.7 398.9 491.8 C 399.2 491.7 398.6 491.6 400.7 491.6 C 401.0 491.6 402.6 491.6 404.1 491.6 C 403.0 491.9 410.6 491.5 411.1 491.7 C 409.6 491.7 409.6 491.9 411.2 491.9 C 411.6 491.7 419.0 492.0 418.2 491.8 C 416.6 491.7 411.7 491.8 413.0 491.6 C 419.8 491.6 417.1 491.8 421.7 491.8 C 421.4 491.7 418.6 491.7 421.7 491.6 C 426.5 491.7 422.0 491.7 425.1 491.8 C 427.7 491.8 432.3 491.6 434.0 491.6 C 433.5 491.6 435.0 491.7 435.7 491.8 C 444.8 491.8 465.2 491.6 474.1 491.9 C 474.8 491.8 476.7 491.8 476.0 491.6 C 481.3 491.7 480.9 491.7 486.4 491.8 C 486.4 491.7 486.4 491.6 486.4 491.5 C 493.4 491.4 487.1 491.8 491.7 491.8 C 492.2 491.3 494.4 491.9 498.7 491.9 C 499.2 491.8 501.3 491.8 500.6 491.6 C 507.2 491.6 506.9 491.9 512.7 491.8 C 511.3 491.8 510.3 491.2 511.0 491.0 C 512.0 491.1 513.7 491.2 516.3 491.2 C 513.2 491.4 514.9 492.1 523.3 491.9 C 518.7 491.9 517.0 491.9 518.0 491.7 C 524.3 491.7 526.5 491.8 532.0 491.8 C 532.8 491.6 528.9 491.6 530.3 491.4 C 531.7 491.4 532.3 491.3 532.0 491.3 C 537.8 491.3 538.0 491.5 544.3 491.3 C 544.3 491.4 542.9 491.5 540.7 491.4 C 541.0 491.5 541.0 491.7 537.3 491.7 C 536.8 491.6 539.0 491.4 533.7 491.5 C 533.7 491.6 533.7 491.7 533.7 491.8 C 537.6 491.8 546.8 491.9 547.7 491.8 C 545.8 491.7 542.7 491.7 544.3 491.5 C 550.9 491.6 552.8 491.8 558.3 491.9 C 567.8 491.8 584.7 491.9 582.7 491.6 C 588.5 491.7 586.4 491.7 591.6 491.7 C 590.1 491.5 597.4 491.6 596.9 491.5 C 590.6 491.5 592.5 491.5 586.3 491.5 C 586.5 491.4 587.5 491.3 589.9 491.3 C 590.2 491.4 592.8 491.4 596.9 491.4 C 596.2 491.4 592.5 491.2 597.0 491.2 C 597.3 491.2 598.3 491.2 600.4 491.2 C 600.3 491.3 600.3 491.4 600.3 491.5 C 597.9 491.6 595.0 491.6 593.3 491.7 C 595.0 491.7 595.3 491.7 596.8 491.8 C 597.9 491.6 605.0 491.8 605.6 491.6 C 602.7 491.7 600.8 491.6 603.9 491.5 C 604.4 491.5 609.2 491.6 610.9 491.5 C 604.8 491.4 607.2 491.4 603.9 491.2 C 611.0 491.2 609.9 491.4 617.9 491.3 C 618.1 491.5 618.0 491.6 616.0 491.7 C 621.0 492.1 633.0 491.7 636.9 491.8 C 634.2 491.7 631.1 492.0 635.2 492.0 C 635.2 491.9 638.3 491.9 638.8 491.9 C 640.3 491.5 636.7 491.4 633.7 491.2 C 636.9 491.2 637.6 491.1 640.7 491.1 C 641.7 491.2 638.4 491.5 642.3 491.5 C 643.2 491.2 649.7 491.5 651.1 491.3 C 648.4 491.3 646.5 491.2 649.4 491.2 C 648.9 491.3 654.5 491.2 654.7 491.3 C 650.0 491.4 648.8 491.6 645.9 491.6 C 649.5 491.6 643.1 491.7 649.2 491.8 C 652.0 491.6 653.4 491.5 659.9 491.5 C 662.3 491.5 660.0 491.7 663.3 491.7 C 662.5 491.5 669.5 491.5 665.1 491.6 C 667.5 491.6 668.9 491.7 670.2 491.7 C 666.9 491.5 683.6 491.3 681.0 491.2 C 680.9 491.4 681.7 491.6 682.5 491.7 C 685.9 491.5 689.6 491.7 698.4 491.6 C 698.2 491.4 699.8 491.6 703.6 491.6 C 704.3 491.5 701.1 491.4 703.7 491.4 C 707.9 491.5 708.1 491.5 708.9 491.6 C 712.0 491.6 714.3 491.6 715.9 491.6 C 716.1 491.6 715.1 491.5 714.2 491.5 C 725.9 491.7 732.2 491.4 742.2 491.5 C 738.0 491.4 737.0 491.7 740.4 491.6 C 742.5 491.6 744.4 491.6 745.6 491.5 C 743.3 491.3 744.3 491.4 749.2 491.5 C 753.7 491.4 747.7 491.2 751.1 491.2 C 754.8 491.3 752.5 491.3 754.6 491.4 C 756.3 491.4 758.2 491.4 759.9 491.4 C 756.7 491.3 760.3 491.2 763.4 491.2 C 761.1 491.4 762.4 491.4 768.6 491.3 C 769.2 491.4 766.0 491.5 768.5 491.5 C 769.9 491.5 774.8 491.3 779.0 491.5 C 777.6 491.5 776.9 491.5 777.2 491.6 C 781.9 491.4 785.3 491.7 789.4 491.8 C 785.4 491.6 787.7 491.5 786.0 491.3 C 790.0 491.5 795.1 491.3 798.2 491.5 C 792.3 491.5 797.8 491.9 801.6 491.9 C 802.5 491.7 796.2 491.7 798.2 491.5 C 800.4 491.4 804.8 491.6 807.0 491.5 C 806.7 491.4 804.2 491.5 803.6 491.4 C 806.8 491.4 802.6 491.3 805.4 491.3 C 807.0 491.5 809.0 491.2 810.7 491.2 C 812.9 491.3 817.3 491.5 819.3 491.4 C 819.4 491.3 816.3 491.3 816.0 491.3 C 825.6 491.2 828.3 491.4 837.0 491.2 C 838.0 491.3 839.7 491.4 842.2 491.4 C 842.1 491.3 843.7 491.2 845.7 491.2 C 849.4 491.3 853.1 491.4 857.9 491.5 C 856.9 491.6 854.6 491.7 861.1 491.7 C 861.5 491.6 858.8 491.6 861.2 491.6 C 861.2 491.6 862.7 491.6 863.1 491.6 C 863.1 491.5 863.1 491.5 863.2 491.5 C 861.3 491.5 859.6 491.5 857.9 491.5 C 858.1 491.4 857.7 491.3 856.3 491.2 C 864.1 491.1 863.3 491.5 868.4 491.3 C 869.0 491.6 870.6 491.7 866.2 491.9 C 870.7 491.8 873.9 491.7 875.2 491.6 C 869.9 491.6 871.8 491.4 870.3 491.3 C 873.7 491.3 873.8 491.2 875.5 491.2 C 879.3 491.3 871.2 491.5 878.8 491.5 C 873.2 491.3 883.8 491.3 887.6 491.4 C 887.0 491.3 885.7 491.3 887.8 491.2 C 898.3 491.1 896.9 491.7 903.3 491.4 C 902.7 491.5 905.6 491.5 906.8 491.6 C 901.6 491.6 900.2 491.7 898.0 491.7 C 898.2 491.8 899.8 491.8 901.3 491.8 C 901.4 491.7 902.7 491.7 904.9 491.8 C 906.5 491.7 906.3 491.4 910.5 491.2 C 910.8 491.3 910.2 491.4 912.2 491.4 C 914.2 491.3 910.4 491.7 919.0 491.6 C 917.5 491.6 916.8 491.5 917.6 491.4 C 921.7 491.3 920.8 491.4 926.3 491.3 C 928.1 491.6 922.2 491.6 920.5 491.8 C 924.3 491.8 927.6 491.6 931.2 491.7 C 928.4 491.6 931.5 491.5 934.9 491.4 C 938.0 491.4 934.5 491.7 938.2 491.7 C 941.2 491.7 942.9 491.5 940.2 491.4 C 946.7 491.5 945.3 491.3 950.8 491.3 C 950.8 491.4 949.3 491.4 947.3 491.4 C 947.6 491.4 946.8 491.5 948.8 491.5 C 951.3 491.4 955.7 491.4 959.6 491.3 C 959.6 493.4 959.7 495.3 959.7 496.8 C 959.4 505.3 959.8 514.9 959.7 523.4 C 959.5 519.9 959.6 534.5 959.4 538.4 C 959.5 541.0 959.9 549.2 959.7 546.1 C 959.4 546.7 959.5 551.7 959.5 555.5 C 959.5 555.6 959.6 555.6 959.7 555.7 C 959.7 556.4 959.7 557.1 959.7 557.7 C 953.4 557.7 951.6 557.5 949.1 557.4 C 939.7 557.5 929.0 557.3 917.7 557.5 C 914.6 557.3 912.1 557.3 905.1 557.2 C 905.5 557.4 900.0 557.4 894.9 557.4 C 896.2 557.5 891.4 557.5 891.5 557.6 C 896.2 557.6 894.7 557.8 897.1 557.9 C 890.8 557.7 888.1 558.1 883.1 557.9 C 889.0 557.8 890.7 557.6 891.3 557.3 C 884.2 557.3 880.4 557.3 878.8 557.1 C 878.5 557.2 879.4 557.3 881.0 557.4 C 878.6 557.4 876.2 557.4 874.0 557.4 C 873.2 557.3 876.4 557.3 873.8 557.2 C 872.2 557.3 870.4 557.4 868.7 557.4 C 866.5 557.2 871.3 557.3 871.9 557.2 C 862.5 557.1 866.9 557.5 861.9 557.5 C 860.4 557.4 860.5 557.2 856.3 557.2 C 854.7 557.3 854.3 557.5 849.5 557.5 C 846.4 557.4 849.5 557.2 845.9 557.2 C 845.4 557.2 843.9 557.2 842.3 557.2 C 842.6 557.3 841.1 557.3 839.1 557.4 C 838.5 557.3 835.1 557.3 833.8 557.4 C 833.3 557.3 827.7 557.0 826.6 557.2 C 826.7 557.2 829.7 557.2 830.1 557.3 C 826.2 557.3 823.5 557.3 821.5 557.4 C 820.0 556.9 813.8 557.3 805.6 557.0 C 800.8 557.2 806.9 557.4 800.7 557.5 C 796.8 557.3 801.4 557.3 800.4 557.1 C 799.3 557.1 793.4 557.0 793.4 557.1 C 793.5 557.2 796.5 557.2 796.9 557.2 C 792.4 557.4 792.4 557.2 789.8 557.1 C 790.3 557.3 787.2 557.3 786.7 557.4 C 774.1 557.5 774.1 557.2 768.8 557.0 C 768.9 557.1 765.8 557.1 765.5 557.2 C 769.0 557.1 773.9 557.3 769.0 557.3 C 769.8 557.2 762.6 557.3 762.1 557.3 C 763.0 557.4 767.6 557.4 765.8 557.6 C 759.2 557.6 761.7 557.3 756.9 557.5 C 756.3 557.4 759.2 557.3 760.3 557.3 C 758.3 557.3 755.4 557.3 755.0 557.2 C 757.5 557.2 757.4 557.0 758.4 556.9 C 755.1 557.1 748.8 556.9 753.3 557.2 C 746.2 557.1 739.7 557.2 744.6 557.4 C 739.0 557.4 742.0 557.2 737.6 557.4 C 738.1 557.1 739.4 557.0 735.5 556.9 C 734.9 557.0 731.9 557.0 732.3 557.2 C 724.0 557.2 721.4 557.0 717.9 556.8 C 721.2 557.1 716.9 556.9 713.0 557.0 C 710.4 557.0 712.6 556.7 705.8 556.8 C 713.3 557.1 697.4 556.9 700.8 557.2 C 692.0 557.0 692.2 557.0 683.2 557.0 C 683.9 556.9 686.1 556.8 690.0 556.7 C 687.4 556.9 697.7 556.9 697.0 556.8 C 697.0 556.8 696.9 556.7 696.9 556.7 C 690.3 556.7 685.8 556.7 682.9 556.6 C 681.6 556.7 678.6 556.8 679.8 557.0 C 673.3 556.7 666.9 557.1 663.8 556.9 C 666.1 556.9 668.1 556.8 667.3 556.7 C 664.8 556.8 661.8 556.8 662.2 557.0 C 667.4 557.0 668.4 557.1 670.9 556.9 C 668.8 557.1 676.1 557.2 671.1 557.2 C 671.0 556.9 660.8 557.4 664.0 557.2 C 669.6 557.1 657.6 557.0 657.1 556.9 C 657.1 556.9 657.1 556.9 657.1 556.9 Z M 118.9 491.7 C 113.7 491.8 120.3 492.0 124.2 491.9 C 123.0 491.9 122.4 491.8 122.3 491.7 C 120.8 491.7 119.3 491.8 118.9 491.7 C 118.9 491.7 118.9 491.7 118.9 491.7 Z M 176.9 494.3 C 178.4 494.1 169.8 494.3 166.3 494.2 C 167.3 494.3 168.5 494.3 166.3 494.3 C 170.2 494.5 171.3 494.2 176.9 494.3 C 176.9 494.3 176.9 494.3 176.9 494.3 Z M 369.8 493.7 C 368.4 493.7 365.0 493.8 364.7 493.7 C 362.6 493.7 363.2 493.8 362.9 493.9 C 358.8 493.9 363.8 493.6 357.5 493.7 C 355.3 494.0 368.5 494.1 369.8 493.7 C 369.8 493.7 369.8 493.7 369.8 493.7 Z M 721.4 554.2 C 718.8 554.1 724.6 553.9 722.8 553.8 C 713.3 553.9 720.9 554.1 707.4 554.1 C 708.3 554.1 709.4 554.2 709.3 554.2 C 715.5 554.2 715.9 554.0 714.6 554.4 C 717.5 554.4 717.9 554.0 721.4 554.2 C 721.4 554.2 721.4 554.2 721.4 554.2 Z M 595.6 553.4 C 596.6 553.4 597.5 553.5 597.6 553.6 C 601.6 553.5 600.7 553.5 606.2 553.5 C 605.3 553.3 600.1 553.3 595.6 553.4 C 595.6 553.4 595.6 553.4 595.6 553.4 Z M 265.3 553.0 C 264.1 553.0 262.9 553.0 261.7 553.0 C 262.6 553.1 259.4 553.3 265.3 553.3 C 265.6 553.2 264.6 553.2 263.6 553.2 C 264.6 553.2 267.5 553.2 267.0 553.0 C 265.4 553.1 265.3 553.0 265.3 553.0 C 265.3 553.0 265.3 553.0 265.3 553.0 Z M 126.2 554.7 C 133.0 554.5 116.4 554.0 126.2 554.7 C 126.2 554.7 126.2 554.7 126.2 554.7 C 126.2 554.7 126.2 554.7 126.2 554.7 Z M 140.5 556.8 C 140.7 556.8 142.2 556.8 142.2 556.8 C 148.0 556.8 142.4 556.9 145.6 557.0 C 150.2 556.9 143.2 556.7 149.2 556.6 C 148.0 556.5 143.9 556.8 140.5 556.8 C 140.5 556.8 140.5 556.8 140.5 556.8 Z M 896.2 491.5 C 891.4 491.6 889.9 491.7 888.9 491.9 C 892.1 491.9 894.8 492.0 895.8 492.1 C 902.0 492.0 891.8 491.9 890.8 491.9 C 891.6 491.7 896.1 491.7 896.2 491.5 C 896.2 491.5 896.2 491.5 896.2 491.5 Z M 880.5 491.6 C 878.4 491.7 875.2 491.7 874.9 491.9 C 878.0 491.8 878.3 491.9 878.4 492.0 C 881.2 491.9 877.9 491.8 880.5 491.6 C 880.5 491.6 880.5 491.6 880.5 491.6 Z M 910.0 491.8 C 907.8 491.8 908.5 491.9 908.1 492.0 C 911.4 492.0 911.8 492.1 915.1 492.1 C 915.1 492.0 915.2 491.9 915.2 491.9 C 912.5 491.9 912.3 491.9 909.9 491.9 C 909.9 491.9 910.0 491.8 910.0 491.8 C 910.0 491.8 910.0 491.8 910.0 491.8 Z M 864.6 491.8 C 855.4 491.8 851.1 492.1 844.9 492.4 C 851.6 492.3 857.8 491.9 862.5 492.1 C 868.4 492.0 860.7 491.9 861.0 491.9 C 861.2 491.8 863.2 491.8 864.6 491.8 C 864.6 491.8 864.6 491.8 864.6 491.8 Z M 784.0 491.8 C 782.2 491.7 778.6 492.0 773.4 491.9 C 774.4 492.0 775.2 492.0 775.2 492.1 C 782.6 492.2 778.4 491.8 784.0 491.8 C 784.0 491.8 784.0 491.8 784.0 491.8 Z M 740.3 491.9 C 735.7 492.0 742.6 492.0 740.2 492.2 C 745.3 492.2 750.7 492.2 750.7 492.0 C 745.1 492.1 743.9 492.1 740.3 491.9 C 740.3 491.9 740.3 491.9 740.3 491.9 Z M 708.7 491.9 C 703.6 492.0 710.8 492.2 708.5 492.4 C 710.6 492.3 710.1 492.2 710.3 492.2 C 711.8 492.2 713.2 492.2 715.6 492.2 C 713.9 492.1 708.0 492.1 708.7 491.9 C 708.7 491.9 708.7 491.9 708.7 491.9 Z M 955.6 556.9 C 957.2 556.9 957.7 556.8 958.7 556.8 C 958.7 555.7 958.7 554.2 958.7 551.1 C 958.7 554.0 958.7 555.6 958.6 556.6 C 955.6 556.5 955.5 556.2 946.3 556.3 C 948.4 556.4 947.1 556.4 946.4 556.3 C 941.5 556.5 951.1 556.4 946.6 556.6 C 950.2 556.6 948.0 556.4 951.5 556.4 C 955.4 556.6 957.7 556.7 955.6 556.9 C 955.6 556.9 955.6 556.9 955.6 556.9 Z M 946.1 556.1 C 942.5 556.1 942.8 556.4 941.0 556.2 C 939.3 556.2 939.7 556.3 939.4 556.3 C 940.7 556.3 940.9 556.4 941.1 556.4 C 944.1 556.3 947.2 556.3 946.1 556.1 C 946.1 556.1 946.1 556.1 946.1 556.1 Z M 958.0 534.2 C 958.1 540.4 958.0 542.1 958.2 545.1 C 957.9 547.1 958.3 549.3 958.0 552.3 C 958.1 558.2 958.2 554.0 958.3 552.5 C 958.3 556.0 958.2 555.8 958.2 556.3 C 957.8 556.2 957.1 556.2 954.9 556.2 C 954.4 556.3 956.6 556.4 958.4 556.4 C 958.4 555.1 958.4 554.0 958.5 554.5 C 958.5 550.0 958.4 549.9 958.3 547.0 C 958.4 544.9 958.5 545.7 958.5 545.4 C 958.5 540.2 958.6 540.6 958.6 536.3 C 958.4 535.2 958.4 536.9 958.4 541.7 C 958.3 536.7 958.2 534.6 958.3 528.9 C 958.5 533.1 958.5 514.7 958.2 516.2 C 958.2 521.2 958.3 519.7 958.4 521.7 C 958.2 528.0 958.3 531.9 958.0 534.2 C 958.0 534.2 958.0 534.2 958.0 534.2 Z M 911.4 492.4 C 909.9 492.3 908.5 492.3 906.1 492.3 C 906.1 492.1 909.1 492.2 906.3 492.1 C 902.6 492.0 901.7 492.1 899.3 492.1 C 900.6 492.2 908.3 492.4 904.1 492.5 C 905.2 492.6 907.8 492.6 911.0 492.6 C 907.5 492.3 916.3 492.6 919.8 492.6 C 919.8 492.3 925.9 492.7 928.6 492.5 C 926.7 492.3 919.4 492.5 916.4 492.5 C 917.9 492.4 908.0 492.1 911.4 492.4 C 911.4 492.4 911.4 492.4 911.4 492.4 Z M 932.3 556.2 C 931.3 556.3 927.4 556.3 930.5 556.3 C 929.1 556.4 925.7 556.3 927.4 556.6 C 925.5 556.6 923.8 556.6 922.1 556.6 C 922.7 556.5 927.5 556.5 925.4 556.3 C 922.0 556.4 923.2 556.3 918.5 556.3 C 920.8 556.2 918.1 556.2 919.8 555.9 C 918.5 556.0 914.2 556.0 914.7 556.2 C 908.1 556.1 916.4 555.9 907.5 555.9 C 907.5 555.8 913.8 555.8 916.1 555.9 C 917.2 555.7 905.2 555.8 898.7 555.7 C 904.6 555.9 900.2 556.1 897.4 556.2 C 895.3 556.2 897.3 556.1 893.6 556.0 C 890.7 556.0 889.3 556.1 888.4 556.0 C 886.0 556.0 887.1 556.1 886.9 556.2 C 882.8 556.2 885.6 555.9 879.7 556.0 C 884.4 556.2 879.3 556.3 871.2 556.2 C 871.8 556.3 874.4 556.3 874.8 556.4 C 873.7 556.5 868.9 556.3 867.7 556.2 C 864.8 556.3 866.8 556.4 869.5 556.3 C 867.8 556.4 866.2 556.5 864.4 556.5 C 873.1 556.5 886.8 556.5 903.0 556.8 C 899.8 556.6 903.4 556.6 908.2 556.6 C 909.0 556.7 906.9 556.8 904.7 556.8 C 910.6 557.0 909.8 556.5 918.6 556.6 C 923.4 556.7 913.4 556.8 918.8 556.9 C 922.0 556.8 924.1 556.7 925.8 556.9 C 931.3 556.8 932.6 556.6 941.3 556.6 C 936.3 556.5 933.7 556.1 928.7 556.2 C 928.7 556.2 930.9 556.2 932.3 556.2 C 932.3 556.2 932.3 556.2 932.3 556.2 Z M 878.3 492.1 C 875.3 492.1 873.6 492.2 873.0 492.1 C 867.7 492.2 873.6 492.3 874.6 492.4 C 877.0 492.3 877.9 492.2 878.3 492.1 C 878.3 492.1 878.3 492.1 878.3 492.1 Z M 346.6 492.1 C 339.9 492.1 341.4 492.3 336.1 492.3 C 340.4 492.4 341.5 492.5 348.4 492.5 C 348.7 492.3 348.7 492.2 346.6 492.1 C 346.6 492.1 346.6 492.1 346.6 492.1 Z M 895.6 492.2 C 900.1 492.0 890.3 492.5 890.5 492.3 C 885.4 492.4 895.0 492.4 890.2 492.6 C 894.6 492.5 897.0 492.6 902.4 492.5 C 902.3 492.4 898.0 492.4 893.8 492.4 C 893.3 492.3 895.6 492.3 895.6 492.2 C 895.6 492.2 895.6 492.2 895.6 492.2 Z M 414.9 492.6 C 419.5 492.5 410.6 492.3 407.8 492.2 C 407.7 492.4 409.1 492.4 414.9 492.6 C 414.9 492.6 414.9 492.6 414.9 492.6 Z M 301.2 492.4 C 298.7 492.6 309.0 492.4 306.6 492.7 C 309.7 492.7 310.0 492.6 310.1 492.5 C 311.7 492.6 316.6 492.6 315.3 492.7 C 316.2 492.9 307.5 492.7 310.3 492.9 C 307.4 492.9 307.2 492.8 305.0 492.8 C 310.1 492.8 307.6 492.7 301.3 492.6 C 301.4 492.8 304.2 492.7 301.4 492.8 C 301.0 492.8 297.7 492.6 297.8 492.4 C 292.3 492.4 295.7 492.7 289.2 492.7 C 289.8 492.8 293.9 492.8 296.3 492.8 C 295.7 493.0 289.4 492.7 291.1 493.0 C 289.6 492.8 285.8 492.7 285.6 492.5 C 290.5 492.5 293.7 492.3 297.7 492.2 C 293.9 492.1 288.7 492.5 282.1 492.4 C 282.8 492.5 278.9 492.5 280.4 492.7 C 275.2 492.6 277.5 492.4 278.5 492.4 C 277.1 492.2 267.2 492.3 268.0 492.5 C 267.2 492.3 255.3 492.4 256.0 492.6 C 252.3 492.4 247.0 492.7 245.3 492.5 C 243.3 492.6 239.2 492.5 234.8 492.5 C 233.7 492.7 241.3 492.6 241.9 492.8 C 243.4 492.9 233.7 492.7 235.0 492.9 C 235.1 492.9 235.1 493.0 235.1 493.0 C 238.6 493.0 242.2 492.9 245.6 492.8 C 248.1 492.9 244.9 492.9 245.7 493.0 C 248.0 492.9 259.1 492.7 259.6 493.0 C 267.1 492.9 272.4 493.0 275.3 492.8 C 279.8 492.9 272.8 492.9 275.5 493.1 C 288.5 492.8 304.6 493.1 315.4 492.8 C 317.7 492.9 317.0 493.0 317.3 493.1 C 332.3 493.0 319.4 492.7 331.2 492.8 C 331.2 492.9 325.6 492.9 326.0 493.1 C 330.1 493.1 331.1 493.0 336.5 493.0 C 336.5 492.9 336.5 492.9 336.4 492.8 C 340.9 492.8 339.3 493.0 341.7 493.1 C 347.3 493.0 345.9 492.9 348.7 493.1 C 353.9 493.0 359.0 493.0 364.5 493.1 C 368.0 492.9 361.1 492.7 355.5 492.7 C 355.8 492.6 357.3 492.6 357.3 492.5 C 363.8 492.7 365.0 493.0 374.9 493.1 C 367.3 492.9 378.7 493.0 380.1 493.1 C 384.2 493.1 381.1 492.9 378.4 492.9 C 378.9 492.8 381.4 492.9 381.8 493.0 C 382.2 492.7 372.6 492.5 362.6 492.7 C 367.1 492.3 355.5 492.7 360.6 492.3 C 352.5 492.4 359.5 492.6 350.3 492.5 C 351.2 492.6 352.9 492.7 353.8 492.8 C 346.8 492.8 348.8 492.6 341.5 492.6 C 340.4 492.8 345.1 492.7 345.2 492.8 C 337.1 492.7 334.5 492.6 329.1 492.4 C 328.2 492.5 329.6 492.7 320.5 492.6 C 320.5 492.6 320.5 492.5 320.5 492.5 C 324.8 492.5 325.6 492.2 315.1 492.2 C 314.4 492.3 317.7 492.3 320.4 492.3 C 319.3 492.4 315.9 492.5 311.8 492.5 C 309.7 492.5 307.3 492.4 310.0 492.4 C 308.3 492.2 306.9 492.5 301.2 492.4 C 301.2 492.4 301.2 492.4 301.2 492.4 Z M 792.5 492.2 C 791.1 492.3 789.7 492.3 787.2 492.3 C 785.9 492.5 790.7 492.4 790.6 492.5 C 794.3 492.5 791.6 492.3 792.5 492.2 C 792.5 492.2 792.5 492.2 792.5 492.2 Z M 841.3 492.4 C 841.1 492.2 838.4 492.4 834.3 492.4 C 833.0 492.5 837.8 492.5 837.7 492.6 C 842.5 492.6 836.7 492.3 841.3 492.4 C 841.3 492.4 841.3 492.4 841.3 492.4 Z M 820.4 492.4 C 818.6 492.2 818.4 492.4 822.2 492.4 C 821.8 492.5 820.9 492.6 818.4 492.7 C 820.9 492.9 822.8 492.5 827.2 492.6 C 825.7 492.5 823.4 492.4 820.4 492.4 C 820.4 492.4 820.4 492.4 820.4 492.4 Z M 813.4 492.4 C 810.7 492.5 809.1 492.3 804.6 492.4 C 805.6 492.5 815.3 492.5 816.9 492.4 C 818.5 492.3 808.1 492.3 813.4 492.4 C 813.4 492.4 813.4 492.4 813.4 492.4 Z M 484.8 492.8 C 483.1 492.8 483.4 492.9 483.1 493.0 C 477.6 492.7 470.1 492.7 476.1 492.5 C 470.4 492.6 465.1 492.4 460.4 492.4 C 456.3 492.3 458.3 492.5 455.1 492.5 C 450.0 492.5 457.8 492.4 456.8 492.4 C 455.7 492.2 454.3 492.5 448.1 492.4 C 449.9 492.7 442.8 492.4 444.7 492.7 C 441.3 492.6 440.3 492.7 435.9 492.7 C 436.4 492.8 440.7 492.8 441.2 493.0 C 443.4 493.1 443.6 492.8 439.5 492.8 C 441.8 492.6 448.0 492.9 449.9 492.8 C 452.1 493.0 444.2 492.8 446.5 493.0 C 448.0 493.0 449.5 493.0 449.9 492.9 C 452.4 492.9 454.1 493.0 455.2 493.1 C 453.6 493.1 453.5 493.0 453.5 493.0 C 450.2 493.0 456.7 493.3 449.9 493.3 C 451.1 493.4 454.0 493.4 453.5 493.5 C 455.6 493.6 453.5 493.0 460.5 493.2 C 465.0 493.0 449.5 493.0 453.4 492.7 C 463.1 492.7 457.7 493.0 465.5 493.0 C 465.5 492.9 465.4 492.8 467.4 492.8 C 467.1 492.8 464.2 492.8 462.1 492.8 C 462.5 492.7 465.3 492.7 467.4 492.7 C 467.0 492.7 465.5 492.7 465.5 492.6 C 472.2 492.7 471.5 493.0 465.6 493.1 C 465.7 493.3 473.9 493.3 476.1 493.2 C 473.9 493.1 476.3 493.1 474.4 492.9 C 472.7 492.9 473.0 493.0 472.5 493.0 C 469.5 493.0 472.3 492.9 472.5 492.8 C 476.1 492.9 475.9 493.0 479.5 492.9 C 478.6 492.9 477.8 493.0 477.8 493.1 C 479.5 493.1 481.4 493.1 483.1 493.1 C 482.9 493.0 485.1 492.9 484.8 492.8 C 484.8 492.8 484.8 492.8 484.8 492.8 Z M 393.9 492.4 C 388.1 492.3 391.2 492.5 393.9 492.5 C 392.7 492.5 390.7 492.6 388.7 492.6 C 390.4 492.7 391.9 492.6 397.4 492.7 C 392.7 492.9 397.7 493.2 406.4 493.2 C 408.8 492.8 401.5 492.8 404.3 492.6 C 398.1 492.7 394.6 492.6 393.9 492.4 C 393.9 492.4 393.9 492.4 393.9 492.4 Z M 874.5 492.4 C 871.1 492.4 867.5 492.4 864.1 492.4 C 864.3 492.6 875.1 492.7 874.5 492.4 C 874.5 492.4 874.5 492.4 874.5 492.4 Z M 857.3 556.3 C 855.8 556.3 855.6 556.3 855.4 556.2 C 850.4 556.3 857.9 556.4 855.7 556.5 C 857.6 556.5 859.3 556.5 861.0 556.5 C 861.2 556.4 853.7 556.3 859.0 556.3 C 858.6 556.2 857.3 556.3 857.3 556.3 C 857.3 556.3 857.3 556.3 857.3 556.3 Z M 795.9 492.5 C 792.6 492.5 794.5 492.8 786.9 492.7 C 789.5 492.9 791.3 492.8 795.7 492.8 C 795.8 492.7 795.8 492.6 795.9 492.5 C 795.9 492.5 795.9 492.5 795.9 492.5 Z M 511.0 492.5 C 506.6 492.3 505.4 492.8 497.0 492.7 C 501.3 492.9 506.0 492.6 511.0 492.5 C 511.0 492.5 511.0 492.5 511.0 492.5 Z M 221.0 492.8 C 223.6 492.9 220.4 492.9 224.7 493.0 C 227.1 493.0 228.0 492.9 231.6 492.8 C 226.5 492.6 217.8 492.8 214.0 492.5 C 209.8 492.6 210.3 492.8 209.0 492.9 C 211.0 492.9 212.1 492.9 212.4 493.0 C 214.8 492.7 218.2 493.1 221.0 492.8 C 221.0 492.8 221.0 492.8 221.0 492.8 Z M 416.6 492.7 C 419.9 492.8 414.4 492.8 413.3 493.0 C 410.9 492.9 411.7 492.8 411.4 492.7 C 408.3 492.7 407.5 492.8 408.0 493.0 C 413.8 493.0 421.0 493.0 416.8 493.3 C 422.4 493.3 419.3 493.1 422.0 493.0 C 425.1 493.1 422.2 493.2 422.1 493.4 C 423.4 493.3 427.6 493.1 427.3 493.4 C 435.6 493.1 431.8 492.8 425.5 492.5 C 419.9 492.7 426.4 492.8 416.6 492.7 C 416.6 492.7 416.6 492.7 416.6 492.7 Z M 638.5 492.8 C 638.0 492.8 635.0 492.8 635.0 492.7 C 631.2 492.9 627.9 493.1 624.5 493.3 C 625.1 493.4 629.9 493.3 627.9 493.1 C 629.4 493.3 632.8 493.3 634.8 493.4 C 638.3 493.5 639.6 493.1 640.1 493.4 C 643.5 493.3 641.5 493.3 647.1 493.3 C 638.3 493.1 650.1 493.2 650.7 493.0 C 645.6 493.0 641.2 493.0 641.8 493.2 C 638.1 493.1 634.0 493.1 633.2 492.9 C 633.6 492.8 636.5 492.8 638.5 492.8 C 638.5 492.8 638.5 492.8 638.5 492.8 Z M 617.4 493.4 C 618.8 493.3 620.2 493.3 622.6 493.3 C 621.2 493.3 620.7 493.2 620.9 493.1 C 616.5 493.1 615.4 493.2 614.0 493.0 C 609.9 493.0 614.9 493.3 608.6 493.2 C 609.1 493.3 612.2 493.2 612.2 493.3 C 612.7 493.2 615.3 493.2 617.4 493.4 C 617.4 493.4 617.4 493.4 617.4 493.4 Z M 563.4 493.0 C 558.8 493.0 565.8 493.1 563.4 493.3 C 564.6 493.2 573.2 493.3 572.0 493.4 C 574.6 493.7 583.5 493.2 582.6 493.5 C 584.6 493.5 583.9 493.4 584.3 493.3 C 578.2 493.4 578.2 493.2 582.6 493.2 C 581.9 493.1 578.2 493.1 575.6 493.1 C 575.3 493.2 577.7 493.3 577.3 493.4 C 572.1 493.3 568.2 493.1 563.4 493.0 C 563.4 493.0 563.4 493.0 563.4 493.0 Z M 667.0 555.9 C 671.1 555.9 673.6 555.9 675.6 555.9 C 674.3 555.8 672.4 555.9 670.3 555.9 C 669.7 555.8 671.6 555.8 673.8 555.7 C 671.7 555.6 664.5 555.7 667.0 555.9 C 667.0 555.9 667.0 555.9 667.0 555.9 Z M 701.8 555.9 C 705.7 555.9 708.3 555.9 708.7 555.8 C 707.1 555.7 707.7 555.9 705.2 555.9 C 703.6 555.8 702.5 555.8 701.6 555.7 C 699.9 555.7 700.3 555.8 699.9 555.8 C 698.5 555.8 698.3 555.8 698.1 555.7 C 693.5 555.9 703.7 555.7 701.8 555.9 C 701.8 555.9 701.8 555.9 701.8 555.9 Z M 593.0 493.1 C 594.5 493.2 595.7 493.3 599.9 493.3 C 599.1 493.2 602.5 493.2 605.2 493.2 C 601.2 493.0 599.1 493.1 593.0 493.1 C 593.0 493.1 593.0 493.1 593.0 493.1 Z M 919.6 555.8 C 925.1 556.0 924.3 555.7 931.9 555.8 C 931.8 555.7 931.8 555.7 931.7 555.6 C 927.3 555.8 925.1 555.7 919.6 555.8 C 919.6 555.8 919.6 555.8 919.6 555.8 Z M 199.6 555.8 C 200.1 555.7 194.6 555.7 194.3 555.6 C 193.3 555.9 190.5 555.4 180.3 555.5 C 180.2 555.4 180.8 555.4 182.2 555.4 C 173.9 555.3 184.6 555.6 185.6 555.7 C 192.1 555.7 193.1 555.8 199.6 555.8 C 199.6 555.8 199.6 555.8 199.6 555.8 Z M 273.8 493.4 C 274.1 493.3 273.1 493.3 272.0 493.3 C 270.8 493.3 269.6 493.3 268.6 493.3 C 269.1 493.6 274.9 493.7 270.7 493.9 C 272.2 493.9 272.3 493.9 272.3 493.9 C 280.5 493.3 287.6 494.2 298.5 493.9 C 300.2 493.9 299.8 493.8 300.1 493.7 C 298.8 493.7 298.6 493.7 298.4 493.7 C 297.2 493.9 287.0 493.6 291.4 493.6 C 291.0 493.5 289.7 493.5 289.7 493.6 C 288.5 493.6 287.3 493.6 286.1 493.6 C 286.8 493.6 289.2 493.7 289.8 493.7 C 284.1 493.7 277.3 493.6 280.7 493.4 C 277.3 493.4 276.2 493.5 273.9 493.6 C 271.6 493.5 271.5 493.4 273.8 493.4 C 273.8 493.4 273.8 493.4 273.8 493.4 Z M 228.6 493.4 C 223.1 493.4 225.3 493.6 219.8 493.6 C 223.3 493.7 227.4 493.5 232.1 493.6 C 231.3 493.5 229.0 493.5 228.6 493.4 C 228.6 493.4 228.6 493.4 228.6 493.4 Z M 329.7 493.7 C 328.7 493.9 333.5 493.9 338.6 493.9 C 339.5 493.7 334.9 493.7 329.7 493.7 C 329.7 493.7 329.7 493.7 329.7 493.7 Z M 307.1 493.7 C 302.0 493.7 313.5 493.7 310.7 493.9 C 313.1 493.9 315.7 493.9 315.9 494.0 C 317.7 493.9 317.7 493.8 321.1 493.9 C 320.9 493.7 315.3 493.8 315.7 493.7 C 311.9 493.8 311.2 493.8 307.1 493.7 C 307.1 493.7 307.1 493.7 307.1 493.7 Z M 303.7 493.7 C 300.3 493.7 304.7 494.0 308.9 494.0 C 307.3 493.9 306.3 493.8 303.7 493.7 C 303.7 493.7 303.7 493.7 303.7 493.7 Z M 711.3 493.7 C 708.9 493.8 710.7 493.9 707.9 493.9 C 707.8 494.0 718.2 494.0 709.5 494.0 C 712.6 494.3 714.5 493.9 718.4 494.0 C 717.2 493.9 716.2 493.9 718.4 493.9 C 719.7 493.7 710.1 493.9 711.3 493.7 C 711.3 493.7 711.3 493.7 711.3 493.7 Z M 701.0 493.7 C 698.9 493.7 699.9 493.8 700.9 493.8 C 700.6 493.9 697.7 493.8 695.6 493.9 C 695.5 493.8 699.3 494.1 699.0 494.3 C 707.9 494.1 701.2 493.9 701.0 493.7 C 701.0 493.7 701.0 493.7 701.0 493.7 Z M 692.2 493.9 C 686.5 493.7 678.5 493.7 674.7 493.9 C 678.7 494.2 689.4 494.1 692.2 493.9 C 692.2 493.9 692.2 493.9 692.2 493.9 Z M 749.6 493.9 C 739.4 493.7 718.7 494.0 737.3 494.2 C 736.7 494.0 748.9 493.9 754.8 494.0 C 755.1 494.0 761.8 493.8 761.9 493.9 C 766.5 493.8 747.3 493.8 749.6 493.9 C 749.6 493.9 749.6 493.9 749.6 493.9 Z M 667.6 494.3 C 670.6 494.2 666.9 493.9 671.3 494.0 C 673.9 494.0 670.7 493.9 671.4 493.8 C 665.9 493.8 654.8 494.0 653.9 493.8 C 651.1 493.9 650.2 494.0 645.2 494.0 C 645.0 494.1 663.7 493.8 667.7 494.2 C 667.3 494.2 660.5 494.3 667.6 494.3 C 667.6 494.3 667.6 494.3 667.6 494.3 Z M 918.6 554.7 C 918.2 554.9 925.4 554.8 924.1 555.0 C 927.8 554.7 931.7 554.9 935.9 554.7 C 937.3 554.8 937.1 555.0 943.2 555.1 C 943.3 554.9 940.2 555.0 943.0 554.8 C 948.6 554.8 947.3 555.0 953.7 555.0 C 953.2 554.9 954.7 554.8 956.7 554.8 C 956.7 550.9 956.7 545.0 956.5 545.8 C 956.6 549.1 956.7 549.1 956.7 554.6 C 956.7 554.6 956.7 554.7 956.7 554.7 C 955.0 554.7 955.6 554.6 953.3 554.6 C 954.1 554.5 955.2 554.5 956.5 554.6 C 956.5 553.4 956.6 552.1 956.5 550.9 C 956.4 551.1 956.4 553.0 956.3 554.4 C 955.6 554.4 954.9 554.3 954.7 554.3 C 952.2 554.3 955.4 554.4 954.9 554.5 C 948.1 554.5 955.0 554.1 947.6 554.1 C 949.3 554.3 949.3 554.3 947.9 554.5 C 944.9 554.4 936.1 554.5 940.8 554.3 C 940.1 554.2 934.9 554.4 935.7 554.5 C 932.8 554.5 932.4 554.4 932.2 554.4 C 924.8 554.4 923.9 554.6 925.6 554.8 C 924.3 555.0 922.9 554.6 918.6 554.7 C 918.6 554.7 918.6 554.7 918.6 554.7 Z M 805.3 494.0 C 809.5 493.8 800.7 494.0 796.6 494.0 C 801.6 494.0 799.9 494.3 805.1 494.3 C 803.3 494.2 803.7 494.2 807.1 494.2 C 808.0 494.1 800.4 494.0 805.3 494.0 C 805.3 494.0 805.3 494.0 805.3 494.0 Z M 634.6 494.0 C 632.8 493.8 623.8 494.0 619.0 493.9 C 619.8 494.2 631.5 493.8 632.9 494.1 C 635.6 494.1 631.4 494.0 634.6 494.0 C 634.6 494.0 634.6 494.0 634.6 494.0 Z M 956.9 526.9 C 956.9 525.0 956.8 526.0 956.8 526.9 C 956.8 526.4 956.8 522.7 956.8 520.0 C 956.7 523.8 956.6 519.1 956.4 520.0 C 956.4 518.0 956.4 517.0 956.4 516.7 C 956.7 516.4 956.2 506.0 956.1 516.8 C 956.3 514.7 956.3 515.6 956.4 520.0 C 956.2 524.8 956.4 528.7 956.2 530.3 C 956.2 533.4 956.3 534.6 956.3 538.8 C 956.2 539.7 956.1 543.5 955.8 540.2 C 955.8 547.5 956.3 542.9 956.3 549.1 C 956.2 554.8 956.1 545.9 955.9 547.1 C 955.9 548.6 955.9 548.2 955.8 548.7 C 955.8 550.8 956.0 551.0 956.0 548.8 C 956.1 549.5 956.2 555.7 956.0 553.8 C 956.0 553.9 956.0 554.0 956.0 554.1 C 956.0 554.8 956.1 554.8 956.2 554.2 C 956.3 552.7 956.5 547.5 956.4 544.0 C 956.3 541.1 956.7 541.3 956.7 544.2 C 956.8 543.3 956.4 537.3 956.8 539.0 C 956.8 536.7 956.8 534.5 956.8 532.1 C 956.7 532.4 956.7 533.8 956.7 533.8 C 956.7 531.6 956.7 529.2 956.7 526.9 C 956.8 528.9 956.8 528.9 956.9 526.9 C 956.9 526.9 956.9 526.9 956.9 526.9 Z M 657.4 494.0 C 653.0 494.0 651.9 494.1 648.5 494.2 C 649.8 494.3 659.3 494.2 657.4 494.0 C 657.4 494.0 657.4 494.0 657.4 494.0 Z M 888.4 554.2 C 889.0 554.2 892.0 554.2 892.1 554.3 C 886.7 554.4 892.9 554.5 889.0 554.8 C 895.8 554.6 897.7 554.2 888.3 554.1 C 881.5 554.1 895.3 554.2 888.4 554.2 C 888.4 554.2 888.4 554.2 888.4 554.2 Z M 909.6 554.3 C 913.7 554.2 902.9 554.1 900.5 554.1 C 900.4 554.0 900.4 553.9 900.3 553.9 C 894.7 554.2 902.7 554.2 897.6 554.6 C 904.5 554.7 907.4 554.8 913.3 554.7 C 912.9 554.6 911.6 554.6 911.6 554.7 C 907.2 554.6 910.0 554.4 914.8 554.5 C 913.4 554.4 909.1 554.4 906.0 554.4 C 906.9 554.4 908.0 554.5 907.9 554.5 C 904.2 554.6 905.4 554.4 902.7 554.4 C 902.6 554.3 909.3 554.2 909.6 554.3 C 909.6 554.3 909.6 554.3 909.6 554.3 Z M 566.8 554.6 C 570.3 554.6 562.9 554.3 563.1 554.1 C 559.3 554.0 558.5 554.1 556.1 554.1 C 557.4 554.2 561.5 554.3 563.2 554.4 C 562.7 554.6 557.8 554.3 556.3 554.5 C 554.3 554.8 565.1 554.4 566.8 554.6 C 566.8 554.6 566.8 554.6 566.8 554.6 Z M 907.7 494.3 C 905.9 494.3 906.8 494.4 907.7 494.4 C 907.3 494.5 904.2 494.5 904.3 494.4 C 901.6 494.4 905.7 494.5 902.5 494.5 C 901.7 494.6 907.4 494.5 907.6 494.5 C 911.5 494.4 908.3 494.7 909.2 494.8 C 912.6 494.8 911.6 494.6 916.3 494.6 C 913.5 494.5 911.0 494.4 907.7 494.3 C 907.7 494.3 907.7 494.3 907.7 494.3 Z M 876.7 554.5 C 876.1 554.6 880.5 554.3 885.2 554.4 C 891.3 554.4 881.3 554.2 886.8 554.2 C 882.1 554.2 876.7 554.3 869.6 554.4 C 868.0 554.5 879.4 554.4 873.1 554.5 C 873.5 554.6 875.0 554.5 874.9 554.5 C 876.3 554.5 876.5 554.5 876.7 554.5 C 876.7 554.5 876.7 554.5 876.7 554.5 Z M 883.3 554.1 C 882.9 554.1 881.4 554.1 881.4 554.1 C 879.2 554.1 879.0 553.9 881.2 553.9 C 878.1 553.7 878.7 554.1 872.6 554.0 C 875.3 554.2 876.6 554.3 871.0 554.1 C 866.8 554.3 881.3 554.2 883.3 554.1 C 883.3 554.1 883.3 554.1 883.3 554.1 Z M 622.4 554.5 C 621.8 554.4 618.1 554.4 615.4 554.4 C 618.7 554.3 632.8 554.4 634.6 554.5 C 636.1 554.4 637.6 554.4 638.2 554.5 C 637.9 554.4 641.8 554.3 639.7 554.3 C 640.0 554.2 643.1 554.3 643.0 554.2 C 648.3 554.2 641.6 554.3 643.2 554.4 C 649.4 554.3 648.1 554.4 655.4 554.4 C 654.1 554.2 646.0 554.3 646.5 554.1 C 640.9 554.3 634.5 554.1 630.8 553.9 C 636.5 554.2 616.2 554.4 606.6 554.3 C 606.9 554.2 603.5 554.2 599.6 554.1 C 596.8 553.9 597.8 554.3 603.0 554.2 C 603.0 554.4 595.8 554.3 592.7 554.3 C 596.4 554.4 594.4 554.5 596.3 554.5 C 603.1 554.5 596.9 554.5 598.0 554.4 C 599.7 554.4 601.4 554.4 603.3 554.4 C 594.3 554.6 616.5 554.4 608.4 554.4 C 615.5 554.4 615.8 554.6 622.4 554.5 C 622.4 554.5 622.4 554.5 622.4 554.5 Z M 786.0 554.5 C 787.2 554.5 792.7 554.4 793.0 554.5 C 800.0 554.4 793.6 554.2 801.6 554.2 C 801.0 554.2 798.0 554.2 797.9 554.1 C 794.9 554.2 791.9 554.2 792.9 554.4 C 789.3 554.4 788.3 554.5 786.0 554.5 C 786.8 554.4 788.1 554.4 791.2 554.4 C 791.5 554.2 790.3 554.1 785.7 554.1 C 783.8 554.3 785.3 554.4 786.0 554.5 C 786.0 554.5 786.0 554.5 786.0 554.5 Z M 803.3 554.3 C 804.2 554.4 805.3 554.4 805.2 554.5 C 807.9 554.7 806.0 554.2 808.5 554.2 C 810.6 554.3 810.0 554.4 810.4 554.4 C 813.4 554.4 815.8 554.4 817.3 554.4 C 822.0 554.3 811.8 554.3 810.2 554.2 C 806.8 554.2 808.1 554.3 803.3 554.3 C 803.3 554.3 803.3 554.3 803.3 554.3 Z M 855.7 554.5 C 856.8 554.7 858.4 554.4 860.8 554.4 C 858.9 554.3 853.9 554.4 857.1 554.1 C 852.0 554.1 851.6 554.1 846.6 554.1 C 843.2 554.0 846.6 554.3 851.9 554.2 C 851.3 554.3 848.9 554.3 848.7 554.4 C 845.0 554.0 836.6 554.6 841.7 554.3 C 843.2 554.3 844.3 554.4 845.2 554.5 C 846.3 554.3 858.2 554.4 855.7 554.5 C 855.7 554.5 855.7 554.5 855.7 554.5 Z M 944.0 494.7 C 950.4 494.7 951.0 494.7 956.3 494.7 C 956.3 495.2 956.2 495.7 956.2 496.4 C 956.2 496.6 956.1 496.1 956.1 494.8 C 956.1 496.4 956.1 498.5 956.1 501.4 C 956.2 501.2 956.2 499.7 956.1 499.8 C 956.3 494.2 956.3 498.8 956.4 499.5 C 956.5 497.7 956.5 496.1 956.5 494.5 C 951.9 494.5 948.0 494.6 946.0 494.5 C 943.4 494.5 946.4 494.5 944.0 494.7 C 944.0 494.7 944.0 494.7 944.0 494.7 Z M 206.3 554.3 C 205.3 554.4 202.4 554.4 203.0 554.5 C 205.5 554.5 207.4 554.4 209.9 554.4 C 205.0 554.3 205.6 554.1 199.3 554.1 C 201.4 554.2 200.9 554.3 206.3 554.3 C 206.3 554.3 206.3 554.3 206.3 554.3 Z M 838.2 554.4 C 838.0 554.3 837.7 554.3 839.8 554.2 C 840.3 554.1 834.8 554.2 834.5 554.1 C 832.7 554.1 833.4 554.2 831.1 554.2 C 832.0 554.3 836.5 554.2 834.8 554.4 C 833.3 554.4 833.1 554.4 832.9 554.4 C 829.4 554.5 834.9 554.5 838.2 554.4 C 838.2 554.4 838.2 554.4 838.2 554.4 Z M 549.3 554.4 C 551.7 554.4 549.3 554.3 547.4 554.3 C 552.4 554.1 544.2 554.0 543.8 553.8 C 546.1 554.0 553.0 553.9 554.2 553.9 C 556.2 553.9 553.7 553.7 559.3 553.7 C 558.5 553.6 552.5 553.7 554.1 553.8 C 552.5 553.6 546.7 553.9 547.1 553.6 C 539.2 553.6 537.4 553.7 536.9 553.9 C 544.5 553.9 540.7 554.2 547.3 554.1 C 547.4 554.2 545.3 554.2 544.0 554.2 C 544.5 554.3 547.4 554.3 549.3 554.4 C 549.3 554.4 549.3 554.4 549.3 554.4 Z M 730.3 554.4 C 734.2 554.4 733.9 554.3 733.6 554.1 C 732.1 554.2 729.8 554.2 726.7 554.2 C 727.4 554.3 732.2 554.2 730.3 554.4 C 730.3 554.4 730.3 554.4 730.3 554.4 Z M 577.0 554.2 C 577.4 554.3 578.8 554.2 578.7 554.2 C 583.1 554.2 584.2 554.3 585.8 554.4 C 588.2 554.3 587.2 554.2 587.4 554.1 C 583.4 554.3 584.1 554.0 578.7 554.1 C 579.1 554.1 578.4 554.2 577.0 554.2 C 577.0 554.2 577.0 554.2 577.0 554.2 Z M 693.7 554.3 C 695.7 554.3 694.7 554.2 693.7 554.2 C 695.9 554.0 703.1 554.2 705.8 554.1 C 706.0 554.0 697.2 554.0 707.4 553.9 C 705.4 553.8 696.3 553.9 691.7 553.9 C 692.6 553.7 698.9 553.7 698.4 553.5 C 693.1 553.6 687.2 553.7 686.5 554.0 C 694.3 554.0 691.7 554.2 693.7 554.3 C 693.7 554.3 693.7 554.3 693.7 554.3 Z M 685.0 554.2 C 685.7 554.3 687.1 554.2 690.0 554.2 C 685.7 554.0 683.2 554.0 674.3 554.0 C 674.3 554.0 674.4 554.1 674.4 554.1 C 672.7 554.1 670.8 554.1 669.1 554.1 C 676.9 554.3 678.7 554.2 686.6 554.1 C 687.0 554.2 686.0 554.2 685.0 554.2 C 685.0 554.2 685.0 554.2 685.0 554.2 Z M 918.1 554.2 C 915.6 554.1 913.5 554.0 909.2 553.9 C 909.7 554.1 912.3 554.2 918.1 554.2 C 918.1 554.2 918.1 554.2 918.1 554.2 Z M 570.0 554.1 C 565.3 554.2 574.6 554.1 571.6 553.9 C 567.8 553.8 563.7 553.8 562.8 553.6 C 556.0 553.8 570.7 553.8 570.0 554.1 C 570.0 554.1 570.0 554.1 570.0 554.1 Z M 601.0 553.6 C 603.0 553.7 603.2 553.9 601.1 553.8 C 596.1 553.8 605.4 553.9 597.7 553.9 C 601.0 554.0 608.4 554.1 611.7 553.9 C 611.4 553.8 604.8 553.9 604.6 553.7 C 604.2 553.7 605.2 553.6 606.2 553.6 C 605.5 553.6 604.1 553.7 601.0 553.6 C 601.0 553.6 601.0 553.6 601.0 553.6 Z M 627.3 553.9 C 624.3 553.8 620.9 553.8 615.0 553.8 C 618.9 553.9 621.3 554.1 627.3 553.9 C 627.3 553.9 627.3 553.9 627.3 553.9 Z M 298.5 553.7 C 302.7 553.7 298.9 553.5 298.4 553.5 C 294.2 553.4 294.5 553.6 289.6 553.5 C 291.2 553.7 295.7 553.5 298.5 553.7 C 298.5 553.7 298.5 553.7 298.5 553.7 Z M 282.9 553.6 C 282.3 553.5 276.2 553.5 275.9 553.4 C 272.4 553.8 266.8 553.2 267.1 553.5 C 265.7 553.4 264.3 553.4 261.8 553.4 C 266.8 553.7 277.6 553.6 282.9 553.6 C 282.9 553.6 282.9 553.6 282.9 553.6 Z M 656.7 553.6 C 661.3 553.6 655.2 553.3 660.0 553.3 C 660.2 553.3 651.1 553.2 656.5 553.2 C 649.2 553.0 657.2 553.5 656.7 553.6 C 656.7 553.6 656.7 553.6 656.7 553.6 Z M 741.7 553.4 C 741.5 553.5 747.8 553.4 750.4 553.5 C 750.4 553.4 748.3 553.4 747.0 553.4 C 747.6 553.3 748.4 553.3 750.3 553.3 C 748.8 553.1 744.2 553.4 741.7 553.4 C 741.7 553.4 741.7 553.4 741.7 553.4 Z M 650.0 556.7 C 647.0 556.5 643.1 556.4 641.2 556.6 C 638.1 556.5 643.1 556.4 639.3 556.3 C 634.5 556.4 636.7 556.2 628.8 556.3 C 630.2 556.1 624.4 556.1 623.3 556.0 C 626.5 556.0 630.7 556.2 632.1 556.0 C 629.4 556.0 630.8 555.8 632.1 555.9 C 637.4 556.0 625.8 556.2 632.3 556.3 C 634.0 556.0 643.7 556.5 649.8 556.5 C 647.5 556.6 654.5 556.7 650.0 556.7 C 650.0 556.7 650.0 556.7 650.0 556.7 Z M 618.4 556.3 C 614.2 556.3 611.7 556.0 612.9 556.0 C 613.0 556.1 617.7 556.1 618.2 556.0 C 617.0 556.0 616.0 556.0 616.3 555.9 C 624.1 555.9 621.5 556.1 623.5 556.2 C 619.2 556.3 618.0 556.2 616.5 556.3 C 617.5 556.3 618.6 556.3 618.4 556.3 C 618.4 556.3 618.4 556.3 618.4 556.3 Z M 524.4 553.3 C 525.3 553.4 526.2 553.3 527.9 553.3 C 528.4 553.6 537.0 553.2 538.3 553.3 C 536.3 553.4 531.7 553.4 529.7 553.5 C 532.1 553.5 532.6 553.6 535.0 553.5 C 534.5 553.7 529.5 553.7 528.2 553.8 C 527.6 553.7 525.3 553.9 524.6 553.8 C 531.3 553.7 520.5 553.3 524.4 553.3 C 524.4 553.3 524.4 553.3 524.4 553.3 Z M 696.4 553.3 C 697.0 553.2 689.2 552.7 695.8 552.5 C 697.4 552.7 698.4 552.8 698.1 553.0 C 702.2 552.9 704.2 553.1 706.6 552.9 C 715.0 553.5 700.5 552.9 696.4 553.3 C 696.4 553.3 696.4 553.3 696.4 553.3 Z M 724.2 553.2 C 722.8 553.3 726.7 553.3 726.2 553.5 C 722.7 553.3 712.0 553.5 715.6 553.4 C 719.1 553.3 719.0 553.2 724.2 553.2 C 724.2 553.2 724.2 553.2 724.2 553.2 Z M 531.9 494.2 C 537.5 494.1 540.3 494.4 537.1 494.5 C 538.5 494.3 530.0 494.4 531.9 494.2 C 531.9 494.2 531.9 494.2 531.9 494.2 Z M 735.3 491.3 C 730.2 491.2 727.3 491.3 726.7 491.2 C 731.7 491.1 731.1 491.2 735.4 491.2 C 735.7 491.1 738.3 491.1 738.8 491.2 C 736.4 491.2 736.9 491.3 735.3 491.3 C 735.3 491.3 735.3 491.3 735.3 491.3 Z M 833.8 557.4 C 834.4 557.5 836.5 557.5 835.7 557.7 C 830.4 557.6 824.6 557.7 820.2 557.8 C 820.2 557.8 820.1 557.7 820.0 557.6 C 828.4 557.7 830.5 557.5 833.8 557.4 C 833.8 557.4 833.8 557.4 833.8 557.4 Z M 844.7 557.8 C 845.5 557.7 842.4 557.5 846.1 557.5 C 846.1 557.6 852.9 557.8 849.9 557.8 C 848.7 557.7 847.0 557.7 844.7 557.8 C 844.7 557.8 844.7 557.8 844.7 557.8 Z M 550.7 556.8 C 546.4 556.8 552.6 557.0 552.5 557.1 C 549.4 557.0 545.1 557.0 543.7 556.9 C 546.8 557.0 548.9 556.7 550.7 556.8 C 550.7 556.8 550.7 556.8 550.7 556.8 Z M 614.9 556.4 C 623.9 556.4 620.2 556.7 629.1 556.8 C 625.6 556.9 617.5 556.8 615.3 557.0 C 615.5 556.9 613.3 556.9 613.4 556.8 C 616.6 556.8 617.2 556.8 620.4 556.8 C 619.1 556.6 619.2 556.7 620.2 556.5 C 617.9 556.5 616.3 556.6 615.0 556.6 C 615.6 556.5 612.4 556.4 614.9 556.4 C 614.9 556.4 614.9 556.4 614.9 556.4 Z M 552.1 556.3 C 548.5 556.4 545.4 556.1 548.4 556.2 C 549.0 556.3 551.3 556.1 552.0 556.2 C 547.0 556.3 556.2 556.3 553.9 556.5 C 550.8 556.5 549.8 556.5 550.6 556.6 C 548.5 556.6 545.5 556.7 545.2 556.6 C 546.6 556.6 548.6 556.6 548.6 556.5 C 547.6 556.5 546.6 556.5 546.9 556.5 C 549.9 556.5 551.3 556.4 552.1 556.3 C 552.1 556.3 552.1 556.3 552.1 556.3 Z M 576.4 556.3 C 571.6 556.3 571.0 556.2 569.3 556.0 C 575.8 556.1 576.9 556.3 581.8 556.5 C 576.5 556.4 571.3 556.7 569.5 556.5 C 571.9 556.5 576.1 556.5 576.4 556.3 C 576.4 556.3 576.4 556.3 576.4 556.3 Z M 78.2 493.0 C 82.4 493.1 85.9 493.2 90.6 493.3 C 91.9 493.1 83.1 492.8 86.7 492.9 C 91.5 492.9 88.5 493.1 92.3 493.1 C 88.3 492.9 108.5 492.9 109.6 493.1 C 106.5 493.1 105.6 493.2 106.4 493.3 C 98.2 493.3 95.1 493.4 89.0 493.5 C 84.8 493.3 73.5 493.2 66.4 493.4 C 66.5 494.1 66.5 494.7 66.5 495.3 C 66.1 499.6 66.5 508.3 66.3 514.5 C 66.4 516.3 66.5 509.3 66.5 514.6 C 66.3 518.0 66.2 515.2 66.1 519.8 C 66.2 520.1 66.4 519.2 66.4 521.6 C 66.3 521.2 66.3 524.1 66.2 525.1 C 66.2 515.5 65.9 525.5 65.9 517.9 C 66.0 514.8 66.2 521.3 66.2 512.7 C 66.1 509.6 66.1 506.6 65.9 507.2 C 65.9 504.7 65.9 503.3 65.8 501.8 C 66.1 505.2 65.8 489.6 66.0 496.7 C 66.0 497.2 66.0 502.1 66.1 505.6 C 66.3 502.6 66.2 498.8 66.1 493.2 C 66.1 493.1 66.1 493.1 66.1 493.0 C 68.1 493.2 65.2 493.2 67.9 493.3 C 72.0 493.1 66.1 493.0 69.2 492.9 C 68.1 492.9 66.4 492.9 65.9 492.9 C 65.9 492.9 65.9 493.0 65.9 493.0 C 65.9 492.9 65.9 492.9 65.9 492.8 C 73.3 493.0 76.0 492.8 79.7 492.8 C 77.3 492.9 84.1 493.0 78.2 493.0 C 78.2 493.0 78.2 493.0 78.2 493.0 Z M 66.3 544.6 C 66.3 546.3 66.3 548.0 66.3 549.9 C 66.1 550.2 66.1 543.3 66.0 548.0 C 66.0 540.2 66.2 548.3 66.3 544.6 C 66.3 544.6 66.3 544.6 66.3 544.6 Z M 67.0 509.9 C 67.2 507.5 66.7 508.5 66.7 506.1 C 66.8 510.4 66.8 514.4 66.6 514.7 C 66.7 509.8 66.7 507.6 66.6 502.4 C 66.9 507.6 66.8 497.1 67.0 495.8 C 67.1 499.8 67.2 502.9 67.2 508.1 C 67.1 507.2 67.0 514.8 67.0 509.9 C 67.0 509.9 67.0 509.9 67.0 509.9 Z M 67.2 523.9 C 67.1 524.9 67.2 532.5 67.0 530.8 C 67.0 526.2 67.0 524.5 66.8 525.4 C 66.8 522.0 66.9 521.5 66.9 518.5 C 67.1 516.7 67.1 522.1 67.2 523.9 C 67.2 522.9 67.2 521.9 67.2 523.9 C 67.2 523.9 67.2 523.9 67.2 523.9 Z M 166.2 553.7 C 167.8 553.9 160.6 553.8 159.3 553.8 C 161.3 553.9 160.3 554.0 155.9 554.1 C 157.6 553.8 151.1 553.9 147.2 553.6 C 146.2 553.8 151.3 553.9 145.4 553.9 C 140.8 553.9 136.7 554.0 129.8 554.0 C 128.2 553.8 131.3 553.8 133.1 553.7 C 128.4 553.7 129.7 553.6 126.2 553.6 C 126.9 553.7 124.0 553.7 122.8 553.6 C 128.9 553.6 114.6 553.4 121.1 553.3 C 121.4 553.4 122.9 553.4 124.5 553.3 C 122.8 553.6 131.3 553.5 133.1 553.6 C 136.5 553.2 145.5 553.4 155.8 553.5 C 156.5 553.6 153.3 553.7 155.9 553.7 C 156.2 553.6 159.6 553.6 161.1 553.6 C 160.9 553.7 162.3 553.7 164.5 553.8 C 164.7 553.7 164.8 553.7 166.2 553.7 C 166.2 553.7 166.2 553.7 166.2 553.7 Z M 365.1 495.0 C 364.9 495.3 376.0 495.1 379.0 495.1 C 378.6 495.4 358.9 495.3 365.1 495.0 C 365.1 495.0 365.1 495.0 365.1 495.0 Z M 297.4 495.2 C 300.3 495.2 298.2 495.1 300.7 495.1 C 301.0 495.2 307.4 494.9 307.7 495.1 C 304.6 495.2 302.5 495.2 297.4 495.2 C 297.4 495.2 297.4 495.2 297.4 495.2 Z M 234.8 495.2 C 239.8 495.1 232.0 495.1 232.9 495.0 C 237.4 495.0 241.9 495.0 241.7 495.2 C 237.7 495.1 235.4 495.3 234.8 495.2 C 234.8 495.2 234.8 495.2 234.8 495.2 Z M 328.7 495.4 C 332.9 495.5 326.1 495.7 325.4 495.6 C 329.9 495.5 322.3 495.4 318.4 495.5 C 318.5 495.3 320.2 495.3 318.2 495.1 C 324.3 495.0 319.3 495.3 323.6 495.3 C 326.4 495.2 323.4 495.2 323.5 495.1 C 325.1 495.1 326.8 495.1 328.5 495.1 C 328.6 495.2 328.6 495.3 328.7 495.4 C 326.6 495.4 324.6 495.4 325.3 495.5 C 327.0 495.5 327.3 495.4 328.7 495.4 C 328.7 495.4 328.7 495.4 328.7 495.4 Z M 75.8 553.3 C 73.1 553.4 75.5 553.4 77.5 553.5 C 78.0 553.4 79.7 553.0 82.8 553.2 C 76.0 553.4 84.8 553.5 81.1 553.6 C 79.5 553.4 75.5 553.6 72.3 553.6 C 70.9 553.4 74.3 553.2 75.8 553.3 C 75.8 553.3 75.8 553.3 75.8 553.3 Z M 88.0 553.5 C 87.7 553.4 86.5 553.4 84.5 553.4 C 86.7 553.3 83.6 553.2 86.3 553.2 C 86.0 553.2 95.1 553.3 89.7 553.3 C 85.0 553.2 91.1 553.4 93.3 553.5 C 90.9 553.5 86.7 553.7 86.2 553.5 C 87.3 553.5 88.4 553.5 88.0 553.5 C 88.0 553.5 88.0 553.5 88.0 553.5 Z M 200.9 553.2 C 201.6 553.1 198.5 553.1 197.5 553.0 C 206.3 553.1 213.9 553.1 218.3 553.1 C 214.3 553.1 214.3 553.3 216.7 553.3 C 212.3 553.3 211.3 553.4 209.7 553.3 C 213.4 553.1 206.3 553.2 200.9 553.2 C 200.9 553.2 200.9 553.2 200.9 553.2 Z M 200.9 553.2 " fill="#FFFFFF"></path><image xlink:href="../../043A29C3-C307-47E9-B306-2C63CBF71D44/assets/1977BEA39C3F37DB78BEAE62F7413AF0.png" width="879.00" height="71.00" transform="matrix(1.00, 0.00, -0.00, -1.00, 78.0, 566.0)"></image><g><clipPath id="clip0x6180012a7f20"><path d="M 56.7 462.9 L 975.8 462.9 L 975.8 565.4 L 56.7 565.4 Z M 56.7 462.9 "></path></clipPath><g clip-path="url(#clip0x6180012a7f20)"><text xml:space="preserve" font-family="NeuropolXFree,Neuropol X Free" font-size="64.0" fill="#FFFFFF" transform="matrix(1.00, 0.00, -0.00, -1.00, 79.4, 509.5)">F</text><text xml:space="preserve" font-family="NeuropolXFree,Neuropol X Free" font-size="64.0" fill="#FFFFFF" transform="matrix(1.00, 0.00, -0.00, -1.00, 134.5, 509.5)">I</text><text xml:space="preserve" font-family="NeuropolXFree,Neuropol X Free" font-size="64.0" fill="#FFFFFF" transform="matrix(1.00, 0.00, -0.00, -1.00, 153.9, 509.5)">N</text><text xml:space="preserve" font-family="NeuropolXFree,Neuropol X Free" font-size="64.0" fill="#FFFFFF" transform="matrix(1.00, 0.00, -0.00, -1.00, 219.6, 509.5)">A</text><text xml:space="preserve" font-family="NeuropolXFree,Neuropol X Free" font-size="64.0" fill="#FFFFFF" transform="matrix(1.00, 0.00, -0.00, -1.00, 281.3, 509.5)">L</text><text xml:space="preserve" font-family="NeuropolXFree,Neuropol X Free" font-size="64.0" fill="#FFFFFF" transform="matrix(1.00, 0.00, -0.00, -1.00, 336.7, 509.5)">I</text><text xml:space="preserve" font-family="NeuropolXFree,Neuropol X Free" font-size="64.0" fill="#FFFFFF" transform="matrix(1.00, 0.00, -0.00, -1.00, 356.0, 509.5)">T</text><text xml:space="preserve" font-family="NeuropolXFree,Neuropol X Free" font-size="64.0" fill="#FFFFFF" transform="matrix(1.00, 0.00, -0.00, -1.00, 397.4, 509.5)"></text><text xml:space="preserve" font-family="NeuropolXFree,Neuropol X Free" font-size="64.0" fill="#FFFFFF" transform="matrix(1.00, 0.00, -0.00, -1.00, 463.7, 509.5)"> </text><text xml:space="preserve" font-family="NeuropolXFree,Neuropol X Free" font-size="64.0" fill="#FFFFFF" transform="matrix(1.00, 0.00, -0.00, -1.00, 488.6, 509.5)"> </text><text xml:space="preserve" font-family="NeuropolXFree,Neuropol X Free" font-size="64.0" fill="#FFFFFF" transform="matrix(1.00, 0.00, -0.00, -1.00, 513.5, 509.5)"> </text><text xml:space="preserve" font-family="NeuropolXFree,Neuropol X Free" font-size="64.0" fill="#FFFFFF" transform="matrix(1.00, 0.00, -0.00, -1.00, 538.4, 509.5)"> </text><text xml:space="preserve" font-family="NeuropolXFree,Neuropol X Free" font-size="64.0" fill="#FFFFFF" transform="matrix(1.00, 0.00, -0.00, -1.00, 563.3, 509.5)"> </text><text xml:space="preserve" font-family="NeuropolXFree,Neuropol X Free" font-size="64.0" fill="#FFFFFF" transform="matrix(1.00, 0.00, -0.00, -1.00, 588.2, 509.5)"> </text><text xml:space="preserve" font-family="NeuropolXFree,Neuropol X Free" font-size="64.0" fill="#FFFFFF" transform="matrix(1.00, 0.00, -0.00, -1.00, 613.1, 509.5)">T</text><text xml:space="preserve" font-family="NeuropolXFree,Neuropol X Free" font-size="64.0" fill="#FFFFFF" transform="matrix(1.00, 0.00, -0.00, -1.00, 654.4, 509.5)">A</text><text xml:space="preserve" font-family="NeuropolXFree,Neuropol X Free" font-size="64.0" fill="#FFFFFF" transform="matrix(1.00, 0.00, -0.00, -1.00, 720.7, 509.5)">R</text><text xml:space="preserve" font-family="NeuropolXFree,Neuropol X Free" font-size="64.0" fill="#FFFFFF" transform="matrix(1.00, 0.00, -0.00, -1.00, 782.3, 509.5)">G</text><text xml:space="preserve" font-family="NeuropolXFree,Neuropol X Free" font-size="64.0" fill="#FFFFFF" transform="matrix(1.00, 0.00, -0.00, -1.00, 846.0, 509.5)">E</text><text xml:space="preserve" font-family="NeuropolXFree,Neuropol X Free" font-size="64.0" fill="#FFFFFF" transform="matrix(1.00, 0.00, -0.00, -1.00, 894.9, 509.5)">T</text></g></g><image xlink:href="../../043A29C3-C307-47E9-B306-2C63CBF71D44/assets/A0C67F58CA9762A82459E83EDE873014.png" width="49.00" height="46.00" transform="matrix(1.00, 0.00, -0.00, -1.00, 67.0, 460.0)"></image><text xml:space="preserve" font-family="NeuropolXFree,Neuropol X Free" font-size="36.0" fill="#FFFFFF" transform="matrix(1.00, 0.00, -0.00, -1.00, 71.0, 428.1)">E</text><image xlink:href="../../043A29C3-C307-47E9-B306-2C63CBF71D44/assets/D2E62E6CF77C0A772BF6BD51085C958A.png" width="45.00" height="40.00" transform="matrix(1.00, 0.00, -0.00, -1.00, 99.0, 454.0)"></image><text xml:space="preserve" font-family="NeuropolXFree,Neuropol X Free" font-size="36.0" fill="#FFFFFF" transform="matrix(1.00, 0.00, -0.00, -1.00, 103.7, 428.1)">s</text><image xlink:href="../../043A29C3-C307-47E9-B306-2C63CBF71D44/assets/F8A4048D0042CFF41F76D6D4413FD3D4.png" width="36.00" height="47.00" transform="matrix(1.00, 0.00, -0.00, -1.00, 126.0, 460.0)"></image><text xml:space="preserve" font-family="NeuropolXFree,Neuropol X Free" font-size="36.0" fill="#FFFFFF" transform="matrix(1.00, 0.00, -0.00, -1.00, 131.6, 428.1)">t</text><image xlink:href="../../043A29C3-C307-47E9-B306-2C63CBF71D44/assets/A49DD1FA5759BA268BD9757AD61C1FAE.png" width="46.00" height="40.00" transform="matrix(1.00, 0.00, -0.00, -1.00, 144.0, 454.0)"></image><text xml:space="preserve" font-family="NeuropolXFree,Neuropol X Free" font-size="36.0" fill="#FFFFFF" transform="matrix(1.00, 0.00, -0.00, -1.00, 147.1, 428.1)">e</text><image xlink:href="../../043A29C3-C307-47E9-B306-2C63CBF71D44/assets/D2E62E6CF77C0A772BF6BD51085C958A.png" width="45.00" height="40.00" transform="matrix(1.00, 0.00, -0.00, -1.00, 175.0, 454.0)"></image><text xml:space="preserve" font-family="NeuropolXFree,Neuropol X Free" font-size="36.0" fill="#FFFFFF" transform="matrix(1.00, 0.00, -0.00, -1.00, 179.6, 428.1)">s</text><image xlink:href="../../043A29C3-C307-47E9-B306-2C63CBF71D44/assets/F4EFECDB1321CC2B481D51882D8C17F0.png" width="26.00" height="45.00" transform="matrix(1.00, 0.00, -0.00, -1.00, 203.0, 458.0)"></image><text xml:space="preserve" font-family="NeuropolXFree,Neuropol X Free" font-size="36.0" fill="#FFFFFF" transform="matrix(1.00, 0.00, -0.00, -1.00, 207.5, 428.1)">i</text><image xlink:href="../../043A29C3-C307-47E9-B306-2C63CBF71D44/assets/F53A688E020D695EE19B7DA75EF3B24A.png" width="44.00" height="40.00" transform="matrix(1.00, 0.00, -0.00, -1.00, 214.0, 454.0)"></image><text xml:space="preserve" font-family="NeuropolXFree,Neuropol X Free" font-size="36.0" fill="#FFFFFF" transform="matrix(1.00, 0.00, -0.00, -1.00, 217.1, 428.1)">c</text><image xlink:href="../../043A29C3-C307-47E9-B306-2C63CBF71D44/assets/B20CA99CDC7910AA959EA0DE7F7933CB.png" width="48.00" height="40.00" transform="matrix(1.00, 0.00, -0.00, -1.00, 241.0, 454.0)"></image><text xml:space="preserve" font-family="NeuropolXFree,Neuropol X Free" font-size="36.0" fill="#FFFFFF" transform="matrix(1.00, 0.00, -0.00, -1.00, 245.9, 428.1)">a</text><image xlink:href="../../043A29C3-C307-47E9-B306-2C63CBF71D44/assets/688EC14270DB9E54A3EDA2815EEA4FCB.png" width="49.00" height="46.00" transform="matrix(1.00, 0.00, -0.00, -1.00, 66.0, 387.0)"></image><text xml:space="preserve" font-family="NeuropolXFree,Neuropol X Free" font-size="36.0" fill="#FFFFFF" transform="matrix(1.00, 0.00, -0.00, -1.00, 71.0, 355.6)">S</text><image xlink:href="../../043A29C3-C307-47E9-B306-2C63CBF71D44/assets/431B10E2395FF97F8387EF59D952BB8F.png" width="46.00" height="40.00" transform="matrix(1.00, 0.00, -0.00, -1.00, 100.0, 381.0)"></image><text xml:space="preserve" font-family="NeuropolXFree,Neuropol X Free" font-size="36.0" fill="#FFFFFF" transform="matrix(1.00, 0.00, -0.00, -1.00, 103.3, 355.6)">e</text><image xlink:href="../../043A29C3-C307-47E9-B306-2C63CBF71D44/assets/5F1D023CCA9B6E33A862A47269F943A4.png" width="57.00" height="40.00" transform="matrix(1.00, 0.00, -0.00, -1.00, 132.0, 381.0)"></image><text xml:space="preserve" font-family="NeuropolXFree,Neuropol X Free" font-size="36.0" fill="#FFFFFF" transform="matrix(1.00, 0.00, -0.00, -1.00, 135.8, 355.6)">m</text><image xlink:href="../../043A29C3-C307-47E9-B306-2C63CBF71D44/assets/8AE3500B00FFD568A4D3BB2F582C14FC.png" width="49.00" height="40.00" transform="matrix(1.00, 0.00, -0.00, -1.00, 173.0, 381.0)"></image><text xml:space="preserve" font-family="NeuropolXFree,Neuropol X Free" font-size="36.0" fill="#FFFFFF" transform="matrix(1.00, 0.00, -0.00, -1.00, 178.3, 355.6)">a</text><image xlink:href="../../043A29C3-C307-47E9-B306-2C63CBF71D44/assets/93E99FC872D04C3AF061CFBFF72DAE6E.png" width="46.00" height="40.00" transform="matrix(1.00, 0.00, -0.00, -1.00, 208.0, 381.0)"></image><text xml:space="preserve" font-family="NeuropolXFree,Neuropol X Free" font-size="36.0" fill="#FFFFFF" transform="matrix(1.00, 0.00, -0.00, -1.00, 211.3, 355.6)">n</text><image xlink:href="../../043A29C3-C307-47E9-B306-2C63CBF71D44/assets/EEA4171DEED1D960AD9981FC1609D672.png" width="36.00" height="46.00" transform="matrix(1.00, 0.00, -0.00, -1.00, 238.0, 387.0)"></image><text xml:space="preserve" font-family="NeuropolXFree,Neuropol X Free" font-size="36.0" fill="#FFFFFF" transform="matrix(1.00, 0.00, -0.00, -1.00, 243.7, 355.6)">t</text><image xlink:href="../../043A29C3-C307-47E9-B306-2C63CBF71D44/assets/3A7AEF62B083E0FB47E3586CD7629E85.png" width="26.00" height="45.00" transform="matrix(1.00, 0.00, -0.00, -1.00, 256.0, 386.0)"></image><text xml:space="preserve" font-family="NeuropolXFree,Neuropol X Free" font-size="36.0" fill="#FFFFFF" transform="matrix(1.00, 0.00, -0.00, -1.00, 260.5, 355.6)">i</text><image xlink:href="../../043A29C3-C307-47E9-B306-2C63CBF71D44/assets/48B8522237A3C7C3C66748A76AB8F213.png" width="44.00" height="40.00" transform="matrix(1.00, 0.00, -0.00, -1.00, 267.0, 381.0)"></image><text xml:space="preserve" font-family="NeuropolXFree,Neuropol X Free" font-size="36.0" fill="#FFFFFF" transform="matrix(1.00, 0.00, -0.00, -1.00, 270.0, 355.6)">c</text><image xlink:href="../../043A29C3-C307-47E9-B306-2C63CBF71D44/assets/42DEEFEFD7EAF12C2FD9EF29EB4E1F2F.png" width="48.00" height="40.00" transform="matrix(1.00, 0.00, -0.00, -1.00, 294.0, 381.0)"></image><text xml:space="preserve" font-family="NeuropolXFree,Neuropol X Free" font-size="36.0" fill="#FFFFFF" transform="matrix(1.00, 0.00, -0.00, -1.00, 298.9, 355.6)">a</text><image xlink:href="../../043A29C3-C307-47E9-B306-2C63CBF71D44/assets/26BA0BFE4BCF6BD49AD9280215D4638E.png" width="52.00" height="46.00" transform="matrix(1.00, 0.00, -0.00, -1.00, 67.0, 318.0)"></image><text xml:space="preserve" font-family="NeuropolXFree,Neuropol X Free" font-size="36.0" fill="#FFFFFF" transform="matrix(1.00, 0.00, -0.00, -1.00, 71.0, 286.6)">D</text><image xlink:href="../../043A29C3-C307-47E9-B306-2C63CBF71D44/assets/68BD75A70EAB18CD061C43D34106A8B9.png" width="25.00" height="45.00" transform="matrix(1.00, 0.00, -0.00, -1.00, 104.0, 317.0)"></image><text xml:space="preserve" font-family="NeuropolXFree,Neuropol X Free" font-size="36.0" fill="#FFFFFF" transform="matrix(1.00, 0.00, -0.00, -1.00, 108.2, 286.6)">i</text><image xlink:href="../../043A29C3-C307-47E9-B306-2C63CBF71D44/assets/B55D5E1E1426A7B2AD4AE3658846EBD6.png" width="47.00" height="46.00" transform="matrix(1.00, 0.00, -0.00, -1.00, 114.0, 318.0)"></image><text xml:space="preserve" font-family="NeuropolXFree,Neuropol X Free" font-size="36.0" fill="#FFFFFF" transform="matrix(1.00, 0.00, -0.00, -1.00, 117.7, 286.6)">d</text><image xlink:href="../../043A29C3-C307-47E9-B306-2C63CBF71D44/assets/ADE10FC7116B5D49C962D85955362C54.png" width="48.00" height="40.00" transform="matrix(1.00, 0.00, -0.00, -1.00, 146.0, 312.0)"></image><text xml:space="preserve" font-family="NeuropolXFree,Neuropol X Free" font-size="36.0" fill="#FFFFFF" transform="matrix(1.00, 0.00, -0.00, -1.00, 150.7, 286.6)">a</text><image xlink:href="../../043A29C3-C307-47E9-B306-2C63CBF71D44/assets/26A714E546BA9A60C1DF125192392DB2.png" width="45.00" height="40.00" transform="matrix(1.00, 0.00, -0.00, -1.00, 179.0, 312.0)"></image><text xml:space="preserve" font-family="NeuropolXFree,Neuropol X Free" font-size="36.0" fill="#FFFFFF" transform="matrix(1.00, 0.00, -0.00, -1.00, 183.8, 286.6)">s</text><image xlink:href="../../043A29C3-C307-47E9-B306-2C63CBF71D44/assets/27FC3AC1F3C9D691D221F7C3A84D2744.png" width="44.00" height="40.00" transform="matrix(1.00, 0.00, -0.00, -1.00, 208.0, 312.0)"></image><text xml:space="preserve" font-family="NeuropolXFree,Neuropol X Free" font-size="36.0" fill="#FFFFFF" transform="matrix(1.00, 0.00, -0.00, -1.00, 211.7, 286.6)">c</text><image xlink:href="../../043A29C3-C307-47E9-B306-2C63CBF71D44/assets/55DB63E32888B7398F94844446914ED5.png" width="48.00" height="40.00" transform="matrix(1.00, 0.00, -0.00, -1.00, 236.0, 312.0)"></image><text xml:space="preserve" font-family="NeuropolXFree,Neuropol X Free" font-size="36.0" fill="#FFFFFF" transform="matrix(1.00, 0.00, -0.00, -1.00, 240.5, 286.6)">a</text><image xlink:href="../../043A29C3-C307-47E9-B306-2C63CBF71D44/assets/DCC75ADE16F1401241390820F2CAB430.png" width="25.00" height="46.00" transform="matrix(1.00, 0.00, -0.00, -1.00, 270.0, 318.0)"></image><text xml:space="preserve" font-family="NeuropolXFree,Neuropol X Free" font-size="36.0" fill="#FFFFFF" transform="matrix(1.00, 0.00, -0.00, -1.00, 273.5, 286.6)">l</text><image xlink:href="../../043A29C3-C307-47E9-B306-2C63CBF71D44/assets/B457F70F6126B3EE48B1602AF8BB0B23.png" width="26.00" height="45.00" transform="matrix(1.00, 0.00, -0.00, -1.00, 279.0, 317.0)"></image><text xml:space="preserve" font-family="NeuropolXFree,Neuropol X Free" font-size="36.0" fill="#FFFFFF" transform="matrix(1.00, 0.00, -0.00, -1.00, 284.1, 286.6)">i</text><image xlink:href="../../043A29C3-C307-47E9-B306-2C63CBF71D44/assets/2C9DD65E07013C889758B2E9EA3CAE55.png" width="44.00" height="40.00" transform="matrix(1.00, 0.00, -0.00, -1.00, 290.0, 312.0)"></image><text xml:space="preserve" font-family="NeuropolXFree,Neuropol X Free" font-size="36.0" fill="#FFFFFF" transform="matrix(1.00, 0.00, -0.00, -1.00, 293.6, 286.6)">c</text><image xlink:href="../../043A29C3-C307-47E9-B306-2C63CBF71D44/assets/6F271410C8FE7301F5E0D3AB2E06C21A.png" width="48.00" height="40.00" transform="matrix(1.00, 0.00, -0.00, -1.00, 318.0, 312.0)"></image><text xml:space="preserve" font-family="NeuropolXFree,Neuropol X Free" font-size="36.0" fill="#FFFFFF" transform="matrix(1.00, 0.00, -0.00, -1.00, 322.5, 286.6)">a</text><image xlink:href="../../043A29C3-C307-47E9-B306-2C63CBF71D44/assets/78044BC8AAD1187A1FBC6E04E8BB5D76.png" width="49.00" height="46.00" transform="matrix(1.00, 0.00, -0.00, -1.00, 67.0, 243.0)"></image><text xml:space="preserve" font-family="NeuropolXFree,Neuropol X Free" font-size="36.0" fill="#FFFFFF" transform="matrix(1.00, 0.00, -0.00, -1.00, 71.0, 211.6)">L</text><image xlink:href="../../043A29C3-C307-47E9-B306-2C63CBF71D44/assets/AB8216EE6E4C3E4BA154D45D81D9FD8F.png" width="47.00" height="41.00" transform="matrix(1.00, 0.00, -0.00, -1.00, 99.0, 238.0)"></image><text xml:space="preserve" font-family="NeuropolXFree,Neuropol X Free" font-size="36.0" fill="#FFFFFF" transform="matrix(1.00, 0.00, -0.00, -1.00, 102.1, 211.6)">u</text><image xlink:href="../../043A29C3-C307-47E9-B306-2C63CBF71D44/assets/339D6203CC7F2642347FE74266B06022.png" width="47.00" height="46.00" transform="matrix(1.00, 0.00, -0.00, -1.00, 132.0, 243.0)"></image><text xml:space="preserve" font-family="NeuropolXFree,Neuropol X Free" font-size="36.0" fill="#FFFFFF" transform="matrix(1.00, 0.00, -0.00, -1.00, 135.2, 211.6)">d</text><image xlink:href="../../043A29C3-C307-47E9-B306-2C63CBF71D44/assets/0C5807D270167BAFCC4827E6A54FE1AD.png" width="25.00" height="45.00" transform="matrix(1.00, 0.00, -0.00, -1.00, 164.0, 242.0)"></image><text xml:space="preserve" font-family="NeuropolXFree,Neuropol X Free" font-size="36.0" fill="#FFFFFF" transform="matrix(1.00, 0.00, -0.00, -1.00, 168.3, 211.6)">i</text><image xlink:href="../../043A29C3-C307-47E9-B306-2C63CBF71D44/assets/1F72E3E7DF560238750BFF56EE74B32E.png" width="44.00" height="40.00" transform="matrix(1.00, 0.00, -0.00, -1.00, 174.0, 237.0)"></image><text xml:space="preserve" font-family="NeuropolXFree,Neuropol X Free" font-size="36.0" fill="#FFFFFF" transform="matrix(1.00, 0.00, -0.00, -1.00, 177.8, 211.6)">c</text><image xlink:href="../../043A29C3-C307-47E9-B306-2C63CBF71D44/assets/E2DBA7D7F7E6C7FF55639FCF45056022.png" width="48.00" height="40.00" transform="matrix(1.00, 0.00, -0.00, -1.00, 202.0, 237.0)"></image><text xml:space="preserve" font-family="NeuropolXFree,Neuropol X Free" font-size="36.0" fill="#FFFFFF" transform="matrix(1.00, 0.00, -0.00, -1.00, 206.6, 211.6)">a</text><image xlink:href="../../043A29C3-C307-47E9-B306-2C63CBF71D44/assets/7B474715E6F8B97228C9A277AB7CD3E8.png" width="52.00" height="47.00" transform="matrix(1.00, 0.00, -0.00, -1.00, 67.0, 172.0)"></image><text xml:space="preserve" font-family="NeuropolXFree,Neuropol X Free" font-size="36.0" fill="#FFFFFF" transform="matrix(1.00, 0.00, -0.00, -1.00, 71.0, 140.1)">P</text><image xlink:href="../../043A29C3-C307-47E9-B306-2C63CBF71D44/assets/1258D0AB4BE2C7619D262CF9EADCF5CB.png" width="33.00" height="41.00" transform="matrix(1.00, 0.00, -0.00, -1.00, 102.0, 166.0)"></image><text xml:space="preserve" font-family="NeuropolXFree,Neuropol X Free" font-size="36.0" fill="#FFFFFF" transform="matrix(1.00, 0.00, -0.00, -1.00, 105.9, 140.1)">r</text><image xlink:href="../../043A29C3-C307-47E9-B306-2C63CBF71D44/assets/CD8210C50728D5F8EB5461E893044734.png" width="48.00" height="40.00" transform="matrix(1.00, 0.00, -0.00, -1.00, 118.0, 166.0)"></image><text xml:space="preserve" font-family="NeuropolXFree,Neuropol X Free" font-size="36.0" fill="#FFFFFF" transform="matrix(1.00, 0.00, -0.00, -1.00, 122.8, 140.1)">a</text><image xlink:href="../../043A29C3-C307-47E9-B306-2C63CBF71D44/assets/B8D6F03C43E024339ECFB59E053D7927.png" width="36.00" height="47.00" transform="matrix(1.00, 0.00, -0.00, -1.00, 150.0, 172.0)"></image><text xml:space="preserve" font-family="NeuropolXFree,Neuropol X Free" font-size="36.0" fill="#FFFFFF" transform="matrix(1.00, 0.00, -0.00, -1.00, 155.9, 140.1)">t</text><image xlink:href="../../043A29C3-C307-47E9-B306-2C63CBF71D44/assets/355B7F30D39AEDECD31105EC07CCFAC3.png" width="26.00" height="45.00" transform="matrix(1.00, 0.00, -0.00, -1.00, 168.0, 170.0)"></image><text xml:space="preserve" font-family="NeuropolXFree,Neuropol X Free" font-size="36.0" fill="#FFFFFF" transform="matrix(1.00, 0.00, -0.00, -1.00, 172.7, 140.1)">i</text><image xlink:href="../../043A29C3-C307-47E9-B306-2C63CBF71D44/assets/629B5BCB3DB3E1909AC09EFAFB3D4E67.png" width="44.00" height="40.00" transform="matrix(1.00, 0.00, -0.00, -1.00, 179.0, 166.0)"></image><text xml:space="preserve" font-family="NeuropolXFree,Neuropol X Free" font-size="36.0" fill="#FFFFFF" transform="matrix(1.00, 0.00, -0.00, -1.00, 182.2, 140.1)">c</text><image xlink:href="../../043A29C3-C307-47E9-B306-2C63CBF71D44/assets/80004768AE4A422B31A8A336DC658238.png" width="48.00" height="40.00" transform="matrix(1.00, 0.00, -0.00, -1.00, 206.0, 166.0)"></image><text xml:space="preserve" font-family="NeuropolXFree,Neuropol X Free" font-size="36.0" fill="#FFFFFF" transform="matrix(1.00, 0.00, -0.00, -1.00, 211.0, 140.1)">a</text><image xlink:href="../../FA1881E0-DE93-4EBB-9222-E945B123BA90/assets/59769E4B828B616BAB7653FBDD116BC4.png" width="500.00" height="167.00" transform="matrix(0.50, 0.00, -0.00, -0.50, 283.5, 695.0)"></image><image xlink:href="../../043A29C3-C307-47E9-B306-2C63CBF71D44/assets/47CB25178EFB62D43F5FC86644313A12.jpeg" width="1024.00" height="768.00" transform="matrix(0.45, 0.00, -0.00, -0.45, 460.7, 469.0)"></image><text xml:space="preserve" font-family="NeuropolXFree,Neuropol X Free" font-size="36.0" fill="#FFF3F2" transform="matrix(1.00, 0.00, -0.00, -1.00, 498.0, 147.6)">A</text><text xml:space="preserve" font-family="NeuropolXFree,Neuropol X Free" font-size="36.0" fill="#FFF3F2" transform="matrix(1.00, 0.00, -0.00, -1.00, 535.3, 147.6)">m</text><text xml:space="preserve" font-family="NeuropolXFree,Neuropol X Free" font-size="36.0" fill="#FFF3F2" transform="matrix(1.00, 0.00, -0.00, -1.00, 577.8, 147.6)">a</text><text xml:space="preserve" font-family="NeuropolXFree,Neuropol X Free" font-size="36.0" fill="#FFF3F2" transform="matrix(1.00, 0.00, -0.00, -1.00, 610.8, 147.6)">r</text><text xml:space="preserve" font-family="NeuropolXFree,Neuropol X Free" font-size="36.0" fill="#FFF3F2" transform="matrix(1.00, 0.00, -0.00, -1.00, 641.7, 147.6)">K</text><text xml:space="preserve" font-family="NeuropolXFree,Neuropol X Free" font-size="36.0" fill="#FFF3F2" transform="matrix(1.00, 0.00, -0.00, -1.00, 673.7, 147.6)">a</text><text xml:space="preserve" font-family="NeuropolXFree,Neuropol X Free" font-size="36.0" fill="#FFF3F2" transform="matrix(1.00, 0.00, -0.00, -1.00, 706.7, 147.6)">n</text><text xml:space="preserve" font-family="NeuropolXFree,Neuropol X Free" font-size="36.0" fill="#FFF3F2" transform="matrix(1.00, 0.00, -0.00, -1.00, 739.2, 147.6)">w</text><text xml:space="preserve" font-family="NeuropolXFree,Neuropol X Free" font-size="36.0" fill="#FFF3F2" transform="matrix(1.00, 0.00, -0.00, -1.00, 779.5, 147.6)">a</text><text xml:space="preserve" font-family="NeuropolXFree,Neuropol X Free" font-size="36.0" fill="#FFF3F2" transform="matrix(1.00, 0.00, -0.00, -1.00, 812.5, 147.6)">r</text></g></svg>