<?xml version="1.0" encoding="UTF-8" standalone="no"?><svg xmlns="http://www.w3.org/2000/svg" xmlns:xlink="http://www.w3.org/1999/xlink" clip-rule="evenodd" stroke-miterlimit="10" viewBox="0 0 357 43"><desc>SVG generated by Keynote</desc><defs></defs><g transform="matrix(1.00, 0.00, -0.00, -1.00, 0.0, 43.0)"><path d="M 47.1 19.0 C 46.7 19.3 45.6 18.9 45.3 19.1 M 47.1 19.0 C 46.0 17.3 44.1 17.2 41.4 16.9 C 38.6 16.9 41.5 18.5 41.2 19.2 C 37.4 19.8 37.4 18.6 38.0 16.8 C 36.5 18.1 32.2 15.9 33.1 18.2 C 39.2 18.1 28.9 18.7 34.0 20.0 C 34.5 20.3 33.1 20.9 32.5 20.9 C 34.2 21.8 31.3 22.9 34.0 23.6 C 34.4 25.0 33.9 24.4 35.6 25.5 C 36.3 25.6 36.0 25.1 36.0 24.8 C 36.2 23.2 38.0 25.7 39.4 24.7 C 40.7 26.8 42.0 24.3 40.9 23.4 C 42.2 23.6 43.7 25.9 45.0 24.3 C 45.7 25.4 49.1 24.7 47.1 23.3 C 45.6 22.5 47.2 21.8 47.4 21.3 C 46.9 20.9 44.8 21.6 44.5 21.1 C 45.2 20.8 47.8 20.0 45.0 20.1 C 45.9 19.3 44.5 18.9 47.1 19.0 C 47.1 19.0 47.1 19.0 47.1 19.0 Z M 36.9 17.8 C 36.9 17.2 37.9 17.8 36.9 17.8 C 36.9 17.8 36.9 17.8 36.9 17.8 Z M 43.9 25.4 C 43.9 24.8 44.8 25.4 43.9 25.4 C 43.9 25.4 43.9 25.4 43.9 25.4 Z M 36.4 24.8 C 36.4 24.3 37.4 24.8 36.4 24.8 C 36.4 24.8 36.4 24.8 36.4 24.8 Z M 39.6 18.2 C 41.2 18.6 38.2 19.0 38.0 18.4 C 38.3 18.5 39.2 17.7 39.6 18.2 C 39.6 18.2 39.6 18.2 39.6 18.2 Z M 39.8 21.5 C 39.9 21.3 40.6 21.2 40.5 21.8 C 40.1 21.9 39.7 21.7 39.8 21.5 C 39.8 21.5 39.8 21.5 39.8 21.5 Z M 31.9 19.1 C 32.0 18.9 32.6 18.9 32.6 19.4 C 32.2 19.6 31.7 19.3 31.9 19.1 C 31.9 19.1 31.9 19.1 31.9 19.1 Z M 41.4 19.7 C 41.8 19.8 42.0 20.3 41.5 20.4 C 41.2 20.1 40.1 20.0 41.4 19.7 C 41.4 19.7 41.4 19.7 41.4 19.7 Z M 43.9 17.8 C 45.2 18.0 42.5 18.9 42.6 18.6 C 42.1 18.2 43.2 17.3 43.9 17.8 C 43.9 17.8 43.9 17.8 43.9 17.8 Z M 42.2 20.4 C 43.3 20.7 41.7 20.9 42.2 20.4 C 42.2 20.4 42.2 20.4 42.2 20.4 Z M 33.0 23.4 C 34.1 23.6 32.5 23.8 33.0 23.4 C 33.0 23.4 33.0 23.4 33.0 23.4 Z M 38.8 25.1 C 39.9 25.4 38.4 25.5 38.8 25.1 C 38.8 25.1 38.8 25.1 38.8 25.1 Z M 36.6 19.3 C 34.7 19.3 36.4 17.9 36.6 19.3 C 36.6 19.3 36.6 19.3 36.6 19.3 Z M 47.0 17.6 C 45.1 17.6 46.7 16.2 47.0 17.6 C 47.0 17.6 47.0 17.6 47.0 17.6 Z M 348.0 17.2 C 349.8 16.9 342.8 15.0 345.5 17.2 C 346.2 19.1 341.6 19.0 342.8 17.2 C 341.4 17.0 341.4 16.9 340.6 17.8 C 340.4 16.4 337.1 15.8 335.9 16.5 C 335.3 17.6 338.1 16.6 336.3 17.9 C 332.2 18.2 336.6 19.1 335.0 20.7 C 334.8 20.7 334.8 19.9 334.4 20.4 C 334.3 21.8 336.6 22.8 335.5 23.8 C 336.2 23.6 339.1 25.2 337.9 23.9 C 337.4 22.6 341.1 25.5 340.8 23.3 C 341.8 24.3 342.8 22.9 343.7 24.2 C 344.5 24.4 344.5 23.3 344.4 23.0 C 344.3 21.9 345.2 25.3 346.4 23.5 C 346.5 24.0 349.8 23.8 347.3 23.0 C 348.0 23.1 351.8 23.6 349.8 21.6 C 347.2 20.7 352.5 19.6 349.4 19.5 C 347.1 19.3 346.6 19.7 348.4 18.6 C 348.9 18.7 351.6 18.5 349.3 17.7 C 348.8 17.9 347.7 17.7 348.0 17.2 C 348.0 17.2 348.0 17.2 348.0 17.2 Z M 348.5 20.1 C 347.1 20.2 348.4 19.3 348.5 20.1 C 348.5 20.1 348.5 20.1 348.5 20.1 Z M 343.5 24.6 C 342.2 24.7 343.4 23.9 343.5 24.6 C 343.5 24.6 343.5 24.6 343.5 24.6 Z M 343.7 16.7 C 343.0 17.3 342.8 15.2 343.7 16.7 C 343.7 16.7 343.7 16.7 343.7 16.7 Z M 345.8 23.0 C 345.7 23.0 346.1 22.7 346.3 22.6 C 346.3 22.7 345.9 22.9 345.8 23.0 C 345.8 23.0 345.8 23.0 345.8 23.0 Z M 341.4 16.7 C 339.4 17.7 341.0 15.1 341.4 16.7 C 341.4 16.7 341.4 16.7 341.4 16.7 Z M 337.3 18.7 C 337.0 20.7 335.2 18.3 337.3 18.7 C 337.3 18.7 337.3 18.7 337.3 18.7 Z M 340.2 23.2 C 340.5 22.7 340.5 23.4 340.2 23.2 C 340.2 23.2 340.2 23.2 340.2 23.2 Z M 349.1 23.5 C 349.4 23.0 349.4 23.7 349.1 23.5 C 349.1 23.5 349.1 23.5 349.1 23.5 Z M 337.6 23.0 C 337.8 22.3 338.4 23.4 337.6 23.0 C 337.6 23.0 337.6 23.0 337.6 23.0 Z M 343.3 17.5 C 345.2 15.9 345.6 19.9 343.3 17.5 C 343.3 17.5 343.3 17.5 343.3 17.5 Z M 346.7 17.3 C 348.0 17.0 346.5 18.4 345.9 18.1 C 345.9 18.0 346.5 17.4 346.7 17.3 C 346.7 17.3 346.7 17.3 346.7 17.3 Z M 341.4 17.7 C 342.6 16.9 342.6 18.2 341.4 17.7 C 341.4 17.7 341.4 17.7 341.4 17.7 Z M 344.6 16.8 C 345.2 17.0 344.1 17.0 344.6 16.8 C 344.6 16.8 344.6 16.8 344.6 16.8 Z M 338.8 16.0 C 339.5 16.2 338.3 16.2 338.8 16.0 C 338.8 16.0 338.8 16.0 338.8 16.0 Z M 348.3 16.5 C 348.9 16.7 347.7 16.7 348.3 16.5 C 348.3 16.5 348.3 16.5 348.3 16.5 Z M 339.4 17.1 C 339.2 17.8 341.0 19.4 337.7 18.1 C 337.2 17.6 338.5 16.5 339.4 17.1 C 339.4 17.1 339.4 17.1 339.4 17.1 Z M 52.6 19.0 C 44.7 16.8 46.6 20.8 46.2 21.5 C 45.2 22.6 46.2 23.3 47.8 24.1 C 49.4 26.6 50.3 21.4 51.4 24.0 C 53.6 27.4 53.8 21.0 54.7 24.6 C 54.4 25.5 57.5 24.8 57.2 24.5 C 58.7 26.2 60.9 23.2 60.9 22.9 C 62.0 23.3 62.1 26.5 65.2 24.1 C 67.7 23.3 68.8 26.4 68.1 24.2 C 69.9 26.7 69.3 23.5 71.1 24.3 C 72.4 25.7 71.1 22.3 73.4 24.9 C 74.4 22.8 72.4 26.2 78.4 24.7 C 75.5 24.6 81.2 23.1 80.1 24.5 C 78.0 26.0 82.9 23.9 85.7 24.8 C 86.4 24.0 89.7 22.1 89.2 24.2 C 92.0 26.6 92.1 22.7 93.3 24.7 C 94.2 25.5 94.6 23.7 95.2 23.9 C 96.2 25.3 97.2 24.4 100.7 24.8 C 108.4 25.5 101.8 21.0 104.8 20.5 C 105.3 19.8 101.0 15.0 102.7 18.6 C 102.1 17.6 95.8 21.4 98.9 17.4 C 96.5 19.0 99.5 15.8 94.6 17.7 C 101.3 20.4 87.1 18.8 93.4 17.4 C 92.4 16.6 89.8 16.8 91.6 17.5 C 92.4 20.0 87.1 16.3 89.7 19.4 C 85.7 18.6 86.7 21.3 85.6 19.4 C 84.6 16.1 85.8 20.3 83.7 19.3 C 78.9 19.3 82.6 15.5 79.7 18.0 C 75.0 16.3 78.7 19.4 77.1 19.9 C 76.6 22.2 72.3 18.1 75.8 17.8 C 74.0 19.0 75.5 16.7 73.4 18.2 C 74.9 20.3 70.6 15.9 71.2 17.6 C 69.3 18.2 70.3 19.4 69.7 19.5 C 66.8 19.5 67.7 17.4 67.1 19.0 C 66.5 19.8 65.1 17.1 64.7 17.8 C 67.7 17.9 62.3 20.0 62.0 18.9 C 63.8 18.7 61.1 16.1 59.9 17.8 C 61.4 22.4 57.4 16.6 56.0 18.2 C 57.3 20.8 49.6 18.6 52.5 17.4 C 52.3 17.6 52.6 19.1 52.6 19.0 M 63.9 18.2 C 66.3 18.4 61.3 18.7 63.9 18.2 M 63.8 17.5 C 64.8 18.3 61.5 16.8 63.9 17.2 C 63.9 17.2 63.6 17.4 63.8 17.5 M 73.8 17.3 C 73.5 18.1 72.5 16.9 73.8 17.3 M 75.8 19.0 C 77.4 19.6 73.6 19.1 75.8 19.0 M 97.9 18.4 C 95.7 22.2 95.6 16.2 97.9 18.4 M 83.3 17.6 C 80.6 18.1 84.2 16.0 83.3 17.6 M 82.5 18.6 C 81.2 19.2 82.2 17.7 82.5 18.6 M 93.7 18.4 C 93.9 18.5 93.9 18.5 93.7 18.4 C 93.7 18.4 93.7 18.4 93.7 18.4 Z M 100.3 18.5 C 100.3 18.4 100.3 18.4 100.3 18.5 C 100.3 18.5 100.3 18.5 100.3 18.5 Z M 87.3 18.8 C 85.3 17.9 90.7 18.4 87.3 18.8 C 87.3 18.8 87.3 18.8 87.3 18.8 Z M 97.2 24.3 C 97.1 24.4 97.1 24.4 97.2 24.3 C 97.2 24.3 97.2 24.3 97.2 24.3 Z M 62.0 19.9 C 61.9 20.0 61.9 20.0 62.0 19.9 C 62.0 19.9 62.0 19.9 62.0 19.9 Z M 54.5 18.5 C 54.6 19.0 53.1 18.1 54.5 18.5 C 54.5 18.5 54.5 18.5 54.5 18.5 Z M 48.4 22.9 C 48.4 23.0 48.4 23.0 48.4 22.9 C 48.4 22.9 48.4 22.9 48.4 22.9 Z M 59.5 22.0 C 59.4 22.0 59.4 22.0 59.5 22.0 C 59.5 22.0 59.5 22.0 59.5 22.0 Z M 60.5 19.1 C 59.3 17.0 63.4 19.6 60.5 19.1 C 60.5 19.1 60.5 19.1 60.5 19.1 Z M 84.8 24.1 C 84.9 23.2 86.6 24.5 84.8 24.1 C 84.8 24.1 84.8 24.1 84.8 24.1 Z M 76.0 19.8 C 76.4 19.3 77.1 20.0 76.0 19.8 C 76.0 19.8 76.0 19.8 76.0 19.8 Z M 71.9 16.9 C 72.2 16.5 73.0 17.2 71.9 16.9 C 71.9 16.9 71.9 16.9 71.9 16.9 Z M 54.6 17.9 C 54.8 17.8 54.8 17.8 54.6 17.9 C 54.6 17.9 54.6 17.9 54.6 17.9 Z M 57.3 19.5 C 55.4 17.5 60.2 20.6 57.3 19.5 C 57.3 19.5 57.3 19.5 57.3 19.5 Z M 54.1 20.1 C 55.1 20.8 51.7 19.7 54.1 20.1 M 55.9 23.1 C 58.2 22.3 53.9 26.7 55.9 23.1 C 55.9 23.1 55.9 23.1 55.9 23.1 Z M 67.5 23.9 C 67.6 24.0 67.6 24.0 67.5 23.9 C 67.5 23.9 67.5 23.9 67.5 23.9 Z M 66.3 18.1 C 68.3 18.1 65.0 18.6 66.3 18.1 C 66.3 18.1 66.3 18.1 66.3 18.1 Z M 48.9 17.7 C 50.9 17.8 47.6 18.2 48.9 17.7 C 48.9 17.7 48.9 17.7 48.9 17.7 Z M 74.2 21.9 C 77.5 21.6 72.2 23.0 74.2 21.9 C 74.2 21.9 74.2 21.9 74.2 21.9 Z M 86.2 19.6 C 86.3 19.6 86.3 19.6 86.2 19.6 C 86.2 19.6 86.2 19.6 86.2 19.6 Z M 88.4 18.7 C 88.5 18.8 88.5 18.8 88.4 18.7 C 88.4 18.7 88.4 18.7 88.4 18.7 Z M 97.8 20.8 C 97.9 20.8 97.9 20.8 97.8 20.8 C 97.8 20.8 97.8 20.8 97.8 20.8 Z M 90.5 17.8 C 90.5 17.8 90.5 17.8 90.5 17.8 C 90.5 17.8 90.5 17.8 90.5 17.8 Z M 96.9 18.3 C 97.0 18.4 97.0 18.4 96.9 18.3 C 96.9 18.3 96.9 18.3 96.9 18.3 Z M 96.0 16.6 C 96.1 16.6 96.1 16.6 96.0 16.6 C 96.0 16.6 96.0 16.6 96.0 16.6 Z M 81.7 25.3 C 81.8 25.4 81.8 25.4 81.7 25.3 C 81.7 25.3 81.7 25.3 81.7 25.3 Z M 58.1 17.2 C 58.3 17.4 58.3 17.4 58.1 17.2 C 58.1 17.2 58.1 17.2 58.1 17.2 Z M 96.4 19.1 C 96.5 19.1 96.5 19.1 96.4 19.1 C 96.4 19.1 96.4 19.1 96.4 19.1 Z M 80.6 20.7 C 80.7 22.4 79.3 18.5 81.0 20.6 C 81.0 20.7 80.5 20.4 80.6 20.7 M 82.8 23.5 C 82.7 23.5 82.7 23.5 82.8 23.5 C 82.8 23.5 82.8 23.5 82.8 23.5 Z M 75.6 24.6 C 75.5 24.6 75.5 24.6 75.6 24.6 C 75.6 24.6 75.6 24.6 75.6 24.6 Z M 89.3 17.5 C 89.0 16.5 91.1 18.2 89.1 17.5 M 97.8 23.7 C 97.5 22.8 99.6 24.5 97.6 23.8 M 46.6 18.3 C 46.3 19.1 45.3 17.9 46.6 18.3 M 74.0 25.5 C 73.8 26.2 72.7 25.0 74.0 25.5 M 77.4 23.3 C 77.1 22.3 79.1 24.0 77.1 23.3 M 92.9 23.7 C 93.0 23.7 93.0 23.7 92.9 23.7 C 92.9 23.7 92.9 23.7 92.9 23.7 Z M 69.3 18.3 C 69.4 18.3 69.4 18.3 69.3 18.3 C 69.3 18.3 69.3 18.3 69.3 18.3 Z M 78.0 20.2 C 76.8 18.9 79.6 21.1 78.0 20.2 M 66.8 20.5 C 65.0 18.9 69.5 21.0 66.8 20.5 M 101.5 24.1 C 99.6 22.2 103.0 25.2 101.5 24.1 M 91.9 19.3 C 90.0 17.3 93.4 20.3 91.9 19.3 M 71.1 19.1 C 70.9 18.1 73.0 19.7 71.1 19.1 M 51.1 18.2 C 49.3 18.0 53.6 17.4 51.1 18.2 M 88.2 23.8 C 88.3 23.8 88.3 23.8 88.2 23.8 C 88.2 23.8 88.2 23.8 88.2 23.8 Z M 57.2 25.6 C 57.3 25.6 57.3 25.6 57.2 25.6 C 57.2 25.6 57.2 25.6 57.2 25.6 Z M 104.0 17.7 C 104.1 17.8 104.1 17.8 104.0 17.7 C 104.0 17.7 104.0 17.7 104.0 17.7 Z M 90.8 20.2 C 90.8 20.3 90.8 20.3 90.8 20.2 C 90.8 20.2 90.8 20.2 90.8 20.2 Z M 100.3 17.5 C 100.4 17.6 100.4 17.6 100.3 17.5 C 100.3 17.5 100.3 17.5 100.3 17.5 Z M 84.7 21.7 C 84.8 21.8 84.8 21.8 84.7 21.7 C 84.7 21.7 84.7 21.7 84.7 21.7 Z M 83.5 16.8 C 83.5 16.8 83.5 16.8 83.5 16.8 C 83.5 16.8 83.5 16.8 83.5 16.8 Z M 76.9 18.9 C 76.9 18.9 76.9 18.9 76.9 18.9 C 76.9 18.9 76.9 18.9 76.9 18.9 Z M 86.5 17.1 C 90.5 16.8 84.5 18.8 86.5 17.1 C 86.5 17.1 86.5 17.1 86.5 17.1 Z M 79.7 22.1 C 79.7 22.2 79.7 22.2 79.7 22.1 C 79.7 22.1 79.7 22.1 79.7 22.1 Z M 79.1 18.6 C 81.6 17.2 80.5 21.0 79.1 18.6 M 68.1 17.5 C 68.9 16.7 68.5 18.6 68.1 17.5 M 63.8 24.0 C 63.8 24.1 63.8 24.1 63.8 24.0 C 63.8 24.0 63.8 24.0 63.8 24.0 Z M 64.9 23.5 C 65.1 23.5 65.1 23.5 64.9 23.5 C 64.9 23.5 64.9 23.5 64.9 23.5 Z M 65.5 17.2 C 65.5 17.2 65.5 17.2 65.5 17.2 C 65.5 17.2 65.5 17.2 65.5 17.2 Z M 65.1 25.3 C 65.2 25.4 65.2 25.4 65.1 25.3 C 65.1 25.3 65.1 25.3 65.1 25.3 Z M 82.0 16.9 C 82.1 16.9 82.1 16.9 82.0 16.9 C 82.0 16.9 82.0 16.9 82.0 16.9 Z M 102.2 16.8 C 102.3 16.8 102.3 16.8 102.2 16.8 C 102.2 16.8 102.2 16.8 102.2 16.8 Z M 51.7 23.3 C 51.8 23.4 51.8 23.4 51.7 23.3 C 51.7 23.3 51.7 23.3 51.7 23.3 Z M 84.1 18.8 C 84.2 18.9 84.2 18.9 84.1 18.8 C 84.1 18.8 84.1 18.8 84.1 18.8 Z M 60.9 23.7 C 61.0 23.8 61.0 23.8 60.9 23.7 C 60.9 23.7 60.9 23.7 60.9 23.7 Z M 82.8 18.4 C 82.8 18.5 82.8 18.5 82.8 18.4 C 82.8 18.4 82.8 18.4 82.8 18.4 Z M 87.6 24.2 C 87.6 24.2 87.6 24.2 87.6 24.2 C 87.6 24.2 87.6 24.2 87.6 24.2 Z M 91.9 25.3 C 92.0 25.3 92.0 25.3 91.9 25.3 C 91.9 25.3 91.9 25.3 91.9 25.3 Z M 87.3 20.7 C 87.3 20.8 87.3 20.8 87.3 20.7 C 87.3 20.7 87.3 20.7 87.3 20.7 Z M 59.5 21.6 C 51.5 19.9 65.8 20.8 59.5 21.6 M 88.6 21.1 C 83.0 20.8 93.0 19.2 88.6 21.1 C 89.2 20.6 88.7 21.1 88.6 21.1 M 106.0 16.9 C 103.7 18.7 103.7 20.5 104.7 22.4 C 105.8 23.3 105.8 19.7 105.8 22.7 C 103.2 23.3 107.0 27.4 106.9 23.4 C 110.3 22.8 107.5 25.9 109.5 24.3 C 113.2 23.9 111.3 25.2 114.1 24.9 C 115.8 22.7 115.8 25.9 116.5 23.9 C 115.1 26.1 119.5 23.2 119.6 24.3 C 117.0 25.6 129.4 24.2 122.7 23.6 C 125.4 22.6 124.9 24.4 125.8 24.7 C 127.0 23.4 130.4 25.7 132.0 24.4 C 131.7 24.1 130.9 24.0 130.6 23.6 C 130.1 22.7 132.5 23.8 132.3 23.7 C 133.4 23.2 137.8 21.8 133.1 24.2 C 132.9 25.3 136.9 23.7 136.8 24.7 C 140.9 24.7 137.8 22.5 139.6 24.1 C 142.6 24.2 144.7 24.2 144.7 23.9 C 146.4 24.1 146.8 25.4 148.4 24.2 C 152.0 26.5 150.9 19.6 152.3 24.2 C 153.3 23.1 154.3 26.2 154.2 23.3 C 152.9 24.6 160.3 25.5 157.1 23.4 C 157.9 22.8 162.6 26.4 161.9 23.5 C 163.5 21.3 163.2 19.2 159.6 17.2 C 160.0 18.9 155.8 15.5 158.5 18.3 C 161.6 19.3 152.9 19.4 154.7 18.3 C 155.2 14.9 150.5 20.5 148.6 18.0 C 150.1 19.4 143.0 20.1 145.1 17.5 C 143.7 17.3 143.4 18.5 142.0 17.1 C 146.3 17.3 140.4 19.7 140.6 18.2 C 141.3 17.2 135.0 16.5 135.6 17.9 C 137.9 21.4 134.0 17.2 132.9 18.6 C 129.4 19.3 133.4 15.6 130.8 18.2 C 130.1 17.7 125.4 17.7 128.4 17.0 C 129.5 17.3 125.6 20.8 125.1 17.9 C 130.1 16.2 119.4 16.9 121.1 17.9 C 128.8 19.5 112.9 19.7 118.9 18.1 C 115.5 16.5 120.0 17.5 115.7 18.2 C 116.3 19.1 113.0 20.0 113.8 18.1 C 113.1 15.3 112.6 21.9 110.0 18.1 C 109.6 16.4 104.8 19.3 106.7 17.4 C 106.8 17.2 106.1 16.9 106.0 16.9 M 107.5 17.2 C 106.9 17.9 106.6 16.5 107.5 17.2 M 106.9 17.9 C 106.8 17.8 106.8 17.8 106.9 17.9 C 106.9 17.9 106.9 17.9 106.9 17.9 Z M 115.1 18.3 C 115.0 18.2 115.0 18.2 115.1 18.3 C 115.1 18.3 115.1 18.3 115.1 18.3 Z M 121.6 25.4 C 121.5 25.3 121.5 25.3 121.6 25.4 C 121.6 25.4 121.6 25.4 121.6 25.4 Z M 120.6 18.4 C 120.5 18.4 120.5 18.4 120.6 18.4 C 120.6 18.4 120.6 18.4 120.6 18.4 Z M 112.2 18.7 C 112.1 18.7 112.1 18.7 112.2 18.7 C 112.2 18.7 112.2 18.7 112.2 18.7 Z M 120.0 17.4 C 120.5 18.4 118.1 16.6 120.1 17.2 C 120.2 17.3 119.8 17.3 120.0 17.4 M 127.2 16.9 C 127.2 17.1 127.2 17.1 127.2 16.9 M 142.9 25.2 C 143.0 25.4 143.0 25.4 142.9 25.2 M 144.2 16.8 C 144.4 16.9 144.4 16.9 144.2 16.8 M 134.3 18.0 C 136.5 17.9 134.8 18.5 134.3 18.0 M 150.0 17.4 C 147.2 16.7 152.9 16.8 150.0 17.4 M 152.6 16.7 C 152.9 16.8 152.9 16.8 152.6 16.7 M 140.3 17.2 C 140.2 17.3 140.2 17.3 140.3 17.2 C 140.3 17.2 140.3 17.2 140.3 17.2 Z M 133.4 17.6 C 130.5 17.0 136.3 16.6 133.4 17.6 M 116.0 17.2 C 117.6 16.7 116.0 18.6 116.0 17.2 M 112.8 17.9 C 112.8 17.9 112.8 17.9 112.8 17.9 C 112.8 17.9 112.8 17.9 112.8 17.9 Z M 145.6 17.3 C 145.5 17.4 145.5 17.4 145.6 17.3 C 145.6 17.3 145.6 17.3 145.6 17.3 Z M 148.7 17.1 C 148.6 17.2 148.6 17.2 148.7 17.1 C 148.7 17.1 148.7 17.1 148.7 17.1 Z M 154.0 24.9 C 153.9 25.0 153.9 25.0 154.0 24.9 C 154.0 24.9 154.0 24.9 154.0 24.9 Z M 115.2 21.1 C 113.1 20.6 117.4 18.5 117.0 20.4 C 117.2 21.2 115.5 20.9 115.2 21.1 M 131.3 19.9 C 131.8 22.6 129.2 16.3 131.3 19.9 M 153.0 18.5 C 155.2 21.7 150.3 16.3 153.0 18.5 M 157.3 17.9 C 158.6 18.6 149.3 18.3 155.8 17.5 C 156.4 16.9 156.9 17.6 157.3 17.9 M 127.3 18.2 C 127.9 19.7 123.9 17.6 127.3 18.2 M 140.4 22.6 C 141.5 21.7 144.2 20.8 143.0 22.4 C 143.0 24.5 139.2 23.4 140.4 22.6 M 108.2 18.7 C 109.9 16.4 108.1 20.7 108.2 18.7 M 116.5 18.9 C 116.5 18.8 116.5 18.8 116.5 18.9 C 116.5 18.9 116.5 18.9 116.5 18.9 Z M 119.7 18.5 C 119.9 18.7 119.9 18.7 119.7 18.5 M 109.5 16.7 C 109.6 16.9 109.6 16.9 109.5 16.7 M 140.4 20.2 C 140.5 20.3 140.5 20.3 140.4 20.2 M 133.7 18.6 C 136.8 20.9 131.9 19.1 133.7 18.6 M 125.9 23.1 C 126.8 24.2 123.8 23.2 125.9 23.1 M 138.9 17.7 C 141.2 19.9 135.8 19.8 138.9 17.7 M 132.1 18.4 C 132.2 18.4 132.2 18.4 132.1 18.4 C 132.1 18.4 132.1 18.4 132.1 18.4 Z M 141.3 22.8 C 141.2 22.9 141.2 22.9 141.3 22.8 C 141.3 22.8 141.3 22.8 141.3 22.8 Z M 142.2 22.7 C 142.1 22.8 142.1 22.8 142.2 22.7 C 142.2 22.7 142.2 22.7 142.2 22.7 Z M 141.7 17.4 C 141.6 17.5 141.6 17.5 141.7 17.4 C 141.7 17.4 141.7 17.4 141.7 17.4 Z M 112.6 24.0 C 114.9 24.1 110.8 24.3 112.6 24.0 C 112.6 24.0 112.6 24.0 112.6 24.0 Z M 122.6 17.4 C 126.4 19.1 120.0 19.1 122.6 17.4 C 122.6 17.4 122.6 17.4 122.6 17.4 Z M 126.9 20.3 C 126.9 20.4 126.9 20.4 126.9 20.3 C 126.9 20.3 126.9 20.3 126.9 20.3 Z M 137.5 16.3 C 137.5 16.5 137.5 16.5 137.5 16.3 C 137.5 16.3 137.5 16.3 137.5 16.3 Z M 113.8 24.2 C 113.8 24.4 113.8 24.4 113.8 24.2 C 113.8 24.2 113.8 24.2 113.8 24.2 Z M 148.1 18.6 C 148.1 18.7 148.1 18.7 148.1 18.6 C 148.1 18.6 148.1 18.6 148.1 18.6 Z M 135.1 23.2 C 136.0 22.4 135.3 23.9 135.1 23.2 C 135.1 23.2 135.1 23.2 135.1 23.2 Z M 138.5 23.2 C 138.6 23.2 138.6 23.2 138.5 23.2 C 138.5 23.2 138.5 23.2 138.5 23.2 Z M 153.5 16.6 C 153.6 16.6 153.6 16.6 153.5 16.6 C 153.5 16.6 153.5 16.6 153.5 16.6 Z M 147.2 25.3 C 147.3 25.3 147.3 25.3 147.2 25.3 C 147.2 25.3 147.2 25.3 147.2 25.3 Z M 150.0 22.7 C 149.9 22.7 149.9 22.7 150.0 22.7 C 150.0 22.7 150.0 22.7 150.0 22.7 Z M 141.1 18.0 C 144.5 17.6 140.3 19.0 141.1 18.0 C 141.1 18.0 141.1 18.0 141.1 18.0 Z M 158.4 21.9 C 158.5 22.1 158.5 22.1 158.4 21.9 C 158.4 21.9 158.4 21.9 158.4 21.9 Z M 160.1 18.9 C 160.2 19.0 160.2 19.0 160.1 18.9 C 160.1 18.9 160.1 18.9 160.1 18.9 Z M 160.9 17.3 C 161.0 17.4 161.0 17.4 160.9 17.3 C 160.9 17.3 160.9 17.3 160.9 17.3 Z M 119.7 21.8 C 119.6 21.7 119.6 21.7 119.7 21.8 C 119.7 21.8 119.7 21.8 119.7 21.8 Z M 118.3 16.9 C 118.3 16.8 118.3 16.8 118.3 16.9 C 118.3 16.9 118.3 16.9 118.3 16.9 Z M 122.9 16.6 C 122.9 16.6 122.9 16.6 122.9 16.6 C 122.9 16.6 122.9 16.6 122.9 16.6 Z M 118.9 24.8 C 118.8 24.7 118.8 24.7 118.9 24.8 C 118.9 24.8 118.9 24.8 118.9 24.8 Z M 136.1 20.5 C 136.0 20.4 136.0 20.4 136.1 20.5 C 136.1 20.5 136.1 20.5 136.1 20.5 Z M 137.7 22.5 C 137.6 22.4 137.6 22.4 137.7 22.5 C 137.7 22.5 137.7 22.5 137.7 22.5 Z M 133.7 25.2 C 133.7 25.1 133.7 25.1 133.7 25.2 C 133.7 25.2 133.7 25.2 133.7 25.2 Z M 138.9 24.2 C 138.9 24.2 138.9 24.2 138.9 24.2 C 138.9 24.2 138.9 24.2 138.9 24.2 Z M 107.3 23.9 C 107.3 23.9 107.3 23.9 107.3 23.9 C 107.3 23.9 107.3 23.9 107.3 23.9 Z M 107.0 20.1 C 106.9 20.2 106.9 20.2 107.0 20.1 C 107.0 20.1 107.0 20.1 107.0 20.1 Z M 136.6 17.8 C 137.3 17.0 138.1 18.9 136.6 17.8 M 130.0 18.3 C 130.0 18.4 130.0 18.4 130.0 18.3 C 130.0 18.3 130.0 18.3 130.0 18.3 Z M 147.6 17.9 C 148.4 19.4 144.5 17.1 147.6 17.9 C 147.6 17.9 147.6 17.9 147.6 17.9 Z M 144.1 24.2 C 144.2 24.2 144.2 24.2 144.1 24.2 C 144.1 24.2 144.1 24.2 144.1 24.2 Z M 145.9 23.6 C 146.0 23.7 146.0 23.7 145.9 23.6 C 145.9 23.6 145.9 23.6 145.9 23.6 Z M 155.3 19.5 C 155.5 19.6 155.5 19.6 155.3 19.5 M 129.2 17.0 C 130.2 17.6 130.0 17.5 129.2 17.0 M 149.8 18.0 C 149.7 18.0 149.7 18.0 149.8 18.0 C 149.8 18.0 149.8 18.0 149.8 18.0 Z M 157.4 18.6 C 157.3 18.7 157.3 18.7 157.4 18.6 C 157.4 18.6 157.4 18.6 157.4 18.6 Z M 124.5 18.0 C 124.7 19.8 123.8 19.4 124.5 18.0 M 111.5 18.6 C 111.5 18.7 111.5 18.7 111.5 18.6 C 111.5 18.6 111.5 18.6 111.5 18.6 Z M 167.8 17.3 C 164.2 15.3 164.2 18.1 164.2 18.2 C 164.6 14.4 161.1 19.7 161.8 20.5 C 161.7 21.0 164.4 27.6 166.9 23.6 C 167.6 23.1 168.0 24.3 168.5 24.4 C 172.8 24.2 165.5 22.3 170.8 22.3 C 171.7 22.8 170.6 26.0 173.7 23.8 C 173.9 24.1 177.4 25.3 176.1 23.8 C 177.8 25.3 178.9 23.5 180.4 23.2 C 181.9 24.0 179.3 25.5 184.4 23.7 C 186.6 26.3 187.3 21.7 189.3 24.6 C 190.6 24.7 192.5 19.9 189.6 22.6 C 190.0 22.3 188.1 20.1 192.2 20.9 C 191.6 21.5 189.4 26.3 195.7 24.0 C 196.8 24.1 199.2 22.9 199.7 23.4 C 196.5 23.9 204.2 25.5 203.4 24.1 C 208.5 25.0 205.6 22.9 209.2 24.5 C 212.2 24.5 208.2 22.3 212.0 23.5 C 214.8 23.3 212.9 24.5 212.6 24.4 C 215.0 24.7 215.9 23.8 216.8 23.8 C 217.3 24.1 218.4 25.1 219.0 23.9 C 221.6 21.7 219.2 19.5 220.3 17.3 C 218.4 16.2 219.5 19.0 218.2 17.3 C 217.3 18.7 218.1 17.2 212.9 17.5 C 213.1 17.8 214.3 18.8 213.1 18.9 C 211.1 18.8 212.5 15.0 209.2 17.7 C 213.1 18.5 203.7 18.9 207.3 19.7 C 202.8 20.1 206.1 19.4 202.8 18.5 C 203.0 21.0 202.5 15.8 201.3 17.8 C 201.0 16.8 195.8 17.3 199.5 18.8 C 194.2 19.4 197.6 18.0 195.7 16.7 C 193.2 16.5 195.5 20.8 193.9 17.7 C 190.7 16.3 193.8 19.2 191.5 16.8 C 192.5 19.0 189.1 16.8 190.0 19.1 C 184.5 19.3 190.7 16.7 186.8 18.3 C 188.0 18.4 187.6 15.2 185.2 17.3 C 186.2 20.9 182.1 14.0 183.8 18.9 C 176.2 20.3 182.5 16.9 178.3 16.9 C 177.3 16.9 179.5 18.5 178.6 18.5 C 173.1 17.8 177.6 16.6 174.8 18.9 C 169.5 19.6 173.2 16.9 170.6 16.7 C 170.4 17.9 168.3 19.8 167.8 17.3 M 172.6 18.4 C 173.6 17.7 173.2 19.2 172.6 18.4 M 161.8 17.3 C 162.9 16.6 162.5 18.1 161.8 17.3 M 177.0 17.7 C 178.4 16.9 177.4 19.0 177.0 17.7 M 205.8 18.8 C 203.8 18.8 206.7 18.2 205.8 18.8 M 166.1 17.2 C 167.7 16.2 166.5 18.5 166.1 17.2 M 164.1 19.1 C 164.2 19.1 164.2 19.1 164.1 19.1 M 208.6 16.8 C 208.7 16.9 208.7 16.9 208.6 16.8 M 200.9 16.8 C 202.5 16.9 200.0 17.3 200.9 16.8 M 200.6 24.9 C 202.3 24.9 199.7 25.4 200.6 24.9 M 212.8 16.7 C 214.5 16.1 213.3 17.6 212.8 16.7 M 217.1 18.5 C 218.6 17.7 218.1 19.3 217.1 18.5 M 171.6 21.3 C 171.6 21.4 171.6 21.4 171.6 21.3 C 171.6 21.3 171.6 21.3 171.6 21.3 Z M 185.7 23.2 C 184.1 22.4 187.8 24.2 185.7 23.2 M 183.1 17.9 C 184.3 19.6 180.9 17.8 183.1 17.9 C 183.1 17.9 183.1 17.9 183.1 17.9 Z M 180.7 18.7 C 180.6 18.8 180.6 18.8 180.7 18.7 C 180.7 18.7 180.7 18.7 180.7 18.7 Z M 188.6 18.8 C 188.6 18.8 188.6 18.8 188.6 18.8 C 188.6 18.8 188.6 18.8 188.6 18.8 Z M 187.0 18.9 C 186.4 19.3 186.1 18.6 187.0 18.9 C 187.0 18.9 187.0 18.9 187.0 18.9 Z M 198.6 24.1 C 198.0 24.4 197.7 23.7 198.6 24.1 C 198.6 24.1 198.6 24.1 198.6 24.1 Z M 184.5 19.5 C 184.3 21.1 183.3 18.4 184.5 19.5 C 184.5 19.5 184.5 19.5 184.5 19.5 Z M 193.1 23.4 C 193.8 22.9 194.6 24.9 193.1 23.4 M 210.2 17.1 C 210.9 16.7 211.7 18.7 210.2 17.1 M 193.3 16.7 C 194.0 16.3 194.8 18.3 193.3 16.7 M 173.5 17.7 C 173.6 17.9 173.6 17.9 173.5 17.7 M 182.9 24.8 C 184.0 24.2 183.4 25.5 182.9 24.8 M 166.9 24.3 C 168.1 23.7 167.5 25.0 166.9 24.3 M 207.9 24.7 C 207.8 24.3 209.6 24.9 207.9 24.7 M 195.3 19.3 C 196.8 19.5 198.3 20.4 195.2 20.3 C 195.0 19.9 196.0 19.7 195.3 19.3 C 195.3 19.3 195.3 19.3 195.3 19.3 Z M 200.7 23.0 C 200.9 23.2 200.9 23.2 200.7 23.0 M 197.9 17.8 C 198.2 17.9 198.2 17.9 197.9 17.8 M 206.6 17.9 C 206.8 18.2 206.8 18.2 206.6 17.9 M 207.7 17.5 C 207.7 17.5 207.7 17.5 207.7 17.5 C 207.7 17.5 207.7 17.5 207.7 17.5 Z M 217.2 16.8 C 217.1 16.8 217.1 16.8 217.2 16.8 C 217.2 16.8 217.2 16.8 217.2 16.8 Z M 203.8 18.1 C 203.8 18.2 203.8 18.2 203.8 18.1 C 203.8 18.1 203.8 18.1 203.8 18.1 Z M 211.7 24.4 C 211.7 24.4 211.7 24.4 211.7 24.4 C 211.7 24.4 211.7 24.4 211.7 24.4 Z M 210.7 23.4 C 210.7 23.4 210.7 23.4 210.7 23.4 C 210.7 23.4 210.7 23.4 210.7 23.4 Z M 168.5 17.3 C 169.9 16.1 169.3 20.1 168.5 17.3 M 214.9 23.4 C 216.2 24.5 212.7 23.6 214.9 23.4 C 214.9 23.4 214.9 23.4 214.9 23.4 Z M 202.8 19.5 C 202.9 19.7 202.9 19.7 202.8 19.5 M 208.2 17.6 C 208.3 17.8 208.3 17.8 208.2 17.6 M 183.1 16.4 C 183.2 16.7 183.2 16.7 183.1 16.4 M 214.9 17.9 C 218.9 18.3 213.1 20.2 214.9 17.9 M 181.2 18.0 C 181.1 17.9 181.1 17.9 181.2 18.0 M 190.3 21.0 C 193.0 20.9 189.3 22.0 190.3 21.0 M 197.2 18.9 C 197.1 19.0 197.1 19.0 197.2 18.9 C 197.2 18.9 197.2 18.9 197.2 18.9 Z M 193.2 19.0 C 191.2 19.2 192.7 18.5 193.2 19.0 C 193.2 19.0 193.2 19.0 193.2 19.0 Z M 170.5 18.8 C 173.0 19.0 167.8 19.3 170.5 18.8 C 170.5 18.8 170.5 18.8 170.5 18.8 Z M 213.1 21.7 C 213.0 21.8 213.0 21.8 213.1 21.7 C 213.1 21.7 213.1 21.7 213.1 21.7 Z M 203.3 17.0 C 202.2 17.4 202.8 16.5 203.3 17.0 C 203.3 17.0 203.3 17.0 203.3 17.0 Z M 218.6 16.8 C 217.4 17.2 218.0 16.3 218.6 16.8 C 218.6 16.8 218.6 16.8 218.6 16.8 Z M 167.4 18.5 C 176.8 21.2 154.9 17.9 167.4 18.5 C 167.4 18.5 167.4 18.5 167.4 18.5 Z M 194.8 17.8 C 194.7 17.9 194.7 17.9 194.8 17.8 C 194.8 17.8 194.8 17.8 194.8 17.8 Z M 177.5 16.8 C 177.4 16.9 177.4 16.9 177.5 16.8 C 177.5 16.8 177.5 16.8 177.5 16.8 Z M 174.6 18.3 C 174.5 18.4 174.5 18.4 174.6 18.3 C 174.6 18.3 174.6 18.3 174.6 18.3 Z M 175.4 24.7 C 175.4 24.8 175.4 24.8 175.4 24.7 C 175.4 24.7 175.4 24.7 175.4 24.7 Z M 176.4 21.7 C 176.3 21.9 176.3 21.9 176.4 21.7 C 176.4 21.7 176.4 21.7 176.4 21.7 Z M 170.4 22.9 C 170.3 23.0 170.3 23.0 170.4 22.9 C 170.4 22.9 170.4 22.9 170.4 22.9 Z M 170.5 23.7 C 170.5 23.8 170.5 23.8 170.5 23.7 C 170.5 23.7 170.5 23.7 170.5 23.7 Z M 208.2 19.4 C 208.2 19.5 208.2 19.5 208.2 19.4 C 208.2 19.4 208.2 19.4 208.2 19.4 Z M 205.0 22.1 C 207.2 21.1 204.4 23.5 205.0 22.1 C 205.0 22.1 205.0 22.1 205.0 22.1 Z M 185.7 20.8 C 187.7 20.5 184.4 21.7 185.7 20.8 C 185.7 20.8 185.7 20.8 185.7 20.8 Z M 187.9 24.3 C 187.9 24.3 187.9 24.3 187.9 24.3 C 187.9 24.3 187.9 24.3 187.9 24.3 Z M 174.6 16.7 C 174.5 16.9 174.5 16.9 174.6 16.7 C 174.6 16.7 174.6 16.7 174.6 16.7 Z M 170.9 17.8 C 170.7 19.2 169.8 17.2 170.9 17.8 M 189.4 17.0 C 189.4 17.2 189.4 17.2 189.4 17.0 C 189.4 17.0 189.4 17.0 189.4 17.0 Z M 201.1 19.1 C 201.1 19.2 201.1 19.2 201.1 19.1 C 201.1 19.1 201.1 19.1 201.1 19.1 Z M 212.8 18.2 C 212.7 18.4 212.7 18.4 212.8 18.2 C 212.8 18.2 212.8 18.2 212.8 18.2 Z M 196.7 17.2 C 196.6 17.3 196.6 17.3 196.7 17.2 C 196.7 17.2 196.7 17.2 196.7 17.2 Z M 191.2 18.4 C 191.1 18.6 191.1 18.6 191.2 18.4 C 191.2 18.4 191.2 18.4 191.2 18.4 Z M 215.3 20.1 C 215.3 20.2 215.3 20.2 215.3 20.1 C 215.3 20.1 215.3 20.1 215.3 20.1 Z M 198.0 17.0 C 198.0 17.0 198.0 17.0 198.0 17.0 C 198.0 17.0 198.0 17.0 198.0 17.0 Z M 201.4 21.2 C 201.3 21.3 201.3 21.3 201.4 21.2 C 201.4 21.2 201.4 21.2 201.4 21.2 Z M 171.4 15.9 C 171.4 16.0 171.4 16.0 171.4 15.9 C 171.4 15.9 171.4 15.9 171.4 15.9 Z M 215.4 18.3 C 215.4 18.3 215.4 18.3 215.4 18.3 C 215.4 18.3 215.4 18.3 215.4 18.3 Z M 216.2 17.1 C 216.1 17.1 216.1 17.1 216.2 17.1 C 216.2 17.1 216.2 17.1 216.2 17.1 Z M 207.9 23.5 C 203.8 22.8 211.6 23.2 208.6 21.7 C 214.5 21.4 208.8 23.6 207.9 23.5 C 207.9 23.5 207.9 23.5 207.9 23.5 Z M 221.7 16.6 C 219.4 18.4 219.4 20.1 220.4 22.0 C 221.5 22.9 221.5 19.3 221.5 22.4 C 218.9 23.0 222.7 27.0 222.6 23.0 C 226.0 22.5 223.2 25.6 225.2 24.0 C 228.9 23.6 227.0 24.8 229.8 24.5 C 231.5 22.3 231.5 25.6 232.2 23.5 C 230.8 25.8 235.2 22.9 235.3 23.9 C 232.7 25.3 245.1 23.9 238.4 23.3 C 241.1 22.2 240.6 24.1 241.5 24.3 C 242.7 23.0 246.1 25.4 247.7 24.0 C 247.4 23.8 246.6 23.7 246.3 23.2 C 245.8 22.4 248.2 23.4 248.0 23.4 C 249.1 22.9 253.5 21.5 248.8 23.9 C 248.6 24.9 252.6 23.4 252.5 24.3 C 256.6 24.4 253.5 22.2 255.3 23.8 C 258.3 23.8 260.4 23.8 260.4 23.5 C 262.1 23.8 262.5 25.0 264.1 23.8 C 267.7 26.2 266.6 19.3 268.0 23.9 C 269.0 22.8 270.0 25.8 269.9 22.9 C 268.6 24.3 276.0 25.2 272.8 23.1 C 273.6 22.4 278.3 26.0 277.6 23.1 C 279.2 21.0 278.9 18.9 275.3 16.8 C 275.7 18.5 271.5 15.1 274.2 18.0 C 277.3 18.9 268.6 19.0 270.4 18.0 C 270.9 14.6 266.2 20.1 264.3 17.7 C 265.8 19.0 258.7 19.7 260.8 17.2 C 259.4 17.0 259.1 18.2 257.7 16.7 C 262.0 16.9 256.1 19.4 256.3 17.8 C 257.0 16.9 250.7 16.1 251.3 17.5 C 253.6 21.0 249.7 16.8 248.6 18.2 C 245.1 19.0 249.1 15.2 246.5 17.8 C 245.8 17.4 241.1 17.4 244.1 16.6 C 245.2 17.0 241.3 20.5 240.8 17.5 C 245.8 15.8 235.1 16.6 236.8 17.5 C 244.5 19.1 228.6 19.4 234.6 17.7 C 231.2 16.1 235.7 17.1 231.4 17.8 C 232.0 18.7 228.7 19.7 229.5 17.8 C 228.8 14.9 228.3 21.6 225.7 17.7 C 225.3 16.0 220.5 18.9 222.4 17.1 C 222.5 16.9 221.8 16.5 221.7 16.6 M 223.2 16.9 C 222.6 17.5 222.3 16.1 223.2 16.9 M 222.6 17.5 C 222.5 17.5 222.5 17.5 222.6 17.5 C 222.6 17.5 222.6 17.5 222.6 17.5 Z M 230.8 17.9 C 230.7 17.8 230.7 17.8 230.8 17.9 C 230.8 17.9 230.8 17.9 230.8 17.9 Z M 237.3 25.0 C 237.2 24.9 237.2 24.9 237.3 25.0 C 237.3 25.0 237.3 25.0 237.3 25.0 Z M 236.3 18.1 C 236.2 18.0 236.2 18.0 236.3 18.1 C 236.3 18.1 236.3 18.1 236.3 18.1 Z M 227.9 18.4 C 227.8 18.4 227.8 18.4 227.9 18.4 C 227.9 18.4 227.9 18.4 227.9 18.4 Z M 235.7 17.0 C 236.2 18.1 233.8 16.2 235.8 16.9 C 235.9 16.9 235.5 16.9 235.7 17.0 M 242.9 16.6 C 242.9 16.7 242.9 16.7 242.9 16.6 M 258.6 24.9 C 258.7 25.0 258.7 25.0 258.6 24.9 M 259.9 16.4 C 260.1 16.6 260.1 16.6 259.9 16.4 M 250.0 17.6 C 252.2 17.5 250.5 18.2 250.0 17.6 M 265.7 17.0 C 262.9 16.3 268.6 16.4 265.7 17.0 M 268.3 16.4 C 268.6 16.5 268.6 16.5 268.3 16.4 M 255.9 16.8 C 255.9 16.9 255.9 16.9 255.9 16.8 C 255.9 16.8 255.9 16.8 255.9 16.8 Z M 249.1 17.2 C 246.2 16.6 252.0 16.2 249.1 17.2 M 231.7 16.9 C 233.3 16.4 231.7 18.3 231.7 16.9 M 228.5 17.5 C 228.5 17.6 228.5 17.6 228.5 17.5 C 228.5 17.5 228.5 17.5 228.5 17.5 Z M 261.3 17.0 C 261.2 17.0 261.2 17.0 261.3 17.0 C 261.3 17.0 261.3 17.0 261.3 17.0 Z M 264.4 16.8 C 264.3 16.8 264.3 16.8 264.4 16.8 C 264.4 16.8 264.4 16.8 264.4 16.8 Z M 269.7 24.6 C 269.6 24.6 269.6 24.6 269.7 24.6 C 269.7 24.6 269.7 24.6 269.7 24.6 Z M 230.9 20.7 C 228.8 20.2 233.1 18.2 232.7 20.1 C 232.9 20.9 231.2 20.6 230.9 20.7 M 247.0 19.6 C 247.5 22.2 244.9 16.0 247.0 19.6 M 268.7 18.1 C 270.9 21.3 266.0 15.9 268.7 18.1 M 273.0 17.6 C 274.3 18.2 265.0 18.0 271.5 17.1 C 272.1 16.6 272.6 17.2 273.0 17.6 M 243.0 17.9 C 243.6 19.3 239.6 17.2 243.0 17.9 M 256.1 22.2 C 257.2 21.3 259.9 20.4 258.7 22.1 C 258.7 24.1 254.9 23.0 256.1 22.2 M 223.8 18.4 C 225.6 16.0 223.8 20.4 223.8 18.4 M 232.2 18.6 C 232.2 18.5 232.2 18.5 232.2 18.6 C 232.2 18.6 232.2 18.6 232.2 18.6 Z M 235.4 18.2 C 235.6 18.4 235.6 18.4 235.4 18.2 M 225.2 16.3 C 225.3 16.5 225.3 16.5 225.2 16.3 M 256.1 19.8 C 256.2 20.0 256.2 20.0 256.1 19.8 M 249.4 18.2 C 252.5 20.6 247.6 18.7 249.4 18.2 M 241.6 22.8 C 242.5 23.9 239.5 22.9 241.6 22.8 M 254.6 17.4 C 256.9 19.5 251.5 19.5 254.6 17.4 M 247.8 18.0 C 247.9 18.0 247.9 18.0 247.8 18.0 C 247.8 18.0 247.8 18.0 247.8 18.0 Z M 257.0 22.5 C 256.9 22.5 256.9 22.5 257.0 22.5 C 257.0 22.5 257.0 22.5 257.0 22.5 Z M 257.9 22.4 C 257.8 22.4 257.8 22.4 257.9 22.4 C 257.9 22.4 257.9 22.4 257.9 22.4 Z M 257.4 17.1 C 257.3 17.1 257.3 17.1 257.4 17.1 C 257.4 17.1 257.4 17.1 257.4 17.1 Z M 228.3 23.6 C 230.6 23.8 226.5 24.0 228.3 23.6 C 228.3 23.6 228.3 23.6 228.3 23.6 Z M 238.3 17.0 C 242.1 18.8 235.7 18.7 238.3 17.0 C 238.3 17.0 238.3 17.0 238.3 17.0 Z M 242.6 19.9 C 242.6 20.0 242.6 20.0 242.6 19.9 C 242.6 19.9 242.6 19.9 242.6 19.9 Z M 253.2 16.0 C 253.2 16.1 253.2 16.1 253.2 16.0 C 253.2 16.0 253.2 16.0 253.2 16.0 Z M 229.5 23.9 C 229.5 24.0 229.5 24.0 229.5 23.9 C 229.5 23.9 229.5 23.9 229.5 23.9 Z M 263.8 18.3 C 263.8 18.4 263.8 18.4 263.8 18.3 C 263.8 18.3 263.8 18.3 263.8 18.3 Z M 250.8 22.8 C 251.6 22.0 251.0 23.5 250.8 22.8 C 250.8 22.8 250.8 22.8 250.8 22.8 Z M 254.2 22.9 C 254.3 22.8 254.3 22.8 254.2 22.9 C 254.2 22.9 254.2 22.9 254.2 22.9 Z M 269.2 16.2 C 269.3 16.2 269.3 16.2 269.2 16.2 C 269.2 16.2 269.2 16.2 269.2 16.2 Z M 262.9 24.9 C 262.9 24.9 262.9 24.9 262.9 24.9 C 262.9 24.9 262.9 24.9 262.9 24.9 Z M 265.7 22.3 C 265.6 22.3 265.6 22.3 265.7 22.3 C 265.7 22.3 265.7 22.3 265.7 22.3 Z M 256.8 17.6 C 260.2 17.2 256.0 18.6 256.8 17.6 C 256.8 17.6 256.8 17.6 256.8 17.6 Z M 274.1 21.6 C 274.2 21.7 274.2 21.7 274.1 21.6 C 274.1 21.6 274.1 21.6 274.1 21.6 Z M 275.8 18.5 C 275.9 18.7 275.9 18.7 275.8 18.5 C 275.8 18.5 275.8 18.5 275.8 18.5 Z M 276.6 16.9 C 276.7 17.1 276.7 17.1 276.6 16.9 C 276.6 16.9 276.6 16.9 276.6 16.9 Z M 235.4 21.4 C 235.3 21.3 235.3 21.3 235.4 21.4 C 235.4 21.4 235.4 21.4 235.4 21.4 Z M 234.0 16.5 C 234.0 16.5 234.0 16.5 234.0 16.5 C 234.0 16.5 234.0 16.5 234.0 16.5 Z M 238.6 16.3 C 238.6 16.2 238.6 16.2 238.6 16.3 C 238.6 16.3 238.6 16.3 238.6 16.3 Z M 234.6 24.4 C 234.5 24.4 234.5 24.4 234.6 24.4 C 234.6 24.4 234.6 24.4 234.6 24.4 Z M 251.7 20.2 C 251.7 20.1 251.7 20.1 251.7 20.2 C 251.7 20.2 251.7 20.2 251.7 20.2 Z M 253.4 22.2 C 253.3 22.1 253.3 22.1 253.4 22.2 C 253.4 22.2 253.4 22.2 253.4 22.2 Z M 249.4 24.8 C 249.4 24.8 249.4 24.8 249.4 24.8 C 249.4 24.8 249.4 24.8 249.4 24.8 Z M 254.6 23.9 C 254.6 23.8 254.6 23.8 254.6 23.9 C 254.6 23.9 254.6 23.9 254.6 23.9 Z M 223.0 23.5 C 223.0 23.6 223.0 23.6 223.0 23.5 C 223.0 23.5 223.0 23.5 223.0 23.5 Z M 222.7 19.8 C 222.6 19.9 222.6 19.9 222.7 19.8 C 222.7 19.8 222.7 19.8 222.7 19.8 Z M 252.3 17.4 C 253.0 16.6 253.8 18.5 252.3 17.4 M 245.7 17.9 C 245.7 18.0 245.7 18.0 245.7 17.9 C 245.7 17.9 245.7 17.9 245.7 17.9 Z M 263.3 17.5 C 264.1 19.0 260.2 16.8 263.3 17.5 C 263.3 17.5 263.3 17.5 263.3 17.5 Z M 259.8 23.9 C 259.9 23.9 259.9 23.9 259.8 23.9 C 259.8 23.9 259.8 23.9 259.8 23.9 Z M 261.6 23.2 C 261.7 23.4 261.7 23.4 261.6 23.2 C 261.6 23.2 261.6 23.2 261.6 23.2 Z M 271.0 19.1 C 271.2 19.2 271.2 19.2 271.0 19.1 M 244.9 16.6 C 245.9 17.3 245.7 17.1 244.9 16.6 M 265.5 17.6 C 265.4 17.6 265.4 17.6 265.5 17.6 C 265.5 17.6 265.5 17.6 265.5 17.6 Z M 273.1 18.3 C 273.0 18.3 273.0 18.3 273.1 18.3 C 273.1 18.3 273.1 18.3 273.1 18.3 Z M 240.2 17.6 C 240.4 19.4 239.5 19.0 240.2 17.6 M 227.2 18.2 C 227.2 18.4 227.2 18.4 227.2 18.2 C 227.2 18.2 227.2 18.2 227.2 18.2 Z M 283.5 16.9 C 279.9 14.9 279.9 17.8 279.9 17.8 C 280.3 14.0 276.8 19.4 277.5 20.1 C 277.3 20.6 280.1 27.3 282.6 23.3 C 283.3 22.7 283.7 23.9 284.2 24.0 C 288.5 23.8 281.2 21.9 286.5 21.9 C 287.4 22.5 286.3 25.6 289.4 23.4 C 289.6 23.7 293.1 24.9 291.8 23.4 C 293.5 24.9 294.6 23.1 296.1 22.8 C 297.6 23.6 295.0 25.1 300.1 23.3 C 302.3 26.0 303.0 21.4 305.0 24.2 C 306.3 24.3 308.2 19.6 305.3 22.3 C 305.7 22.0 303.8 19.7 307.9 20.5 C 307.3 21.1 305.1 26.0 311.4 23.6 C 312.5 23.7 314.9 22.5 315.4 23.0 C 312.2 23.6 319.9 25.1 319.1 23.7 C 324.2 24.7 321.3 22.5 324.9 24.1 C 327.9 24.1 323.9 21.9 327.7 23.2 C 330.5 22.9 328.6 24.1 328.3 24.1 C 330.7 24.3 331.6 23.4 332.5 23.5 C 333.0 23.7 334.1 24.7 334.7 23.5 C 337.3 21.3 334.9 19.1 336.0 16.9 C 334.1 15.9 335.2 18.6 333.9 16.9 C 333.0 18.3 333.8 16.8 328.6 17.1 C 328.8 17.5 330.0 18.4 328.8 18.6 C 326.8 18.4 328.2 14.7 324.9 17.3 C 328.8 18.1 319.4 18.5 323.0 19.3 C 318.5 19.8 321.8 19.0 318.5 18.1 C 318.7 20.6 318.2 15.4 317.0 17.5 C 316.7 16.4 311.5 16.9 315.2 18.4 C 309.9 19.1 313.3 17.6 311.4 16.3 C 308.9 16.2 311.2 20.4 309.6 17.3 C 306.4 15.9 309.5 18.9 307.2 16.5 C 308.2 18.6 304.8 16.4 305.7 18.8 C 300.2 19.0 306.4 16.3 302.5 17.9 C 303.7 18.0 303.3 14.9 300.9 16.9 C 301.9 20.6 297.8 13.6 299.5 18.5 C 291.9 19.9 298.2 16.5 294.0 16.5 C 293.0 16.5 295.2 18.1 294.3 18.2 C 288.8 17.5 293.3 16.2 290.5 18.6 C 285.1 19.2 288.9 16.5 286.3 16.4 C 286.1 17.5 284.0 19.5 283.5 16.9 M 288.3 18.1 C 289.3 17.3 288.9 18.9 288.3 18.1 M 277.5 17.0 C 278.6 16.2 278.2 17.8 277.5 17.0 M 292.7 17.4 C 294.1 16.6 293.1 18.6 292.7 17.4 M 321.5 18.5 C 319.5 18.5 322.4 17.8 321.5 18.5 M 281.8 16.8 C 283.3 15.9 282.2 18.1 281.8 16.8 M 279.8 18.7 C 279.9 18.7 279.9 18.7 279.8 18.7 M 324.3 16.5 C 324.4 16.5 324.4 16.5 324.3 16.5 M 316.6 16.5 C 318.2 16.5 315.7 17.0 316.6 16.5 M 316.3 24.5 C 318.0 24.6 315.4 25.0 316.3 24.5 M 328.5 16.3 C 330.2 15.7 329.0 17.2 328.5 16.3 M 332.8 18.1 C 334.3 17.4 333.8 18.9 332.8 18.1 M 287.3 20.9 C 287.3 21.0 287.3 21.0 287.3 20.9 C 287.3 20.9 287.3 20.9 287.3 20.9 Z M 301.4 22.9 C 299.8 22.1 303.5 23.8 301.4 22.9 M 298.8 17.6 C 300.0 19.2 296.6 17.5 298.8 17.6 C 298.8 17.6 298.8 17.6 298.8 17.6 Z M 296.4 18.3 C 296.3 18.4 296.3 18.4 296.4 18.3 C 296.4 18.3 296.4 18.3 296.4 18.3 Z M 304.3 18.4 C 304.3 18.4 304.3 18.4 304.3 18.4 C 304.3 18.4 304.3 18.4 304.3 18.4 Z M 302.7 18.5 C 302.1 18.9 301.8 18.2 302.7 18.5 C 302.7 18.5 302.7 18.5 302.7 18.5 Z M 314.3 23.7 C 313.6 24.1 313.4 23.4 314.3 23.7 C 314.3 23.7 314.3 23.7 314.3 23.7 Z M 300.2 19.1 C 300.0 20.8 299.0 18.0 300.2 19.1 C 300.2 19.1 300.2 19.1 300.2 19.1 Z M 308.8 23.0 C 309.5 22.6 310.2 24.5 308.8 23.0 M 325.9 16.8 C 326.6 16.3 327.4 18.3 325.9 16.8 M 309.0 16.3 C 309.7 15.9 310.5 17.9 309.0 16.3 M 289.2 17.4 C 289.3 17.5 289.3 17.5 289.2 17.4 M 298.6 24.4 C 299.7 23.8 299.1 25.2 298.6 24.4 M 282.6 23.9 C 283.8 23.3 283.2 24.7 282.6 23.9 M 323.6 24.3 C 323.5 23.9 325.3 24.5 323.6 24.3 M 311.0 19.0 C 312.5 19.1 314.0 20.0 310.9 19.9 C 310.7 19.6 311.7 19.3 311.0 19.0 C 311.0 19.0 311.0 19.0 311.0 19.0 Z M 316.4 22.7 C 316.6 22.8 316.6 22.8 316.4 22.7 M 313.6 17.4 C 313.9 17.6 313.9 17.6 313.6 17.4 M 322.3 17.6 C 322.5 17.8 322.5 17.8 322.3 17.6 M 323.4 17.1 C 323.3 17.2 323.3 17.2 323.4 17.1 C 323.4 17.1 323.4 17.1 323.4 17.1 Z M 332.9 16.4 C 332.8 16.5 332.8 16.5 332.9 16.4 C 332.9 16.4 332.9 16.4 332.9 16.4 Z M 319.5 17.8 C 319.5 17.9 319.5 17.9 319.5 17.8 C 319.5 17.8 319.5 17.8 319.5 17.8 Z M 327.4 24.0 C 327.4 24.1 327.4 24.1 327.4 24.0 C 327.4 24.0 327.4 24.0 327.4 24.0 Z M 326.4 23.0 C 326.4 23.1 326.4 23.1 326.4 23.0 C 326.4 23.0 326.4 23.0 326.4 23.0 Z M 284.2 16.9 C 285.5 15.8 285.0 19.8 284.2 16.9 M 330.6 23.0 C 331.9 24.1 328.4 23.3 330.6 23.0 C 330.6 23.0 330.6 23.0 330.6 23.0 Z M 318.5 19.2 C 318.6 19.4 318.6 19.4 318.5 19.2 M 323.9 17.2 C 324.0 17.5 324.0 17.5 323.9 17.2 M 298.8 16.1 C 298.9 16.3 298.9 16.3 298.8 16.1 M 330.6 17.5 C 334.6 17.9 328.8 19.9 330.6 17.5 M 296.9 17.7 C 296.8 17.5 296.8 17.5 296.9 17.7 M 306.0 20.7 C 308.7 20.6 305.0 21.6 306.0 20.7 M 312.9 18.6 C 312.8 18.7 312.8 18.7 312.9 18.6 C 312.9 18.6 312.9 18.6 312.9 18.6 Z M 308.9 18.6 C 306.9 18.8 308.4 18.1 308.9 18.6 C 308.9 18.6 308.9 18.6 308.9 18.6 Z M 286.1 18.4 C 288.7 18.7 283.5 19.0 286.1 18.4 C 286.1 18.4 286.1 18.4 286.1 18.4 Z M 328.8 21.3 C 328.7 21.5 328.7 21.5 328.8 21.3 C 328.8 21.3 328.8 21.3 328.8 21.3 Z M 319.0 16.6 C 317.9 17.1 318.5 16.2 319.0 16.6 C 319.0 16.6 319.0 16.6 319.0 16.6 Z M 334.3 16.4 C 333.1 16.8 333.7 15.9 334.3 16.4 C 334.3 16.4 334.3 16.4 334.3 16.4 Z M 283.1 18.2 C 292.5 20.8 270.6 17.5 283.1 18.2 C 283.1 18.2 283.1 18.2 283.1 18.2 Z M 310.5 17.5 C 310.4 17.6 310.4 17.6 310.5 17.5 C 310.5 17.5 310.5 17.5 310.5 17.5 Z M 293.2 16.4 C 293.1 16.5 293.1 16.5 293.2 16.4 C 293.2 16.4 293.2 16.4 293.2 16.4 Z M 290.2 17.9 C 290.2 18.0 290.2 18.0 290.2 17.9 C 290.2 17.9 290.2 17.9 290.2 17.9 Z M 291.1 24.3 C 291.1 24.4 291.1 24.4 291.1 24.3 C 291.1 24.3 291.1 24.3 291.1 24.3 Z M 292.1 21.4 C 292.0 21.6 292.0 21.6 292.1 21.4 C 292.1 21.4 292.1 21.4 292.1 21.4 Z M 286.1 22.5 C 286.0 22.6 286.0 22.6 286.1 22.5 C 286.1 22.5 286.1 22.5 286.1 22.5 Z M 286.2 23.4 C 286.2 23.4 286.2 23.4 286.2 23.4 C 286.2 23.4 286.2 23.4 286.2 23.4 Z M 323.9 19.0 C 323.9 19.2 323.9 19.2 323.9 19.0 C 323.9 19.0 323.9 19.0 323.9 19.0 Z M 320.7 21.7 C 322.9 20.8 320.1 23.1 320.7 21.7 C 320.7 21.7 320.7 21.7 320.7 21.7 Z M 301.4 20.5 C 303.4 20.1 300.1 21.3 301.4 20.5 C 301.4 20.5 301.4 20.5 301.4 20.5 Z M 303.6 24.0 C 303.6 24.0 303.6 24.0 303.6 24.0 C 303.6 24.0 303.6 24.0 303.6 24.0 Z M 290.3 16.4 C 290.2 16.5 290.2 16.5 290.3 16.4 C 290.3 16.4 290.3 16.4 290.3 16.4 Z M 286.6 17.5 C 286.4 18.8 285.5 16.8 286.6 17.5 M 305.1 16.6 C 305.1 16.8 305.1 16.8 305.1 16.6 C 305.1 16.6 305.1 16.6 305.1 16.6 Z M 316.8 18.7 C 316.8 18.8 316.8 18.8 316.8 18.7 C 316.8 18.7 316.8 18.7 316.8 18.7 Z M 328.5 17.8 C 328.4 18.0 328.4 18.0 328.5 17.8 C 328.5 17.8 328.5 17.8 328.5 17.8 Z M 312.4 16.8 C 312.3 17.0 312.3 17.0 312.4 16.8 C 312.4 16.8 312.4 16.8 312.4 16.8 Z M 306.9 18.0 C 306.8 18.2 306.8 18.2 306.9 18.0 C 306.9 18.0 306.9 18.0 306.9 18.0 Z M 331.0 19.7 C 331.0 19.8 331.0 19.8 331.0 19.7 C 331.0 19.7 331.0 19.7 331.0 19.7 Z M 313.7 16.6 C 313.7 16.6 313.7 16.6 313.7 16.6 C 313.7 16.6 313.7 16.6 313.7 16.6 Z M 317.1 20.9 C 317.0 21.0 317.0 21.0 317.1 20.9 C 317.1 20.9 317.1 20.9 317.1 20.9 Z M 287.1 15.6 C 287.1 15.6 287.1 15.6 287.1 15.6 C 287.1 15.6 287.1 15.6 287.1 15.6 Z M 331.1 17.9 C 331.1 18.0 331.1 18.0 331.1 17.9 C 331.1 17.9 331.1 17.9 331.1 17.9 Z M 331.9 16.7 C 331.8 16.8 331.8 16.8 331.9 16.7 C 331.9 16.7 331.9 16.7 331.9 16.7 Z M 323.6 23.1 C 319.5 22.4 327.3 22.8 324.3 21.4 C 330.2 21.0 324.5 23.2 323.6 23.1 C 323.6 23.1 323.6 23.1 323.6 23.1 Z M 323.6 23.1 " fill="#FFFFFF"></path><path d="M 33.3 2.1 C 33.5 1.3 35.8 0.5 34.2 2.0 C 34.1 2.1 33.3 2.4 33.3 2.1 Z M 29.9 4.1 C 30.1 3.9 30.3 3.8 30.6 3.9 C 31.4 4.3 28.9 4.6 29.9 4.1 Z M 35.3 1.8 C 35.4 1.6 36.5 0.9 36.4 1.3 C 36.3 1.6 35.3 1.8 35.3 1.8 Z M 27.5 7.3 C 27.4 7.0 28.6 6.3 28.9 6.3 C 29.7 6.4 27.8 8.0 27.5 7.3 Z M 37.1 13.2 C 37.1 13.3 37.1 13.4 37.1 13.5 C 37.1 13.4 37.1 13.3 37.1 13.2 Z M 11.0 16.3 C 11.1 16.1 11.7 16.1 11.8 16.4 C 11.8 16.8 10.3 16.8 11.0 16.3 Z M 37.8 36.1 C 37.8 36.1 38.1 35.5 38.3 35.8 C 38.5 36.0 38.0 36.2 37.8 36.1 Z M 38.2 36.0 C 38.5 35.9 38.7 36.4 38.4 36.4 C 38.1 36.2 37.9 36.2 38.2 36.0 Z M 19.7 31.3 C 19.5 31.2 19.4 31.2 19.6 31.1 C 19.8 31.0 19.9 31.4 19.7 31.3 Z M 20.4 31.2 C 20.7 31.0 20.8 31.6 20.5 31.5 C 20.2 31.4 20.0 31.3 20.4 31.2 Z M 22.9 34.8 C 22.8 34.7 22.6 34.7 22.8 34.6 C 23.0 34.6 23.2 34.9 22.9 34.8 Z M 38.7 26.6 C 38.9 26.8 38.7 27.5 38.4 27.4 C 38.0 27.4 38.5 26.4 38.7 26.6 Z M 38.9 27.6 C 39.2 27.5 39.3 28.0 39.0 27.9 C 38.8 27.8 38.7 27.6 38.9 27.6 Z M 38.4 24.7 C 38.0 24.7 38.0 23.9 38.1 23.7 C 38.2 23.5 38.3 23.1 38.4 22.9 C 38.4 22.8 38.9 24.7 38.4 24.7 Z M 38.0 18.5 C 38.1 18.5 38.2 18.6 38.1 18.9 C 37.9 19.1 37.8 18.5 38.0 18.5 Z M 38.2 22.0 C 38.4 22.0 38.4 22.1 38.3 22.3 C 38.2 22.6 38.1 22.0 38.2 22.0 Z M 20.6 10.5 C 20.4 10.4 21.4 10.0 21.4 10.0 C 21.6 10.0 21.2 10.2 21.5 10.2 C 21.8 10.2 21.6 11.1 20.6 10.5 Z M 28.0 5.4 C 28.2 5.3 28.3 5.4 28.3 5.6 C 28.3 5.6 27.5 5.8 28.0 5.4 Z M 22.4 10.9 C 22.3 10.7 22.5 10.7 22.6 10.7 C 22.6 10.8 22.4 10.9 22.4 10.9 Z M 21.9 11.4 C 22.0 11.2 22.6 11.2 22.7 11.5 C 22.7 11.9 21.2 11.9 21.9 11.4 Z M 19.3 10.8 C 19.6 10.7 19.6 10.7 19.5 10.9 C 19.4 11.1 19.3 10.8 19.3 10.8 Z M 23.5 7.7 C 23.8 7.6 23.8 7.6 23.7 7.8 C 23.6 8.0 23.5 7.7 23.5 7.7 Z M 17.6 12.6 C 17.6 12.6 18.0 11.9 18.4 12.3 C 19.0 12.9 17.6 12.6 17.6 12.6 Z M 14.9 15.1 C 15.1 15.1 15.1 15.3 14.9 15.4 C 14.6 15.4 14.7 15.2 14.9 15.1 Z M 14.4 16.9 C 13.9 17.0 13.5 16.8 14.1 16.6 C 14.6 16.3 14.8 16.8 14.4 16.9 Z M 14.8 16.3 C 14.9 16.4 14.7 16.5 14.6 16.4 C 14.5 16.3 14.7 16.2 14.8 16.3 Z M 17.0 13.9 C 17.1 13.6 17.6 13.7 17.3 14.1 C 16.9 14.4 16.8 14.3 17.0 13.9 Z M 38.6 10.0 C 38.6 9.8 38.9 9.8 39.1 10.0 C 39.2 10.1 38.8 10.2 38.6 10.0 Z M 37.3 23.2 C 37.5 23.0 37.5 23.2 37.4 23.5 C 37.3 23.9 37.1 23.4 37.3 23.2 Z M 36.6 31.6 C 36.9 31.4 36.9 31.6 36.8 31.9 C 36.7 32.2 36.5 31.8 36.6 31.6 Z M 37.3 19.8 C 37.4 19.8 38.1 20.6 37.5 21.1 C 36.9 21.6 36.8 20.1 37.3 19.8 Z M 30.6 11.6 C 30.5 11.5 30.7 11.5 30.7 11.5 C 30.7 11.8 30.7 11.8 30.6 11.6 Z M 36.3 21.7 C 36.2 21.5 36.6 21.6 36.7 21.7 C 36.8 21.9 36.4 22.0 36.3 21.7 Z M 37.1 30.1 C 37.3 29.7 37.8 29.9 38.0 30.1 C 38.6 30.8 37.9 31.3 37.5 31.8 C 37.2 32.2 37.0 30.3 37.1 30.1 Z M 37.4 8.0 C 37.3 8.2 37.2 8.4 37.2 8.5 C 37.4 8.6 37.3 8.7 37.2 8.9 C 37.3 9.7 38.0 10.2 38.2 10.7 C 38.7 12.0 37.1 12.4 37.1 13.2 C 37.1 13.0 37.1 12.8 36.9 12.7 C 36.4 12.4 36.7 15.3 36.7 15.5 C 37.1 18.0 37.5 15.0 38.3 15.0 C 38.7 14.9 37.7 16.7 37.7 16.8 C 37.4 17.6 38.2 17.7 37.8 18.3 C 37.7 18.7 35.8 19.6 36.1 19.9 C 36.3 20.2 36.1 20.9 36.1 21.2 C 36.1 21.7 36.1 22.5 36.8 22.0 C 37.3 21.7 37.8 21.6 37.3 22.2 C 37.0 22.7 35.9 25.6 37.3 25.5 C 37.4 25.5 37.8 24.8 37.8 24.8 C 38.1 25.6 37.6 28.1 38.2 28.7 C 39.5 30.0 37.4 28.3 37.1 28.9 C 36.5 30.1 36.0 30.7 36.3 32.1 C 36.3 32.5 36.4 33.8 37.1 33.1 C 37.6 32.7 38.0 33.0 38.1 32.2 C 38.8 33.1 37.5 33.8 37.8 33.9 C 38.2 34.2 38.4 33.7 38.3 34.3 C 38.2 35.2 38.5 34.8 37.7 35.0 C 37.5 35.0 37.4 35.8 37.4 35.8 C 37.3 35.8 37.2 35.8 37.2 35.8 C 37.2 36.5 38.6 37.5 38.3 37.7 C 38.0 37.8 37.1 37.5 36.9 37.5 C 36.8 37.5 36.8 37.6 36.8 37.6 C 36.9 37.9 37.4 38.6 37.3 38.7 C 37.2 38.8 35.9 38.3 36.3 38.6 C 36.7 38.9 36.2 40.4 35.8 40.5 C 35.5 40.6 33.8 41.0 33.7 41.3 C 33.6 41.6 32.8 41.0 32.5 40.9 C 32.3 40.8 32.1 40.1 32.0 40.0 C 32.0 39.9 31.3 39.6 31.3 39.6 C 31.3 39.6 30.9 39.6 30.5 39.3 C 30.0 39.1 29.8 38.6 29.3 38.0 C 28.8 37.5 28.3 37.7 27.7 37.4 C 27.1 37.2 27.1 36.0 26.7 35.6 C 26.3 35.1 25.8 35.9 25.2 35.6 C 24.5 35.3 24.3 34.9 24.5 34.9 C 24.8 34.9 24.7 34.6 24.6 34.5 C 24.4 34.3 23.8 33.7 23.4 33.7 C 23.1 33.6 24.6 35.4 22.3 33.9 C 21.2 33.2 20.8 31.9 21.1 32.1 C 22.0 32.5 20.9 30.3 20.7 30.7 C 20.4 31.1 18.5 29.8 18.6 30.7 C 18.6 31.0 16.5 30.0 16.3 29.7 C 16.1 29.5 15.0 29.1 15.1 28.3 C 15.2 27.9 13.6 28.1 13.3 27.9 C 13.1 27.8 11.6 26.7 11.3 26.4 C 11.1 26.0 11.9 26.4 12.2 26.7 C 12.6 26.9 12.9 27.5 13.2 27.6 C 13.5 27.7 13.1 27.0 12.7 26.8 C 12.4 26.5 12.4 26.1 12.2 25.8 C 12.0 25.8 11.8 25.6 11.4 25.4 C 11.3 25.3 11.1 25.3 11.1 25.4 C 11.0 25.6 11.1 25.9 11.0 25.9 C 10.9 26.0 10.5 26.0 10.0 25.7 C 9.5 25.4 9.2 25.1 8.7 24.6 C 8.1 24.0 7.9 24.1 7.4 23.9 C 6.9 23.7 6.6 23.4 6.6 23.2 C 6.7 23.1 7.3 23.3 7.4 23.2 C 7.5 23.1 7.1 22.4 6.9 22.2 C 5.8 21.4 7.3 20.9 6.2 20.1 C 5.6 19.6 6.6 19.7 7.2 19.5 C 7.1 19.4 7.1 19.3 7.6 18.9 C 7.5 18.7 8.3 18.4 8.7 18.2 C 8.9 18.0 10.2 16.8 9.5 17.8 C 9.5 17.8 9.4 17.9 9.4 18.0 C 9.4 18.0 9.4 18.0 9.4 18.0 C 9.4 18.0 9.4 18.8 9.4 18.8 C 9.4 18.8 9.5 18.0 9.5 18.0 C 9.8 18.1 10.0 18.2 10.3 18.3 C 10.3 18.2 10.3 18.1 10.4 18.0 C 10.4 18.0 10.4 18.0 10.4 17.9 C 10.4 17.9 10.4 17.9 10.4 17.9 C 10.2 17.7 10.3 17.7 10.5 17.6 C 10.9 17.0 12.4 16.7 13.0 16.6 C 12.4 18.6 14.7 17.2 15.4 16.6 C 16.1 15.9 15.1 14.4 14.7 14.6 C 15.3 14.3 15.5 14.4 15.9 14.8 C 15.9 14.7 17.1 15.3 17.0 15.3 C 18.7 15.1 17.6 13.9 17.8 13.6 C 18.1 13.2 18.5 12.9 18.8 12.6 C 19.2 12.3 18.7 12.2 18.7 11.9 C 18.8 11.0 20.4 11.7 20.9 11.5 C 20.6 11.8 20.3 12.2 20.1 12.5 C 20.4 11.9 21.1 12.5 21.3 12.5 C 21.8 12.4 22.3 12.0 22.7 11.7 C 23.4 11.2 24.1 10.6 24.7 10.1 C 24.4 10.1 22.8 9.9 22.7 10.0 C 23.0 9.8 23.8 9.6 23.2 9.2 C 22.2 8.5 24.3 7.9 24.6 7.7 C 25.7 7.2 26.1 5.7 27.8 6.2 C 27.8 6.2 26.4 7.3 26.6 7.4 C 27.4 8.0 28.1 8.2 29.0 7.4 C 29.1 7.3 30.1 5.8 30.1 5.7 C 30.1 5.9 27.5 4.7 29.2 4.6 C 29.5 4.6 29.2 5.3 29.6 5.2 C 30.1 5.2 30.7 4.6 31.2 4.4 C 31.3 4.4 32.2 4.2 32.2 4.1 C 32.2 3.7 32.0 3.3 32.2 3.0 C 32.4 2.7 32.9 2.7 33.1 3.0 C 33.1 3.0 33.1 3.1 33.1 3.1 C 33.2 3.1 33.3 3.1 33.4 3.3 C 33.5 3.2 33.7 3.1 34.0 3.2 C 34.1 3.2 33.8 3.5 33.5 3.5 C 33.5 3.6 33.6 3.7 33.6 3.8 C 34.0 3.5 34.3 3.2 34.4 3.1 C 34.8 2.3 34.6 2.0 36.0 2.2 C 37.2 2.4 37.9 5.1 37.5 6.7 C 37.7 7.1 37.6 7.5 37.4 8.0 Z M 10.9 24.5 C 11.0 24.5 11.0 24.5 11.0 24.5 C 11.1 24.4 11.2 24.3 11.3 24.1 C 11.0 23.8 11.2 24.4 10.9 24.2 C 10.5 23.9 10.5 24.0 10.9 24.5 Z M 11.2 20.7 C 10.9 20.7 10.9 20.8 11.0 21.0 C 11.1 20.9 11.2 20.8 11.2 20.7 Z M 10.4 19.1 C 10.0 19.5 11.1 19.7 11.8 19.1 C 11.1 19.0 10.6 19.0 10.4 19.1 Z M 11.1 17.8 C 11.2 17.9 11.2 18.0 11.2 18.1 C 11.3 18.3 11.6 17.8 11.7 18.0 C 11.7 18.2 11.3 18.7 11.7 18.6 C 11.8 18.6 12.0 18.6 12.1 18.6 C 12.1 18.5 12.1 18.5 12.1 18.4 C 12.2 18.0 11.5 17.7 11.1 17.8 Z M 13.7 24.7 C 13.4 24.6 13.6 24.8 13.7 24.8 C 14.0 24.9 14.0 24.7 13.7 24.7 Z M 15.6 27.6 C 15.5 27.3 15.2 27.2 15.3 27.6 C 15.4 27.9 15.8 27.9 15.6 27.6 Z M 19.7 23.3 C 19.6 23.3 19.7 23.3 19.8 23.4 C 20.1 23.5 19.9 23.2 19.7 23.3 Z M 19.9 20.2 C 20.1 20.0 19.7 19.7 19.7 19.9 C 19.6 20.1 19.8 20.4 19.9 20.2 Z M 19.5 27.2 C 19.8 27.3 19.8 27.0 19.5 27.0 C 19.3 27.1 19.3 27.2 19.5 27.2 Z M 18.9 23.0 C 19.1 23.4 19.2 23.3 19.3 23.2 C 19.4 23.1 19.4 22.9 19.1 22.7 C 18.7 22.6 18.7 22.7 18.9 23.0 Z M 18.6 20.4 C 19.4 20.0 19.2 19.7 18.4 20.3 C 17.6 21.0 18.2 20.7 18.6 20.4 Z M 17.3 29.7 C 17.2 29.6 16.7 29.5 16.7 29.5 C 16.7 29.5 17.7 30.3 17.3 29.7 Z M 18.9 13.4 C 18.6 13.6 18.5 13.9 19.0 13.7 C 19.5 13.6 19.2 13.3 18.9 13.4 Z M 20.4 14.7 C 19.8 14.2 19.2 14.4 19.2 14.4 C 19.3 14.4 19.4 15.0 19.3 15.1 C 18.9 15.6 18.0 15.4 17.7 16.1 C 17.4 16.8 18.6 16.2 18.8 16.0 C 18.6 16.2 18.6 16.3 18.7 16.5 C 18.9 16.6 19.0 16.6 19.1 16.3 C 19.3 16.0 21.1 15.2 20.4 14.7 Z M 20.4 22.1 C 20.1 21.9 19.8 22.2 20.0 22.5 C 20.2 22.8 20.5 23.0 20.6 22.9 C 20.7 22.8 20.7 22.2 20.4 22.1 Z M 20.7 24.4 C 20.3 24.5 20.4 24.6 20.7 24.7 C 21.2 24.9 21.0 24.3 20.7 24.4 Z M 25.0 34.2 C 25.2 34.1 24.8 33.8 24.7 34.0 C 24.6 34.1 24.8 34.2 25.0 34.2 Z M 24.8 30.3 C 25.4 30.4 25.0 29.9 24.8 29.9 C 24.7 29.9 24.4 30.2 24.8 30.3 Z M 22.5 28.0 C 22.8 28.1 22.5 27.7 22.4 27.8 C 22.2 27.9 22.4 28.0 22.5 28.0 Z M 22.3 26.6 C 22.5 26.7 22.5 26.2 22.1 26.2 C 21.9 26.2 22.0 26.4 22.3 26.6 Z M 23.4 14.0 C 23.4 14.0 23.6 14.6 23.8 14.1 C 24.1 13.6 24.1 13.6 23.4 14.0 Z M 22.3 18.5 C 22.0 18.8 21.7 19.1 22.1 20.4 C 22.5 21.6 22.7 21.1 22.9 20.4 C 23.1 19.6 23.7 21.7 24.0 20.2 C 24.1 19.6 22.7 18.2 22.3 18.5 Z M 24.6 26.4 C 24.1 25.7 23.0 25.9 23.6 26.3 C 24.3 26.9 24.9 27.1 24.6 26.4 Z M 24.6 27.0 C 24.5 26.9 24.5 27.0 24.7 27.2 C 25.0 27.3 24.9 27.0 24.6 27.0 Z M 23.9 8.6 C 22.8 9.7 24.7 9.6 24.7 9.6 C 26.3 9.1 25.1 7.5 23.9 8.6 Z M 36.5 35.1 C 36.5 35.0 36.5 35.0 36.6 34.9 C 36.6 34.9 36.5 34.9 36.5 34.8 C 36.3 34.6 36.1 35.1 36.1 35.1 C 36.2 35.2 36.4 35.2 36.5 35.1 Z M 36.9 27.1 C 36.8 27.4 36.9 27.7 37.1 27.9 C 37.8 27.7 37.8 25.3 36.6 26.3 C 36.4 26.4 35.3 27.9 35.9 28.1 C 36.3 28.2 36.9 26.3 36.9 27.1 Z M 35.9 29.6 C 35.9 28.6 34.9 30.4 35.4 30.2 C 35.7 30.1 35.8 29.9 35.9 29.6 Z M 33.7 36.7 C 34.2 37.9 36.1 37.7 35.1 35.7 C 34.1 33.7 33.3 33.6 33.6 34.6 C 33.8 35.6 32.9 34.8 33.7 36.7 Z M 33.7 26.3 C 35.0 26.5 34.6 25.9 33.6 25.6 C 33.4 25.5 32.8 26.2 33.7 26.3 Z M 33.4 23.4 C 33.6 23.0 33.5 23.1 33.3 23.3 C 33.0 23.5 33.3 23.8 33.4 23.4 Z M 31.8 38.7 C 32.0 39.2 32.5 39.6 32.2 39.6 C 31.9 39.6 32.0 39.7 32.3 40.0 C 32.6 40.3 32.6 39.6 32.5 39.4 C 32.5 39.1 31.6 38.3 31.8 38.7 Z M 27.1 27.6 C 27.4 27.8 27.2 27.5 27.0 27.4 C 26.9 27.4 26.9 27.5 27.1 27.6 Z M 25.6 16.7 C 25.6 16.7 25.7 17.0 25.9 16.7 C 26.1 16.5 26.1 16.5 25.6 16.7 Z M 26.1 7.9 C 25.9 8.1 26.5 8.2 26.4 8.6 C 26.4 8.8 26.1 8.5 26.1 8.5 C 26.1 8.6 26.3 9.6 26.7 8.9 C 26.9 8.6 26.7 7.3 26.1 7.9 Z M 27.5 24.6 C 27.1 24.1 26.7 26.0 26.4 25.7 C 26.0 25.4 26.0 25.6 26.4 26.0 C 26.8 26.4 27.9 25.1 27.5 24.6 Z M 27.8 29.3 C 27.8 29.0 26.8 28.2 27.1 28.7 C 27.3 29.2 27.8 29.5 27.5 29.5 C 27.1 29.5 27.3 29.6 27.6 29.9 C 27.8 30.3 27.8 29.6 27.8 29.3 Z M 28.1 37.1 C 28.1 36.9 27.5 36.6 27.7 37.0 C 27.8 37.2 28.2 37.2 28.1 37.1 Z M 28.6 15.4 C 28.4 15.7 28.5 15.9 28.9 15.5 C 29.2 15.2 28.7 15.1 28.6 15.4 Z M 29.5 36.4 C 29.0 35.9 29.3 36.7 29.0 36.4 C 28.6 36.1 28.6 36.2 29.0 36.7 C 29.4 37.0 29.9 36.9 29.5 36.4 Z M 29.8 8.3 C 29.7 8.5 29.9 8.8 30.0 8.6 C 30.1 8.4 29.8 8.1 29.8 8.3 Z M 30.9 11.2 C 30.7 11.3 30.6 11.3 30.5 11.3 C 28.6 12.7 32.1 11.6 30.9 11.2 Z M 30.6 15.7 C 30.5 15.1 30.2 15.8 30.2 15.8 C 30.4 16.0 30.6 15.9 30.6 15.7 Z M 30.7 20.6 C 30.9 20.7 30.9 20.2 30.6 20.3 C 30.4 20.4 30.5 20.5 30.7 20.6 Z M 31.5 4.7 C 31.2 4.8 31.3 5.0 31.5 4.9 C 31.7 4.9 31.8 4.6 31.5 4.7 Z M 31.7 17.0 C 31.6 16.9 31.6 16.9 31.6 17.2 C 31.7 17.4 31.8 17.1 31.7 17.0 Z M 31.9 32.0 C 31.7 31.9 31.6 31.7 31.5 31.6 C 31.2 31.8 31.1 32.7 30.8 32.7 C 30.8 32.7 30.8 32.7 30.7 32.7 C 30.7 32.7 30.7 32.7 30.7 32.7 C 30.5 32.7 30.4 32.5 30.5 32.5 C 30.4 32.4 30.4 32.2 30.4 32.0 C 30.1 32.3 29.9 32.6 30.1 32.9 C 30.4 33.2 31.0 33.3 31.6 33.2 C 31.7 33.0 31.8 32.8 31.8 32.6 C 31.8 32.6 31.8 32.6 31.7 32.6 C 31.4 32.4 31.3 32.2 31.5 32.2 C 31.7 32.1 31.8 32.2 31.9 32.3 C 31.9 32.2 31.9 32.1 31.9 32.0 Z M 32.4 18.9 C 32.2 18.5 32.1 18.8 32.0 19.3 C 31.9 19.6 32.6 19.3 32.4 18.9 Z M 32.0 5.3 C 32.0 5.4 32.1 5.6 32.2 5.7 C 32.2 5.6 32.2 5.5 32.2 5.4 C 32.3 5.2 32.4 4.9 32.4 4.6 C 32.1 4.6 31.9 4.8 32.0 5.3 Z M 33.4 9.6 C 33.4 9.4 33.4 7.6 33.0 8.0 C 32.4 8.5 31.7 7.7 32.0 9.0 C 32.2 9.6 33.1 10.1 33.2 10.8 C 34.0 13.9 34.1 9.9 34.3 9.1 C 34.3 8.9 33.5 9.8 33.4 9.6 Z M 34.4 13.7 C 34.7 13.9 35.0 13.4 35.0 13.2 C 34.9 12.4 34.0 13.5 34.4 13.7 Z M 34.8 4.9 C 34.8 4.8 34.7 4.8 34.6 4.9 C 34.7 4.9 34.8 5.0 34.9 5.0 C 34.9 5.0 34.9 4.9 34.8 4.9 Z M 35.2 2.7 C 34.2 3.4 35.9 3.4 36.3 3.2 C 37.0 2.9 35.6 2.3 35.2 2.7 Z M 35.9 11.3 C 35.8 12.0 37.7 12.7 37.6 11.6 C 37.5 10.5 36.0 10.0 35.9 11.3 Z M 38.2 18.0 C 38.0 17.7 38.4 17.0 38.6 17.4 C 38.8 17.6 38.3 18.1 38.2 18.0 Z M 39.2 8.1 C 39.1 8.3 39.0 8.1 39.0 8.1 C 39.3 7.9 39.3 7.9 39.2 8.1 Z M 37.9 9.0 C 38.0 8.7 38.1 8.4 38.2 8.1 C 38.3 7.9 38.4 8.5 38.4 8.6 C 38.4 8.8 37.9 9.0 37.9 9.0 Z M 37.7 14.3 C 37.9 14.0 38.0 14.5 37.9 14.6 C 37.9 14.8 37.6 14.5 37.7 14.3 Z M 38.2 13.0 C 38.1 13.2 37.9 13.1 37.9 12.9 C 38.0 12.6 38.2 12.8 38.2 13.0 Z M 37.1 15.2 C 36.9 14.7 36.8 13.9 37.3 14.0 C 37.6 14.0 37.4 16.3 37.1 15.2 Z M 37.1 15.2 " fill="#FFFFFF"></path></g></svg>