<?xml version="1.0" encoding="UTF-8" standalone="no"?><svg xmlns="http://www.w3.org/2000/svg" xmlns:xlink="http://www.w3.org/1999/xlink" clip-rule="evenodd" stroke-miterlimit="10" viewBox="0 0 617 54"><desc>SVG generated by Keynote</desc><defs></defs><g transform="matrix(1.00, 0.00, -0.00, -1.00, 0.0, 54.0)"><text xml:space="preserve" font-family="NeuropolXFree,Neuropol X Free" font-size="72.0" fill="#FFF4FC" transform="matrix(1.00, 0.00, -0.00, -1.00, -4.6, 1.8)">I</text><text xml:space="preserve" font-family="NeuropolXFree,Neuropol X Free" font-size="72.0" fill="#FFF4FC" transform="matrix(1.00, 0.00, -0.00, -1.00, 17.1, 1.8)">N</text><text xml:space="preserve" font-family="NeuropolXFree,Neuropol X Free" font-size="72.0" fill="#FFF4FC" transform="matrix(1.00, 0.00, -0.00, -1.00, 91.1, 1.8)">T</text><text xml:space="preserve" font-family="NeuropolXFree,Neuropol X Free" font-size="72.0" fill="#FFF4FC" transform="matrix(1.00, 0.00, -0.00, -1.00, 146.9, 1.8)">E</text><text xml:space="preserve" font-family="NeuropolXFree,Neuropol X Free" font-size="72.0" fill="#FFF4FC" transform="matrix(1.00, 0.00, -0.00, -1.00, 212.2, 1.8)">R</text><text xml:space="preserve" font-family="NeuropolXFree,Neuropol X Free" font-size="72.0" fill="#FFF4FC" transform="matrix(1.00, 0.00, -0.00, -1.00, 281.6, 1.8)">A</text><text xml:space="preserve" font-family="NeuropolXFree,Neuropol X Free" font-size="72.0" fill="#FFF4FC" transform="matrix(1.00, 0.00, -0.00, -1.00, 347.7, 1.8)">T</text><text xml:space="preserve" font-family="NeuropolXFree,Neuropol X Free" font-size="72.0" fill="#FFF4FC" transform="matrix(1.00, 0.00, -0.00, -1.00, 403.5, 1.8)">T</text><text xml:space="preserve" font-family="NeuropolXFree,Neuropol X Free" font-size="72.0" fill="#FFF4FC" transform="matrix(1.00, 0.00, -0.00, -1.00, 459.4, 1.8)">I</text><text xml:space="preserve" font-family="NeuropolXFree,Neuropol X Free" font-size="72.0" fill="#FFF4FC" transform="matrix(1.00, 0.00, -0.00, -1.00, 481.2, 1.8)">V</text><text xml:space="preserve" font-family="NeuropolXFree,Neuropol X Free" font-size="72.0" fill="#FFF4FC" transform="matrix(1.00, 0.00, -0.00, -1.00, 555.3, 1.8)">E</text></g></svg>